<?xml version="1.0" encoding="UTF-8" standalone="no"?>
<!DOCTYPE svg PUBLIC "-//W3C//DTD SVG 1.1//EN"
 "http://www.w3.org/Graphics/SVG/1.1/DTD/svg11.dtd">
<!-- Generated by graphviz version 2.43.0 (0)
 -->
<!-- Title: main Pages: 1 -->
<svg width="572pt" height="289pt"
 viewBox="0.00 0.00 572.00 289.47" xmlns="http://www.w3.org/2000/svg" xmlns:xlink="http://www.w3.org/1999/xlink">
<g id="graph0" class="graph" transform="scale(1 1) rotate(0) translate(4 285.47)">
<title>main</title>
<!-- Node1 -->
<g id="node1" class="node">
<title>Node1</title>
<g id="a_node1"><a xlink:title=" ">
<polygon fill="#bfbfbf" stroke="black" points="0,-142.97 0,-161.97 41,-161.97 41,-142.97 0,-142.97"/>
<text text-anchor="middle" x="20.5" y="-149.97" font-family="Helvetica,sans-Serif" font-size="10.00">main</text>
</a>
</g>
</g>
<!-- Node2 -->
<g id="node2" class="node">
<title>Node2</title>
<g id="a_node2"><a xlink:href="../../d5/d90/class_clv_hd_1_1_master.html#aeea1a25cfe82b72bc8ba2281d1237d08" target="_top" xlink:title="fast_EMG Read the previously requested fast data(2byte) from the given channel of the module with the...">
<polygon fill="none" stroke="black" points="85.5,-261.97 85.5,-280.97 223.5,-280.97 223.5,-261.97 85.5,-261.97"/>
<text text-anchor="middle" x="154.5" y="-268.97" font-family="Helvetica,sans-Serif" font-size="10.00">ClvHd::Master::fast_EMG</text>
</a>
</g>
</g>
<!-- Node1&#45;&gt;Node2 -->
<g id="edge1" class="edge">
<title>Node1&#45;&gt;Node2</title>
<path fill="none" stroke="midnightblue" d="M24.04,-162.16C29.82,-182.28 45.95,-228.68 77,-252.47 79.34,-254.26 81.83,-255.89 84.43,-257.36"/>
<polygon fill="midnightblue" stroke="midnightblue" points="83.08,-260.6 93.61,-261.81 86.14,-254.3 83.08,-260.6"/>
</g>
<!-- Node3 -->
<g id="node3" class="node">
<title>Node3</title>
<g id="a_node3"><a xlink:href="../../df/dcd/class_communication_1_1_client.html#a6c850f2dd5a0043581541c28a21988b2" target="_top" xlink:title="open_connection Open the connection the serial or network or interface">
<polygon fill="none" stroke="black" points="90.5,-212.47 90.5,-242.47 218.5,-242.47 218.5,-212.47 90.5,-212.47"/>
<text text-anchor="start" x="98.5" y="-230.47" font-family="Helvetica,sans-Serif" font-size="10.00">Communication::Client</text>
<text text-anchor="middle" x="154.5" y="-219.47" font-family="Helvetica,sans-Serif" font-size="10.00">::open_connection</text>
</a>
</g>
</g>
<!-- Node1&#45;&gt;Node3 -->
<g id="edge2" class="edge">
<title>Node1&#45;&gt;Node3</title>
<path fill="none" stroke="midnightblue" d="M29.98,-162.26C40.13,-173.43 58.14,-191.55 77,-202.47 80.67,-204.59 84.55,-206.56 88.54,-208.39"/>
<polygon fill="midnightblue" stroke="midnightblue" points="87.4,-211.71 97.97,-212.39 90.13,-205.27 87.4,-211.71"/>
</g>
<!-- Node4 -->
<g id="node4" class="node">
<title>Node4</title>
<g id="a_node4"><a xlink:href="../../d5/d90/class_clv_hd_1_1_master.html#a9858a36df2b319fdf0c63bc4e93e79f6" target="_top" xlink:title="precise_EMG Read the previously requested precise data(3byte) from the given channel of the module wi...">
<polygon fill="none" stroke="black" points="77,-173.97 77,-192.97 232,-192.97 232,-173.97 77,-173.97"/>
<text text-anchor="middle" x="154.5" y="-180.97" font-family="Helvetica,sans-Serif" font-size="10.00">ClvHd::Master::precise_EMG</text>
</a>
</g>
</g>
<!-- Node1&#45;&gt;Node4 -->
<g id="edge3" class="edge">
<title>Node1&#45;&gt;Node4</title>
<path fill="none" stroke="midnightblue" d="M41.26,-157.11C57.53,-160.93 81.33,-166.52 102.83,-171.57"/>
<polygon fill="midnightblue" stroke="midnightblue" points="102.3,-175.04 112.83,-173.91 103.9,-168.22 102.3,-175.04"/>
</g>
<!-- Node5 -->
<g id="node5" class="node">
<title>Node5</title>
<g id="a_node5"><a xlink:href="../../d6/d55/classlsl_1_1stream__outlet.html#a675bbe044a5053087e05e0267fe6722a" target="_top" xlink:title=" ">
<polygon fill="none" stroke="black" points="103.5,-106.47 103.5,-136.47 205.5,-136.47 205.5,-106.47 103.5,-106.47"/>
<text text-anchor="start" x="111.5" y="-124.47" font-family="Helvetica,sans-Serif" font-size="10.00">lsl::stream_outlet</text>
<text text-anchor="middle" x="154.5" y="-113.47" font-family="Helvetica,sans-Serif" font-size="10.00">::push_sample</text>
</a>
</g>
</g>
<!-- Node1&#45;&gt;Node5 -->
<g id="edge4" class="edge">
<title>Node1&#45;&gt;Node5</title>
<path fill="none" stroke="midnightblue" d="M41.26,-147.82C55.23,-144.55 74.74,-139.96 93.58,-135.54"/>
<polygon fill="midnightblue" stroke="midnightblue" points="94.41,-138.94 103.35,-133.24 92.81,-132.12 94.41,-138.94"/>
</g>
<!-- Node6 -->
<g id="node6" class="node">
<title>Node6</title>
<g id="a_node6"><a xlink:href="../../d5/d90/class_clv_hd_1_1_master.html#af6c6b4b2d00f398973c382bdfce6f78f" target="_top" xlink:title="Read all data registers (State, 3fast, 3precise) from each available module.">
<polygon fill="none" stroke="black" points="98,-57.47 98,-87.47 211,-87.47 211,-57.47 98,-57.47"/>
<text text-anchor="start" x="106" y="-75.47" font-family="Helvetica,sans-Serif" font-size="10.00">ClvHd::Master::read</text>
<text text-anchor="middle" x="154.5" y="-64.47" font-family="Helvetica,sans-Serif" font-size="10.00">_all_signal</text>
</a>
</g>
</g>
<!-- Node1&#45;&gt;Node6 -->
<g id="edge6" class="edge">
<title>Node1&#45;&gt;Node6</title>
<path fill="none" stroke="midnightblue" d="M28.74,-142.94C38.46,-130.76 56.86,-109.77 77,-97.47 80.62,-95.25 84.46,-93.21 88.42,-91.34"/>
<polygon fill="midnightblue" stroke="midnightblue" points="90.03,-94.45 97.8,-87.25 87.24,-88.03 90.03,-94.45"/>
</g>
<!-- Node10 -->
<g id="node10" class="node">
<title>Node10</title>
<g id="a_node10"><a xlink:href="../../d5/d90/class_clv_hd_1_1_master.html#a42345cdd26cd5596ae6b3c674a6a97ac" target="_top" xlink:title="setup Get the number of EMG modules connected to the master board.">
<polygon fill="none" stroke="black" points="95,-18.97 95,-37.97 214,-37.97 214,-18.97 95,-18.97"/>
<text text-anchor="middle" x="154.5" y="-25.97" font-family="Helvetica,sans-Serif" font-size="10.00">ClvHd::Master::setup</text>
</a>
</g>
</g>
<!-- Node1&#45;&gt;Node10 -->
<g id="edge10" class="edge">
<title>Node1&#45;&gt;Node10</title>
<path fill="none" stroke="midnightblue" d="M23.86,-142.74C29.39,-122.05 45.19,-73.57 77,-48.47 79.92,-46.16 83.08,-44.12 86.39,-42.31"/>
<polygon fill="midnightblue" stroke="midnightblue" points="87.9,-45.47 95.47,-38.06 84.93,-39.13 87.9,-45.47"/>
</g>
<!-- Node5&#45;&gt;Node5 -->
<g id="edge5" class="edge">
<title>Node5&#45;&gt;Node5</title>
<path fill="none" stroke="midnightblue" d="M131.15,-136.62C125.52,-146.02 133.3,-154.97 154.5,-154.97 167.42,-154.97 175.36,-151.64 178.31,-146.92"/>
<polygon fill="midnightblue" stroke="midnightblue" points="181.79,-146.46 177.85,-136.62 174.8,-146.77 181.79,-146.46"/>
</g>
<!-- Node7 -->
<g id="node7" class="node">
<title>Node7</title>
<g id="a_node7"><a xlink:href="../../d5/d90/class_clv_hd_1_1_master.html#ad552d7fff3892121269ebee55817c16c" target="_top" xlink:title="readReg read size byte starting from reg address from the module with the given id.">
<polygon fill="none" stroke="black" points="268,-62.97 268,-81.97 400,-81.97 400,-62.97 268,-62.97"/>
<text text-anchor="middle" x="334" y="-69.97" font-family="Helvetica,sans-Serif" font-size="10.00">ClvHd::Master::readReg</text>
</a>
</g>
</g>
<!-- Node6&#45;&gt;Node7 -->
<g id="edge7" class="edge">
<title>Node6&#45;&gt;Node7</title>
<path fill="none" stroke="midnightblue" d="M211.18,-72.47C225.94,-72.47 242.12,-72.47 257.74,-72.47"/>
<polygon fill="midnightblue" stroke="midnightblue" points="257.9,-75.97 267.9,-72.47 257.9,-68.97 257.9,-75.97"/>
</g>
<!-- Node8 -->
<g id="node8" class="node">
<title>Node8</title>
<g id="a_node8"><a xlink:href="../../df/dcd/class_communication_1_1_client.html#a69d9e6091a406da083655a2bec68a527" target="_top" xlink:title="readS read the com inmterface.">
<polygon fill="none" stroke="black" points="436,-8.47 436,-38.47 564,-38.47 564,-8.47 436,-8.47"/>
<text text-anchor="start" x="444" y="-26.47" font-family="Helvetica,sans-Serif" font-size="10.00">Communication::Client</text>
<text text-anchor="middle" x="500" y="-15.47" font-family="Helvetica,sans-Serif" font-size="10.00">::readS</text>
</a>
</g>
</g>
<!-- Node7&#45;&gt;Node8 -->
<g id="edge8" class="edge">
<title>Node7&#45;&gt;Node8</title>
<path fill="none" stroke="midnightblue" d="M367.75,-62.96C378.08,-59.95 389.52,-56.58 400,-53.47 412.89,-49.63 426.72,-45.47 439.82,-41.5"/>
<polygon fill="midnightblue" stroke="midnightblue" points="441.12,-44.76 449.68,-38.52 439.09,-38.07 441.12,-44.76"/>
</g>
<!-- Node9 -->
<g id="node9" class="node">
<title>Node9</title>
<g id="a_node9"><a xlink:href="../../df/dcd/class_communication_1_1_client.html#a83e96cb781794b40ba2ffdbb39f54c40" target="_top" xlink:title="writeS write the com interface.">
<polygon fill="none" stroke="black" points="436,-57.47 436,-87.47 564,-87.47 564,-57.47 436,-57.47"/>
<text text-anchor="start" x="444" y="-75.47" font-family="Helvetica,sans-Serif" font-size="10.00">Communication::Client</text>
<text text-anchor="middle" x="500" y="-64.47" font-family="Helvetica,sans-Serif" font-size="10.00">::writeS</text>
</a>
</g>
</g>
<!-- Node7&#45;&gt;Node9 -->
<g id="edge9" class="edge">
<title>Node7&#45;&gt;Node9</title>
<path fill="none" stroke="midnightblue" d="M400.29,-72.47C408.61,-72.47 417.17,-72.47 425.6,-72.47"/>
<polygon fill="midnightblue" stroke="midnightblue" points="425.81,-75.97 435.81,-72.47 425.81,-68.97 425.81,-75.97"/>
</g>
<!-- Node10&#45;&gt;Node8 -->
<g id="edge14" class="edge">
<title>Node10&#45;&gt;Node8</title>
<path fill="none" stroke="midnightblue" d="M190.91,-18.91C212.91,-13.48 241.88,-7.22 268,-4.47 326.34,1.69 341.6,1.09 400,-4.47 408.39,-5.26 417.13,-6.43 425.78,-7.81"/>
<polygon fill="midnightblue" stroke="midnightblue" points="425.44,-11.3 435.88,-9.5 426.6,-4.4 425.44,-11.3"/>
</g>
<!-- Node11 -->
<g id="node11" class="node">
<title>Node11</title>
<g id="a_node11"><a xlink:href="../../df/dcd/class_communication_1_1_client.html#a53a63c26f29f2941aa1ecde1946a5a1b" target="_top" xlink:title=" ">
<polygon fill="none" stroke="black" points="270,-13.47 270,-43.47 398,-43.47 398,-13.47 270,-13.47"/>
<text text-anchor="start" x="278" y="-31.47" font-family="Helvetica,sans-Serif" font-size="10.00">Communication::Client</text>
<text text-anchor="middle" x="334" y="-20.47" font-family="Helvetica,sans-Serif" font-size="10.00">::clean_start</text>
</a>
</g>
</g>
<!-- Node10&#45;&gt;Node11 -->
<g id="edge11" class="edge">
<title>Node10&#45;&gt;Node11</title>
<path fill="none" stroke="midnightblue" d="M214.11,-28.47C228.63,-28.47 244.38,-28.47 259.51,-28.47"/>
<polygon fill="midnightblue" stroke="midnightblue" points="259.87,-31.97 269.87,-28.47 259.87,-24.97 259.87,-31.97"/>
</g>
<!-- Node11&#45;&gt;Node8 -->
<g id="edge12" class="edge">
<title>Node11&#45;&gt;Node8</title>
<path fill="none" stroke="midnightblue" d="M398.41,-26.53C407.31,-26.26 416.53,-25.98 425.6,-25.7"/>
<polygon fill="midnightblue" stroke="midnightblue" points="425.87,-29.2 435.76,-25.39 425.66,-22.2 425.87,-29.2"/>
</g>
<!-- Node11&#45;&gt;Node9 -->
<g id="edge13" class="edge">
<title>Node11&#45;&gt;Node9</title>
<path fill="none" stroke="midnightblue" d="M390.98,-43.48C404.5,-47.11 419.06,-51.02 432.99,-54.76"/>
<polygon fill="midnightblue" stroke="midnightblue" points="432.43,-58.23 442.99,-57.44 434.24,-51.47 432.43,-58.23"/>
</g>
</g>
</svg>
