<?xml version="1.0" encoding="UTF-8" standalone="no"?>
<!DOCTYPE svg PUBLIC "-//W3C//DTD SVG 1.1//EN"
 "http://www.w3.org/Graphics/SVG/1.1/DTD/svg11.dtd">
<!-- Generated by graphviz version 2.43.0 (0)
 -->
<!-- Title: lsl::stream_outlet::push_sample Pages: 1 -->
<svg width="652pt" height="116pt"
 viewBox="0.00 0.00 652.00 116.00" xmlns="http://www.w3.org/2000/svg" xmlns:xlink="http://www.w3.org/1999/xlink">
<g id="graph0" class="graph" transform="scale(1 1) rotate(0) translate(4 112)">
<title>lsl::stream_outlet::push_sample</title>
<!-- Node1 -->
<g id="node1" class="node">
<title>Node1</title>
<g id="a_node1"><a xlink:title=" ">
<polygon fill="#bfbfbf" stroke="black" points="542,-39 542,-69 644,-69 644,-39 542,-39"/>
<text text-anchor="start" x="550" y="-57" font-family="Helvetica,sans-Serif" font-size="10.00">lsl::stream_outlet</text>
<text text-anchor="middle" x="593" y="-46" font-family="Helvetica,sans-Serif" font-size="10.00">::push_sample</text>
</a>
</g>
</g>
<!-- Node1&#45;&gt;Node1 -->
<g id="edge6" class="edge">
<title>Node1&#45;&gt;Node1</title>
<path fill="none" stroke="midnightblue" d="M619.3,-79.46C616.03,-84.18 607.27,-87.5 593,-87.5 569.59,-87.5 560.99,-78.56 567.21,-69.16"/>
<polygon fill="midnightblue" stroke="midnightblue" points="622.78,-78.98 618.79,-69.16 615.79,-79.32 622.78,-78.98"/>
</g>
<!-- Node2 -->
<g id="node2" class="node">
<title>Node2</title>
<g id="a_node2"><a xlink:href="../../d4/d8c/lib_2cleverhand-interface_2lib_2com__client_2src_2main_8cpp.html#a3c04138a5bfe5d72780bb7e82a18e627" target="_top" xlink:title=" ">
<polygon fill="none" stroke="black" points="423,-88.5 423,-107.5 464,-107.5 464,-88.5 423,-88.5"/>
<text text-anchor="middle" x="443.5" y="-95.5" font-family="Helvetica,sans-Serif" font-size="10.00">main</text>
</a>
</g>
</g>
<!-- Node1&#45;&gt;Node2 -->
<g id="edge1" class="edge">
<title>Node1&#45;&gt;Node2</title>
<path fill="none" stroke="midnightblue" d="M531.84,-71.95C507.76,-79.13 481.67,-86.91 464.34,-92.08"/>
<polygon fill="midnightblue" stroke="midnightblue" points="533.07,-75.23 541.65,-69.02 531.07,-68.52 533.07,-75.23"/>
</g>
<!-- Node3 -->
<g id="node3" class="node">
<title>Node3</title>
<g id="a_node3"><a xlink:href="../../d6/d55/classlsl_1_1stream__outlet.html#a58427b98e8a60e7d160534078f3e04f8" target="_top" xlink:title=" ">
<polygon fill="none" stroke="black" points="392.5,-39 392.5,-69 494.5,-69 494.5,-39 392.5,-39"/>
<text text-anchor="start" x="400.5" y="-57" font-family="Helvetica,sans-Serif" font-size="10.00">lsl::stream_outlet</text>
<text text-anchor="middle" x="443.5" y="-46" font-family="Helvetica,sans-Serif" font-size="10.00">::push_chunk</text>
</a>
</g>
</g>
<!-- Node1&#45;&gt;Node3 -->
<g id="edge2" class="edge">
<title>Node1&#45;&gt;Node3</title>
<path fill="none" stroke="midnightblue" d="M531.5,-54C519.24,-54 506.48,-54 494.62,-54"/>
<polygon fill="midnightblue" stroke="midnightblue" points="531.65,-57.5 541.65,-54 531.65,-50.5 531.65,-57.5"/>
</g>
<!-- Node4 -->
<g id="node4" class="node">
<title>Node4</title>
<g id="a_node4"><a xlink:href="../../d9/dc6/class_main_window.html#ab015c2fb4f4636468144e4c683882594" target="_top" xlink:title="push_lsl Push data to the LSL stream.">
<polygon fill="none" stroke="black" points="381,-0.5 381,-19.5 506,-19.5 506,-0.5 381,-0.5"/>
<text text-anchor="middle" x="443.5" y="-7.5" font-family="Helvetica,sans-Serif" font-size="10.00">MainWindow::push_lsl</text>
</a>
</g>
</g>
<!-- Node1&#45;&gt;Node4 -->
<g id="edge3" class="edge">
<title>Node1&#45;&gt;Node4</title>
<path fill="none" stroke="midnightblue" d="M531.89,-36.07C512.97,-30.42 492.8,-24.41 476.61,-19.58"/>
<polygon fill="midnightblue" stroke="midnightblue" points="531.07,-39.48 541.65,-38.98 533.07,-32.77 531.07,-39.48"/>
</g>
<!-- Node5 -->
<g id="node5" class="node">
<title>Node5</title>
<g id="a_node5"><a xlink:href="../../d9/dc6/class_main_window.html#a6781fa3a250e3ad46f9d491434333ffb" target="_top" xlink:title="streaming_loop Loop that continuously reads data from the board and send it to the LSL stream.">
<polygon fill="none" stroke="black" points="184,-0.5 184,-19.5 345,-19.5 345,-0.5 184,-0.5"/>
<text text-anchor="middle" x="264.5" y="-7.5" font-family="Helvetica,sans-Serif" font-size="10.00">MainWindow::streaming_loop</text>
</a>
</g>
</g>
<!-- Node4&#45;&gt;Node5 -->
<g id="edge4" class="edge">
<title>Node4&#45;&gt;Node5</title>
<path fill="none" stroke="midnightblue" d="M370.51,-10C362.14,-10 353.57,-10 345.1,-10"/>
<polygon fill="midnightblue" stroke="midnightblue" points="370.59,-13.5 380.59,-10 370.59,-6.5 370.59,-13.5"/>
</g>
<!-- Node6 -->
<g id="node6" class="node">
<title>Node6</title>
<g id="a_node6"><a xlink:href="../../d9/dc6/class_main_window.html#a996c5a2b6f77944776856f08ec30858d" target="_top" xlink:title=" ">
<polygon fill="none" stroke="black" points="0,-0.5 0,-19.5 148,-19.5 148,-0.5 0,-0.5"/>
<text text-anchor="middle" x="74" y="-7.5" font-family="Helvetica,sans-Serif" font-size="10.00">MainWindow::MainWindow</text>
</a>
</g>
</g>
<!-- Node5&#45;&gt;Node6 -->
<g id="edge5" class="edge">
<title>Node5&#45;&gt;Node6</title>
<path fill="none" stroke="midnightblue" d="M173.77,-10C165.17,-10 156.51,-10 148.09,-10"/>
<polygon fill="midnightblue" stroke="midnightblue" points="173.83,-13.5 183.83,-10 173.83,-6.5 173.83,-13.5"/>
</g>
</g>
</svg>
