<?xml version="1.0" encoding="UTF-8" standalone="no"?>
<!DOCTYPE svg PUBLIC "-//W3C//DTD SVG 1.1//EN"
 "http://www.w3.org/Graphics/SVG/1.1/DTD/svg11.dtd">
<!-- Generated by graphviz version 2.43.0 (0)
 -->
<!-- Title: ClvHd::Master::fast_EMG Pages: 1 -->
<svg width="688pt" height="66pt"
 viewBox="0.00 0.00 688.00 66.00" xmlns="http://www.w3.org/2000/svg" xmlns:xlink="http://www.w3.org/1999/xlink">
<g id="graph0" class="graph" transform="scale(1 1) rotate(0) translate(4 62)">
<title>ClvHd::Master::fast_EMG</title>
<!-- Node1 -->
<g id="node1" class="node">
<title>Node1</title>
<g id="a_node1"><a xlink:title="fast_EMG Read the previously requested fast data(2byte) from the given channel of the module with the...">
<polygon fill="#bfbfbf" stroke="black" points="542,-19.5 542,-38.5 680,-38.5 680,-19.5 542,-19.5"/>
<text text-anchor="middle" x="611" y="-26.5" font-family="Helvetica,sans-Serif" font-size="10.00">ClvHd::Master::fast_EMG</text>
</a>
</g>
</g>
<!-- Node2 -->
<g id="node2" class="node">
<title>Node2</title>
<g id="a_node2"><a xlink:href="../../d3/d82/lib_2cleverhand-interface_2src_2main_8cpp.html#ae66f6b31b5ad750f1fe042a706a4e3d4" target="_top" xlink:title=" ">
<polygon fill="none" stroke="black" points="423,-38.5 423,-57.5 464,-57.5 464,-38.5 423,-38.5"/>
<text text-anchor="middle" x="443.5" y="-45.5" font-family="Helvetica,sans-Serif" font-size="10.00">main</text>
</a>
</g>
</g>
<!-- Node1&#45;&gt;Node2 -->
<g id="edge1" class="edge">
<title>Node1&#45;&gt;Node2</title>
<path fill="none" stroke="midnightblue" d="M531.5,-38.01C506.61,-40.87 481.21,-43.79 464.33,-45.72"/>
<polygon fill="midnightblue" stroke="midnightblue" points="532.19,-41.46 541.73,-36.84 531.4,-34.5 532.19,-41.46"/>
</g>
<!-- Node3 -->
<g id="node3" class="node">
<title>Node3</title>
<g id="a_node3"><a xlink:href="../../d9/dc6/class_main_window.html#ab015c2fb4f4636468144e4c683882594" target="_top" xlink:title="push_lsl Push data to the LSL stream.">
<polygon fill="none" stroke="black" points="381,-0.5 381,-19.5 506,-19.5 506,-0.5 381,-0.5"/>
<text text-anchor="middle" x="443.5" y="-7.5" font-family="Helvetica,sans-Serif" font-size="10.00">MainWindow::push_lsl</text>
</a>
</g>
</g>
<!-- Node1&#45;&gt;Node3 -->
<g id="edge2" class="edge">
<title>Node1&#45;&gt;Node3</title>
<path fill="none" stroke="midnightblue" d="M531.74,-20.02C523.18,-19.03 514.57,-18.04 506.25,-17.09"/>
<polygon fill="midnightblue" stroke="midnightblue" points="531.4,-23.5 541.73,-21.16 532.19,-16.54 531.4,-23.5"/>
</g>
<!-- Node4 -->
<g id="node4" class="node">
<title>Node4</title>
<g id="a_node4"><a xlink:href="../../d9/dc6/class_main_window.html#a6781fa3a250e3ad46f9d491434333ffb" target="_top" xlink:title="streaming_loop Loop that continuously reads data from the board and send it to the LSL stream.">
<polygon fill="none" stroke="black" points="184,-0.5 184,-19.5 345,-19.5 345,-0.5 184,-0.5"/>
<text text-anchor="middle" x="264.5" y="-7.5" font-family="Helvetica,sans-Serif" font-size="10.00">MainWindow::streaming_loop</text>
</a>
</g>
</g>
<!-- Node3&#45;&gt;Node4 -->
<g id="edge3" class="edge">
<title>Node3&#45;&gt;Node4</title>
<path fill="none" stroke="midnightblue" d="M370.51,-10C362.14,-10 353.57,-10 345.1,-10"/>
<polygon fill="midnightblue" stroke="midnightblue" points="370.59,-13.5 380.59,-10 370.59,-6.5 370.59,-13.5"/>
</g>
<!-- Node5 -->
<g id="node5" class="node">
<title>Node5</title>
<g id="a_node5"><a xlink:href="../../d9/dc6/class_main_window.html#a996c5a2b6f77944776856f08ec30858d" target="_top" xlink:title=" ">
<polygon fill="none" stroke="black" points="0,-0.5 0,-19.5 148,-19.5 148,-0.5 0,-0.5"/>
<text text-anchor="middle" x="74" y="-7.5" font-family="Helvetica,sans-Serif" font-size="10.00">MainWindow::MainWindow</text>
</a>
</g>
</g>
<!-- Node4&#45;&gt;Node5 -->
<g id="edge4" class="edge">
<title>Node4&#45;&gt;Node5</title>
<path fill="none" stroke="midnightblue" d="M173.77,-10C165.17,-10 156.51,-10 148.09,-10"/>
<polygon fill="midnightblue" stroke="midnightblue" points="173.83,-13.5 183.83,-10 173.83,-6.5 173.83,-13.5"/>
</g>
</g>
</svg>
