<?xml version="1.0" encoding="UTF-8" standalone="no"?>
<!DOCTYPE svg PUBLIC "-//W3C//DTD SVG 1.1//EN"
 "http://www.w3.org/Graphics/SVG/1.1/DTD/svg11.dtd">
<!-- Generated by graphviz version 2.43.0 (0)
 -->
<!-- Title: ClvHd::Master::setup Pages: 1 -->
<svg width="455pt" height="88pt"
 viewBox="0.00 0.00 455.00 88.00" xmlns="http://www.w3.org/2000/svg" xmlns:xlink="http://www.w3.org/1999/xlink">
<g id="graph0" class="graph" transform="scale(1 1) rotate(0) translate(4 84)">
<title>ClvHd::Master::setup</title>
<!-- Node1 -->
<g id="node1" class="node">
<title>Node1</title>
<g id="a_node1"><a xlink:title="setup Get the number of EMG modules connected to the master board.">
<polygon fill="#bfbfbf" stroke="black" points="0,-33 0,-52 119,-52 119,-33 0,-33"/>
<text text-anchor="middle" x="59.5" y="-40" font-family="Helvetica,sans-Serif" font-size="10.00">ClvHd::Master::setup</text>
</a>
</g>
</g>
<!-- Node2 -->
<g id="node2" class="node">
<title>Node2</title>
<g id="a_node2"><a xlink:href="../../df/dcd/class_communication_1_1_client.html#a53a63c26f29f2941aa1ecde1946a5a1b" target="_top" xlink:title=" ">
<polygon fill="none" stroke="black" points="155,-5.5 155,-35.5 283,-35.5 283,-5.5 155,-5.5"/>
<text text-anchor="start" x="163" y="-23.5" font-family="Helvetica,sans-Serif" font-size="10.00">Communication::Client</text>
<text text-anchor="middle" x="219" y="-12.5" font-family="Helvetica,sans-Serif" font-size="10.00">::clean_start</text>
</a>
</g>
</g>
<!-- Node1&#45;&gt;Node2 -->
<g id="edge1" class="edge">
<title>Node1&#45;&gt;Node2</title>
<path fill="none" stroke="midnightblue" d="M119.15,-34.31C127.51,-33.14 136.19,-31.93 144.79,-30.73"/>
<polygon fill="midnightblue" stroke="midnightblue" points="145.39,-34.18 154.81,-29.33 144.43,-27.24 145.39,-34.18"/>
</g>
<!-- Node3 -->
<g id="node3" class="node">
<title>Node3</title>
<g id="a_node3"><a xlink:href="../../df/dcd/class_communication_1_1_client.html#a69d9e6091a406da083655a2bec68a527" target="_top" xlink:title="readS read the com inmterface.">
<polygon fill="none" stroke="black" points="319,-49.5 319,-79.5 447,-79.5 447,-49.5 319,-49.5"/>
<text text-anchor="start" x="327" y="-67.5" font-family="Helvetica,sans-Serif" font-size="10.00">Communication::Client</text>
<text text-anchor="middle" x="383" y="-56.5" font-family="Helvetica,sans-Serif" font-size="10.00">::readS</text>
</a>
</g>
</g>
<!-- Node1&#45;&gt;Node3 -->
<g id="edge4" class="edge">
<title>Node1&#45;&gt;Node3</title>
<path fill="none" stroke="midnightblue" d="M119.09,-46.51C172.4,-50.16 251.3,-55.56 308.75,-59.49"/>
<polygon fill="midnightblue" stroke="midnightblue" points="308.64,-62.99 318.86,-60.18 309.12,-56 308.64,-62.99"/>
</g>
<!-- Node2&#45;&gt;Node3 -->
<g id="edge2" class="edge">
<title>Node2&#45;&gt;Node3</title>
<path fill="none" stroke="midnightblue" d="M275.3,-35.52C288.65,-39.15 303.04,-43.05 316.79,-46.79"/>
<polygon fill="midnightblue" stroke="midnightblue" points="316.11,-50.23 326.68,-49.47 317.94,-43.47 316.11,-50.23"/>
</g>
<!-- Node4 -->
<g id="node4" class="node">
<title>Node4</title>
<g id="a_node4"><a xlink:href="../../df/dcd/class_communication_1_1_client.html#a83e96cb781794b40ba2ffdbb39f54c40" target="_top" xlink:title="writeS write the com interface.">
<polygon fill="none" stroke="black" points="319,-0.5 319,-30.5 447,-30.5 447,-0.5 319,-0.5"/>
<text text-anchor="start" x="327" y="-18.5" font-family="Helvetica,sans-Serif" font-size="10.00">Communication::Client</text>
<text text-anchor="middle" x="383" y="-7.5" font-family="Helvetica,sans-Serif" font-size="10.00">::writeS</text>
</a>
</g>
</g>
<!-- Node2&#45;&gt;Node4 -->
<g id="edge3" class="edge">
<title>Node2&#45;&gt;Node4</title>
<path fill="none" stroke="midnightblue" d="M283.1,-18.55C291.53,-18.29 300.23,-18.02 308.81,-17.76"/>
<polygon fill="midnightblue" stroke="midnightblue" points="308.92,-21.26 318.81,-17.45 308.71,-14.26 308.92,-21.26"/>
</g>
</g>
</svg>
