<?xml version="1.0" encoding="UTF-8" standalone="no"?>
<!DOCTYPE svg PUBLIC "-//W3C//DTD SVG 1.1//EN"
 "http://www.w3.org/Graphics/SVG/1.1/DTD/svg11.dtd">
<!-- Generated by graphviz version 2.43.0 (0)
 -->
<!-- Title: ClvHd::Master::readReg Pages: 1 -->
<svg width="861pt" height="176pt"
 viewBox="0.00 0.00 861.00 175.50" xmlns="http://www.w3.org/2000/svg" xmlns:xlink="http://www.w3.org/1999/xlink">
<g id="graph0" class="graph" transform="scale(1 1) rotate(0) translate(4 171.5)">
<title>ClvHd::Master::readReg</title>
<!-- Node1 -->
<g id="node1" class="node">
<title>Node1</title>
<g id="a_node1"><a xlink:title="readReg read size byte starting from reg address from the module with the given id.">
<polygon fill="#bfbfbf" stroke="black" points="721,-79 721,-98 853,-98 853,-79 721,-79"/>
<text text-anchor="middle" x="787" y="-86" font-family="Helvetica,sans-Serif" font-size="10.00">ClvHd::Master::readReg</text>
</a>
</g>
</g>
<!-- Node2 -->
<g id="node2" class="node">
<title>Node2</title>
<g id="a_node2"><a xlink:href="../../dd/d80/class_clv_hd_1_1_e_m_g.html#a66e3835c0a8225792368835153e173d6" target="_top" xlink:title=" ">
<polygon fill="none" stroke="black" points="551,-148 551,-167 676,-167 676,-148 551,-148"/>
<text text-anchor="middle" x="613.5" y="-155" font-family="Helvetica,sans-Serif" font-size="10.00">ClvHd::EMG::get_error</text>
</a>
</g>
</g>
<!-- Node1&#45;&gt;Node2 -->
<g id="edge1" class="edge">
<title>Node1&#45;&gt;Node2</title>
<path fill="none" stroke="midnightblue" d="M759.69,-102.85C739.63,-113.39 711.1,-127.56 685,-137.5 674.78,-141.4 663.46,-144.93 652.95,-147.91"/>
<polygon fill="midnightblue" stroke="midnightblue" points="761.35,-105.92 768.54,-98.14 758.06,-99.74 761.35,-105.92"/>
</g>
<!-- Node3 -->
<g id="node3" class="node">
<title>Node3</title>
<g id="a_node3"><a xlink:href="../../d5/d90/class_clv_hd_1_1_master.html#af6c6b4b2d00f398973c382bdfce6f78f" target="_top" xlink:title="Read all data registers (State, 3fast, 3precise) from each available module.">
<polygon fill="none" stroke="black" points="557,-98.5 557,-128.5 670,-128.5 670,-98.5 557,-98.5"/>
<text text-anchor="start" x="565" y="-116.5" font-family="Helvetica,sans-Serif" font-size="10.00">ClvHd::Master::read</text>
<text text-anchor="middle" x="613.5" y="-105.5" font-family="Helvetica,sans-Serif" font-size="10.00">_all_signal</text>
</a>
</g>
</g>
<!-- Node1&#45;&gt;Node3 -->
<g id="edge2" class="edge">
<title>Node1&#45;&gt;Node3</title>
<path fill="none" stroke="midnightblue" d="M710.41,-99.52C696.87,-101.49 682.99,-103.52 670.14,-105.39"/>
<polygon fill="midnightblue" stroke="midnightblue" points="711.28,-102.93 720.67,-98.02 710.27,-96 711.28,-102.93"/>
</g>
<!-- Node8 -->
<g id="node8" class="node">
<title>Node8</title>
<g id="a_node8"><a xlink:href="../../dd/d80/class_clv_hd_1_1_e_m_g.html#a755e5a83ea9422329354be92db9d2412" target="_top" xlink:title=" ">
<polygon fill="none" stroke="black" points="550.5,-49.5 550.5,-79.5 676.5,-79.5 676.5,-49.5 550.5,-49.5"/>
<text text-anchor="start" x="558.5" y="-67.5" font-family="Helvetica,sans-Serif" font-size="10.00">ClvHd::EMG::read_fast</text>
<text text-anchor="middle" x="613.5" y="-56.5" font-family="Helvetica,sans-Serif" font-size="10.00">_value</text>
</a>
</g>
</g>
<!-- Node1&#45;&gt;Node8 -->
<g id="edge7" class="edge">
<title>Node1&#45;&gt;Node8</title>
<path fill="none" stroke="midnightblue" d="M710.72,-77.97C699.3,-76.37 687.63,-74.73 676.54,-73.18"/>
<polygon fill="midnightblue" stroke="midnightblue" points="710.29,-81.44 720.67,-79.36 711.26,-74.51 710.29,-81.44"/>
</g>
<!-- Node9 -->
<g id="node9" class="node">
<title>Node9</title>
<g id="a_node9"><a xlink:href="../../dd/d80/class_clv_hd_1_1_e_m_g.html#a5fb8389610bbed3a4aa8a7147777b7dd" target="_top" xlink:title=" ">
<polygon fill="none" stroke="black" points="542,-0.5 542,-30.5 685,-30.5 685,-0.5 542,-0.5"/>
<text text-anchor="start" x="550" y="-18.5" font-family="Helvetica,sans-Serif" font-size="10.00">ClvHd::EMG::read_precise</text>
<text text-anchor="middle" x="613.5" y="-7.5" font-family="Helvetica,sans-Serif" font-size="10.00">_value</text>
</a>
</g>
</g>
<!-- Node1&#45;&gt;Node9 -->
<g id="edge8" class="edge">
<title>Node1&#45;&gt;Node9</title>
<path fill="none" stroke="midnightblue" d="M759.17,-74.36C739.05,-64.03 710.68,-50.05 685,-39.5 677.47,-36.4 669.37,-33.38 661.45,-30.58"/>
<polygon fill="midnightblue" stroke="midnightblue" points="757.57,-77.47 768.06,-78.96 760.79,-71.26 757.57,-77.47"/>
</g>
<!-- Node4 -->
<g id="node4" class="node">
<title>Node4</title>
<g id="a_node4"><a xlink:href="../../d3/d82/lib_2cleverhand-interface_2src_2main_8cpp.html#ae66f6b31b5ad750f1fe042a706a4e3d4" target="_top" xlink:title=" ">
<polygon fill="none" stroke="black" points="423,-123 423,-142 464,-142 464,-123 423,-123"/>
<text text-anchor="middle" x="443.5" y="-130" font-family="Helvetica,sans-Serif" font-size="10.00">main</text>
</a>
</g>
</g>
<!-- Node3&#45;&gt;Node4 -->
<g id="edge3" class="edge">
<title>Node3&#45;&gt;Node4</title>
<path fill="none" stroke="midnightblue" d="M546.29,-120.99C516.84,-124.32 484.33,-128 464.15,-130.28"/>
<polygon fill="midnightblue" stroke="midnightblue" points="547.02,-124.43 556.56,-119.83 546.23,-117.47 547.02,-124.43"/>
</g>
<!-- Node5 -->
<g id="node5" class="node">
<title>Node5</title>
<g id="a_node5"><a xlink:href="../../d9/dc6/class_main_window.html#ab015c2fb4f4636468144e4c683882594" target="_top" xlink:title="push_lsl Push data to the LSL stream.">
<polygon fill="none" stroke="black" points="381,-85 381,-104 506,-104 506,-85 381,-85"/>
<text text-anchor="middle" x="443.5" y="-92" font-family="Helvetica,sans-Serif" font-size="10.00">MainWindow::push_lsl</text>
</a>
</g>
</g>
<!-- Node3&#45;&gt;Node5 -->
<g id="edge4" class="edge">
<title>Node3&#45;&gt;Node5</title>
<path fill="none" stroke="midnightblue" d="M546.56,-106.04C533.29,-104.54 519.39,-102.97 506.27,-101.49"/>
<polygon fill="midnightblue" stroke="midnightblue" points="546.23,-109.53 556.56,-107.17 547.02,-102.57 546.23,-109.53"/>
</g>
<!-- Node6 -->
<g id="node6" class="node">
<title>Node6</title>
<g id="a_node6"><a xlink:href="../../d9/dc6/class_main_window.html#a6781fa3a250e3ad46f9d491434333ffb" target="_top" xlink:title="streaming_loop Loop that continuously reads data from the board and send it to the LSL stream.">
<polygon fill="none" stroke="black" points="184,-85 184,-104 345,-104 345,-85 184,-85"/>
<text text-anchor="middle" x="264.5" y="-92" font-family="Helvetica,sans-Serif" font-size="10.00">MainWindow::streaming_loop</text>
</a>
</g>
</g>
<!-- Node5&#45;&gt;Node6 -->
<g id="edge5" class="edge">
<title>Node5&#45;&gt;Node6</title>
<path fill="none" stroke="midnightblue" d="M370.51,-94.5C362.14,-94.5 353.57,-94.5 345.1,-94.5"/>
<polygon fill="midnightblue" stroke="midnightblue" points="370.59,-98 380.59,-94.5 370.59,-91 370.59,-98"/>
</g>
<!-- Node7 -->
<g id="node7" class="node">
<title>Node7</title>
<g id="a_node7"><a xlink:href="../../d9/dc6/class_main_window.html#a996c5a2b6f77944776856f08ec30858d" target="_top" xlink:title=" ">
<polygon fill="none" stroke="black" points="0,-85 0,-104 148,-104 148,-85 0,-85"/>
<text text-anchor="middle" x="74" y="-92" font-family="Helvetica,sans-Serif" font-size="10.00">MainWindow::MainWindow</text>
</a>
</g>
</g>
<!-- Node6&#45;&gt;Node7 -->
<g id="edge6" class="edge">
<title>Node6&#45;&gt;Node7</title>
<path fill="none" stroke="midnightblue" d="M173.77,-94.5C165.17,-94.5 156.51,-94.5 148.09,-94.5"/>
<polygon fill="midnightblue" stroke="midnightblue" points="173.83,-98 183.83,-94.5 173.83,-91 173.83,-98"/>
</g>
</g>
</svg>
