<?xml version="1.0" encoding="UTF-8" standalone="no"?>
<!DOCTYPE svg PUBLIC "-//W3C//DTD SVG 1.1//EN"
 "http://www.w3.org/Graphics/SVG/1.1/DTD/svg11.dtd">
<!-- Generated by graphviz version 2.43.0 (0)
 -->
<!-- Title: ESC::move_type Pages: 1 -->
<svg width="241pt" height="142pt"
 viewBox="0.00 0.00 241.00 142.00" xmlns="http://www.w3.org/2000/svg" xmlns:xlink="http://www.w3.org/1999/xlink">
<g id="graph0" class="graph" transform="scale(1 1) rotate(0) translate(4 138)">
<title>ESC::move_type</title>
<!-- Node1 -->
<g id="node1" class="node">
<title>Node1</title>
<g id="a_node1"><a xlink:title=" ">
<polygon fill="#bfbfbf" stroke="black" points="137,-57.5 137,-76.5 233,-76.5 233,-57.5 137,-57.5"/>
<text text-anchor="middle" x="185" y="-64.5" font-family="Helvetica,sans-Serif" font-size="10.00">ESC::move_type</text>
</a>
</g>
</g>
<!-- Node2 -->
<g id="node2" class="node">
<title>Node2</title>
<g id="a_node2"><a xlink:href="../../d2/d52/namespace_e_s_c.html#a0339f1bf272536a7645b373a503b4928" target="_top" xlink:title=" ">
<polygon fill="none" stroke="black" points="0,-114.5 0,-133.5 101,-133.5 101,-114.5 0,-114.5"/>
<text text-anchor="middle" x="50.5" y="-121.5" font-family="Helvetica,sans-Serif" font-size="10.00">ESC::move_down</text>
</a>
</g>
</g>
<!-- Node1&#45;&gt;Node2 -->
<g id="edge1" class="edge">
<title>Node1&#45;&gt;Node2</title>
<path fill="none" stroke="midnightblue" d="M154.77,-80.93C138.96,-88.32 119.03,-97.42 101,-105 93.36,-108.21 84.98,-111.51 77.31,-114.44"/>
<polygon fill="midnightblue" stroke="midnightblue" points="156.47,-83.99 164.03,-76.57 153.49,-77.66 156.47,-83.99"/>
</g>
<!-- Node3 -->
<g id="node3" class="node">
<title>Node3</title>
<g id="a_node3"><a xlink:href="../../d2/d52/namespace_e_s_c.html#a231a32f47e8c90921259a47ce621b1cc" target="_top" xlink:title=" ">
<polygon fill="none" stroke="black" points="5.5,-76.5 5.5,-95.5 95.5,-95.5 95.5,-76.5 5.5,-76.5"/>
<text text-anchor="middle" x="50.5" y="-83.5" font-family="Helvetica,sans-Serif" font-size="10.00">ESC::move_left</text>
</a>
</g>
</g>
<!-- Node1&#45;&gt;Node3 -->
<g id="edge2" class="edge">
<title>Node1&#45;&gt;Node3</title>
<path fill="none" stroke="midnightblue" d="M126.69,-75.22C116.34,-76.7 105.69,-78.23 95.78,-79.65"/>
<polygon fill="midnightblue" stroke="midnightblue" points="127.51,-78.64 136.91,-73.75 126.52,-71.71 127.51,-78.64"/>
</g>
<!-- Node4 -->
<g id="node4" class="node">
<title>Node4</title>
<g id="a_node4"><a xlink:href="../../d2/d52/namespace_e_s_c.html#ac00ec90c2ccac2f1bcb6219b6f081ad5" target="_top" xlink:title=" ">
<polygon fill="none" stroke="black" points="2,-38.5 2,-57.5 99,-57.5 99,-38.5 2,-38.5"/>
<text text-anchor="middle" x="50.5" y="-45.5" font-family="Helvetica,sans-Serif" font-size="10.00">ESC::move_right</text>
</a>
</g>
</g>
<!-- Node1&#45;&gt;Node4 -->
<g id="edge3" class="edge">
<title>Node1&#45;&gt;Node4</title>
<path fill="none" stroke="midnightblue" d="M126.73,-58.79C117.59,-57.48 108.22,-56.13 99.33,-54.86"/>
<polygon fill="midnightblue" stroke="midnightblue" points="126.52,-62.29 136.91,-60.25 127.51,-55.36 126.52,-62.29"/>
</g>
<!-- Node5 -->
<g id="node5" class="node">
<title>Node5</title>
<g id="a_node5"><a xlink:href="../../d2/d52/namespace_e_s_c.html#ab8b0eda8f8c0d37419c0435cad5230e0" target="_top" xlink:title=" ">
<polygon fill="none" stroke="black" points="7.5,-0.5 7.5,-19.5 93.5,-19.5 93.5,-0.5 7.5,-0.5"/>
<text text-anchor="middle" x="50.5" y="-7.5" font-family="Helvetica,sans-Serif" font-size="10.00">ESC::move_up</text>
</a>
</g>
</g>
<!-- Node1&#45;&gt;Node5 -->
<g id="edge4" class="edge">
<title>Node1&#45;&gt;Node5</title>
<path fill="none" stroke="midnightblue" d="M154.77,-53.07C138.96,-45.68 119.03,-36.58 101,-29 93.36,-25.79 84.98,-22.49 77.31,-19.56"/>
<polygon fill="midnightblue" stroke="midnightblue" points="153.49,-56.34 164.03,-57.43 156.47,-50.01 153.49,-56.34"/>
</g>
</g>
</svg>
