<?xml version="1.0" encoding="UTF-8" standalone="no"?>
<!DOCTYPE svg PUBLIC "-//W3C//DTD SVG 1.1//EN"
 "http://www.w3.org/Graphics/SVG/1.1/DTD/svg11.dtd">
<!-- Generated by graphviz version 2.43.0 (0)
 -->
<!-- Title: ClvHd::Master::writeReg Pages: 1 -->
<svg width="471pt" height="492pt"
 viewBox="0.00 0.00 471.00 491.50" xmlns="http://www.w3.org/2000/svg" xmlns:xlink="http://www.w3.org/1999/xlink">
<g id="graph0" class="graph" transform="scale(1 1) rotate(0) translate(4 487.5)">
<title>ClvHd::Master::writeReg</title>
<!-- Node1 -->
<g id="node1" class="node">
<title>Node1</title>
<g id="a_node1"><a xlink:title="writeReg write one byte to reg address to the module with the given id.">
<polygon fill="#bfbfbf" stroke="black" points="328,-220.5 328,-239.5 463,-239.5 463,-220.5 328,-220.5"/>
<text text-anchor="middle" x="395.5" y="-227.5" font-family="Helvetica,sans-Serif" font-size="10.00">ClvHd::Master::writeReg</text>
</a>
</g>
</g>
<!-- Node2 -->
<g id="node2" class="node">
<title>Node2</title>
<g id="a_node2"><a xlink:href="class_clv_hd_1_1_e_m_g.html#ac270260e60f381da894e18e947eaf048" target="_top" xlink:title=" ">
<polygon fill="none" stroke="black" points="162.5,-453 162.5,-483 272.5,-483 272.5,-453 162.5,-453"/>
<text text-anchor="start" x="170.5" y="-471" font-family="Helvetica,sans-Serif" font-size="10.00">ClvHd::EMG::config</text>
<text text-anchor="middle" x="217.5" y="-460" font-family="Helvetica,sans-Serif" font-size="10.00">_clock</text>
</a>
</g>
</g>
<!-- Node1&#45;&gt;Node2 -->
<g id="edge1" class="edge">
<title>Node1&#45;&gt;Node2</title>
<path fill="none" stroke="midnightblue" d="M390.52,-249.79C381.07,-291.76 353.29,-390.26 292,-444 286.35,-448.96 279.65,-452.89 272.64,-456.02"/>
<polygon fill="midnightblue" stroke="midnightblue" points="394,-250.26 392.67,-239.74 387.16,-248.79 394,-250.26"/>
</g>
<!-- Node4 -->
<g id="node4" class="node">
<title>Node4</title>
<g id="a_node4"><a xlink:href="class_clv_hd_1_1_e_m_g.html#acce16a5bc4a36a39f32f75c9cfd5b5cc" target="_top" xlink:title=" ">
<polygon fill="none" stroke="black" points="162.5,-404 162.5,-434 272.5,-434 272.5,-404 162.5,-404"/>
<text text-anchor="start" x="170.5" y="-422" font-family="Helvetica,sans-Serif" font-size="10.00">ClvHd::EMG::config</text>
<text text-anchor="middle" x="217.5" y="-411" font-family="Helvetica,sans-Serif" font-size="10.00">_frequence</text>
</a>
</g>
</g>
<!-- Node1&#45;&gt;Node4 -->
<g id="edge3" class="edge">
<title>Node1&#45;&gt;Node4</title>
<path fill="none" stroke="midnightblue" d="M387.44,-249.46C374.07,-283.61 341.87,-354.49 292,-394 286.19,-398.6 279.48,-402.38 272.53,-405.48"/>
<polygon fill="midnightblue" stroke="midnightblue" points="390.85,-250.33 391.11,-239.74 384.3,-247.85 390.85,-250.33"/>
</g>
<!-- Node5 -->
<g id="node5" class="node">
<title>Node5</title>
<g id="a_node5"><a xlink:href="class_clv_hd_1_1_e_m_g.html#ac1e43a9ba3881d0925ca71db0fc6195f" target="_top" xlink:title=" ">
<polygon fill="none" stroke="black" points="153.5,-365.5 153.5,-384.5 281.5,-384.5 281.5,-365.5 153.5,-365.5"/>
<text text-anchor="middle" x="217.5" y="-372.5" font-family="Helvetica,sans-Serif" font-size="10.00">ClvHd::EMG::config_R1</text>
</a>
</g>
</g>
<!-- Node1&#45;&gt;Node5 -->
<g id="edge5" class="edge">
<title>Node1&#45;&gt;Node5</title>
<path fill="none" stroke="midnightblue" d="M384.5,-248.69C368.66,-276.47 335.12,-328.33 292,-356 285.9,-359.91 279.03,-363.02 272,-365.49"/>
<polygon fill="midnightblue" stroke="midnightblue" points="387.74,-250.08 389.52,-239.64 381.61,-246.69 387.74,-250.08"/>
</g>
<!-- Node6 -->
<g id="node6" class="node">
<title>Node6</title>
<g id="a_node6"><a xlink:href="class_clv_hd_1_1_e_m_g.html#a845b5e6252b356b00f15ad95dfdd3e90" target="_top" xlink:title=" ">
<polygon fill="none" stroke="black" points="153.5,-327.5 153.5,-346.5 281.5,-346.5 281.5,-327.5 153.5,-327.5"/>
<text text-anchor="middle" x="217.5" y="-334.5" font-family="Helvetica,sans-Serif" font-size="10.00">ClvHd::EMG::config_R2</text>
</a>
</g>
</g>
<!-- Node1&#45;&gt;Node6 -->
<g id="edge7" class="edge">
<title>Node1&#45;&gt;Node6</title>
<path fill="none" stroke="midnightblue" d="M379.41,-247C360.8,-266.94 327.27,-299.59 292,-318 284.64,-321.84 276.45,-324.95 268.29,-327.44"/>
<polygon fill="midnightblue" stroke="midnightblue" points="382.06,-249.3 386.22,-239.56 376.89,-244.58 382.06,-249.3"/>
</g>
<!-- Node7 -->
<g id="node7" class="node">
<title>Node7</title>
<g id="a_node7"><a xlink:href="class_clv_hd_1_1_e_m_g.html#a0e2546b93544a240ff345ba9a3d4187f" target="_top" xlink:title=" ">
<polygon fill="none" stroke="black" points="153.5,-289.5 153.5,-308.5 281.5,-308.5 281.5,-289.5 153.5,-289.5"/>
<text text-anchor="middle" x="217.5" y="-296.5" font-family="Helvetica,sans-Serif" font-size="10.00">ClvHd::EMG::config_R3</text>
</a>
</g>
</g>
<!-- Node1&#45;&gt;Node7 -->
<g id="edge9" class="edge">
<title>Node1&#45;&gt;Node7</title>
<path fill="none" stroke="midnightblue" d="M368.6,-244.44C348.25,-255.34 318.94,-270.06 292,-280 282.23,-283.6 271.49,-286.79 261.31,-289.48"/>
<polygon fill="midnightblue" stroke="midnightblue" points="370.43,-247.43 377.55,-239.58 367.1,-241.27 370.43,-247.43"/>
</g>
<!-- Node8 -->
<g id="node8" class="node">
<title>Node8</title>
<g id="a_node8"><a xlink:href="class_clv_hd_1_1_e_m_g.html#acd5f6dc7d899c972d50fd4b15a266be7" target="_top" xlink:title=" ">
<polygon fill="none" stroke="black" points="162.5,-240 162.5,-270 272.5,-270 272.5,-240 162.5,-240"/>
<text text-anchor="start" x="170.5" y="-258" font-family="Helvetica,sans-Serif" font-size="10.00">ClvHd::EMG::config</text>
<text text-anchor="middle" x="217.5" y="-247" font-family="Helvetica,sans-Serif" font-size="10.00">_resolution</text>
</a>
</g>
</g>
<!-- Node1&#45;&gt;Node8 -->
<g id="edge11" class="edge">
<title>Node1&#45;&gt;Node8</title>
<path fill="none" stroke="midnightblue" d="M317.99,-240.87C302.68,-243.04 286.9,-245.28 272.54,-247.32"/>
<polygon fill="midnightblue" stroke="midnightblue" points="318.55,-244.32 327.96,-239.45 317.57,-237.39 318.55,-244.32"/>
</g>
<!-- Node9 -->
<g id="node9" class="node">
<title>Node9</title>
<g id="a_node9"><a xlink:href="class_clv_hd_1_1_e_m_g.html#a96306dd25ba55aec1d206d64e901fbb1" target="_top" xlink:title=" ">
<polygon fill="none" stroke="black" points="161,-191 161,-221 274,-221 274,-191 161,-191"/>
<text text-anchor="start" x="169" y="-209" font-family="Helvetica,sans-Serif" font-size="10.00">ClvHd::EMG::enable</text>
<text text-anchor="middle" x="217.5" y="-198" font-family="Helvetica,sans-Serif" font-size="10.00">_channels</text>
</a>
</g>
</g>
<!-- Node1&#45;&gt;Node9 -->
<g id="edge13" class="edge">
<title>Node1&#45;&gt;Node9</title>
<path fill="none" stroke="midnightblue" d="M317.89,-219.55C303.2,-217.55 288.09,-215.49 274.22,-213.6"/>
<polygon fill="midnightblue" stroke="midnightblue" points="317.58,-223.04 327.96,-220.93 318.53,-216.11 317.58,-223.04"/>
</g>
<!-- Node10 -->
<g id="node10" class="node">
<title>Node10</title>
<g id="a_node10"><a xlink:href="class_clv_hd_1_1_e_m_g.html#a2451dfc524f943cf1cd50c0c93c466df" target="_top" xlink:title=" ">
<polygon fill="none" stroke="black" points="149.5,-152.5 149.5,-171.5 285.5,-171.5 285.5,-152.5 149.5,-152.5"/>
<text text-anchor="middle" x="217.5" y="-159.5" font-family="Helvetica,sans-Serif" font-size="10.00">ClvHd::EMG::enable_INA</text>
</a>
</g>
</g>
<!-- Node1&#45;&gt;Node10 -->
<g id="edge15" class="edge">
<title>Node1&#45;&gt;Node10</title>
<path fill="none" stroke="midnightblue" d="M367.4,-215.74C347.04,-205.42 318.27,-191.65 292,-182 281.32,-178.08 269.53,-174.54 258.56,-171.56"/>
<polygon fill="midnightblue" stroke="midnightblue" points="365.9,-218.9 376.39,-220.35 369.09,-212.67 365.9,-218.9"/>
</g>
<!-- Node11 -->
<g id="node11" class="node">
<title>Node11</title>
<g id="a_node11"><a xlink:href="class_clv_hd_1_1_e_m_g.html#a88344c3f87545fc0a6969798d846a122" target="_top" xlink:title=" ">
<polygon fill="none" stroke="black" points="147,-114.5 147,-133.5 288,-133.5 288,-114.5 147,-114.5"/>
<text text-anchor="middle" x="217.5" y="-121.5" font-family="Helvetica,sans-Serif" font-size="10.00">ClvHd::EMG::enable_SDM</text>
</a>
</g>
</g>
<!-- Node1&#45;&gt;Node11 -->
<g id="edge16" class="edge">
<title>Node1&#45;&gt;Node11</title>
<path fill="none" stroke="midnightblue" d="M379.08,-212.89C360.37,-193.16 326.97,-161.13 292,-143 284.63,-139.18 276.43,-136.09 268.27,-133.6"/>
<polygon fill="midnightblue" stroke="midnightblue" points="376.57,-215.33 385.94,-220.27 381.7,-210.57 376.57,-215.33"/>
</g>
<!-- Node12 -->
<g id="node12" class="node">
<title>Node12</title>
<g id="a_node12"><a xlink:href="class_clv_hd_1_1_e_m_g.html#a93c77aaec1b3784de83770216ed2e87c" target="_top" xlink:title=" ">
<polygon fill="none" stroke="black" points="143,-76.5 143,-95.5 292,-95.5 292,-76.5 143,-76.5"/>
<text text-anchor="middle" x="217.5" y="-83.5" font-family="Helvetica,sans-Serif" font-size="10.00">ClvHd::EMG::route_channel</text>
</a>
</g>
</g>
<!-- Node1&#45;&gt;Node12 -->
<g id="edge17" class="edge">
<title>Node1&#45;&gt;Node12</title>
<path fill="none" stroke="midnightblue" d="M384.47,-211.46C368.58,-183.9 334.97,-132.45 292,-105 285.89,-101.1 279.01,-97.99 271.98,-95.53"/>
<polygon fill="midnightblue" stroke="midnightblue" points="381.56,-213.43 389.5,-220.44 387.66,-210 381.56,-213.43"/>
</g>
<!-- Node13 -->
<g id="node13" class="node">
<title>Node13</title>
<g id="a_node13"><a xlink:href="class_clv_hd_1_1_e_m_g.html#a7a048493b7b3895dd6596fd06b3533e7" target="_top" xlink:title=" ">
<polygon fill="none" stroke="black" points="153.5,-38.5 153.5,-57.5 281.5,-57.5 281.5,-38.5 153.5,-38.5"/>
<text text-anchor="middle" x="217.5" y="-45.5" font-family="Helvetica,sans-Serif" font-size="10.00">ClvHd::EMG::set_mode</text>
</a>
</g>
</g>
<!-- Node1&#45;&gt;Node13 -->
<g id="edge19" class="edge">
<title>Node1&#45;&gt;Node13</title>
<path fill="none" stroke="midnightblue" d="M387.69,-210.28C374.73,-175.73 343.14,-104.38 292,-67 286.68,-63.11 280.63,-60.02 274.35,-57.55"/>
<polygon fill="midnightblue" stroke="midnightblue" points="384.56,-211.9 391.25,-220.12 391.14,-209.52 384.56,-211.9"/>
</g>
<!-- Node14 -->
<g id="node14" class="node">
<title>Node14</title>
<g id="a_node14"><a xlink:href="class_clv_hd_1_1_e_m_g.html#a7c9523474af8089ab99de828eeeaae28" target="_top" xlink:title=" ">
<polygon fill="none" stroke="black" points="162,-0.5 162,-19.5 273,-19.5 273,-0.5 162,-0.5"/>
<text text-anchor="middle" x="217.5" y="-7.5" font-family="Helvetica,sans-Serif" font-size="10.00">ClvHd::EMG::~EMG</text>
</a>
</g>
</g>
<!-- Node1&#45;&gt;Node14 -->
<g id="edge21" class="edge">
<title>Node1&#45;&gt;Node14</title>
<path fill="none" stroke="midnightblue" d="M390.2,-210.29C380.31,-169.84 352.05,-77.17 292,-29 286.45,-24.55 279.97,-21.13 273.2,-18.5"/>
<polygon fill="midnightblue" stroke="midnightblue" points="386.84,-211.29 392.51,-220.24 393.65,-209.71 386.84,-211.29"/>
</g>
<!-- Node3 -->
<g id="node3" class="node">
<title>Node3</title>
<g id="a_node3"><a xlink:href="class_clv_hd_1_1_e_m_g.html#a916369b10206c372f91d6ddde938d3a4" target="_top" xlink:title="setup Write all setup parameters to the board.">
<polygon fill="none" stroke="black" points="0,-289.5 0,-308.5 107,-308.5 107,-289.5 0,-289.5"/>
<text text-anchor="middle" x="53.5" y="-296.5" font-family="Helvetica,sans-Serif" font-size="10.00">ClvHd::EMG::setup</text>
</a>
</g>
</g>
<!-- Node2&#45;&gt;Node3 -->
<g id="edge2" class="edge">
<title>Node2&#45;&gt;Node3</title>
<path fill="none" stroke="midnightblue" d="M153.2,-450.77C149.6,-448.75 146.17,-446.5 143,-444 95.12,-406.13 66.81,-334.7 57.72,-308.74"/>
<polygon fill="midnightblue" stroke="midnightblue" points="151.91,-454.03 162.43,-455.32 155.01,-447.76 151.91,-454.03"/>
</g>
<!-- Node4&#45;&gt;Node3 -->
<g id="edge4" class="edge">
<title>Node4&#45;&gt;Node3</title>
<path fill="none" stroke="midnightblue" d="M153.35,-399.9C149.76,-398.08 146.28,-396.12 143,-394 106.1,-370.12 74.06,-327.5 60.89,-308.54"/>
<polygon fill="midnightblue" stroke="midnightblue" points="151.91,-403.09 162.46,-404.09 154.84,-396.73 151.91,-403.09"/>
</g>
<!-- Node5&#45;&gt;Node3 -->
<g id="edge6" class="edge">
<title>Node5&#45;&gt;Node3</title>
<path fill="none" stroke="midnightblue" d="M160.28,-362.46C154.35,-360.55 148.49,-358.4 143,-356 113.7,-343.18 83.1,-321.25 66.67,-308.66"/>
<polygon fill="midnightblue" stroke="midnightblue" points="159.67,-365.93 170.26,-365.45 161.68,-359.23 159.67,-365.93"/>
</g>
<!-- Node6&#45;&gt;Node3 -->
<g id="edge8" class="edge">
<title>Node6&#45;&gt;Node3</title>
<path fill="none" stroke="midnightblue" d="M165.79,-325.1C143.01,-319.76 116.51,-313.55 95.09,-308.52"/>
<polygon fill="midnightblue" stroke="midnightblue" points="165.09,-328.53 175.62,-327.41 166.68,-321.72 165.09,-328.53"/>
</g>
<!-- Node7&#45;&gt;Node3 -->
<g id="edge10" class="edge">
<title>Node7&#45;&gt;Node3</title>
<path fill="none" stroke="midnightblue" d="M143.27,-299C131.11,-299 118.72,-299 107.2,-299"/>
<polygon fill="midnightblue" stroke="midnightblue" points="143.4,-302.5 153.4,-299 143.4,-295.5 143.4,-302.5"/>
</g>
<!-- Node8&#45;&gt;Node3 -->
<g id="edge12" class="edge">
<title>Node8&#45;&gt;Node3</title>
<path fill="none" stroke="midnightblue" d="M152.42,-272.4C131.04,-278.21 108.02,-284.46 89.67,-289.45"/>
<polygon fill="midnightblue" stroke="midnightblue" points="153.37,-275.77 162.11,-269.77 151.54,-269.02 153.37,-275.77"/>
</g>
<!-- Node9&#45;&gt;Node3 -->
<g id="edge14" class="edge">
<title>Node9&#45;&gt;Node3</title>
<path fill="none" stroke="midnightblue" d="M155.48,-224.99C151.19,-226.86 146.98,-228.87 143,-231 111.91,-247.64 80.3,-274.99 64.62,-289.41"/>
<polygon fill="midnightblue" stroke="midnightblue" points="157.05,-228.13 164.98,-221.11 154.4,-221.65 157.05,-228.13"/>
</g>
<!-- Node12&#45;&gt;Node3 -->
<g id="edge18" class="edge">
<title>Node12&#45;&gt;Node3</title>
<path fill="none" stroke="midnightblue" d="M149.47,-100.33C147.2,-101.74 145.03,-103.3 143,-105 82.3,-155.91 61.24,-257.27 55.96,-289.16"/>
<polygon fill="midnightblue" stroke="midnightblue" points="151.41,-103.26 158.64,-95.52 148.16,-97.06 151.41,-103.26"/>
</g>
<!-- Node13&#45;&gt;Node3 -->
<g id="edge20" class="edge">
<title>Node13&#45;&gt;Node3</title>
<path fill="none" stroke="midnightblue" d="M148.58,-62.66C146.63,-63.99 144.76,-65.43 143,-67 72.95,-129.65 58.03,-253.84 55.14,-289.32"/>
<polygon fill="midnightblue" stroke="midnightblue" points="150.66,-65.51 157.66,-57.56 147.23,-59.4 150.66,-65.51"/>
</g>
</g>
</svg>
