<?xml version="1.0" encoding="UTF-8" standalone="no"?>
<!DOCTYPE svg PUBLIC "-//W3C//DTD SVG 1.1//EN"
 "http://www.w3.org/Graphics/SVG/1.1/DTD/svg11.dtd">
<!-- Generated by graphviz version 2.43.0 (0)
 -->
<!-- Title: ClvHd::EMG::read_precise_value Pages: 1 -->
<svg width="483pt" height="96pt"
 viewBox="0.00 0.00 483.00 95.50" xmlns="http://www.w3.org/2000/svg" xmlns:xlink="http://www.w3.org/1999/xlink">
<g id="graph0" class="graph" transform="scale(1 1) rotate(0) translate(4 91.5)">
<title>ClvHd::EMG::read_precise_value</title>
<!-- Node1 -->
<g id="node1" class="node">
<title>Node1</title>
<g id="a_node1"><a xlink:title=" ">
<polygon fill="#bfbfbf" stroke="black" points="0,-43.5 0,-73.5 143,-73.5 143,-43.5 0,-43.5"/>
<text text-anchor="start" x="8" y="-61.5" font-family="Helvetica,sans-Serif" font-size="10.00">ClvHd::EMG::read_precise</text>
<text text-anchor="middle" x="71.5" y="-50.5" font-family="Helvetica,sans-Serif" font-size="10.00">_value</text>
</a>
</g>
</g>
<!-- Node2 -->
<g id="node2" class="node">
<title>Node2</title>
<g id="a_node2"><a xlink:href="class_clv_hd_1_1_e_m_g.html#abd1e5e166e080416c664b0166ba75440" target="_top" xlink:title=" ">
<polygon fill="none" stroke="black" points="193,-68 193,-87 297,-87 297,-68 193,-68"/>
<text text-anchor="middle" x="245" y="-75" font-family="Helvetica,sans-Serif" font-size="10.00">ClvHd::EMG::conv</text>
</a>
</g>
</g>
<!-- Node1&#45;&gt;Node2 -->
<g id="edge1" class="edge">
<title>Node1&#45;&gt;Node2</title>
<path fill="none" stroke="midnightblue" d="M143.25,-66.34C156.35,-67.79 169.94,-69.29 182.73,-70.71"/>
<polygon fill="midnightblue" stroke="midnightblue" points="182.47,-74.21 192.8,-71.83 183.24,-67.25 182.47,-74.21"/>
</g>
<!-- Node3 -->
<g id="node3" class="node">
<title>Node3</title>
<g id="a_node3"><a xlink:href="class_clv_hd_1_1_master.html#ad552d7fff3892121269ebee55817c16c" target="_top" xlink:title="readReg read size byte starting from reg address from the module with the given id.">
<polygon fill="none" stroke="black" points="179,-30 179,-49 311,-49 311,-30 179,-30"/>
<text text-anchor="middle" x="245" y="-37" font-family="Helvetica,sans-Serif" font-size="10.00">ClvHd::Master::readReg</text>
</a>
</g>
</g>
<!-- Node1&#45;&gt;Node3 -->
<g id="edge2" class="edge">
<title>Node1&#45;&gt;Node3</title>
<path fill="none" stroke="midnightblue" d="M143.25,-50.66C151.73,-49.72 160.43,-48.76 168.97,-47.81"/>
<polygon fill="midnightblue" stroke="midnightblue" points="169.36,-51.29 178.92,-46.71 168.59,-44.33 169.36,-51.29"/>
</g>
<!-- Node4 -->
<g id="node4" class="node">
<title>Node4</title>
<g id="a_node4"><a xlink:href="class_communication_1_1_client.html#a69d9e6091a406da083655a2bec68a527" target="_top" xlink:title="readS read the com inmterface.">
<polygon fill="none" stroke="black" points="347,-49.5 347,-79.5 475,-79.5 475,-49.5 347,-49.5"/>
<text text-anchor="start" x="355" y="-67.5" font-family="Helvetica,sans-Serif" font-size="10.00">Communication::Client</text>
<text text-anchor="middle" x="411" y="-56.5" font-family="Helvetica,sans-Serif" font-size="10.00">::readS</text>
</a>
</g>
</g>
<!-- Node3&#45;&gt;Node4 -->
<g id="edge3" class="edge">
<title>Node3&#45;&gt;Node4</title>
<path fill="none" stroke="midnightblue" d="M308.47,-49.02C317.71,-50.43 327.3,-51.89 336.74,-53.33"/>
<polygon fill="midnightblue" stroke="midnightblue" points="336.48,-56.83 346.89,-54.88 337.53,-49.91 336.48,-56.83"/>
</g>
<!-- Node5 -->
<g id="node5" class="node">
<title>Node5</title>
<g id="a_node5"><a xlink:href="class_communication_1_1_client.html#a83e96cb781794b40ba2ffdbb39f54c40" target="_top" xlink:title="writeS write the com interface.">
<polygon fill="none" stroke="black" points="347,-0.5 347,-30.5 475,-30.5 475,-0.5 347,-0.5"/>
<text text-anchor="start" x="355" y="-18.5" font-family="Helvetica,sans-Serif" font-size="10.00">Communication::Client</text>
<text text-anchor="middle" x="411" y="-7.5" font-family="Helvetica,sans-Serif" font-size="10.00">::writeS</text>
</a>
</g>
</g>
<!-- Node3&#45;&gt;Node5 -->
<g id="edge4" class="edge">
<title>Node3&#45;&gt;Node5</title>
<path fill="none" stroke="midnightblue" d="M311.29,-29.95C319.7,-28.71 328.35,-27.45 336.88,-26.2"/>
<polygon fill="midnightblue" stroke="midnightblue" points="337.42,-29.66 346.81,-24.75 336.41,-22.73 337.42,-29.66"/>
</g>
</g>
</svg>
