<?xml version="1.0" encoding="UTF-8" standalone="no"?>
<!DOCTYPE svg PUBLIC "-//W3C//DTD SVG 1.1//EN"
 "http://www.w3.org/Graphics/SVG/1.1/DTD/svg11.dtd">
<!-- Generated by graphviz version 2.43.0 (0)
 -->
<!-- Title: Ui_MainWindow Pages: 1 -->
<svg width="104pt" height="84pt"
 viewBox="0.00 0.00 104.00 84.00" xmlns="http://www.w3.org/2000/svg" xmlns:xlink="http://www.w3.org/1999/xlink">
<g id="graph0" class="graph" transform="scale(1 1) rotate(0) translate(4 80)">
<title>Ui_MainWindow</title>
<!-- Node1 -->
<g id="node1" class="node">
<title>Node1</title>
<g id="a_node1"><a xlink:title=" ">
<polygon fill="#bfbfbf" stroke="black" points="0.5,-56.5 0.5,-75.5 95.5,-75.5 95.5,-56.5 0.5,-56.5"/>
<text text-anchor="middle" x="48" y="-63.5" font-family="Helvetica,sans-Serif" font-size="10.00">Ui_MainWindow</text>
</a>
</g>
</g>
<!-- Node2 -->
<g id="node2" class="node">
<title>Node2</title>
<g id="a_node2"><a xlink:href="class_ui_1_1_main_window.html" target="_top" xlink:title=" ">
<polygon fill="none" stroke="black" points="0,-0.5 0,-19.5 96,-19.5 96,-0.5 0,-0.5"/>
<text text-anchor="middle" x="48" y="-7.5" font-family="Helvetica,sans-Serif" font-size="10.00">Ui::MainWindow</text>
</a>
</g>
</g>
<!-- Node1&#45;&gt;Node2 -->
<g id="edge1" class="edge">
<title>Node1&#45;&gt;Node2</title>
<path fill="none" stroke="midnightblue" d="M35.1,-46.4C33.77,-37.36 34.65,-26.94 37.74,-19.75"/>
<polygon fill="midnightblue" stroke="midnightblue" points="31.72,-47.31 37.67,-56.08 38.49,-45.52 31.72,-47.31"/>
</g>
<!-- Node1&#45;&gt;Node2 -->
<g id="edge2" class="edge">
<title>Node1&#45;&gt;Node2</title>
<path fill="none" stroke="midnightblue" d="M48,-45.8C48,-36.91 48,-26.78 48,-19.75"/>
<polygon fill="midnightblue" stroke="midnightblue" points="44.5,-46.08 48,-56.08 51.5,-46.08 44.5,-46.08"/>
</g>
<!-- Node1&#45;&gt;Node2 -->
<g id="edge3" class="edge">
<title>Node1&#45;&gt;Node2</title>
<path fill="none" stroke="midnightblue" d="M60.9,-46.4C62.23,-37.36 61.35,-26.94 58.26,-19.75"/>
<polygon fill="midnightblue" stroke="midnightblue" points="57.51,-45.52 58.33,-56.08 64.28,-47.31 57.51,-45.52"/>
</g>
</g>
</svg>
