<?xml version="1.0" encoding="UTF-8" standalone="no"?>
<!DOCTYPE svg PUBLIC "-//W3C//DTD SVG 1.1//EN"
 "http://www.w3.org/Graphics/SVG/1.1/DTD/svg11.dtd">
<!-- Generated by graphviz version 2.43.0 (0)
 -->
<!-- Title: MainWindow::push_lsl Pages: 1 -->
<svg width="656pt" height="306pt"
 viewBox="0.00 0.00 656.00 306.00" xmlns="http://www.w3.org/2000/svg" xmlns:xlink="http://www.w3.org/1999/xlink">
<g id="graph0" class="graph" transform="scale(1 1) rotate(0) translate(4 302)">
<title>MainWindow::push_lsl</title>
<!-- Node1 -->
<g id="node1" class="node">
<title>Node1</title>
<g id="a_node1"><a xlink:title="push_lsl Push data to the LSL stream.">
<polygon fill="#bfbfbf" stroke="black" points="0,-163 0,-182 125,-182 125,-163 0,-163"/>
<text text-anchor="middle" x="62.5" y="-170" font-family="Helvetica,sans-Serif" font-size="10.00">MainWindow::push_lsl</text>
</a>
</g>
</g>
<!-- Node2 -->
<g id="node2" class="node">
<title>Node2</title>
<g id="a_node2"><a xlink:href="class_clv_hd_1_1_master.html#ada1c7c69378bd82afe1019859a1ba34e" target="_top" xlink:title="data_ready Check if the data is ready to be read from from the given channel of the module with the g...">
<polygon fill="none" stroke="black" points="182,-267.5 182,-297.5 295,-297.5 295,-267.5 182,-267.5"/>
<text text-anchor="start" x="190" y="-285.5" font-family="Helvetica,sans-Serif" font-size="10.00">ClvHd::Master::data</text>
<text text-anchor="middle" x="238.5" y="-274.5" font-family="Helvetica,sans-Serif" font-size="10.00">_ready</text>
</a>
</g>
</g>
<!-- Node1&#45;&gt;Node2 -->
<g id="edge1" class="edge">
<title>Node1&#45;&gt;Node2</title>
<path fill="none" stroke="midnightblue" d="M71.95,-182.06C87.79,-199.43 123.7,-236.32 161,-257.5 164.86,-259.69 168.95,-261.73 173.14,-263.61"/>
<polygon fill="midnightblue" stroke="midnightblue" points="171.86,-266.87 182.43,-267.48 174.55,-260.41 171.86,-266.87"/>
</g>
<!-- Node3 -->
<g id="node3" class="node">
<title>Node3</title>
<g id="a_node3"><a xlink:href="class_clv_hd_1_1_master.html#aeea1a25cfe82b72bc8ba2281d1237d08" target="_top" xlink:title="fast_EMG Read the previously requested fast data(2byte) from the given channel of the module with the...">
<polygon fill="none" stroke="black" points="169.5,-229 169.5,-248 307.5,-248 307.5,-229 169.5,-229"/>
<text text-anchor="middle" x="238.5" y="-236" font-family="Helvetica,sans-Serif" font-size="10.00">ClvHd::Master::fast_EMG</text>
</a>
</g>
</g>
<!-- Node1&#45;&gt;Node3 -->
<g id="edge2" class="edge">
<title>Node1&#45;&gt;Node3</title>
<path fill="none" stroke="midnightblue" d="M80.65,-182.1C99.76,-192.49 131.84,-208.98 161,-219.5 167.9,-221.99 175.27,-224.27 182.61,-226.32"/>
<polygon fill="midnightblue" stroke="midnightblue" points="181.98,-229.78 192.54,-228.97 183.78,-223.01 181.98,-229.78"/>
</g>
<!-- Node4 -->
<g id="node4" class="node">
<title>Node4</title>
<g id="a_node4"><a xlink:href="class_clv_hd_1_1_master.html#a20857873ff9bef3f0ee85fda32cf447a" target="_top" xlink:title="get_error Get the active error from the module with the given id.">
<polygon fill="none" stroke="black" points="185,-179.5 185,-209.5 292,-209.5 292,-179.5 185,-179.5"/>
<text text-anchor="start" x="193" y="-197.5" font-family="Helvetica,sans-Serif" font-size="10.00">ClvHd::Master::get</text>
<text text-anchor="middle" x="238.5" y="-186.5" font-family="Helvetica,sans-Serif" font-size="10.00">_error</text>
</a>
</g>
</g>
<!-- Node1&#45;&gt;Node4 -->
<g id="edge3" class="edge">
<title>Node1&#45;&gt;Node4</title>
<path fill="none" stroke="midnightblue" d="M125.34,-180.32C141.28,-182.33 158.46,-184.51 174.47,-186.53"/>
<polygon fill="midnightblue" stroke="midnightblue" points="174.43,-190.05 184.79,-187.84 175.31,-183.11 174.43,-190.05"/>
</g>
<!-- Node5 -->
<g id="node5" class="node">
<title>Node5</title>
<g id="a_node5"><a xlink:href="class_clv_hd_1_1_master.html#a9858a36df2b319fdf0c63bc4e93e79f6" target="_top" xlink:title="precise_EMG Read the previously requested precise data(3byte) from the given channel of the module wi...">
<polygon fill="none" stroke="black" points="161,-141 161,-160 316,-160 316,-141 161,-141"/>
<text text-anchor="middle" x="238.5" y="-148" font-family="Helvetica,sans-Serif" font-size="10.00">ClvHd::Master::precise_EMG</text>
</a>
</g>
</g>
<!-- Node1&#45;&gt;Node5 -->
<g id="edge4" class="edge">
<title>Node1&#45;&gt;Node5</title>
<path fill="none" stroke="midnightblue" d="M125.34,-164.68C133.99,-163.59 143.02,-162.45 152.02,-161.31"/>
<polygon fill="midnightblue" stroke="midnightblue" points="152.67,-164.75 162.15,-160.03 151.79,-157.81 152.67,-164.75"/>
</g>
<!-- Node6 -->
<g id="node6" class="node">
<title>Node6</title>
<g id="a_node6"><a xlink:href="classlsl_1_1stream__outlet.html#a675bbe044a5053087e05e0267fe6722a" target="_top" xlink:title=" ">
<polygon fill="none" stroke="black" points="187.5,-73.5 187.5,-103.5 289.5,-103.5 289.5,-73.5 187.5,-73.5"/>
<text text-anchor="start" x="195.5" y="-91.5" font-family="Helvetica,sans-Serif" font-size="10.00">lsl::stream_outlet</text>
<text text-anchor="middle" x="238.5" y="-80.5" font-family="Helvetica,sans-Serif" font-size="10.00">::push_sample</text>
</a>
</g>
</g>
<!-- Node1&#45;&gt;Node6 -->
<g id="edge5" class="edge">
<title>Node1&#45;&gt;Node6</title>
<path fill="none" stroke="midnightblue" d="M83.46,-162.86C111.07,-149.53 161.55,-125.16 197.19,-107.96"/>
<polygon fill="midnightblue" stroke="midnightblue" points="198.87,-111.03 206.36,-103.53 195.83,-104.73 198.87,-111.03"/>
</g>
<!-- Node7 -->
<g id="node7" class="node">
<title>Node7</title>
<g id="a_node7"><a xlink:href="class_clv_hd_1_1_master.html#af6c6b4b2d00f398973c382bdfce6f78f" target="_top" xlink:title="Read all data registers (State, 3fast, 3precise) from each available module.">
<polygon fill="none" stroke="black" points="182,-24.5 182,-54.5 295,-54.5 295,-24.5 182,-24.5"/>
<text text-anchor="start" x="190" y="-42.5" font-family="Helvetica,sans-Serif" font-size="10.00">ClvHd::Master::read</text>
<text text-anchor="middle" x="238.5" y="-31.5" font-family="Helvetica,sans-Serif" font-size="10.00">_all_signal</text>
</a>
</g>
</g>
<!-- Node1&#45;&gt;Node7 -->
<g id="edge7" class="edge">
<title>Node1&#45;&gt;Node7</title>
<path fill="none" stroke="midnightblue" d="M69.58,-162.89C83.31,-141.96 118.85,-91.89 161,-64.5 164.73,-62.08 168.71,-59.87 172.82,-57.87"/>
<polygon fill="midnightblue" stroke="midnightblue" points="174.28,-61.05 181.99,-53.79 171.43,-54.65 174.28,-61.05"/>
</g>
<!-- Node6&#45;&gt;Node6 -->
<g id="edge6" class="edge">
<title>Node6&#45;&gt;Node6</title>
<path fill="none" stroke="midnightblue" d="M207.83,-103.66C200.43,-113.06 210.66,-122 238.5,-122 255.47,-122 265.89,-118.68 269.77,-113.96"/>
<polygon fill="midnightblue" stroke="midnightblue" points="273.25,-113.44 269.17,-103.66 266.26,-113.85 273.25,-113.44"/>
</g>
<!-- Node8 -->
<g id="node8" class="node">
<title>Node8</title>
<g id="a_node8"><a xlink:href="class_clv_hd_1_1_master.html#ad552d7fff3892121269ebee55817c16c" target="_top" xlink:title="readReg read size byte starting from reg address from the module with the given id.">
<polygon fill="none" stroke="black" points="352,-30 352,-49 484,-49 484,-30 352,-30"/>
<text text-anchor="middle" x="418" y="-37" font-family="Helvetica,sans-Serif" font-size="10.00">ClvHd::Master::readReg</text>
</a>
</g>
</g>
<!-- Node7&#45;&gt;Node8 -->
<g id="edge8" class="edge">
<title>Node7&#45;&gt;Node8</title>
<path fill="none" stroke="midnightblue" d="M295.18,-39.5C309.94,-39.5 326.12,-39.5 341.74,-39.5"/>
<polygon fill="midnightblue" stroke="midnightblue" points="341.9,-43 351.9,-39.5 341.9,-36 341.9,-43"/>
</g>
<!-- Node9 -->
<g id="node9" class="node">
<title>Node9</title>
<g id="a_node9"><a xlink:href="class_communication_1_1_client.html#a69d9e6091a406da083655a2bec68a527" target="_top" xlink:title="readS read the com inmterface.">
<polygon fill="none" stroke="black" points="520,-49.5 520,-79.5 648,-79.5 648,-49.5 520,-49.5"/>
<text text-anchor="start" x="528" y="-67.5" font-family="Helvetica,sans-Serif" font-size="10.00">Communication::Client</text>
<text text-anchor="middle" x="584" y="-56.5" font-family="Helvetica,sans-Serif" font-size="10.00">::readS</text>
</a>
</g>
</g>
<!-- Node8&#45;&gt;Node9 -->
<g id="edge9" class="edge">
<title>Node8&#45;&gt;Node9</title>
<path fill="none" stroke="midnightblue" d="M481.47,-49.02C490.71,-50.43 500.3,-51.89 509.74,-53.33"/>
<polygon fill="midnightblue" stroke="midnightblue" points="509.48,-56.83 519.89,-54.88 510.53,-49.91 509.48,-56.83"/>
</g>
<!-- Node10 -->
<g id="node10" class="node">
<title>Node10</title>
<g id="a_node10"><a xlink:href="class_communication_1_1_client.html#a83e96cb781794b40ba2ffdbb39f54c40" target="_top" xlink:title="writeS write the com interface.">
<polygon fill="none" stroke="black" points="520,-0.5 520,-30.5 648,-30.5 648,-0.5 520,-0.5"/>
<text text-anchor="start" x="528" y="-18.5" font-family="Helvetica,sans-Serif" font-size="10.00">Communication::Client</text>
<text text-anchor="middle" x="584" y="-7.5" font-family="Helvetica,sans-Serif" font-size="10.00">::writeS</text>
</a>
</g>
</g>
<!-- Node8&#45;&gt;Node10 -->
<g id="edge10" class="edge">
<title>Node8&#45;&gt;Node10</title>
<path fill="none" stroke="midnightblue" d="M484.29,-29.95C492.7,-28.71 501.35,-27.45 509.88,-26.2"/>
<polygon fill="midnightblue" stroke="midnightblue" points="510.42,-29.66 519.81,-24.75 509.41,-22.73 510.42,-29.66"/>
</g>
</g>
</svg>
