<?xml version="1.0" encoding="UTF-8" standalone="no"?>
<!DOCTYPE svg PUBLIC "-//W3C//DTD SVG 1.1//EN"
 "http://www.w3.org/Graphics/SVG/1.1/DTD/svg11.dtd">
<!-- Generated by graphviz version 2.43.0 (0)
 -->
<!-- Title: MainWindow::streaming_loop Pages: 1 -->
<svg width="853pt" height="306pt"
 viewBox="0.00 0.00 853.00 306.00" xmlns="http://www.w3.org/2000/svg" xmlns:xlink="http://www.w3.org/1999/xlink">
<g id="graph0" class="graph" transform="scale(1 1) rotate(0) translate(4 302)">
<title>MainWindow::streaming_loop</title>
<!-- Node1 -->
<g id="node1" class="node">
<title>Node1</title>
<g id="a_node1"><a xlink:title="streaming_loop Loop that continuously reads data from the board and send it to the LSL stream.">
<polygon fill="#bfbfbf" stroke="black" points="0,-163 0,-182 161,-182 161,-163 0,-163"/>
<text text-anchor="middle" x="80.5" y="-170" font-family="Helvetica,sans-Serif" font-size="10.00">MainWindow::streaming_loop</text>
</a>
</g>
</g>
<!-- Node2 -->
<g id="node2" class="node">
<title>Node2</title>
<g id="a_node2"><a xlink:href="class_main_window.html#ab015c2fb4f4636468144e4c683882594" target="_top" xlink:title="push_lsl Push data to the LSL stream.">
<polygon fill="none" stroke="black" points="197,-163 197,-182 322,-182 322,-163 197,-163"/>
<text text-anchor="middle" x="259.5" y="-170" font-family="Helvetica,sans-Serif" font-size="10.00">MainWindow::push_lsl</text>
</a>
</g>
</g>
<!-- Node1&#45;&gt;Node2 -->
<g id="edge1" class="edge">
<title>Node1&#45;&gt;Node2</title>
<path fill="none" stroke="midnightblue" d="M161.2,-172.5C169.68,-172.5 178.27,-172.5 186.65,-172.5"/>
<polygon fill="midnightblue" stroke="midnightblue" points="186.75,-176 196.75,-172.5 186.75,-169 186.75,-176"/>
</g>
<!-- Node3 -->
<g id="node3" class="node">
<title>Node3</title>
<g id="a_node3"><a xlink:href="class_clv_hd_1_1_master.html#ada1c7c69378bd82afe1019859a1ba34e" target="_top" xlink:title="data_ready Check if the data is ready to be read from from the given channel of the module with the g...">
<polygon fill="none" stroke="black" points="379,-267.5 379,-297.5 492,-297.5 492,-267.5 379,-267.5"/>
<text text-anchor="start" x="387" y="-285.5" font-family="Helvetica,sans-Serif" font-size="10.00">ClvHd::Master::data</text>
<text text-anchor="middle" x="435.5" y="-274.5" font-family="Helvetica,sans-Serif" font-size="10.00">_ready</text>
</a>
</g>
</g>
<!-- Node2&#45;&gt;Node3 -->
<g id="edge2" class="edge">
<title>Node2&#45;&gt;Node3</title>
<path fill="none" stroke="midnightblue" d="M268.95,-182.06C284.79,-199.43 320.7,-236.32 358,-257.5 361.86,-259.69 365.95,-261.73 370.14,-263.61"/>
<polygon fill="midnightblue" stroke="midnightblue" points="368.86,-266.87 379.43,-267.48 371.55,-260.41 368.86,-266.87"/>
</g>
<!-- Node4 -->
<g id="node4" class="node">
<title>Node4</title>
<g id="a_node4"><a xlink:href="class_clv_hd_1_1_master.html#aeea1a25cfe82b72bc8ba2281d1237d08" target="_top" xlink:title="fast_EMG Read the previously requested fast data(2byte) from the given channel of the module with the...">
<polygon fill="none" stroke="black" points="366.5,-229 366.5,-248 504.5,-248 504.5,-229 366.5,-229"/>
<text text-anchor="middle" x="435.5" y="-236" font-family="Helvetica,sans-Serif" font-size="10.00">ClvHd::Master::fast_EMG</text>
</a>
</g>
</g>
<!-- Node2&#45;&gt;Node4 -->
<g id="edge3" class="edge">
<title>Node2&#45;&gt;Node4</title>
<path fill="none" stroke="midnightblue" d="M277.65,-182.1C296.76,-192.49 328.84,-208.98 358,-219.5 364.9,-221.99 372.27,-224.27 379.61,-226.32"/>
<polygon fill="midnightblue" stroke="midnightblue" points="378.98,-229.78 389.54,-228.97 380.78,-223.01 378.98,-229.78"/>
</g>
<!-- Node5 -->
<g id="node5" class="node">
<title>Node5</title>
<g id="a_node5"><a xlink:href="class_clv_hd_1_1_master.html#a20857873ff9bef3f0ee85fda32cf447a" target="_top" xlink:title="get_error Get the active error from the module with the given id.">
<polygon fill="none" stroke="black" points="382,-179.5 382,-209.5 489,-209.5 489,-179.5 382,-179.5"/>
<text text-anchor="start" x="390" y="-197.5" font-family="Helvetica,sans-Serif" font-size="10.00">ClvHd::Master::get</text>
<text text-anchor="middle" x="435.5" y="-186.5" font-family="Helvetica,sans-Serif" font-size="10.00">_error</text>
</a>
</g>
</g>
<!-- Node2&#45;&gt;Node5 -->
<g id="edge4" class="edge">
<title>Node2&#45;&gt;Node5</title>
<path fill="none" stroke="midnightblue" d="M322.34,-180.32C338.28,-182.33 355.46,-184.51 371.47,-186.53"/>
<polygon fill="midnightblue" stroke="midnightblue" points="371.43,-190.05 381.79,-187.84 372.31,-183.11 371.43,-190.05"/>
</g>
<!-- Node6 -->
<g id="node6" class="node">
<title>Node6</title>
<g id="a_node6"><a xlink:href="class_clv_hd_1_1_master.html#a9858a36df2b319fdf0c63bc4e93e79f6" target="_top" xlink:title="precise_EMG Read the previously requested precise data(3byte) from the given channel of the module wi...">
<polygon fill="none" stroke="black" points="358,-141 358,-160 513,-160 513,-141 358,-141"/>
<text text-anchor="middle" x="435.5" y="-148" font-family="Helvetica,sans-Serif" font-size="10.00">ClvHd::Master::precise_EMG</text>
</a>
</g>
</g>
<!-- Node2&#45;&gt;Node6 -->
<g id="edge5" class="edge">
<title>Node2&#45;&gt;Node6</title>
<path fill="none" stroke="midnightblue" d="M322.34,-164.68C330.99,-163.59 340.02,-162.45 349.02,-161.31"/>
<polygon fill="midnightblue" stroke="midnightblue" points="349.67,-164.75 359.15,-160.03 348.79,-157.81 349.67,-164.75"/>
</g>
<!-- Node7 -->
<g id="node7" class="node">
<title>Node7</title>
<g id="a_node7"><a xlink:href="classlsl_1_1stream__outlet.html#a675bbe044a5053087e05e0267fe6722a" target="_top" xlink:title=" ">
<polygon fill="none" stroke="black" points="384.5,-73.5 384.5,-103.5 486.5,-103.5 486.5,-73.5 384.5,-73.5"/>
<text text-anchor="start" x="392.5" y="-91.5" font-family="Helvetica,sans-Serif" font-size="10.00">lsl::stream_outlet</text>
<text text-anchor="middle" x="435.5" y="-80.5" font-family="Helvetica,sans-Serif" font-size="10.00">::push_sample</text>
</a>
</g>
</g>
<!-- Node2&#45;&gt;Node7 -->
<g id="edge6" class="edge">
<title>Node2&#45;&gt;Node7</title>
<path fill="none" stroke="midnightblue" d="M280.46,-162.86C308.07,-149.53 358.55,-125.16 394.19,-107.96"/>
<polygon fill="midnightblue" stroke="midnightblue" points="395.87,-111.03 403.36,-103.53 392.83,-104.73 395.87,-111.03"/>
</g>
<!-- Node8 -->
<g id="node8" class="node">
<title>Node8</title>
<g id="a_node8"><a xlink:href="class_clv_hd_1_1_master.html#af6c6b4b2d00f398973c382bdfce6f78f" target="_top" xlink:title="Read all data registers (State, 3fast, 3precise) from each available module.">
<polygon fill="none" stroke="black" points="379,-24.5 379,-54.5 492,-54.5 492,-24.5 379,-24.5"/>
<text text-anchor="start" x="387" y="-42.5" font-family="Helvetica,sans-Serif" font-size="10.00">ClvHd::Master::read</text>
<text text-anchor="middle" x="435.5" y="-31.5" font-family="Helvetica,sans-Serif" font-size="10.00">_all_signal</text>
</a>
</g>
</g>
<!-- Node2&#45;&gt;Node8 -->
<g id="edge8" class="edge">
<title>Node2&#45;&gt;Node8</title>
<path fill="none" stroke="midnightblue" d="M266.58,-162.89C280.31,-141.96 315.85,-91.89 358,-64.5 361.73,-62.08 365.71,-59.87 369.82,-57.87"/>
<polygon fill="midnightblue" stroke="midnightblue" points="371.28,-61.05 378.99,-53.79 368.43,-54.65 371.28,-61.05"/>
</g>
<!-- Node7&#45;&gt;Node7 -->
<g id="edge7" class="edge">
<title>Node7&#45;&gt;Node7</title>
<path fill="none" stroke="midnightblue" d="M404.83,-103.66C397.43,-113.06 407.66,-122 435.5,-122 452.47,-122 462.89,-118.68 466.77,-113.96"/>
<polygon fill="midnightblue" stroke="midnightblue" points="470.25,-113.44 466.17,-103.66 463.26,-113.85 470.25,-113.44"/>
</g>
<!-- Node9 -->
<g id="node9" class="node">
<title>Node9</title>
<g id="a_node9"><a xlink:href="class_clv_hd_1_1_master.html#ad552d7fff3892121269ebee55817c16c" target="_top" xlink:title="readReg read size byte starting from reg address from the module with the given id.">
<polygon fill="none" stroke="black" points="549,-30 549,-49 681,-49 681,-30 549,-30"/>
<text text-anchor="middle" x="615" y="-37" font-family="Helvetica,sans-Serif" font-size="10.00">ClvHd::Master::readReg</text>
</a>
</g>
</g>
<!-- Node8&#45;&gt;Node9 -->
<g id="edge9" class="edge">
<title>Node8&#45;&gt;Node9</title>
<path fill="none" stroke="midnightblue" d="M492.18,-39.5C506.94,-39.5 523.12,-39.5 538.74,-39.5"/>
<polygon fill="midnightblue" stroke="midnightblue" points="538.9,-43 548.9,-39.5 538.9,-36 538.9,-43"/>
</g>
<!-- Node10 -->
<g id="node10" class="node">
<title>Node10</title>
<g id="a_node10"><a xlink:href="class_communication_1_1_client.html#a69d9e6091a406da083655a2bec68a527" target="_top" xlink:title="readS read the com inmterface.">
<polygon fill="none" stroke="black" points="717,-49.5 717,-79.5 845,-79.5 845,-49.5 717,-49.5"/>
<text text-anchor="start" x="725" y="-67.5" font-family="Helvetica,sans-Serif" font-size="10.00">Communication::Client</text>
<text text-anchor="middle" x="781" y="-56.5" font-family="Helvetica,sans-Serif" font-size="10.00">::readS</text>
</a>
</g>
</g>
<!-- Node9&#45;&gt;Node10 -->
<g id="edge10" class="edge">
<title>Node9&#45;&gt;Node10</title>
<path fill="none" stroke="midnightblue" d="M678.47,-49.02C687.71,-50.43 697.3,-51.89 706.74,-53.33"/>
<polygon fill="midnightblue" stroke="midnightblue" points="706.48,-56.83 716.89,-54.88 707.53,-49.91 706.48,-56.83"/>
</g>
<!-- Node11 -->
<g id="node11" class="node">
<title>Node11</title>
<g id="a_node11"><a xlink:href="class_communication_1_1_client.html#a83e96cb781794b40ba2ffdbb39f54c40" target="_top" xlink:title="writeS write the com interface.">
<polygon fill="none" stroke="black" points="717,-0.5 717,-30.5 845,-30.5 845,-0.5 717,-0.5"/>
<text text-anchor="start" x="725" y="-18.5" font-family="Helvetica,sans-Serif" font-size="10.00">Communication::Client</text>
<text text-anchor="middle" x="781" y="-7.5" font-family="Helvetica,sans-Serif" font-size="10.00">::writeS</text>
</a>
</g>
</g>
<!-- Node9&#45;&gt;Node11 -->
<g id="edge11" class="edge">
<title>Node9&#45;&gt;Node11</title>
<path fill="none" stroke="midnightblue" d="M681.29,-29.95C689.7,-28.71 698.35,-27.45 706.88,-26.2"/>
<polygon fill="midnightblue" stroke="midnightblue" points="707.42,-29.66 716.81,-24.75 706.41,-22.73 707.42,-29.66"/>
</g>
</g>
</svg>
