<?xml version="1.0" encoding="UTF-8" standalone="no"?>
<!DOCTYPE svg PUBLIC "-//W3C//DTD SVG 1.1//EN"
 "http://www.w3.org/Graphics/SVG/1.1/DTD/svg11.dtd">
<!-- Generated by graphviz version 2.43.0 (0)
 -->
<!-- Title: ClvHdEMG::ClvHdEMG Pages: 1 -->
<svg width="668pt" height="66pt"
 viewBox="0.00 0.00 668.00 66.00" xmlns="http://www.w3.org/2000/svg" xmlns:xlink="http://www.w3.org/1999/xlink">
<g id="graph0" class="graph" transform="scale(1 1) rotate(0) translate(4 62)">
<title>ClvHdEMG::ClvHdEMG</title>
<!-- Node1 -->
<g id="node1" class="node">
<title>Node1</title>
<g id="a_node1"><a xlink:title=" ">
<polygon fill="#bfbfbf" stroke="black" points="0,-19.5 0,-38.5 126,-38.5 126,-19.5 0,-19.5"/>
<text text-anchor="middle" x="63" y="-26.5" font-family="Helvetica,sans-Serif" font-size="10.00">ClvHdEMG::ClvHdEMG</text>
</a>
</g>
</g>
<!-- Node2 -->
<g id="node2" class="node">
<title>Node2</title>
<g id="a_node2"><a xlink:href="class_clv_hd_e_m_g.html#a191e4aaaaf4aaf1231ae020e0385c641" target="_top" xlink:title=" ">
<polygon fill="none" stroke="black" points="386.5,-38.5 386.5,-57.5 484.5,-57.5 484.5,-38.5 386.5,-38.5"/>
<text text-anchor="middle" x="435.5" y="-45.5" font-family="Helvetica,sans-Serif" font-size="10.00">ClvHdEMG::blink</text>
</a>
</g>
</g>
<!-- Node1&#45;&gt;Node2 -->
<g id="edge1" class="edge">
<title>Node1&#45;&gt;Node2</title>
<path fill="none" stroke="midnightblue" d="M126.01,-32.18C195.77,-35.76 308.19,-41.52 376.33,-45.02"/>
<polygon fill="midnightblue" stroke="midnightblue" points="376.3,-48.52 386.46,-45.54 376.65,-41.53 376.3,-48.52"/>
</g>
<!-- Node4 -->
<g id="node4" class="node">
<title>Node4</title>
<g id="a_node4"><a xlink:href="class_clv_hd_e_m_g.html#aa37c1b5084bd70b6bbbbeb45c2a7b590" target="_top" xlink:title=" ">
<polygon fill="none" stroke="black" points="162,-0.5 162,-19.5 331,-19.5 331,-0.5 162,-0.5"/>
<text text-anchor="middle" x="246.5" y="-7.5" font-family="Helvetica,sans-Serif" font-size="10.00">ClvHdEMG::nb_emg_connected</text>
</a>
</g>
</g>
<!-- Node1&#45;&gt;Node4 -->
<g id="edge3" class="edge">
<title>Node1&#45;&gt;Node4</title>
<path fill="none" stroke="midnightblue" d="M126.21,-22.49C134.47,-21.62 143.08,-20.72 151.73,-19.82"/>
<polygon fill="midnightblue" stroke="midnightblue" points="152.3,-23.28 161.88,-18.75 151.57,-16.31 152.3,-23.28"/>
</g>
<!-- Node3 -->
<g id="node3" class="node">
<title>Node3</title>
<g id="a_node3"><a xlink:href="class_clv_hd_e_m_g.html#aaf8373a7a89ec6cd375534689474d9b0" target="_top" xlink:title=" ">
<polygon fill="none" stroke="black" points="540,-19.5 540,-38.5 660,-38.5 660,-19.5 540,-19.5"/>
<text text-anchor="middle" x="600" y="-26.5" font-family="Helvetica,sans-Serif" font-size="10.00">ClvHdEMG::selectBrd</text>
</a>
</g>
</g>
<!-- Node2&#45;&gt;Node3 -->
<g id="edge2" class="edge">
<title>Node2&#45;&gt;Node3</title>
<path fill="none" stroke="midnightblue" d="M484.82,-42.35C498.88,-40.71 514.53,-38.88 529.61,-37.11"/>
<polygon fill="midnightblue" stroke="midnightblue" points="530.42,-40.54 539.95,-35.9 529.61,-33.59 530.42,-40.54"/>
</g>
<!-- Node5 -->
<g id="node5" class="node">
<title>Node5</title>
<g id="a_node5"><a xlink:href="class_clv_hd_e_m_g.html#a08b0c8e199e26d57e94181206b45020f" target="_top" xlink:title=" ">
<polygon fill="none" stroke="black" points="367,-0.5 367,-19.5 504,-19.5 504,-0.5 367,-0.5"/>
<text text-anchor="middle" x="435.5" y="-7.5" font-family="Helvetica,sans-Serif" font-size="10.00">ClvHdEMG::readRegister</text>
</a>
</g>
</g>
<!-- Node4&#45;&gt;Node5 -->
<g id="edge4" class="edge">
<title>Node4&#45;&gt;Node5</title>
<path fill="none" stroke="midnightblue" d="M331.15,-10C339.66,-10 348.27,-10 356.71,-10"/>
<polygon fill="midnightblue" stroke="midnightblue" points="356.9,-13.5 366.9,-10 356.9,-6.5 356.9,-13.5"/>
</g>
<!-- Node5&#45;&gt;Node3 -->
<g id="edge5" class="edge">
<title>Node5&#45;&gt;Node3</title>
<path fill="none" stroke="midnightblue" d="M504,-17.89C512.59,-18.9 521.39,-19.93 530,-20.93"/>
<polygon fill="midnightblue" stroke="midnightblue" points="529.65,-24.42 539.99,-22.1 530.47,-17.46 529.65,-24.42"/>
</g>
</g>
</svg>
