<?xml version="1.0" encoding="UTF-8" standalone="no"?>
<!DOCTYPE svg PUBLIC "-//W3C//DTD SVG 1.1//EN"
 "http://www.w3.org/Graphics/SVG/1.1/DTD/svg11.dtd">
<!-- Generated by graphviz version 2.43.0 (0)
 -->
<!-- Title: ClvHd::EMG::conv Pages: 1 -->
<svg width="291pt" height="176pt"
 viewBox="0.00 0.00 291.00 175.50" xmlns="http://www.w3.org/2000/svg" xmlns:xlink="http://www.w3.org/1999/xlink">
<g id="graph0" class="graph" transform="scale(1 1) rotate(0) translate(4 171.5)">
<title>ClvHd::EMG::conv</title>
<!-- Node1 -->
<g id="node1" class="node">
<title>Node1</title>
<g id="a_node1"><a xlink:title=" ">
<polygon fill="#bfbfbf" stroke="black" points="179,-79 179,-98 283,-98 283,-79 179,-79"/>
<text text-anchor="middle" x="231" y="-86" font-family="Helvetica,sans-Serif" font-size="10.00">ClvHd::EMG::conv</text>
</a>
</g>
</g>
<!-- Node2 -->
<g id="node2" class="node">
<title>Node2</title>
<g id="a_node2"><a xlink:href="class_clv_hd_1_1_e_m_g.html#a9c274152c1aff1186d06c8627a77bf4c" target="_top" xlink:title=" ">
<polygon fill="none" stroke="black" points="6,-148 6,-167 137,-167 137,-148 6,-148"/>
<text text-anchor="middle" x="71.5" y="-155" font-family="Helvetica,sans-Serif" font-size="10.00">ClvHd::EMG::fast_value</text>
</a>
</g>
</g>
<!-- Node1&#45;&gt;Node2 -->
<g id="edge1" class="edge">
<title>Node1&#45;&gt;Node2</title>
<path fill="none" stroke="midnightblue" d="M207.12,-103.84C190.04,-114.74 165.82,-129.06 143,-138.5 134.1,-142.18 124.27,-145.36 114.85,-147.99"/>
<polygon fill="midnightblue" stroke="midnightblue" points="209.33,-106.58 215.81,-98.19 205.52,-100.71 209.33,-106.58"/>
</g>
<!-- Node3 -->
<g id="node3" class="node">
<title>Node3</title>
<g id="a_node3"><a xlink:href="class_clv_hd_1_1_e_m_g.html#affc2d24597a8ead08032e898dd8d53bf" target="_top" xlink:title=" ">
<polygon fill="none" stroke="black" points="13.5,-98.5 13.5,-128.5 129.5,-128.5 129.5,-98.5 13.5,-98.5"/>
<text text-anchor="start" x="21.5" y="-116.5" font-family="Helvetica,sans-Serif" font-size="10.00">ClvHd::EMG::precise</text>
<text text-anchor="middle" x="71.5" y="-105.5" font-family="Helvetica,sans-Serif" font-size="10.00">_value</text>
</a>
</g>
</g>
<!-- Node1&#45;&gt;Node3 -->
<g id="edge2" class="edge">
<title>Node1&#45;&gt;Node3</title>
<path fill="none" stroke="midnightblue" d="M168.72,-98.23C155.86,-100.27 142.35,-102.41 129.65,-104.43"/>
<polygon fill="midnightblue" stroke="midnightblue" points="169.54,-101.64 178.86,-96.62 168.44,-94.73 169.54,-101.64"/>
</g>
<!-- Node4 -->
<g id="node4" class="node">
<title>Node4</title>
<g id="a_node4"><a xlink:href="class_clv_hd_1_1_e_m_g.html#a755e5a83ea9422329354be92db9d2412" target="_top" xlink:title=" ">
<polygon fill="none" stroke="black" points="8.5,-49.5 8.5,-79.5 134.5,-79.5 134.5,-49.5 8.5,-49.5"/>
<text text-anchor="start" x="16.5" y="-67.5" font-family="Helvetica,sans-Serif" font-size="10.00">ClvHd::EMG::read_fast</text>
<text text-anchor="middle" x="71.5" y="-56.5" font-family="Helvetica,sans-Serif" font-size="10.00">_value</text>
</a>
</g>
</g>
<!-- Node1&#45;&gt;Node4 -->
<g id="edge3" class="edge">
<title>Node1&#45;&gt;Node4</title>
<path fill="none" stroke="midnightblue" d="M168.75,-79.17C157.56,-77.46 145.87,-75.68 134.66,-73.97"/>
<polygon fill="midnightblue" stroke="midnightblue" points="168.45,-82.66 178.86,-80.71 169.51,-75.74 168.45,-82.66"/>
</g>
<!-- Node5 -->
<g id="node5" class="node">
<title>Node5</title>
<g id="a_node5"><a xlink:href="class_clv_hd_1_1_e_m_g.html#a5fb8389610bbed3a4aa8a7147777b7dd" target="_top" xlink:title=" ">
<polygon fill="none" stroke="black" points="0,-0.5 0,-30.5 143,-30.5 143,-0.5 0,-0.5"/>
<text text-anchor="start" x="8" y="-18.5" font-family="Helvetica,sans-Serif" font-size="10.00">ClvHd::EMG::read_precise</text>
<text text-anchor="middle" x="71.5" y="-7.5" font-family="Helvetica,sans-Serif" font-size="10.00">_value</text>
</a>
</g>
</g>
<!-- Node1&#45;&gt;Node5 -->
<g id="edge4" class="edge">
<title>Node1&#45;&gt;Node5</title>
<path fill="none" stroke="midnightblue" d="M205.57,-73.61C188.43,-63.52 164.77,-50.29 143,-40.5 135.18,-36.99 126.71,-33.62 118.44,-30.56"/>
<polygon fill="midnightblue" stroke="midnightblue" points="203.98,-76.74 214.37,-78.85 207.57,-70.73 203.98,-76.74"/>
</g>
</g>
</svg>
