<?xml version="1.0" encoding="UTF-8" standalone="no"?>
<!DOCTYPE svg PUBLIC "-//W3C//DTD SVG 1.1//EN"
 "http://www.w3.org/Graphics/SVG/1.1/DTD/svg11.dtd">
<!-- Generated by graphviz version 2.43.0 (0)
 -->
<!-- Title: ClvHd::EMG::setup Pages: 1 -->
<svg width="635pt" height="378pt"
 viewBox="0.00 0.00 635.00 377.50" xmlns="http://www.w3.org/2000/svg" xmlns:xlink="http://www.w3.org/1999/xlink">
<g id="graph0" class="graph" transform="scale(1 1) rotate(0) translate(4 373.5)">
<title>ClvHd::EMG::setup</title>
<!-- Node1 -->
<g id="node1" class="node">
<title>Node1</title>
<g id="a_node1"><a xlink:title="setup Write all setup parameters to the board.">
<polygon fill="#bfbfbf" stroke="black" points="0,-175.5 0,-194.5 107,-194.5 107,-175.5 0,-175.5"/>
<text text-anchor="middle" x="53.5" y="-182.5" font-family="Helvetica,sans-Serif" font-size="10.00">ClvHd::EMG::setup</text>
</a>
</g>
</g>
<!-- Node2 -->
<g id="node2" class="node">
<title>Node2</title>
<g id="a_node2"><a xlink:href="class_clv_hd_1_1_e_m_g.html#ac270260e60f381da894e18e947eaf048" target="_top" xlink:title=" ">
<polygon fill="none" stroke="black" points="162.5,-339 162.5,-369 272.5,-369 272.5,-339 162.5,-339"/>
<text text-anchor="start" x="170.5" y="-357" font-family="Helvetica,sans-Serif" font-size="10.00">ClvHd::EMG::config</text>
<text text-anchor="middle" x="217.5" y="-346" font-family="Helvetica,sans-Serif" font-size="10.00">_clock</text>
</a>
</g>
</g>
<!-- Node1&#45;&gt;Node2 -->
<g id="edge1" class="edge">
<title>Node1&#45;&gt;Node2</title>
<path fill="none" stroke="midnightblue" d="M57.72,-194.74C66.81,-220.7 95.12,-292.13 143,-330 146.17,-332.5 149.6,-334.75 153.2,-336.77"/>
<polygon fill="midnightblue" stroke="midnightblue" points="151.91,-340.03 162.43,-341.32 155.01,-333.76 151.91,-340.03"/>
</g>
<!-- Node5 -->
<g id="node5" class="node">
<title>Node5</title>
<g id="a_node5"><a xlink:href="class_clv_hd_1_1_e_m_g.html#acce16a5bc4a36a39f32f75c9cfd5b5cc" target="_top" xlink:title=" ">
<polygon fill="none" stroke="black" points="162.5,-290 162.5,-320 272.5,-320 272.5,-290 162.5,-290"/>
<text text-anchor="start" x="170.5" y="-308" font-family="Helvetica,sans-Serif" font-size="10.00">ClvHd::EMG::config</text>
<text text-anchor="middle" x="217.5" y="-297" font-family="Helvetica,sans-Serif" font-size="10.00">_frequence</text>
</a>
</g>
</g>
<!-- Node1&#45;&gt;Node5 -->
<g id="edge4" class="edge">
<title>Node1&#45;&gt;Node5</title>
<path fill="none" stroke="midnightblue" d="M60.89,-194.54C74.06,-213.5 106.1,-256.12 143,-280 146.28,-282.12 149.76,-284.08 153.35,-285.9"/>
<polygon fill="midnightblue" stroke="midnightblue" points="151.91,-289.09 162.46,-290.09 154.84,-282.73 151.91,-289.09"/>
</g>
<!-- Node6 -->
<g id="node6" class="node">
<title>Node6</title>
<g id="a_node6"><a xlink:href="class_clv_hd_1_1_e_m_g.html#ac1e43a9ba3881d0925ca71db0fc6195f" target="_top" xlink:title=" ">
<polygon fill="none" stroke="black" points="153.5,-251.5 153.5,-270.5 281.5,-270.5 281.5,-251.5 153.5,-251.5"/>
<text text-anchor="middle" x="217.5" y="-258.5" font-family="Helvetica,sans-Serif" font-size="10.00">ClvHd::EMG::config_R1</text>
</a>
</g>
</g>
<!-- Node1&#45;&gt;Node6 -->
<g id="edge6" class="edge">
<title>Node1&#45;&gt;Node6</title>
<path fill="none" stroke="midnightblue" d="M66.67,-194.66C83.1,-207.25 113.7,-229.18 143,-242 148.49,-244.4 154.35,-246.55 160.28,-248.46"/>
<polygon fill="midnightblue" stroke="midnightblue" points="159.67,-251.93 170.26,-251.45 161.68,-245.23 159.67,-251.93"/>
</g>
<!-- Node7 -->
<g id="node7" class="node">
<title>Node7</title>
<g id="a_node7"><a xlink:href="class_clv_hd_1_1_e_m_g.html#a845b5e6252b356b00f15ad95dfdd3e90" target="_top" xlink:title=" ">
<polygon fill="none" stroke="black" points="153.5,-213.5 153.5,-232.5 281.5,-232.5 281.5,-213.5 153.5,-213.5"/>
<text text-anchor="middle" x="217.5" y="-220.5" font-family="Helvetica,sans-Serif" font-size="10.00">ClvHd::EMG::config_R2</text>
</a>
</g>
</g>
<!-- Node1&#45;&gt;Node7 -->
<g id="edge8" class="edge">
<title>Node1&#45;&gt;Node7</title>
<path fill="none" stroke="midnightblue" d="M95.38,-194.59C116.85,-199.63 143.36,-205.84 166.1,-211.18"/>
<polygon fill="midnightblue" stroke="midnightblue" points="165.38,-214.6 175.91,-213.48 166.98,-207.79 165.38,-214.6"/>
</g>
<!-- Node8 -->
<g id="node8" class="node">
<title>Node8</title>
<g id="a_node8"><a xlink:href="class_clv_hd_1_1_e_m_g.html#a0e2546b93544a240ff345ba9a3d4187f" target="_top" xlink:title=" ">
<polygon fill="none" stroke="black" points="153.5,-175.5 153.5,-194.5 281.5,-194.5 281.5,-175.5 153.5,-175.5"/>
<text text-anchor="middle" x="217.5" y="-182.5" font-family="Helvetica,sans-Serif" font-size="10.00">ClvHd::EMG::config_R3</text>
</a>
</g>
</g>
<!-- Node1&#45;&gt;Node8 -->
<g id="edge10" class="edge">
<title>Node1&#45;&gt;Node8</title>
<path fill="none" stroke="midnightblue" d="M107.1,-185C118.65,-185 131.08,-185 143.27,-185"/>
<polygon fill="midnightblue" stroke="midnightblue" points="143.43,-188.5 153.43,-185 143.43,-181.5 143.43,-188.5"/>
</g>
<!-- Node9 -->
<g id="node9" class="node">
<title>Node9</title>
<g id="a_node9"><a xlink:href="class_clv_hd_1_1_e_m_g.html#acd5f6dc7d899c972d50fd4b15a266be7" target="_top" xlink:title=" ">
<polygon fill="none" stroke="black" points="162.5,-126 162.5,-156 272.5,-156 272.5,-126 162.5,-126"/>
<text text-anchor="start" x="170.5" y="-144" font-family="Helvetica,sans-Serif" font-size="10.00">ClvHd::EMG::config</text>
<text text-anchor="middle" x="217.5" y="-133" font-family="Helvetica,sans-Serif" font-size="10.00">_resolution</text>
</a>
</g>
</g>
<!-- Node1&#45;&gt;Node9 -->
<g id="edge12" class="edge">
<title>Node1&#45;&gt;Node9</title>
<path fill="none" stroke="midnightblue" d="M89.65,-175.45C108.05,-170.46 131.16,-164.18 152.59,-158.36"/>
<polygon fill="midnightblue" stroke="midnightblue" points="153.56,-161.72 162.3,-155.72 151.73,-154.97 153.56,-161.72"/>
</g>
<!-- Node10 -->
<g id="node10" class="node">
<title>Node10</title>
<g id="a_node10"><a xlink:href="class_clv_hd_1_1_e_m_g.html#a96306dd25ba55aec1d206d64e901fbb1" target="_top" xlink:title=" ">
<polygon fill="none" stroke="black" points="161,-77 161,-107 274,-107 274,-77 161,-77"/>
<text text-anchor="start" x="169" y="-95" font-family="Helvetica,sans-Serif" font-size="10.00">ClvHd::EMG::enable</text>
<text text-anchor="middle" x="217.5" y="-84" font-family="Helvetica,sans-Serif" font-size="10.00">_channels</text>
</a>
</g>
</g>
<!-- Node1&#45;&gt;Node10 -->
<g id="edge14" class="edge">
<title>Node1&#45;&gt;Node10</title>
<path fill="none" stroke="midnightblue" d="M64.62,-175.41C80.3,-160.99 111.91,-133.64 143,-117 146.98,-114.87 151.19,-112.86 155.48,-110.99"/>
<polygon fill="midnightblue" stroke="midnightblue" points="157.05,-114.13 164.98,-107.11 154.4,-107.65 157.05,-114.13"/>
</g>
<!-- Node11 -->
<g id="node11" class="node">
<title>Node11</title>
<g id="a_node11"><a xlink:href="class_clv_hd_1_1_e_m_g.html#a93c77aaec1b3784de83770216ed2e87c" target="_top" xlink:title=" ">
<polygon fill="none" stroke="black" points="143,-38.5 143,-57.5 292,-57.5 292,-38.5 143,-38.5"/>
<text text-anchor="middle" x="217.5" y="-45.5" font-family="Helvetica,sans-Serif" font-size="10.00">ClvHd::EMG::route_channel</text>
</a>
</g>
</g>
<!-- Node1&#45;&gt;Node11 -->
<g id="edge16" class="edge">
<title>Node1&#45;&gt;Node11</title>
<path fill="none" stroke="midnightblue" d="M58.96,-175.42C69.92,-153 100.38,-96.81 143,-68 146.74,-65.47 150.78,-63.27 154.99,-61.34"/>
<polygon fill="midnightblue" stroke="midnightblue" points="156.43,-64.53 164.4,-57.54 153.81,-58.04 156.43,-64.53"/>
</g>
<!-- Node12 -->
<g id="node12" class="node">
<title>Node12</title>
<g id="a_node12"><a xlink:href="class_clv_hd_1_1_e_m_g.html#a7a048493b7b3895dd6596fd06b3533e7" target="_top" xlink:title=" ">
<polygon fill="none" stroke="black" points="153.5,-0.5 153.5,-19.5 281.5,-19.5 281.5,-0.5 153.5,-0.5"/>
<text text-anchor="middle" x="217.5" y="-7.5" font-family="Helvetica,sans-Serif" font-size="10.00">ClvHd::EMG::set_mode</text>
</a>
</g>
</g>
<!-- Node1&#45;&gt;Node12 -->
<g id="edge18" class="edge">
<title>Node1&#45;&gt;Node12</title>
<path fill="none" stroke="midnightblue" d="M57.13,-175.16C65.05,-147.51 91.34,-68.58 143,-29 145.35,-27.2 147.86,-25.56 150.48,-24.08"/>
<polygon fill="midnightblue" stroke="midnightblue" points="152.24,-27.12 159.73,-19.63 149.2,-20.81 152.24,-27.12"/>
</g>
<!-- Node3 -->
<g id="node3" class="node">
<title>Node3</title>
<g id="a_node3"><a xlink:href="class_clv_hd_1_1_master.html#aec0710c06519f1a2a5750c7c15759b0f" target="_top" xlink:title="writeReg write one byte to reg address to the module with the given id.">
<polygon fill="none" stroke="black" points="328,-175.5 328,-194.5 463,-194.5 463,-175.5 328,-175.5"/>
<text text-anchor="middle" x="395.5" y="-182.5" font-family="Helvetica,sans-Serif" font-size="10.00">ClvHd::Master::writeReg</text>
</a>
</g>
</g>
<!-- Node2&#45;&gt;Node3 -->
<g id="edge2" class="edge">
<title>Node2&#45;&gt;Node3</title>
<path fill="none" stroke="midnightblue" d="M272.67,-340.79C279.52,-337.86 286.17,-334.3 292,-330 338.14,-295.97 371.34,-234.86 386.04,-203.97"/>
<polygon fill="midnightblue" stroke="midnightblue" points="389.29,-205.29 390.32,-194.74 382.94,-202.35 389.29,-205.29"/>
</g>
<!-- Node4 -->
<g id="node4" class="node">
<title>Node4</title>
<g id="a_node4"><a xlink:href="class_communication_1_1_client.html#a83e96cb781794b40ba2ffdbb39f54c40" target="_top" xlink:title="writeS write the com interface.">
<polygon fill="none" stroke="black" points="499,-170 499,-200 627,-200 627,-170 499,-170"/>
<text text-anchor="start" x="507" y="-188" font-family="Helvetica,sans-Serif" font-size="10.00">Communication::Client</text>
<text text-anchor="middle" x="563" y="-177" font-family="Helvetica,sans-Serif" font-size="10.00">::writeS</text>
</a>
</g>
</g>
<!-- Node3&#45;&gt;Node4 -->
<g id="edge3" class="edge">
<title>Node3&#45;&gt;Node4</title>
<path fill="none" stroke="midnightblue" d="M463.34,-185C471.69,-185 480.27,-185 488.72,-185"/>
<polygon fill="midnightblue" stroke="midnightblue" points="488.93,-188.5 498.93,-185 488.93,-181.5 488.93,-188.5"/>
</g>
<!-- Node5&#45;&gt;Node3 -->
<g id="edge5" class="edge">
<title>Node5&#45;&gt;Node3</title>
<path fill="none" stroke="midnightblue" d="M271.5,-289.99C278.61,-287.12 285.63,-283.8 292,-280 327.53,-258.81 361.2,-223.71 379.73,-202.62"/>
<polygon fill="midnightblue" stroke="midnightblue" points="382.61,-204.64 386.49,-194.78 377.31,-200.07 382.61,-204.64"/>
</g>
<!-- Node6&#45;&gt;Node3 -->
<g id="edge7" class="edge">
<title>Node6&#45;&gt;Node3</title>
<path fill="none" stroke="midnightblue" d="M263.01,-251.44C272.71,-248.82 282.82,-245.67 292,-242 320.69,-230.53 351.39,-212.63 371.63,-199.95"/>
<polygon fill="midnightblue" stroke="midnightblue" points="373.58,-202.85 380.15,-194.54 369.83,-196.95 373.58,-202.85"/>
</g>
<!-- Node7&#45;&gt;Node3 -->
<g id="edge9" class="edge">
<title>Node7&#45;&gt;Node3</title>
<path fill="none" stroke="midnightblue" d="M262.91,-213.41C286.45,-208.33 315.56,-202.04 340.4,-196.68"/>
<polygon fill="midnightblue" stroke="midnightblue" points="341.37,-200.05 350.41,-194.52 339.89,-193.21 341.37,-200.05"/>
</g>
<!-- Node8&#45;&gt;Node3 -->
<g id="edge11" class="edge">
<title>Node8&#45;&gt;Node3</title>
<path fill="none" stroke="midnightblue" d="M281.54,-185C293.26,-185 305.61,-185 317.68,-185"/>
<polygon fill="midnightblue" stroke="midnightblue" points="317.73,-188.5 327.73,-185 317.73,-181.5 317.73,-188.5"/>
</g>
<!-- Node9&#45;&gt;Node3 -->
<g id="edge13" class="edge">
<title>Node9&#45;&gt;Node3</title>
<path fill="none" stroke="midnightblue" d="M272.74,-154.56C296.32,-160.46 323.71,-167.3 346.54,-173.01"/>
<polygon fill="midnightblue" stroke="midnightblue" points="345.79,-176.43 356.34,-175.46 347.49,-169.64 345.79,-176.43"/>
</g>
<!-- Node10&#45;&gt;Node3 -->
<g id="edge15" class="edge">
<title>Node10&#45;&gt;Node3</title>
<path fill="none" stroke="midnightblue" d="M268.63,-107.11C276.59,-110.06 284.62,-113.37 292,-117 322.22,-131.85 354.09,-154.2 374.12,-169.18"/>
<polygon fill="midnightblue" stroke="midnightblue" points="372.11,-172.05 382.19,-175.3 376.34,-166.47 372.11,-172.05"/>
</g>
<!-- Node11&#45;&gt;Node3 -->
<g id="edge17" class="edge">
<title>Node11&#45;&gt;Node3</title>
<path fill="none" stroke="midnightblue" d="M269.18,-57.56C277.15,-60.24 285.05,-63.66 292,-68 333.02,-93.63 366.82,-140.67 383.42,-166.62"/>
<polygon fill="midnightblue" stroke="midnightblue" points="380.66,-168.8 388.92,-175.44 386.6,-165.1 380.66,-168.8"/>
</g>
<!-- Node12&#45;&gt;Node3 -->
<g id="edge19" class="edge">
<title>Node12&#45;&gt;Node3</title>
<path fill="none" stroke="midnightblue" d="M273.9,-19.51C280.33,-21.98 286.53,-25.09 292,-29 341.7,-64.57 373.8,-132.39 387.26,-165.65"/>
<polygon fill="midnightblue" stroke="midnightblue" points="384.07,-167.1 390.97,-175.14 390.59,-164.55 384.07,-167.1"/>
</g>
</g>
</svg>
