<?xml version="1.0" encoding="UTF-8" standalone="no"?>
<!DOCTYPE svg PUBLIC "-//W3C//DTD SVG 1.1//EN"
 "http://www.w3.org/Graphics/SVG/1.1/DTD/svg11.dtd">
<!-- Generated by graphviz version 2.43.0 (0)
 -->
<!-- Title: ClvHd::Master::read_all_signal Pages: 1 -->
<svg width="663pt" height="66pt"
 viewBox="0.00 0.00 663.00 66.00" xmlns="http://www.w3.org/2000/svg" xmlns:xlink="http://www.w3.org/1999/xlink">
<g id="graph0" class="graph" transform="scale(1 1) rotate(0) translate(4 62)">
<title>ClvHd::Master::read_all_signal</title>
<!-- Node1 -->
<g id="node1" class="node">
<title>Node1</title>
<g id="a_node1"><a xlink:title="Read all data registers (State, 3fast, 3precise) from each available module.">
<polygon fill="#bfbfbf" stroke="black" points="542,-14 542,-44 655,-44 655,-14 542,-14"/>
<text text-anchor="start" x="550" y="-32" font-family="Helvetica,sans-Serif" font-size="10.00">ClvHd::Master::read</text>
<text text-anchor="middle" x="598.5" y="-21" font-family="Helvetica,sans-Serif" font-size="10.00">_all_signal</text>
</a>
</g>
</g>
<!-- Node2 -->
<g id="node2" class="node">
<title>Node2</title>
<g id="a_node2"><a xlink:href="lib_2cleverhand-interface_2src_2main_8cpp.html#ae66f6b31b5ad750f1fe042a706a4e3d4" target="_top" xlink:title=" ">
<polygon fill="none" stroke="black" points="423,-38.5 423,-57.5 464,-57.5 464,-38.5 423,-38.5"/>
<text text-anchor="middle" x="443.5" y="-45.5" font-family="Helvetica,sans-Serif" font-size="10.00">main</text>
</a>
</g>
</g>
<!-- Node1&#45;&gt;Node2 -->
<g id="edge1" class="edge">
<title>Node1&#45;&gt;Node2</title>
<path fill="none" stroke="midnightblue" d="M531.82,-37.16C507.33,-40.2 481.33,-43.43 464.13,-45.56"/>
<polygon fill="midnightblue" stroke="midnightblue" points="532.34,-40.62 541.83,-35.91 531.48,-33.67 532.34,-40.62"/>
</g>
<!-- Node3 -->
<g id="node3" class="node">
<title>Node3</title>
<g id="a_node3"><a xlink:href="class_main_window.html#ab015c2fb4f4636468144e4c683882594" target="_top" xlink:title="push_lsl Push data to the LSL stream.">
<polygon fill="none" stroke="black" points="381,-0.5 381,-19.5 506,-19.5 506,-0.5 381,-0.5"/>
<text text-anchor="middle" x="443.5" y="-7.5" font-family="Helvetica,sans-Serif" font-size="10.00">MainWindow::push_lsl</text>
</a>
</g>
</g>
<!-- Node1&#45;&gt;Node3 -->
<g id="edge2" class="edge">
<title>Node1&#45;&gt;Node3</title>
<path fill="none" stroke="midnightblue" d="M531.89,-20.85C523.32,-19.79 514.57,-18.7 506.08,-17.65"/>
<polygon fill="midnightblue" stroke="midnightblue" points="531.48,-24.33 541.83,-22.09 532.34,-17.38 531.48,-24.33"/>
</g>
<!-- Node4 -->
<g id="node4" class="node">
<title>Node4</title>
<g id="a_node4"><a xlink:href="class_main_window.html#a6781fa3a250e3ad46f9d491434333ffb" target="_top" xlink:title="streaming_loop Loop that continuously reads data from the board and send it to the LSL stream.">
<polygon fill="none" stroke="black" points="184,-0.5 184,-19.5 345,-19.5 345,-0.5 184,-0.5"/>
<text text-anchor="middle" x="264.5" y="-7.5" font-family="Helvetica,sans-Serif" font-size="10.00">MainWindow::streaming_loop</text>
</a>
</g>
</g>
<!-- Node3&#45;&gt;Node4 -->
<g id="edge3" class="edge">
<title>Node3&#45;&gt;Node4</title>
<path fill="none" stroke="midnightblue" d="M370.51,-10C362.14,-10 353.57,-10 345.1,-10"/>
<polygon fill="midnightblue" stroke="midnightblue" points="370.59,-13.5 380.59,-10 370.59,-6.5 370.59,-13.5"/>
</g>
<!-- Node5 -->
<g id="node5" class="node">
<title>Node5</title>
<g id="a_node5"><a xlink:href="class_main_window.html#a996c5a2b6f77944776856f08ec30858d" target="_top" xlink:title=" ">
<polygon fill="none" stroke="black" points="0,-0.5 0,-19.5 148,-19.5 148,-0.5 0,-0.5"/>
<text text-anchor="middle" x="74" y="-7.5" font-family="Helvetica,sans-Serif" font-size="10.00">MainWindow::MainWindow</text>
</a>
</g>
</g>
<!-- Node4&#45;&gt;Node5 -->
<g id="edge4" class="edge">
<title>Node4&#45;&gt;Node5</title>
<path fill="none" stroke="midnightblue" d="M173.77,-10C165.17,-10 156.51,-10 148.09,-10"/>
<polygon fill="midnightblue" stroke="midnightblue" points="173.83,-13.5 183.83,-10 173.83,-6.5 173.83,-13.5"/>
</g>
</g>
</svg>
