<?xml version="1.0" encoding="UTF-8" standalone="no"?>
<!DOCTYPE svg PUBLIC "-//W3C//DTD SVG 1.1//EN"
 "http://www.w3.org/Graphics/SVG/1.1/DTD/svg11.dtd">
<!-- Generated by graphviz version 2.43.0 (0)
 -->
<!-- Title: ClvHdEMG::selectBrd Pages: 1 -->
<svg width="671pt" height="104pt"
 viewBox="0.00 0.00 671.00 104.00" xmlns="http://www.w3.org/2000/svg" xmlns:xlink="http://www.w3.org/1999/xlink">
<g id="graph0" class="graph" transform="scale(1 1) rotate(0) translate(4 100)">
<title>ClvHdEMG::selectBrd</title>
<!-- Node1 -->
<g id="node1" class="node">
<title>Node1</title>
<g id="a_node1"><a xlink:title=" ">
<polygon fill="#bfbfbf" stroke="black" points="543,-38.5 543,-57.5 663,-57.5 663,-38.5 543,-38.5"/>
<text text-anchor="middle" x="603" y="-45.5" font-family="Helvetica,sans-Serif" font-size="10.00">ClvHdEMG::selectBrd</text>
</a>
</g>
</g>
<!-- Node2 -->
<g id="node2" class="node">
<title>Node2</title>
<g id="a_node2"><a xlink:href="class_clv_hd_e_m_g.html#a191e4aaaaf4aaf1231ae020e0385c641" target="_top" xlink:title=" ">
<polygon fill="none" stroke="black" points="197.5,-76.5 197.5,-95.5 295.5,-95.5 295.5,-76.5 197.5,-76.5"/>
<text text-anchor="middle" x="246.5" y="-83.5" font-family="Helvetica,sans-Serif" font-size="10.00">ClvHdEMG::blink</text>
</a>
</g>
</g>
<!-- Node1&#45;&gt;Node2 -->
<g id="edge1" class="edge">
<title>Node1&#45;&gt;Node2</title>
<path fill="none" stroke="midnightblue" d="M550.18,-59.58C536.22,-62.36 521.08,-65.08 507,-67 433.59,-76.99 347.74,-81.98 295.51,-84.27"/>
<polygon fill="midnightblue" stroke="midnightblue" points="551,-62.98 560.1,-57.55 549.6,-56.12 551,-62.98"/>
</g>
<!-- Node4 -->
<g id="node4" class="node">
<title>Node4</title>
<g id="a_node4"><a xlink:href="class_clv_hd_e_m_g.html#a08b0c8e199e26d57e94181206b45020f" target="_top" xlink:title=" ">
<polygon fill="none" stroke="black" points="368.5,-38.5 368.5,-57.5 505.5,-57.5 505.5,-38.5 368.5,-38.5"/>
<text text-anchor="middle" x="437" y="-45.5" font-family="Helvetica,sans-Serif" font-size="10.00">ClvHdEMG::readRegister</text>
</a>
</g>
</g>
<!-- Node1&#45;&gt;Node4 -->
<g id="edge3" class="edge">
<title>Node1&#45;&gt;Node4</title>
<path fill="none" stroke="midnightblue" d="M532.51,-48C523.65,-48 514.59,-48 505.76,-48"/>
<polygon fill="midnightblue" stroke="midnightblue" points="532.79,-51.5 542.79,-48 532.79,-44.5 532.79,-51.5"/>
</g>
<!-- Node6 -->
<g id="node6" class="node">
<title>Node6</title>
<g id="a_node6"><a xlink:href="class_clv_hd_e_m_g.html#a6d8f2c80fd6747b2084080b630a959fb" target="_top" xlink:title=" ">
<polygon fill="none" stroke="black" points="367,-0.5 367,-19.5 507,-19.5 507,-0.5 367,-0.5"/>
<text text-anchor="middle" x="437" y="-7.5" font-family="Helvetica,sans-Serif" font-size="10.00">ClvHdEMG::writeRegister</text>
</a>
</g>
</g>
<!-- Node1&#45;&gt;Node6 -->
<g id="edge6" class="edge">
<title>Node1&#45;&gt;Node6</title>
<path fill="none" stroke="midnightblue" d="M550.66,-36.1C527.61,-30.76 500.78,-24.55 479.09,-19.52"/>
<polygon fill="midnightblue" stroke="midnightblue" points="550.08,-39.56 560.62,-38.41 551.66,-32.74 550.08,-39.56"/>
</g>
<!-- Node3 -->
<g id="node3" class="node">
<title>Node3</title>
<g id="a_node3"><a xlink:href="class_clv_hd_e_m_g.html#abc8a397b6b5dd073381bdbea07ea328a" target="_top" xlink:title=" ">
<polygon fill="none" stroke="black" points="0,-57.5 0,-76.5 126,-76.5 126,-57.5 0,-57.5"/>
<text text-anchor="middle" x="63" y="-64.5" font-family="Helvetica,sans-Serif" font-size="10.00">ClvHdEMG::ClvHdEMG</text>
</a>
</g>
</g>
<!-- Node2&#45;&gt;Node3 -->
<g id="edge2" class="edge">
<title>Node2&#45;&gt;Node3</title>
<path fill="none" stroke="midnightblue" d="M187.35,-79.91C167.81,-77.87 145.93,-75.58 126.1,-73.5"/>
<polygon fill="midnightblue" stroke="midnightblue" points="187.03,-83.4 197.34,-80.96 187.76,-76.44 187.03,-83.4"/>
</g>
<!-- Node5 -->
<g id="node5" class="node">
<title>Node5</title>
<g id="a_node5"><a xlink:href="class_clv_hd_e_m_g.html#aa37c1b5084bd70b6bbbbeb45c2a7b590" target="_top" xlink:title=" ">
<polygon fill="none" stroke="black" points="162,-38.5 162,-57.5 331,-57.5 331,-38.5 162,-38.5"/>
<text text-anchor="middle" x="246.5" y="-45.5" font-family="Helvetica,sans-Serif" font-size="10.00">ClvHdEMG::nb_emg_connected</text>
</a>
</g>
</g>
<!-- Node4&#45;&gt;Node5 -->
<g id="edge4" class="edge">
<title>Node4&#45;&gt;Node5</title>
<path fill="none" stroke="midnightblue" d="M358.48,-48C349.52,-48 340.36,-48 331.33,-48"/>
<polygon fill="midnightblue" stroke="midnightblue" points="358.48,-51.5 368.48,-48 358.48,-44.5 358.48,-51.5"/>
</g>
<!-- Node5&#45;&gt;Node3 -->
<g id="edge5" class="edge">
<title>Node5&#45;&gt;Node3</title>
<path fill="none" stroke="midnightblue" d="M151.77,-57.81C143.13,-58.72 134.52,-59.62 126.26,-60.48"/>
<polygon fill="midnightblue" stroke="midnightblue" points="152.34,-61.27 161.92,-56.75 151.61,-54.31 152.34,-61.27"/>
</g>
</g>
</svg>
