<?xml version="1.0" encoding="UTF-8" standalone="no"?>
<!DOCTYPE svg PUBLIC "-//W3C//DTD SVG 1.1//EN"
 "http://www.w3.org/Graphics/SVG/1.1/DTD/svg11.dtd">
<!-- Generated by graphviz version 2.43.0 (0)
 -->
<!-- Title: ClvHd::EMG::enable_channels Pages: 1 -->
<svg width="456pt" height="39pt"
 viewBox="0.00 0.00 456.00 39.00" xmlns="http://www.w3.org/2000/svg" xmlns:xlink="http://www.w3.org/1999/xlink">
<g id="graph0" class="graph" transform="scale(1 1) rotate(0) translate(4 35)">
<title>ClvHd::EMG::enable_channels</title>
<!-- Node1 -->
<g id="node1" class="node">
<title>Node1</title>
<g id="a_node1"><a xlink:title=" ">
<polygon fill="#bfbfbf" stroke="black" points="0,-0.5 0,-30.5 113,-30.5 113,-0.5 0,-0.5"/>
<text text-anchor="start" x="8" y="-18.5" font-family="Helvetica,sans-Serif" font-size="10.00">ClvHd::EMG::enable</text>
<text text-anchor="middle" x="56.5" y="-7.5" font-family="Helvetica,sans-Serif" font-size="10.00">_channels</text>
</a>
</g>
</g>
<!-- Node2 -->
<g id="node2" class="node">
<title>Node2</title>
<g id="a_node2"><a xlink:href="class_clv_hd_1_1_master.html#aec0710c06519f1a2a5750c7c15759b0f" target="_top" xlink:title="writeReg write one byte to reg address to the module with the given id.">
<polygon fill="none" stroke="black" points="149,-6 149,-25 284,-25 284,-6 149,-6"/>
<text text-anchor="middle" x="216.5" y="-13" font-family="Helvetica,sans-Serif" font-size="10.00">ClvHd::Master::writeReg</text>
</a>
</g>
</g>
<!-- Node1&#45;&gt;Node2 -->
<g id="edge1" class="edge">
<title>Node1&#45;&gt;Node2</title>
<path fill="none" stroke="midnightblue" d="M113.2,-15.5C121.51,-15.5 130.18,-15.5 138.83,-15.5"/>
<polygon fill="midnightblue" stroke="midnightblue" points="138.93,-19 148.93,-15.5 138.93,-12 138.93,-19"/>
</g>
<!-- Node3 -->
<g id="node3" class="node">
<title>Node3</title>
<g id="a_node3"><a xlink:href="class_communication_1_1_client.html#a83e96cb781794b40ba2ffdbb39f54c40" target="_top" xlink:title="writeS write the com interface.">
<polygon fill="none" stroke="black" points="320,-0.5 320,-30.5 448,-30.5 448,-0.5 320,-0.5"/>
<text text-anchor="start" x="328" y="-18.5" font-family="Helvetica,sans-Serif" font-size="10.00">Communication::Client</text>
<text text-anchor="middle" x="384" y="-7.5" font-family="Helvetica,sans-Serif" font-size="10.00">::writeS</text>
</a>
</g>
</g>
<!-- Node2&#45;&gt;Node3 -->
<g id="edge2" class="edge">
<title>Node2&#45;&gt;Node3</title>
<path fill="none" stroke="midnightblue" d="M284.34,-15.5C292.69,-15.5 301.27,-15.5 309.72,-15.5"/>
<polygon fill="midnightblue" stroke="midnightblue" points="309.93,-19 319.93,-15.5 309.93,-12 309.93,-19"/>
</g>
</g>
</svg>
