<?xml version="1.0" encoding="UTF-8" standalone="no"?>
<!DOCTYPE svg PUBLIC "-//W3C//DTD SVG 1.1//EN"
 "http://www.w3.org/Graphics/SVG/1.1/DTD/svg11.dtd">
<!-- Generated by graphviz version 2.43.0 (0)
 -->
<!-- Title: ClvHd::EMG::enable_SDM Pages: 1 -->
<svg width="484pt" height="39pt"
 viewBox="0.00 0.00 484.00 39.00" xmlns="http://www.w3.org/2000/svg" xmlns:xlink="http://www.w3.org/1999/xlink">
<g id="graph0" class="graph" transform="scale(1 1) rotate(0) translate(4 35)">
<title>ClvHd::EMG::enable_SDM</title>
<!-- Node1 -->
<g id="node1" class="node">
<title>Node1</title>
<g id="a_node1"><a xlink:title=" ">
<polygon fill="#bfbfbf" stroke="black" points="0,-6 0,-25 141,-25 141,-6 0,-6"/>
<text text-anchor="middle" x="70.5" y="-13" font-family="Helvetica,sans-Serif" font-size="10.00">ClvHd::EMG::enable_SDM</text>
</a>
</g>
</g>
<!-- Node2 -->
<g id="node2" class="node">
<title>Node2</title>
<g id="a_node2"><a xlink:href="class_clv_hd_1_1_master.html#aec0710c06519f1a2a5750c7c15759b0f" target="_top" xlink:title="writeReg write one byte to reg address to the module with the given id.">
<polygon fill="none" stroke="black" points="177,-6 177,-25 312,-25 312,-6 177,-6"/>
<text text-anchor="middle" x="244.5" y="-13" font-family="Helvetica,sans-Serif" font-size="10.00">ClvHd::Master::writeReg</text>
</a>
</g>
</g>
<!-- Node1&#45;&gt;Node2 -->
<g id="edge1" class="edge">
<title>Node1&#45;&gt;Node2</title>
<path fill="none" stroke="midnightblue" d="M141.46,-15.5C149.79,-15.5 158.33,-15.5 166.75,-15.5"/>
<polygon fill="midnightblue" stroke="midnightblue" points="166.94,-19 176.94,-15.5 166.94,-12 166.94,-19"/>
</g>
<!-- Node3 -->
<g id="node3" class="node">
<title>Node3</title>
<g id="a_node3"><a xlink:href="class_communication_1_1_client.html#a83e96cb781794b40ba2ffdbb39f54c40" target="_top" xlink:title="writeS write the com interface.">
<polygon fill="none" stroke="black" points="348,-0.5 348,-30.5 476,-30.5 476,-0.5 348,-0.5"/>
<text text-anchor="start" x="356" y="-18.5" font-family="Helvetica,sans-Serif" font-size="10.00">Communication::Client</text>
<text text-anchor="middle" x="412" y="-7.5" font-family="Helvetica,sans-Serif" font-size="10.00">::writeS</text>
</a>
</g>
</g>
<!-- Node2&#45;&gt;Node3 -->
<g id="edge2" class="edge">
<title>Node2&#45;&gt;Node3</title>
<path fill="none" stroke="midnightblue" d="M312.34,-15.5C320.69,-15.5 329.27,-15.5 337.72,-15.5"/>
<polygon fill="midnightblue" stroke="midnightblue" points="337.93,-19 347.93,-15.5 337.93,-12 337.93,-19"/>
</g>
</g>
</svg>
