<?xml version="1.0" encoding="UTF-8" standalone="no"?>
<!DOCTYPE svg PUBLIC "-//W3C//DTD SVG 1.1//EN"
 "http://www.w3.org/Graphics/SVG/1.1/DTD/svg11.dtd">
<!-- Generated by graphviz version 2.43.0 (0)
 -->
<!-- Title: MainWindow::MainWindow Pages: 1 -->
<svg width="1076pt" height="306pt"
 viewBox="0.00 0.00 1076.00 306.00" xmlns="http://www.w3.org/2000/svg" xmlns:xlink="http://www.w3.org/1999/xlink">
<g id="graph0" class="graph" transform="scale(1 1) rotate(0) translate(4 302)">
<title>MainWindow::MainWindow</title>
<!-- Node1 -->
<g id="node1" class="node">
<title>Node1</title>
<g id="a_node1"><a xlink:title=" ">
<polygon fill="#bfbfbf" stroke="black" points="0,-182 0,-201 148,-201 148,-182 0,-182"/>
<text text-anchor="middle" x="74" y="-189" font-family="Helvetica,sans-Serif" font-size="10.00">MainWindow::MainWindow</text>
</a>
</g>
</g>
<!-- Node2 -->
<g id="node2" class="node">
<title>Node2</title>
<g id="a_node2"><a xlink:href="class_ui___main_window.html#acf4a0872c4c77d8f43a2ec66ed849b58" target="_top" xlink:title=" ">
<polygon fill="none" stroke="black" points="195.5,-201 195.5,-220 333.5,-220 333.5,-201 195.5,-201"/>
<text text-anchor="middle" x="264.5" y="-208" font-family="Helvetica,sans-Serif" font-size="10.00">Ui_MainWindow::setupUi</text>
</a>
</g>
</g>
<!-- Node1&#45;&gt;Node2 -->
<g id="edge1" class="edge">
<title>Node1&#45;&gt;Node2</title>
<path fill="none" stroke="midnightblue" d="M148.15,-198.87C160.28,-200.1 172.9,-201.37 185.15,-202.6"/>
<polygon fill="midnightblue" stroke="midnightblue" points="185.03,-206.11 195.33,-203.63 185.73,-199.14 185.03,-206.11"/>
</g>
<!-- Node4 -->
<g id="node4" class="node">
<title>Node4</title>
<g id="a_node4"><a xlink:href="class_main_window.html#a6781fa3a250e3ad46f9d491434333ffb" target="_top" xlink:title="streaming_loop Loop that continuously reads data from the board and send it to the LSL stream.">
<polygon fill="none" stroke="black" points="184,-163 184,-182 345,-182 345,-163 184,-163"/>
<text text-anchor="middle" x="264.5" y="-170" font-family="Helvetica,sans-Serif" font-size="10.00">MainWindow::streaming_loop</text>
</a>
</g>
</g>
<!-- Node1&#45;&gt;Node4 -->
<g id="edge3" class="edge">
<title>Node1&#45;&gt;Node4</title>
<path fill="none" stroke="midnightblue" d="M148.15,-184.13C156.55,-183.28 165.2,-182.41 173.79,-181.54"/>
<polygon fill="midnightblue" stroke="midnightblue" points="174.23,-185.02 183.83,-180.53 173.53,-178.05 174.23,-185.02"/>
</g>
<!-- Node3 -->
<g id="node3" class="node">
<title>Node3</title>
<g id="a_node3"><a xlink:href="class_ui___main_window.html#a097dd160c3534a204904cb374412c618" target="_top" xlink:title=" ">
<polygon fill="none" stroke="black" points="381,-201 381,-220 545,-220 545,-201 381,-201"/>
<text text-anchor="middle" x="463" y="-208" font-family="Helvetica,sans-Serif" font-size="10.00">Ui_MainWindow::retranslateUi</text>
</a>
</g>
</g>
<!-- Node2&#45;&gt;Node3 -->
<g id="edge2" class="edge">
<title>Node2&#45;&gt;Node3</title>
<path fill="none" stroke="midnightblue" d="M333.67,-210.5C345.54,-210.5 358.05,-210.5 370.42,-210.5"/>
<polygon fill="midnightblue" stroke="midnightblue" points="370.76,-214 380.76,-210.5 370.76,-207 370.76,-214"/>
</g>
<!-- Node5 -->
<g id="node5" class="node">
<title>Node5</title>
<g id="a_node5"><a xlink:href="class_main_window.html#ab015c2fb4f4636468144e4c683882594" target="_top" xlink:title="push_lsl Push data to the LSL stream.">
<polygon fill="none" stroke="black" points="400.5,-163 400.5,-182 525.5,-182 525.5,-163 400.5,-163"/>
<text text-anchor="middle" x="463" y="-170" font-family="Helvetica,sans-Serif" font-size="10.00">MainWindow::push_lsl</text>
</a>
</g>
</g>
<!-- Node4&#45;&gt;Node5 -->
<g id="edge4" class="edge">
<title>Node4&#45;&gt;Node5</title>
<path fill="none" stroke="midnightblue" d="M345.14,-172.5C360.09,-172.5 375.65,-172.5 390.34,-172.5"/>
<polygon fill="midnightblue" stroke="midnightblue" points="390.36,-176 400.36,-172.5 390.36,-169 390.36,-176"/>
</g>
<!-- Node6 -->
<g id="node6" class="node">
<title>Node6</title>
<g id="a_node6"><a xlink:href="class_clv_hd_1_1_master.html#ada1c7c69378bd82afe1019859a1ba34e" target="_top" xlink:title="data_ready Check if the data is ready to be read from from the given channel of the module with the g...">
<polygon fill="none" stroke="black" points="602,-267.5 602,-297.5 715,-297.5 715,-267.5 602,-267.5"/>
<text text-anchor="start" x="610" y="-285.5" font-family="Helvetica,sans-Serif" font-size="10.00">ClvHd::Master::data</text>
<text text-anchor="middle" x="658.5" y="-274.5" font-family="Helvetica,sans-Serif" font-size="10.00">_ready</text>
</a>
</g>
</g>
<!-- Node5&#45;&gt;Node6 -->
<g id="edge5" class="edge">
<title>Node5&#45;&gt;Node6</title>
<path fill="none" stroke="midnightblue" d="M525.78,-181.11C532.66,-183.73 539.25,-187.12 545,-191.5 571.58,-211.75 555.31,-236.14 581,-257.5 584.54,-260.44 588.44,-263.04 592.54,-265.34"/>
<polygon fill="midnightblue" stroke="midnightblue" points="591.27,-268.62 601.79,-269.9 594.37,-262.34 591.27,-268.62"/>
</g>
<!-- Node7 -->
<g id="node7" class="node">
<title>Node7</title>
<g id="a_node7"><a xlink:href="class_clv_hd_1_1_master.html#aeea1a25cfe82b72bc8ba2281d1237d08" target="_top" xlink:title="fast_EMG Read the previously requested fast data(2byte) from the given channel of the module with the...">
<polygon fill="none" stroke="black" points="589.5,-229 589.5,-248 727.5,-248 727.5,-229 589.5,-229"/>
<text text-anchor="middle" x="658.5" y="-236" font-family="Helvetica,sans-Serif" font-size="10.00">ClvHd::Master::fast_EMG</text>
</a>
</g>
</g>
<!-- Node5&#45;&gt;Node7 -->
<g id="edge6" class="edge">
<title>Node5&#45;&gt;Node7</title>
<path fill="none" stroke="midnightblue" d="M519.13,-182.05C528,-184.53 536.92,-187.64 545,-191.5 563.29,-200.24 562.77,-210.64 581,-219.5 585.92,-221.89 591.18,-224 596.53,-225.86"/>
<polygon fill="midnightblue" stroke="midnightblue" points="595.66,-229.25 606.25,-228.93 597.77,-222.57 595.66,-229.25"/>
</g>
<!-- Node8 -->
<g id="node8" class="node">
<title>Node8</title>
<g id="a_node8"><a xlink:href="class_clv_hd_1_1_master.html#a20857873ff9bef3f0ee85fda32cf447a" target="_top" xlink:title="get_error Get the active error from the module with the given id.">
<polygon fill="none" stroke="black" points="605,-179.5 605,-209.5 712,-209.5 712,-179.5 605,-179.5"/>
<text text-anchor="start" x="613" y="-197.5" font-family="Helvetica,sans-Serif" font-size="10.00">ClvHd::Master::get</text>
<text text-anchor="middle" x="658.5" y="-186.5" font-family="Helvetica,sans-Serif" font-size="10.00">_error</text>
</a>
</g>
</g>
<!-- Node5&#45;&gt;Node8 -->
<g id="edge7" class="edge">
<title>Node5&#45;&gt;Node8</title>
<path fill="none" stroke="midnightblue" d="M525.76,-179.52C547.82,-182.03 572.68,-184.86 594.82,-187.37"/>
<polygon fill="midnightblue" stroke="midnightblue" points="594.45,-190.85 604.78,-188.51 595.24,-183.9 594.45,-190.85"/>
</g>
<!-- Node9 -->
<g id="node9" class="node">
<title>Node9</title>
<g id="a_node9"><a xlink:href="class_clv_hd_1_1_master.html#a9858a36df2b319fdf0c63bc4e93e79f6" target="_top" xlink:title="precise_EMG Read the previously requested precise data(3byte) from the given channel of the module wi...">
<polygon fill="none" stroke="black" points="581,-141 581,-160 736,-160 736,-141 581,-141"/>
<text text-anchor="middle" x="658.5" y="-148" font-family="Helvetica,sans-Serif" font-size="10.00">ClvHd::Master::precise_EMG</text>
</a>
</g>
</g>
<!-- Node5&#45;&gt;Node9 -->
<g id="edge8" class="edge">
<title>Node5&#45;&gt;Node9</title>
<path fill="none" stroke="midnightblue" d="M525.76,-165.48C539.96,-163.86 555.32,-162.12 570.36,-160.41"/>
<polygon fill="midnightblue" stroke="midnightblue" points="571.17,-163.84 580.71,-159.23 570.38,-156.88 571.17,-163.84"/>
</g>
<!-- Node10 -->
<g id="node10" class="node">
<title>Node10</title>
<g id="a_node10"><a xlink:href="classlsl_1_1stream__outlet.html#a675bbe044a5053087e05e0267fe6722a" target="_top" xlink:title=" ">
<polygon fill="none" stroke="black" points="607.5,-73.5 607.5,-103.5 709.5,-103.5 709.5,-73.5 607.5,-73.5"/>
<text text-anchor="start" x="615.5" y="-91.5" font-family="Helvetica,sans-Serif" font-size="10.00">lsl::stream_outlet</text>
<text text-anchor="middle" x="658.5" y="-80.5" font-family="Helvetica,sans-Serif" font-size="10.00">::push_sample</text>
</a>
</g>
</g>
<!-- Node5&#45;&gt;Node10 -->
<g id="edge9" class="edge">
<title>Node5&#45;&gt;Node10</title>
<path fill="none" stroke="midnightblue" d="M486.2,-162.86C517.17,-149.42 574,-124.75 613.68,-107.52"/>
<polygon fill="midnightblue" stroke="midnightblue" points="615.09,-110.73 622.87,-103.53 612.3,-104.31 615.09,-110.73"/>
</g>
<!-- Node11 -->
<g id="node11" class="node">
<title>Node11</title>
<g id="a_node11"><a xlink:href="class_clv_hd_1_1_master.html#af6c6b4b2d00f398973c382bdfce6f78f" target="_top" xlink:title="Read all data registers (State, 3fast, 3precise) from each available module.">
<polygon fill="none" stroke="black" points="602,-24.5 602,-54.5 715,-54.5 715,-24.5 602,-24.5"/>
<text text-anchor="start" x="610" y="-42.5" font-family="Helvetica,sans-Serif" font-size="10.00">ClvHd::Master::read</text>
<text text-anchor="middle" x="658.5" y="-31.5" font-family="Helvetica,sans-Serif" font-size="10.00">_all_signal</text>
</a>
</g>
</g>
<!-- Node5&#45;&gt;Node11 -->
<g id="edge11" class="edge">
<title>Node5&#45;&gt;Node11</title>
<path fill="none" stroke="midnightblue" d="M471.76,-162.96C489.17,-142.16 533.55,-92.34 581,-64.5 584.66,-62.35 588.53,-60.36 592.51,-58.52"/>
<polygon fill="midnightblue" stroke="midnightblue" points="594.11,-61.64 601.93,-54.5 591.36,-55.21 594.11,-61.64"/>
</g>
<!-- Node10&#45;&gt;Node10 -->
<g id="edge10" class="edge">
<title>Node10&#45;&gt;Node10</title>
<path fill="none" stroke="midnightblue" d="M627.48,-103.66C620,-113.06 630.34,-122 658.5,-122 675.66,-122 686.2,-118.68 690.13,-113.96"/>
<polygon fill="midnightblue" stroke="midnightblue" points="693.6,-113.44 689.52,-103.66 686.62,-113.85 693.6,-113.44"/>
</g>
<!-- Node12 -->
<g id="node12" class="node">
<title>Node12</title>
<g id="a_node12"><a xlink:href="class_clv_hd_1_1_master.html#ad552d7fff3892121269ebee55817c16c" target="_top" xlink:title="readReg read size byte starting from reg address from the module with the given id.">
<polygon fill="none" stroke="black" points="772,-30 772,-49 904,-49 904,-30 772,-30"/>
<text text-anchor="middle" x="838" y="-37" font-family="Helvetica,sans-Serif" font-size="10.00">ClvHd::Master::readReg</text>
</a>
</g>
</g>
<!-- Node11&#45;&gt;Node12 -->
<g id="edge12" class="edge">
<title>Node11&#45;&gt;Node12</title>
<path fill="none" stroke="midnightblue" d="M715.18,-39.5C729.94,-39.5 746.12,-39.5 761.74,-39.5"/>
<polygon fill="midnightblue" stroke="midnightblue" points="761.9,-43 771.9,-39.5 761.9,-36 761.9,-43"/>
</g>
<!-- Node13 -->
<g id="node13" class="node">
<title>Node13</title>
<g id="a_node13"><a xlink:href="class_communication_1_1_client.html#a69d9e6091a406da083655a2bec68a527" target="_top" xlink:title="readS read the com inmterface.">
<polygon fill="none" stroke="black" points="940,-49.5 940,-79.5 1068,-79.5 1068,-49.5 940,-49.5"/>
<text text-anchor="start" x="948" y="-67.5" font-family="Helvetica,sans-Serif" font-size="10.00">Communication::Client</text>
<text text-anchor="middle" x="1004" y="-56.5" font-family="Helvetica,sans-Serif" font-size="10.00">::readS</text>
</a>
</g>
</g>
<!-- Node12&#45;&gt;Node13 -->
<g id="edge13" class="edge">
<title>Node12&#45;&gt;Node13</title>
<path fill="none" stroke="midnightblue" d="M901.47,-49.02C910.71,-50.43 920.3,-51.89 929.74,-53.33"/>
<polygon fill="midnightblue" stroke="midnightblue" points="929.48,-56.83 939.89,-54.88 930.53,-49.91 929.48,-56.83"/>
</g>
<!-- Node14 -->
<g id="node14" class="node">
<title>Node14</title>
<g id="a_node14"><a xlink:href="class_communication_1_1_client.html#a83e96cb781794b40ba2ffdbb39f54c40" target="_top" xlink:title="writeS write the com interface.">
<polygon fill="none" stroke="black" points="940,-0.5 940,-30.5 1068,-30.5 1068,-0.5 940,-0.5"/>
<text text-anchor="start" x="948" y="-18.5" font-family="Helvetica,sans-Serif" font-size="10.00">Communication::Client</text>
<text text-anchor="middle" x="1004" y="-7.5" font-family="Helvetica,sans-Serif" font-size="10.00">::writeS</text>
</a>
</g>
</g>
<!-- Node12&#45;&gt;Node14 -->
<g id="edge14" class="edge">
<title>Node12&#45;&gt;Node14</title>
<path fill="none" stroke="midnightblue" d="M904.29,-29.95C912.7,-28.71 921.35,-27.45 929.88,-26.2"/>
<polygon fill="midnightblue" stroke="midnightblue" points="930.42,-29.66 939.81,-24.75 929.41,-22.73 930.42,-29.66"/>
</g>
</g>
</svg>
