<?xml version="1.0" encoding="UTF-8" standalone="no"?>
<!DOCTYPE svg PUBLIC "-//W3C//DTD SVG 1.1//EN"
 "http://www.w3.org/Graphics/SVG/1.1/DTD/svg11.dtd">
<!-- Generated by graphviz version 2.43.0 (0)
 -->
<!-- Title: /home/aightech/dev/qt&#45;clvhd&#45;config/lib/cleverhand&#45;interface/include/clvHdMaster.hpp Pages: 1 -->
<svg width="973pt" height="173pt"
 viewBox="0.00 0.00 973.00 173.00" xmlns="http://www.w3.org/2000/svg" xmlns:xlink="http://www.w3.org/1999/xlink">
<g id="graph0" class="graph" transform="scale(1 1) rotate(0) translate(4 169)">
<title>/home/aightech/dev/qt&#45;clvhd&#45;config/lib/cleverhand&#45;interface/include/clvHdMaster.hpp</title>
<!-- Node1 -->
<g id="node1" class="node">
<title>Node1</title>
<g id="a_node1"><a xlink:title=" ">
<polygon fill="#bfbfbf" stroke="black" points="451,-112.5 451,-164.5 591,-164.5 591,-112.5 451,-112.5"/>
<text text-anchor="start" x="459" y="-152.5" font-family="Helvetica,sans-Serif" font-size="10.00">/home/aightech/dev</text>
<text text-anchor="start" x="459" y="-141.5" font-family="Helvetica,sans-Serif" font-size="10.00">/qt&#45;clvhd&#45;config/lib</text>
<text text-anchor="start" x="459" y="-130.5" font-family="Helvetica,sans-Serif" font-size="10.00">/cleverhand&#45;interface</text>
<text text-anchor="middle" x="521" y="-119.5" font-family="Helvetica,sans-Serif" font-size="10.00">/include/clvHdMaster.hpp</text>
</a>
</g>
</g>
<!-- Node2 -->
<g id="node2" class="node">
<title>Node2</title>
<g id="a_node2"><a xlink:title=" ">
<polygon fill="none" stroke="#bfbfbf" points="228.5,-0.5 228.5,-19.5 275.5,-19.5 275.5,-0.5 228.5,-0.5"/>
<text text-anchor="middle" x="252" y="-7.5" font-family="Helvetica,sans-Serif" font-size="10.00">cmath</text>
</a>
</g>
</g>
<!-- Node1&#45;&gt;Node2 -->
<g id="edge1" class="edge">
<title>Node1&#45;&gt;Node2</title>
<path fill="none" stroke="midnightblue" d="M450.65,-114.81C420.87,-104.3 386.17,-90.86 356,-76 325.55,-61 292.7,-39.48 272.24,-25.37"/>
<polygon fill="midnightblue" stroke="midnightblue" points="274.23,-22.49 264.02,-19.64 270.22,-28.23 274.23,-22.49"/>
</g>
<!-- Node3 -->
<g id="node3" class="node">
<title>Node3</title>
<g id="a_node3"><a xlink:title=" ">
<polygon fill="none" stroke="#bfbfbf" points="294,-0.5 294,-19.5 344,-19.5 344,-0.5 294,-0.5"/>
<text text-anchor="middle" x="319" y="-7.5" font-family="Helvetica,sans-Serif" font-size="10.00">cstring</text>
</a>
</g>
</g>
<!-- Node1&#45;&gt;Node3 -->
<g id="edge2" class="edge">
<title>Node1&#45;&gt;Node3</title>
<path fill="none" stroke="midnightblue" d="M451.27,-112.42C428.53,-102.71 403.8,-90.42 383,-76 363.17,-62.25 344.27,-41.84 332.22,-27.57"/>
<polygon fill="midnightblue" stroke="midnightblue" points="334.71,-25.09 325.66,-19.59 329.31,-29.54 334.71,-25.09"/>
</g>
<!-- Node4 -->
<g id="node4" class="node">
<title>Node4</title>
<g id="a_node4"><a xlink:title=" ">
<polygon fill="none" stroke="#bfbfbf" points="150,-0.5 150,-19.5 210,-19.5 210,-0.5 150,-0.5"/>
<text text-anchor="middle" x="180" y="-7.5" font-family="Helvetica,sans-Serif" font-size="10.00">iostream</text>
</a>
</g>
</g>
<!-- Node1&#45;&gt;Node4 -->
<g id="edge3" class="edge">
<title>Node1&#45;&gt;Node4</title>
<path fill="none" stroke="midnightblue" d="M450.73,-119.13C410.99,-108.04 360.66,-92.83 317,-76 276.96,-60.57 232.38,-38.44 205.26,-24.4"/>
<polygon fill="midnightblue" stroke="midnightblue" points="206.59,-21.14 196.1,-19.62 203.35,-27.35 206.59,-21.14"/>
</g>
<!-- Node5 -->
<g id="node5" class="node">
<title>Node5</title>
<g id="a_node5"><a xlink:title=" ">
<polygon fill="none" stroke="#bfbfbf" points="362,-0.5 362,-19.5 406,-19.5 406,-0.5 362,-0.5"/>
<text text-anchor="middle" x="384" y="-7.5" font-family="Helvetica,sans-Serif" font-size="10.00">string</text>
</a>
</g>
</g>
<!-- Node1&#45;&gt;Node5 -->
<g id="edge4" class="edge">
<title>Node1&#45;&gt;Node5</title>
<path fill="none" stroke="midnightblue" d="M451,-116.71C430.44,-107.37 409.8,-94.22 396,-76 386.04,-62.85 383.48,-43.97 383.15,-29.95"/>
<polygon fill="midnightblue" stroke="midnightblue" points="386.66,-29.58 383.29,-19.54 379.66,-29.49 386.66,-29.58"/>
</g>
<!-- Node6 -->
<g id="node6" class="node">
<title>Node6</title>
<g id="a_node6"><a xlink:title=" ">
<polygon fill="none" stroke="#bfbfbf" points="533.5,-0.5 533.5,-19.5 580.5,-19.5 580.5,-0.5 533.5,-0.5"/>
<text text-anchor="middle" x="557" y="-7.5" font-family="Helvetica,sans-Serif" font-size="10.00">vector</text>
</a>
</g>
</g>
<!-- Node1&#45;&gt;Node6 -->
<g id="edge5" class="edge">
<title>Node1&#45;&gt;Node6</title>
<path fill="none" stroke="midnightblue" d="M528.2,-112.2C535.18,-87.66 545.62,-51 551.82,-29.2"/>
<polygon fill="midnightblue" stroke="midnightblue" points="555.2,-30.13 554.57,-19.55 548.46,-28.21 555.2,-30.13"/>
</g>
<!-- Node7 -->
<g id="node7" class="node">
<title>Node7</title>
<g id="a_node7"><a xlink:title=" ">
<polygon fill="none" stroke="#bfbfbf" points="625.5,-56.5 625.5,-75.5 676.5,-75.5 676.5,-56.5 625.5,-56.5"/>
<text text-anchor="middle" x="651" y="-63.5" font-family="Helvetica,sans-Serif" font-size="10.00">errno.h</text>
</a>
</g>
</g>
<!-- Node1&#45;&gt;Node7 -->
<g id="edge6" class="edge">
<title>Node1&#45;&gt;Node7</title>
<path fill="none" stroke="midnightblue" d="M567.2,-112.45C587.09,-101.66 609.54,-89.48 626.2,-80.45"/>
<polygon fill="midnightblue" stroke="midnightblue" points="628.15,-83.37 635.28,-75.53 624.82,-77.22 628.15,-83.37"/>
</g>
<!-- Node8 -->
<g id="node8" class="node">
<title>Node8</title>
<g id="a_node8"><a xlink:title=" ">
<polygon fill="none" stroke="#bfbfbf" points="694.5,-56.5 694.5,-75.5 741.5,-75.5 741.5,-56.5 694.5,-56.5"/>
<text text-anchor="middle" x="718" y="-63.5" font-family="Helvetica,sans-Serif" font-size="10.00">fcntl.h</text>
</a>
</g>
</g>
<!-- Node1&#45;&gt;Node8 -->
<g id="edge7" class="edge">
<title>Node1&#45;&gt;Node8</title>
<path fill="none" stroke="midnightblue" d="M591.01,-112.45C622.84,-101.06 659.01,-88.11 684.58,-78.96"/>
<polygon fill="midnightblue" stroke="midnightblue" points="685.94,-82.19 694.17,-75.53 683.58,-75.6 685.94,-82.19"/>
</g>
<!-- Node9 -->
<g id="node9" class="node">
<title>Node9</title>
<g id="a_node9"><a xlink:title=" ">
<polygon fill="none" stroke="#bfbfbf" points="759.5,-56.5 759.5,-75.5 822.5,-75.5 822.5,-56.5 759.5,-56.5"/>
<text text-anchor="middle" x="791" y="-63.5" font-family="Helvetica,sans-Serif" font-size="10.00">termios.h</text>
</a>
</g>
</g>
<!-- Node1&#45;&gt;Node9 -->
<g id="edge8" class="edge">
<title>Node1&#45;&gt;Node9</title>
<path fill="none" stroke="midnightblue" d="M591.23,-119.16C641.47,-106.04 707.38,-88.83 749.47,-77.84"/>
<polygon fill="midnightblue" stroke="midnightblue" points="750.59,-81.17 759.38,-75.26 748.82,-74.4 750.59,-81.17"/>
</g>
<!-- Node10 -->
<g id="node10" class="node">
<title>Node10</title>
<g id="a_node10"><a xlink:title=" ">
<polygon fill="none" stroke="#bfbfbf" points="841,-56.5 841,-75.5 897,-75.5 897,-56.5 841,-56.5"/>
<text text-anchor="middle" x="869" y="-63.5" font-family="Helvetica,sans-Serif" font-size="10.00">unistd.h</text>
</a>
</g>
</g>
<!-- Node1&#45;&gt;Node10 -->
<g id="edge9" class="edge">
<title>Node1&#45;&gt;Node10</title>
<path fill="none" stroke="midnightblue" d="M591.28,-124.5C652.15,-113.04 742.79,-95.48 830.86,-76.18"/>
<polygon fill="midnightblue" stroke="midnightblue" points="831.73,-79.57 840.75,-74.01 830.23,-72.74 831.73,-79.57"/>
</g>
<!-- Node11 -->
<g id="node11" class="node">
<title>Node11</title>
<g id="a_node11"><a xlink:title=" ">
<polygon fill="none" stroke="#bfbfbf" points="915,-56.5 915,-75.5 965,-75.5 965,-56.5 915,-56.5"/>
<text text-anchor="middle" x="940" y="-63.5" font-family="Helvetica,sans-Serif" font-size="10.00">stdio.h</text>
</a>
</g>
</g>
<!-- Node1&#45;&gt;Node11 -->
<g id="edge10" class="edge">
<title>Node1&#45;&gt;Node11</title>
<path fill="none" stroke="midnightblue" d="M591.29,-128.43C666.58,-118.23 789.68,-100.15 904.78,-76.09"/>
<polygon fill="midnightblue" stroke="midnightblue" points="905.75,-79.46 914.82,-73.97 904.31,-72.61 905.75,-79.46"/>
</g>
<!-- Node12 -->
<g id="node12" class="node">
<title>Node12</title>
<g id="a_node12"><a xlink:title=" ">
<polygon fill="none" stroke="#bfbfbf" points="598.5,-0.5 598.5,-19.5 651.5,-19.5 651.5,-0.5 598.5,-0.5"/>
<text text-anchor="middle" x="625" y="-7.5" font-family="Helvetica,sans-Serif" font-size="10.00">stdint.h</text>
</a>
</g>
</g>
<!-- Node1&#45;&gt;Node12 -->
<g id="edge11" class="edge">
<title>Node1&#45;&gt;Node12</title>
<path fill="none" stroke="midnightblue" d="M539.09,-112.39C551.13,-96.01 567.53,-74.35 583,-56 591.35,-46.09 601.22,-35.48 609.28,-27.05"/>
<polygon fill="midnightblue" stroke="midnightblue" points="611.93,-29.35 616.36,-19.72 606.89,-24.48 611.93,-29.35"/>
</g>
<!-- Node13 -->
<g id="node13" class="node">
<title>Node13</title>
<g id="a_node13"><a xlink:href="clv_hd_e_m_g_8hpp.html" target="_top" xlink:title=" ">
<polygon fill="none" stroke="black" points="405,-56.5 405,-75.5 493,-75.5 493,-56.5 405,-56.5"/>
<text text-anchor="middle" x="449" y="-63.5" font-family="Helvetica,sans-Serif" font-size="10.00">clvHdEMG.hpp</text>
</a>
</g>
</g>
<!-- Node1&#45;&gt;Node13 -->
<g id="edge12" class="edge">
<title>Node1&#45;&gt;Node13</title>
<path fill="none" stroke="midnightblue" d="M488.92,-112.45C478.6,-102.83 467.87,-92.1 460.02,-83.49"/>
<polygon fill="midnightblue" stroke="midnightblue" points="462.46,-80.95 453.26,-75.7 457.17,-85.54 462.46,-80.95"/>
</g>
<!-- Node14 -->
<g id="node14" class="node">
<title>Node14</title>
<g id="a_node14"><a xlink:href="registers_8hpp.html" target="_top" xlink:title=" ">
<polygon fill="none" stroke="black" points="670,-0.5 670,-19.5 750,-19.5 750,-0.5 670,-0.5"/>
<text text-anchor="middle" x="710" y="-7.5" font-family="Helvetica,sans-Serif" font-size="10.00">registers.hpp</text>
</a>
</g>
</g>
<!-- Node1&#45;&gt;Node14 -->
<g id="edge26" class="edge">
<title>Node1&#45;&gt;Node14</title>
<path fill="none" stroke="midnightblue" d="M546.87,-112.38C565.42,-95.19 591.54,-72.58 617,-56 636.71,-43.16 660.63,-31.67 679.28,-23.51"/>
<polygon fill="midnightblue" stroke="midnightblue" points="680.68,-26.72 688.5,-19.56 677.93,-20.28 680.68,-26.72"/>
</g>
<!-- Node16 -->
<g id="node16" class="node">
<title>Node16</title>
<g id="a_node16"><a xlink:href="com__client_8hpp.html" target="_top" xlink:title=" ">
<polygon fill="none" stroke="black" points="81.5,-56.5 81.5,-75.5 172.5,-75.5 172.5,-56.5 81.5,-56.5"/>
<text text-anchor="middle" x="127" y="-63.5" font-family="Helvetica,sans-Serif" font-size="10.00">com_client.hpp</text>
</a>
</g>
</g>
<!-- Node1&#45;&gt;Node16 -->
<g id="edge22" class="edge">
<title>Node1&#45;&gt;Node16</title>
<path fill="none" stroke="midnightblue" d="M450.56,-124.9C373.87,-111.17 252.81,-89.51 182.55,-76.94"/>
<polygon fill="midnightblue" stroke="midnightblue" points="183.02,-73.47 172.56,-75.15 181.79,-80.36 183.02,-73.47"/>
</g>
<!-- Node13&#45;&gt;Node1 -->
<g id="edge18" class="edge">
<title>Node13&#45;&gt;Node1</title>
<path fill="none" stroke="midnightblue" d="M462.51,-75.7C471.64,-83.12 483.73,-94.27 494.62,-105.08"/>
<polygon fill="midnightblue" stroke="midnightblue" points="492.38,-107.8 501.91,-112.45 497.36,-102.87 492.38,-107.8"/>
</g>
<!-- Node13&#45;&gt;Node2 -->
<g id="edge13" class="edge">
<title>Node13&#45;&gt;Node2</title>
<path fill="none" stroke="midnightblue" d="M417.78,-56.44C381.69,-46.55 322.49,-30.32 285.47,-20.17"/>
<polygon fill="midnightblue" stroke="midnightblue" points="286.22,-16.75 275.65,-17.48 284.37,-23.5 286.22,-16.75"/>
</g>
<!-- Node13&#45;&gt;Node3 -->
<g id="edge14" class="edge">
<title>Node13&#45;&gt;Node3</title>
<path fill="none" stroke="midnightblue" d="M428.4,-56.44C407.01,-47.56 373.32,-33.56 348.98,-23.45"/>
<polygon fill="midnightblue" stroke="midnightblue" points="350.08,-20.12 339.5,-19.52 347.39,-26.58 350.08,-20.12"/>
</g>
<!-- Node13&#45;&gt;Node4 -->
<g id="edge15" class="edge">
<title>Node13&#45;&gt;Node4</title>
<path fill="none" stroke="midnightblue" d="M404.82,-56.81C360.53,-48.5 290.14,-35.02 220.09,-20.18"/>
<polygon fill="midnightblue" stroke="midnightblue" points="220.72,-16.74 210.21,-18.08 219.26,-23.58 220.72,-16.74"/>
</g>
<!-- Node13&#45;&gt;Node5 -->
<g id="edge16" class="edge">
<title>Node13&#45;&gt;Node5</title>
<path fill="none" stroke="midnightblue" d="M438.56,-56.32C428.85,-48.26 414.18,-36.08 402.5,-26.37"/>
<polygon fill="midnightblue" stroke="midnightblue" points="404.56,-23.53 394.63,-19.83 400.09,-28.92 404.56,-23.53"/>
</g>
<!-- Node13&#45;&gt;Node6 -->
<g id="edge17" class="edge">
<title>Node13&#45;&gt;Node6</title>
<path fill="none" stroke="midnightblue" d="M466.35,-56.32C483.67,-47.66 510.52,-34.24 530.5,-24.25"/>
<polygon fill="midnightblue" stroke="midnightblue" points="532.31,-27.26 539.69,-19.65 529.18,-21 532.31,-27.26"/>
</g>
<!-- Node13&#45;&gt;Node12 -->
<g id="edge21" class="edge">
<title>Node13&#45;&gt;Node12</title>
<path fill="none" stroke="midnightblue" d="M476.89,-56.44C507.11,-47.17 555.44,-32.34 588.62,-22.16"/>
<polygon fill="midnightblue" stroke="midnightblue" points="589.86,-25.44 598.39,-19.16 587.81,-18.75 589.86,-25.44"/>
</g>
<!-- Node13&#45;&gt;Node14 -->
<g id="edge19" class="edge">
<title>Node13&#45;&gt;Node14</title>
<path fill="none" stroke="midnightblue" d="M490.36,-56.44C536.35,-46.93 610.63,-31.56 659.89,-21.37"/>
<polygon fill="midnightblue" stroke="midnightblue" points="660.61,-24.79 669.69,-19.34 659.19,-17.94 660.61,-24.79"/>
</g>
<!-- Node15 -->
<g id="node15" class="node">
<title>Node15</title>
<g id="a_node15"><a xlink:title=" ">
<polygon fill="none" stroke="#bfbfbf" points="424.5,-0.5 424.5,-19.5 515.5,-19.5 515.5,-0.5 424.5,-0.5"/>
<text text-anchor="middle" x="470" y="-7.5" font-family="Helvetica,sans-Serif" font-size="10.00">strANSIseq.hpp</text>
</a>
</g>
</g>
<!-- Node13&#45;&gt;Node15 -->
<g id="edge20" class="edge">
<title>Node13&#45;&gt;Node15</title>
<path fill="none" stroke="midnightblue" d="M452.47,-56.08C455.31,-48.77 459.43,-38.18 462.96,-29.1"/>
<polygon fill="midnightblue" stroke="midnightblue" points="466.23,-30.34 466.6,-19.75 459.71,-27.8 466.23,-30.34"/>
</g>
<!-- Node16&#45;&gt;Node4 -->
<g id="edge23" class="edge">
<title>Node16&#45;&gt;Node4</title>
<path fill="none" stroke="midnightblue" d="M135.75,-56.08C143.47,-48.22 154.9,-36.57 164.22,-27.08"/>
<polygon fill="midnightblue" stroke="midnightblue" points="166.9,-29.34 171.41,-19.75 161.91,-24.44 166.9,-29.34"/>
</g>
<!-- Node17 -->
<g id="node17" class="node">
<title>Node17</title>
<g id="a_node17"><a xlink:title=" ">
<polygon fill="none" stroke="#bfbfbf" points="0,-0.5 0,-19.5 48,-19.5 48,-0.5 0,-0.5"/>
<text text-anchor="middle" x="24" y="-7.5" font-family="Helvetica,sans-Serif" font-size="10.00">mutex</text>
</a>
</g>
</g>
<!-- Node16&#45;&gt;Node17 -->
<g id="edge24" class="edge">
<title>Node16&#45;&gt;Node17</title>
<path fill="none" stroke="midnightblue" d="M110.45,-56.32C94.01,-47.7 68.57,-34.36 49.53,-24.39"/>
<polygon fill="midnightblue" stroke="midnightblue" points="50.99,-21.2 40.51,-19.65 47.74,-27.4 50.99,-21.2"/>
</g>
<!-- Node18 -->
<g id="node18" class="node">
<title>Node18</title>
<g id="a_node18"><a xlink:title=" ">
<polygon fill="none" stroke="#bfbfbf" points="66.5,-0.5 66.5,-19.5 131.5,-19.5 131.5,-0.5 66.5,-0.5"/>
<text text-anchor="middle" x="99" y="-7.5" font-family="Helvetica,sans-Serif" font-size="10.00">stdexcept</text>
</a>
</g>
</g>
<!-- Node16&#45;&gt;Node18 -->
<g id="edge25" class="edge">
<title>Node16&#45;&gt;Node18</title>
<path fill="none" stroke="midnightblue" d="M122.38,-56.08C118.54,-48.69 112.98,-37.95 108.24,-28.81"/>
<polygon fill="midnightblue" stroke="midnightblue" points="111.25,-27.02 103.54,-19.75 105.03,-30.24 111.25,-27.02"/>
</g>
</g>
</svg>
