<?xml version="1.0" encoding="UTF-8" standalone="no"?>
<!DOCTYPE svg PUBLIC "-//W3C//DTD SVG 1.1//EN"
 "http://www.w3.org/Graphics/SVG/1.1/DTD/svg11.dtd">
<!-- Generated by graphviz version 2.43.0 (0)
 -->
<!-- Title: /home/aightech/dev/qt&#45;clvhd&#45;config/lib/cleverhand&#45;interface/lib/com_client/include/com_client.hpp Pages: 1 -->
<svg width="902pt" height="439pt"
 viewBox="0.00 0.00 901.50 439.00" xmlns="http://www.w3.org/2000/svg" xmlns:xlink="http://www.w3.org/1999/xlink">
<g id="graph0" class="graph" transform="scale(1 1) rotate(0) translate(4 435)">
<title>/home/aightech/dev/qt&#45;clvhd&#45;config/lib/cleverhand&#45;interface/lib/com_client/include/com_client.hpp</title>
<!-- Node1 -->
<g id="node1" class="node">
<title>Node1</title>
<g id="a_node1"><a xlink:title=" ">
<polygon fill="#bfbfbf" stroke="black" points="595,-367.5 595,-430.5 721,-430.5 721,-367.5 595,-367.5"/>
<text text-anchor="start" x="603" y="-418.5" font-family="Helvetica,sans-Serif" font-size="10.00">/home/aightech/dev</text>
<text text-anchor="start" x="603" y="-407.5" font-family="Helvetica,sans-Serif" font-size="10.00">/qt&#45;clvhd&#45;config/lib</text>
<text text-anchor="start" x="603" y="-396.5" font-family="Helvetica,sans-Serif" font-size="10.00">/cleverhand&#45;interface</text>
<text text-anchor="start" x="603" y="-385.5" font-family="Helvetica,sans-Serif" font-size="10.00">/lib/com_client/include</text>
<text text-anchor="middle" x="658" y="-374.5" font-family="Helvetica,sans-Serif" font-size="10.00">/com_client.hpp</text>
</a>
</g>
</g>
<!-- Node2 -->
<g id="node2" class="node">
<title>Node2</title>
<g id="a_node2"><a xlink:href="clv_hd_master_8hpp.html" target="_top" xlink:title=" ">
<polygon fill="none" stroke="black" points="435,-273 435,-325 575,-325 575,-273 435,-273"/>
<text text-anchor="start" x="443" y="-313" font-family="Helvetica,sans-Serif" font-size="10.00">/home/aightech/dev</text>
<text text-anchor="start" x="443" y="-302" font-family="Helvetica,sans-Serif" font-size="10.00">/qt&#45;clvhd&#45;config/lib</text>
<text text-anchor="start" x="443" y="-291" font-family="Helvetica,sans-Serif" font-size="10.00">/cleverhand&#45;interface</text>
<text text-anchor="middle" x="505" y="-280" font-family="Helvetica,sans-Serif" font-size="10.00">/include/clvHdMaster.hpp</text>
</a>
</g>
</g>
<!-- Node1&#45;&gt;Node2 -->
<g id="edge1" class="edge">
<title>Node1&#45;&gt;Node2</title>
<path fill="none" stroke="midnightblue" d="M601.4,-361.74C582.34,-349.54 561.52,-336.2 544.11,-325.05"/>
<polygon fill="midnightblue" stroke="midnightblue" points="599.7,-364.81 610.01,-367.26 603.48,-358.92 599.7,-364.81"/>
</g>
<!-- Node12 -->
<g id="node12" class="node">
<title>Node12</title>
<g id="a_node12"><a xlink:href="com__client_8cpp.html" target="_top" xlink:title=" ">
<polygon fill="none" stroke="black" points="593.5,-267.5 593.5,-330.5 722.5,-330.5 722.5,-267.5 593.5,-267.5"/>
<text text-anchor="start" x="601.5" y="-318.5" font-family="Helvetica,sans-Serif" font-size="10.00">/home/aightech/dev</text>
<text text-anchor="start" x="601.5" y="-307.5" font-family="Helvetica,sans-Serif" font-size="10.00">/qt&#45;clvhd&#45;config/lib</text>
<text text-anchor="start" x="601.5" y="-296.5" font-family="Helvetica,sans-Serif" font-size="10.00">/cleverhand&#45;interface</text>
<text text-anchor="start" x="601.5" y="-285.5" font-family="Helvetica,sans-Serif" font-size="10.00">/lib/com_client/src/com</text>
<text text-anchor="middle" x="658" y="-274.5" font-family="Helvetica,sans-Serif" font-size="10.00">_client.cpp</text>
</a>
</g>
</g>
<!-- Node1&#45;&gt;Node12 -->
<g id="edge12" class="edge">
<title>Node1&#45;&gt;Node12</title>
<path fill="none" stroke="midnightblue" d="M658,-357.1C658,-348.24 658,-339.01 658,-330.63"/>
<polygon fill="midnightblue" stroke="midnightblue" points="654.5,-357.26 658,-367.26 661.5,-357.26 654.5,-357.26"/>
</g>
<!-- Node13 -->
<g id="node13" class="node">
<title>Node13</title>
<g id="a_node13"><a xlink:href="lib_2cleverhand-interface_2lib_2com__client_2src_2main_8cpp.html" target="_top" xlink:title=" ">
<polygon fill="none" stroke="black" points="740.5,-273 740.5,-325 893.5,-325 893.5,-273 740.5,-273"/>
<text text-anchor="start" x="748.5" y="-313" font-family="Helvetica,sans-Serif" font-size="10.00">/home/aightech/dev</text>
<text text-anchor="start" x="748.5" y="-302" font-family="Helvetica,sans-Serif" font-size="10.00">/qt&#45;clvhd&#45;config/lib</text>
<text text-anchor="start" x="748.5" y="-291" font-family="Helvetica,sans-Serif" font-size="10.00">/cleverhand&#45;interface</text>
<text text-anchor="middle" x="817" y="-280" font-family="Helvetica,sans-Serif" font-size="10.00">/lib/com_client/src/main.cpp</text>
</a>
</g>
</g>
<!-- Node1&#45;&gt;Node13 -->
<g id="edge13" class="edge">
<title>Node1&#45;&gt;Node13</title>
<path fill="none" stroke="midnightblue" d="M716.55,-361.91C736.43,-349.66 758.19,-336.25 776.35,-325.05"/>
<polygon fill="midnightblue" stroke="midnightblue" points="714.55,-359.03 707.87,-367.26 718.22,-364.99 714.55,-359.03"/>
</g>
<!-- Node3 -->
<g id="node3" class="node">
<title>Node3</title>
<g id="a_node3"><a xlink:href="mainwindow_8h.html" target="_top" xlink:title=" ">
<polygon fill="none" stroke="black" points="262.5,-184 262.5,-225 393.5,-225 393.5,-184 262.5,-184"/>
<text text-anchor="start" x="270.5" y="-213" font-family="Helvetica,sans-Serif" font-size="10.00">/home/aightech/dev</text>
<text text-anchor="start" x="270.5" y="-202" font-family="Helvetica,sans-Serif" font-size="10.00">/qt&#45;clvhd&#45;config/include</text>
<text text-anchor="middle" x="328" y="-191" font-family="Helvetica,sans-Serif" font-size="10.00">/mainwindow.h</text>
</a>
</g>
</g>
<!-- Node2&#45;&gt;Node3 -->
<g id="edge2" class="edge">
<title>Node2&#45;&gt;Node3</title>
<path fill="none" stroke="midnightblue" d="M448.13,-268.28C421.1,-254.15 389.54,-237.66 365.56,-225.13"/>
<polygon fill="midnightblue" stroke="midnightblue" points="446.62,-271.44 457.1,-272.97 449.86,-265.23 446.62,-271.44"/>
</g>
<!-- Node8 -->
<g id="node8" class="node">
<title>Node8</title>
<g id="a_node8"><a xlink:href="clv_hd_e_m_g_8hpp.html" target="_top" xlink:title=" ">
<polygon fill="none" stroke="black" points="440.5,-178.5 440.5,-230.5 569.5,-230.5 569.5,-178.5 440.5,-178.5"/>
<text text-anchor="start" x="448.5" y="-218.5" font-family="Helvetica,sans-Serif" font-size="10.00">/home/aightech/dev</text>
<text text-anchor="start" x="448.5" y="-207.5" font-family="Helvetica,sans-Serif" font-size="10.00">/qt&#45;clvhd&#45;config/lib</text>
<text text-anchor="start" x="448.5" y="-196.5" font-family="Helvetica,sans-Serif" font-size="10.00">/cleverhand&#45;interface</text>
<text text-anchor="middle" x="505" y="-185.5" font-family="Helvetica,sans-Serif" font-size="10.00">/include/clvHdEMG.hpp</text>
</a>
</g>
</g>
<!-- Node2&#45;&gt;Node8 -->
<g id="edge7" class="edge">
<title>Node2&#45;&gt;Node8</title>
<path fill="none" stroke="midnightblue" d="M498.41,-262.49C498.08,-251.91 498.25,-240.53 498.91,-230.75"/>
<polygon fill="midnightblue" stroke="midnightblue" points="494.93,-262.9 498.91,-272.72 501.92,-262.57 494.93,-262.9"/>
</g>
<!-- Node10 -->
<g id="node10" class="node">
<title>Node10</title>
<g id="a_node10"><a xlink:href="clv_hd_master_8cpp.html" target="_top" xlink:title=" ">
<polygon fill="none" stroke="black" points="587.5,-178.5 587.5,-230.5 708.5,-230.5 708.5,-178.5 587.5,-178.5"/>
<text text-anchor="start" x="595.5" y="-218.5" font-family="Helvetica,sans-Serif" font-size="10.00">/home/aightech/dev</text>
<text text-anchor="start" x="595.5" y="-207.5" font-family="Helvetica,sans-Serif" font-size="10.00">/qt&#45;clvhd&#45;config/lib</text>
<text text-anchor="start" x="595.5" y="-196.5" font-family="Helvetica,sans-Serif" font-size="10.00">/cleverhand&#45;interface</text>
<text text-anchor="middle" x="648" y="-185.5" font-family="Helvetica,sans-Serif" font-size="10.00">/src/clvHdMaster.cpp</text>
</a>
</g>
</g>
<!-- Node2&#45;&gt;Node10 -->
<g id="edge10" class="edge">
<title>Node2&#45;&gt;Node10</title>
<path fill="none" stroke="midnightblue" d="M552.27,-267.42C570.76,-255.46 591.7,-241.92 609.27,-230.55"/>
<polygon fill="midnightblue" stroke="midnightblue" points="550.19,-264.6 543.7,-272.97 554,-270.48 550.19,-264.6"/>
</g>
<!-- Node11 -->
<g id="node11" class="node">
<title>Node11</title>
<g id="a_node11"><a xlink:href="lib_2cleverhand-interface_2src_2main_8cpp.html" target="_top" xlink:title=" ">
<polygon fill="none" stroke="black" points="726.5,-178.5 726.5,-230.5 847.5,-230.5 847.5,-178.5 726.5,-178.5"/>
<text text-anchor="start" x="734.5" y="-218.5" font-family="Helvetica,sans-Serif" font-size="10.00">/home/aightech/dev</text>
<text text-anchor="start" x="734.5" y="-207.5" font-family="Helvetica,sans-Serif" font-size="10.00">/qt&#45;clvhd&#45;config/lib</text>
<text text-anchor="start" x="734.5" y="-196.5" font-family="Helvetica,sans-Serif" font-size="10.00">/cleverhand&#45;interface</text>
<text text-anchor="middle" x="787" y="-185.5" font-family="Helvetica,sans-Serif" font-size="10.00">/src/main.cpp</text>
</a>
</g>
</g>
<!-- Node2&#45;&gt;Node11 -->
<g id="edge11" class="edge">
<title>Node2&#45;&gt;Node11</title>
<path fill="none" stroke="midnightblue" d="M577.67,-269.47C580.14,-268.62 582.59,-267.79 585,-267 643.19,-247.91 659.67,-249.63 718,-231 720.68,-230.15 723.4,-229.25 726.15,-228.32"/>
<polygon fill="midnightblue" stroke="midnightblue" points="576.36,-266.21 568.1,-272.84 578.69,-272.82 576.36,-266.21"/>
</g>
<!-- Node4 -->
<g id="node4" class="node">
<title>Node4</title>
<g id="a_node4"><a xlink:href="moc__mainwindow_8cpp.html" target="_top" xlink:title=" ">
<polygon fill="none" stroke="black" points="0,-89.5 0,-141.5 194,-141.5 194,-89.5 0,-89.5"/>
<text text-anchor="start" x="8" y="-129.5" font-family="Helvetica,sans-Serif" font-size="10.00">/home/aightech/dev</text>
<text text-anchor="start" x="8" y="-118.5" font-family="Helvetica,sans-Serif" font-size="10.00">/qt&#45;clvhd&#45;config/build</text>
<text text-anchor="start" x="8" y="-107.5" font-family="Helvetica,sans-Serif" font-size="10.00">/qt&#45;clvhd&#45;config_autogen</text>
<text text-anchor="middle" x="97" y="-96.5" font-family="Helvetica,sans-Serif" font-size="10.00">/6YEA5652QU/moc_mainwindow.cpp</text>
</a>
</g>
</g>
<!-- Node3&#45;&gt;Node4 -->
<g id="edge3" class="edge">
<title>Node3&#45;&gt;Node4</title>
<path fill="none" stroke="midnightblue" d="M266.55,-180.36C234.82,-168.4 196.05,-153.81 163.6,-141.58"/>
<polygon fill="midnightblue" stroke="midnightblue" points="265.57,-183.73 276.16,-183.98 268.03,-177.18 265.57,-183.73"/>
</g>
<!-- Node6 -->
<g id="node6" class="node">
<title>Node6</title>
<g id="a_node6"><a xlink:href="src_2main_8cpp.html" target="_top" xlink:title=" ">
<polygon fill="none" stroke="black" points="212.5,-95 212.5,-136 325.5,-136 325.5,-95 212.5,-95"/>
<text text-anchor="start" x="220.5" y="-124" font-family="Helvetica,sans-Serif" font-size="10.00">/home/aightech/dev</text>
<text text-anchor="start" x="220.5" y="-113" font-family="Helvetica,sans-Serif" font-size="10.00">/qt&#45;clvhd&#45;config/src</text>
<text text-anchor="middle" x="269" y="-102" font-family="Helvetica,sans-Serif" font-size="10.00">/main.cpp</text>
</a>
</g>
</g>
<!-- Node3&#45;&gt;Node6 -->
<g id="edge5" class="edge">
<title>Node3&#45;&gt;Node6</title>
<path fill="none" stroke="midnightblue" d="M308.87,-175.3C300.21,-162.52 290.17,-147.72 282.34,-136.16"/>
<polygon fill="midnightblue" stroke="midnightblue" points="306.1,-177.45 314.61,-183.76 311.9,-173.52 306.1,-177.45"/>
</g>
<!-- Node7 -->
<g id="node7" class="node">
<title>Node7</title>
<g id="a_node7"><a xlink:href="mainwindow_8cpp.html" target="_top" xlink:title=" ">
<polygon fill="none" stroke="black" points="343.5,-95 343.5,-136 456.5,-136 456.5,-95 343.5,-95"/>
<text text-anchor="start" x="351.5" y="-124" font-family="Helvetica,sans-Serif" font-size="10.00">/home/aightech/dev</text>
<text text-anchor="start" x="351.5" y="-113" font-family="Helvetica,sans-Serif" font-size="10.00">/qt&#45;clvhd&#45;config/src</text>
<text text-anchor="middle" x="400" y="-102" font-family="Helvetica,sans-Serif" font-size="10.00">/mainwindow.cpp</text>
</a>
</g>
</g>
<!-- Node3&#45;&gt;Node7 -->
<g id="edge6" class="edge">
<title>Node3&#45;&gt;Node7</title>
<path fill="none" stroke="midnightblue" d="M350.73,-176.03C361.44,-163.09 373.98,-147.94 383.73,-136.16"/>
<polygon fill="midnightblue" stroke="midnightblue" points="348.02,-173.82 344.34,-183.76 353.41,-178.29 348.02,-173.82"/>
</g>
<!-- Node5 -->
<g id="node5" class="node">
<title>Node5</title>
<g id="a_node5"><a xlink:href="qt-clvhd-config__autogen_2mocs__compilation_8cpp.html" target="_top" xlink:title=" ">
<polygon fill="none" stroke="black" points="28.5,-0.5 28.5,-52.5 165.5,-52.5 165.5,-0.5 28.5,-0.5"/>
<text text-anchor="start" x="36.5" y="-40.5" font-family="Helvetica,sans-Serif" font-size="10.00">/home/aightech/dev</text>
<text text-anchor="start" x="36.5" y="-29.5" font-family="Helvetica,sans-Serif" font-size="10.00">/qt&#45;clvhd&#45;config/build</text>
<text text-anchor="start" x="36.5" y="-18.5" font-family="Helvetica,sans-Serif" font-size="10.00">/qt&#45;clvhd&#45;config_autogen</text>
<text text-anchor="middle" x="97" y="-7.5" font-family="Helvetica,sans-Serif" font-size="10.00">/mocs_compilation.cpp</text>
</a>
</g>
</g>
<!-- Node4&#45;&gt;Node5 -->
<g id="edge4" class="edge">
<title>Node4&#45;&gt;Node5</title>
<path fill="none" stroke="midnightblue" d="M97,-79.19C97,-70.28 97,-60.9 97,-52.61"/>
<polygon fill="midnightblue" stroke="midnightblue" points="93.5,-79.34 97,-89.34 100.5,-79.34 93.5,-79.34"/>
</g>
<!-- Node8&#45;&gt;Node2 -->
<g id="edge8" class="edge">
<title>Node8&#45;&gt;Node2</title>
<path fill="none" stroke="midnightblue" d="M511.58,-240.97C511.92,-251.56 511.75,-262.94 511.09,-272.72"/>
<polygon fill="midnightblue" stroke="midnightblue" points="515.07,-240.56 511.09,-230.75 508.08,-240.9 515.07,-240.56"/>
</g>
<!-- Node9 -->
<g id="node9" class="node">
<title>Node9</title>
<g id="a_node9"><a xlink:href="clv_hd_e_m_g_8cpp.html" target="_top" xlink:title=" ">
<polygon fill="none" stroke="black" points="474.5,-89.5 474.5,-141.5 595.5,-141.5 595.5,-89.5 474.5,-89.5"/>
<text text-anchor="start" x="482.5" y="-129.5" font-family="Helvetica,sans-Serif" font-size="10.00">/home/aightech/dev</text>
<text text-anchor="start" x="482.5" y="-118.5" font-family="Helvetica,sans-Serif" font-size="10.00">/qt&#45;clvhd&#45;config/lib</text>
<text text-anchor="start" x="482.5" y="-107.5" font-family="Helvetica,sans-Serif" font-size="10.00">/cleverhand&#45;interface</text>
<text text-anchor="middle" x="535" y="-96.5" font-family="Helvetica,sans-Serif" font-size="10.00">/src/clvHdEMG.cpp</text>
</a>
</g>
</g>
<!-- Node8&#45;&gt;Node9 -->
<g id="edge9" class="edge">
<title>Node8&#45;&gt;Node9</title>
<path fill="none" stroke="midnightblue" d="M516.98,-168.77C520.11,-159.69 523.42,-150.08 526.34,-141.61"/>
<polygon fill="midnightblue" stroke="midnightblue" points="513.63,-167.74 513.68,-178.34 520.25,-170.02 513.63,-167.74"/>
</g>
</g>
</svg>
