<?xml version="1.0" encoding="UTF-8" standalone="no"?>
<!DOCTYPE svg PUBLIC "-//W3C//DTD SVG 1.1//EN"
 "http://www.w3.org/Graphics/SVG/1.1/DTD/svg11.dtd">
<!-- Generated by graphviz version 2.43.0 (0)
 -->
<!-- Title: /home/aightech/dev/qt&#45;clvhd&#45;config/lib/cleverhand&#45;interface/tool_lib/joystick/src/joystick.cpp Pages: 1 -->
<svg width="602pt" height="184pt"
 viewBox="0.00 0.00 601.50 184.00" xmlns="http://www.w3.org/2000/svg" xmlns:xlink="http://www.w3.org/1999/xlink">
<g id="graph0" class="graph" transform="scale(1 1) rotate(0) translate(4 180)">
<title>/home/aightech/dev/qt&#45;clvhd&#45;config/lib/cleverhand&#45;interface/tool_lib/joystick/src/joystick.cpp</title>
<!-- Node1 -->
<g id="node1" class="node">
<title>Node1</title>
<g id="a_node1"><a xlink:title=" ">
<polygon fill="#bfbfbf" stroke="black" points="337.5,-112.5 337.5,-175.5 458.5,-175.5 458.5,-112.5 337.5,-112.5"/>
<text text-anchor="start" x="345.5" y="-163.5" font-family="Helvetica,sans-Serif" font-size="10.00">/home/aightech/dev</text>
<text text-anchor="start" x="345.5" y="-152.5" font-family="Helvetica,sans-Serif" font-size="10.00">/qt&#45;clvhd&#45;config/lib</text>
<text text-anchor="start" x="345.5" y="-141.5" font-family="Helvetica,sans-Serif" font-size="10.00">/cleverhand&#45;interface</text>
<text text-anchor="start" x="345.5" y="-130.5" font-family="Helvetica,sans-Serif" font-size="10.00">/tool_lib/joystick/src</text>
<text text-anchor="middle" x="398" y="-119.5" font-family="Helvetica,sans-Serif" font-size="10.00">/joystick.cpp</text>
</a>
</g>
</g>
<!-- Node2 -->
<g id="node2" class="node">
<title>Node2</title>
<g id="a_node2"><a xlink:href="joystick_8h.html" target="_top" xlink:title=" ">
<polygon fill="none" stroke="black" points="270,-56.5 270,-75.5 334,-75.5 334,-56.5 270,-56.5"/>
<text text-anchor="middle" x="302" y="-63.5" font-family="Helvetica,sans-Serif" font-size="10.00">joystick.h</text>
</a>
</g>
</g>
<!-- Node1&#45;&gt;Node2 -->
<g id="edge1" class="edge">
<title>Node1&#45;&gt;Node2</title>
<path fill="none" stroke="midnightblue" d="M359.23,-112.31C346.09,-101.9 331.99,-90.74 321.08,-82.1"/>
<polygon fill="midnightblue" stroke="midnightblue" points="323.1,-79.24 313.08,-75.77 318.75,-84.73 323.1,-79.24"/>
</g>
<!-- Node11 -->
<g id="node11" class="node">
<title>Node11</title>
<g id="a_node11"><a xlink:title=" ">
<polygon fill="none" stroke="#bfbfbf" points="352.5,-56.5 352.5,-75.5 443.5,-75.5 443.5,-56.5 352.5,-56.5"/>
<text text-anchor="middle" x="398" y="-63.5" font-family="Helvetica,sans-Serif" font-size="10.00">strANSIseq.hpp</text>
</a>
</g>
</g>
<!-- Node1&#45;&gt;Node11 -->
<g id="edge10" class="edge">
<title>Node1&#45;&gt;Node11</title>
<path fill="none" stroke="midnightblue" d="M398,-112.09C398,-103.15 398,-93.67 398,-85.72"/>
<polygon fill="midnightblue" stroke="midnightblue" points="401.5,-85.72 398,-75.72 394.5,-85.72 401.5,-85.72"/>
</g>
<!-- Node12 -->
<g id="node12" class="node">
<title>Node12</title>
<g id="a_node12"><a xlink:title=" ">
<polygon fill="none" stroke="#bfbfbf" points="461.5,-56.5 461.5,-75.5 514.5,-75.5 514.5,-56.5 461.5,-56.5"/>
<text text-anchor="middle" x="488" y="-63.5" font-family="Helvetica,sans-Serif" font-size="10.00">string.h</text>
</a>
</g>
</g>
<!-- Node1&#45;&gt;Node12 -->
<g id="edge11" class="edge">
<title>Node1&#45;&gt;Node12</title>
<path fill="none" stroke="midnightblue" d="M434.35,-112.31C446.54,-102.01 459.62,-90.96 469.81,-82.36"/>
<polygon fill="midnightblue" stroke="midnightblue" points="472.23,-84.9 477.61,-75.77 467.71,-79.55 472.23,-84.9"/>
</g>
<!-- Node3 -->
<g id="node3" class="node">
<title>Node3</title>
<g id="a_node3"><a xlink:title=" ">
<polygon fill="none" stroke="#bfbfbf" points="0,-0.5 0,-19.5 50,-19.5 50,-0.5 0,-0.5"/>
<text text-anchor="middle" x="25" y="-7.5" font-family="Helvetica,sans-Serif" font-size="10.00">cstdint</text>
</a>
</g>
</g>
<!-- Node2&#45;&gt;Node3 -->
<g id="edge2" class="edge">
<title>Node2&#45;&gt;Node3</title>
<path fill="none" stroke="midnightblue" d="M269.61,-59.8C224.71,-52.43 140.82,-38.01 60.03,-20.1"/>
<polygon fill="midnightblue" stroke="midnightblue" points="60.72,-16.67 50.2,-17.9 59.19,-23.5 60.72,-16.67"/>
</g>
<!-- Node4 -->
<g id="node4" class="node">
<title>Node4</title>
<g id="a_node4"><a xlink:title=" ">
<polygon fill="none" stroke="#bfbfbf" points="68.5,-0.5 68.5,-19.5 115.5,-19.5 115.5,-0.5 68.5,-0.5"/>
<text text-anchor="middle" x="92" y="-7.5" font-family="Helvetica,sans-Serif" font-size="10.00">fcntl.h</text>
</a>
</g>
</g>
<!-- Node2&#45;&gt;Node4 -->
<g id="edge3" class="edge">
<title>Node2&#45;&gt;Node4</title>
<path fill="none" stroke="midnightblue" d="M269.98,-57.04C236.44,-48.65 181.96,-34.93 125.58,-20.12"/>
<polygon fill="midnightblue" stroke="midnightblue" points="126.34,-16.7 115.78,-17.54 124.56,-23.47 126.34,-16.7"/>
</g>
<!-- Node5 -->
<g id="node5" class="node">
<title>Node5</title>
<g id="a_node5"><a xlink:title=" ">
<polygon fill="none" stroke="#bfbfbf" points="134,-0.5 134,-19.5 194,-19.5 194,-0.5 134,-0.5"/>
<text text-anchor="middle" x="164" y="-7.5" font-family="Helvetica,sans-Serif" font-size="10.00">iostream</text>
</a>
</g>
</g>
<!-- Node2&#45;&gt;Node5 -->
<g id="edge4" class="edge">
<title>Node2&#45;&gt;Node5</title>
<path fill="none" stroke="midnightblue" d="M280.13,-56.44C257.22,-47.48 221.02,-33.31 195.13,-23.18"/>
<polygon fill="midnightblue" stroke="midnightblue" points="196.35,-19.9 185.76,-19.52 193.8,-26.42 196.35,-19.9"/>
</g>
<!-- Node6 -->
<g id="node6" class="node">
<title>Node6</title>
<g id="a_node6"><a xlink:title=" ">
<polygon fill="none" stroke="#bfbfbf" points="212.5,-0.5 212.5,-19.5 303.5,-19.5 303.5,-0.5 212.5,-0.5"/>
<text text-anchor="middle" x="258" y="-7.5" font-family="Helvetica,sans-Serif" font-size="10.00">linux/joystick.h</text>
</a>
</g>
</g>
<!-- Node2&#45;&gt;Node6 -->
<g id="edge5" class="edge">
<title>Node2&#45;&gt;Node6</title>
<path fill="none" stroke="midnightblue" d="M294.73,-56.08C288.46,-48.38 279.21,-37.03 271.57,-27.65"/>
<polygon fill="midnightblue" stroke="midnightblue" points="274.16,-25.29 265.13,-19.75 268.73,-29.71 274.16,-25.29"/>
</g>
<!-- Node7 -->
<g id="node7" class="node">
<title>Node7</title>
<g id="a_node7"><a xlink:title=" ">
<polygon fill="none" stroke="#bfbfbf" points="321.5,-0.5 321.5,-19.5 372.5,-19.5 372.5,-0.5 321.5,-0.5"/>
<text text-anchor="middle" x="347" y="-7.5" font-family="Helvetica,sans-Serif" font-size="10.00">math.h</text>
</a>
</g>
</g>
<!-- Node2&#45;&gt;Node7 -->
<g id="edge6" class="edge">
<title>Node2&#45;&gt;Node7</title>
<path fill="none" stroke="midnightblue" d="M309.43,-56.08C315.85,-48.38 325.31,-37.03 333.12,-27.65"/>
<polygon fill="midnightblue" stroke="midnightblue" points="335.99,-29.67 339.71,-19.75 330.62,-25.19 335.99,-29.67"/>
</g>
<!-- Node8 -->
<g id="node8" class="node">
<title>Node8</title>
<g id="a_node8"><a xlink:title=" ">
<polygon fill="none" stroke="#bfbfbf" points="390.5,-0.5 390.5,-19.5 453.5,-19.5 453.5,-0.5 390.5,-0.5"/>
<text text-anchor="middle" x="422" y="-7.5" font-family="Helvetica,sans-Serif" font-size="10.00">pthread.h</text>
</a>
</g>
</g>
<!-- Node2&#45;&gt;Node8 -->
<g id="edge7" class="edge">
<title>Node2&#45;&gt;Node8</title>
<path fill="none" stroke="midnightblue" d="M321.01,-56.44C340.59,-47.64 371.31,-33.81 393.73,-23.72"/>
<polygon fill="midnightblue" stroke="midnightblue" points="395.39,-26.81 403.07,-19.52 392.52,-20.43 395.39,-26.81"/>
</g>
<!-- Node9 -->
<g id="node9" class="node">
<title>Node9</title>
<g id="a_node9"><a xlink:title=" ">
<polygon fill="none" stroke="#bfbfbf" points="472,-0.5 472,-19.5 528,-19.5 528,-0.5 472,-0.5"/>
<text text-anchor="middle" x="500" y="-7.5" font-family="Helvetica,sans-Serif" font-size="10.00">unistd.h</text>
</a>
</g>
</g>
<!-- Node2&#45;&gt;Node9 -->
<g id="edge8" class="edge">
<title>Node2&#45;&gt;Node9</title>
<path fill="none" stroke="midnightblue" d="M333.37,-56.44C368.26,-46.93 424.61,-31.56 461.97,-21.37"/>
<polygon fill="midnightblue" stroke="midnightblue" points="463.25,-24.65 471.97,-18.64 461.41,-17.9 463.25,-24.65"/>
</g>
<!-- Node10 -->
<g id="node10" class="node">
<title>Node10</title>
<g id="a_node10"><a xlink:title=" ">
<polygon fill="none" stroke="#bfbfbf" points="546.5,-0.5 546.5,-19.5 593.5,-19.5 593.5,-0.5 546.5,-0.5"/>
<text text-anchor="middle" x="570" y="-7.5" font-family="Helvetica,sans-Serif" font-size="10.00">vector</text>
</a>
</g>
</g>
<!-- Node2&#45;&gt;Node10 -->
<g id="edge9" class="edge">
<title>Node2&#45;&gt;Node10</title>
<path fill="none" stroke="midnightblue" d="M334.09,-58.03C337.43,-57.33 340.78,-56.64 344,-56 426.47,-39.48 450.25,-39.47 536.32,-20"/>
<polygon fill="midnightblue" stroke="midnightblue" points="537.3,-23.36 546.27,-17.72 535.74,-16.54 537.3,-23.36"/>
</g>
</g>
</svg>
