<?xml version="1.0" encoding="UTF-8" standalone="no"?>
<!DOCTYPE svg PUBLIC "-//W3C//DTD SVG 1.1//EN"
 "http://www.w3.org/Graphics/SVG/1.1/DTD/svg11.dtd">
<!-- Generated by graphviz version 2.43.0 (0)
 -->
<!-- Title: main Pages: 1 -->
<svg width="344pt" height="180pt"
 viewBox="0.00 0.00 344.00 180.00" xmlns="http://www.w3.org/2000/svg" xmlns:xlink="http://www.w3.org/1999/xlink">
<g id="graph0" class="graph" transform="scale(1 1) rotate(0) translate(4 176)">
<title>main</title>
<!-- Node1 -->
<g id="node1" class="node">
<title>Node1</title>
<g id="a_node1"><a xlink:title=" ">
<polygon fill="#bfbfbf" stroke="black" points="0,-76.5 0,-95.5 41,-95.5 41,-76.5 0,-76.5"/>
<text text-anchor="middle" x="20.5" y="-83.5" font-family="Helvetica,sans-Serif" font-size="10.00">main</text>
</a>
</g>
</g>
<!-- Node2 -->
<g id="node2" class="node">
<title>Node2</title>
<g id="a_node2"><a xlink:href="classc_joystick.html#a10375763b82c2da3e904d118d5cf2ecb" target="_top" xlink:title=" ">
<polygon fill="none" stroke="black" points="77,-152.5 77,-171.5 213,-171.5 213,-152.5 77,-152.5"/>
<text text-anchor="middle" x="145" y="-159.5" font-family="Helvetica,sans-Serif" font-size="10.00">cJoystick::buttonPressed</text>
</a>
</g>
</g>
<!-- Node1&#45;&gt;Node2 -->
<g id="edge1" class="edge">
<title>Node1&#45;&gt;Node2</title>
<path fill="none" stroke="midnightblue" d="M28.25,-95.57C37.72,-108.28 56.12,-130.55 77,-143 80.62,-145.16 84.5,-147.08 88.5,-148.79"/>
<polygon fill="midnightblue" stroke="midnightblue" points="87.39,-152.12 97.98,-152.42 89.89,-145.58 87.39,-152.12"/>
</g>
<!-- Node3 -->
<g id="node3" class="node">
<title>Node3</title>
<g id="a_node3"><a xlink:href="classc_joystick.html#a76ca1eb6d9fa1a10a9f43bdc407db826" target="_top" xlink:title=" ">
<polygon fill="none" stroke="black" points="93,-114.5 93,-133.5 197,-133.5 197,-114.5 93,-114.5"/>
<text text-anchor="middle" x="145" y="-121.5" font-family="Helvetica,sans-Serif" font-size="10.00">cJoystick::connect</text>
</a>
</g>
</g>
<!-- Node1&#45;&gt;Node3 -->
<g id="edge2" class="edge">
<title>Node1&#45;&gt;Node3</title>
<path fill="none" stroke="midnightblue" d="M41.19,-93.03C51.76,-96.73 65.04,-101.26 77,-105 84.22,-107.26 91.92,-109.55 99.42,-111.72"/>
<polygon fill="midnightblue" stroke="midnightblue" points="98.54,-115.11 109.12,-114.49 100.47,-108.38 98.54,-115.11"/>
</g>
<!-- Node6 -->
<g id="node6" class="node">
<title>Node6</title>
<g id="a_node6"><a xlink:href="classc_joystick.html#ae831e6560f01701e20d2e510376252e0" target="_top" xlink:title=" ">
<polygon fill="none" stroke="black" points="87,-76.5 87,-95.5 203,-95.5 203,-76.5 87,-76.5"/>
<text text-anchor="middle" x="145" y="-83.5" font-family="Helvetica,sans-Serif" font-size="10.00">cJoystick::getNbAxis</text>
</a>
</g>
</g>
<!-- Node1&#45;&gt;Node6 -->
<g id="edge5" class="edge">
<title>Node1&#45;&gt;Node6</title>
<path fill="none" stroke="midnightblue" d="M41.18,-86C51,-86 63.52,-86 76.42,-86"/>
<polygon fill="midnightblue" stroke="midnightblue" points="76.8,-89.5 86.8,-86 76.8,-82.5 76.8,-89.5"/>
</g>
<!-- Node7 -->
<g id="node7" class="node">
<title>Node7</title>
<g id="a_node7"><a xlink:href="classc_joystick.html#a0aaf54e75e98415e832ce32191de4d8b" target="_top" xlink:title=" ">
<polygon fill="none" stroke="black" points="78.5,-38.5 78.5,-57.5 211.5,-57.5 211.5,-38.5 78.5,-38.5"/>
<text text-anchor="middle" x="145" y="-45.5" font-family="Helvetica,sans-Serif" font-size="10.00">cJoystick::getNbButtons</text>
</a>
</g>
</g>
<!-- Node1&#45;&gt;Node7 -->
<g id="edge6" class="edge">
<title>Node1&#45;&gt;Node7</title>
<path fill="none" stroke="midnightblue" d="M41.19,-78.97C51.76,-75.27 65.04,-70.74 77,-67 84.22,-64.74 91.92,-62.45 99.42,-60.28"/>
<polygon fill="midnightblue" stroke="midnightblue" points="100.47,-63.62 109.12,-57.51 98.54,-56.89 100.47,-63.62"/>
</g>
<!-- Node8 -->
<g id="node8" class="node">
<title>Node8</title>
<g id="a_node8"><a xlink:href="classc_joystick.html#a424fd8f995680bd77601b995f420ece0" target="_top" xlink:title=" ">
<polygon fill="none" stroke="black" points="79.5,-0.5 79.5,-19.5 210.5,-19.5 210.5,-0.5 79.5,-0.5"/>
<text text-anchor="middle" x="145" y="-7.5" font-family="Helvetica,sans-Serif" font-size="10.00">cJoystick::joystickValue</text>
</a>
</g>
</g>
<!-- Node1&#45;&gt;Node8 -->
<g id="edge7" class="edge">
<title>Node1&#45;&gt;Node8</title>
<path fill="none" stroke="midnightblue" d="M28.25,-76.43C37.72,-63.72 56.12,-41.45 77,-29 80.62,-26.84 84.5,-24.92 88.5,-23.21"/>
<polygon fill="midnightblue" stroke="midnightblue" points="89.89,-26.42 97.98,-19.58 87.39,-19.88 89.89,-26.42"/>
</g>
<!-- Node4 -->
<g id="node4" class="node">
<title>Node4</title>
<g id="a_node4"><a xlink:href="namespace_e_s_c.html#a080ff5f5b8a2ed3567a541acfa69a425" target="_top" xlink:title="fstr Prints a formated string.">
<polygon fill="none" stroke="black" points="263.5,-133.5 263.5,-152.5 321.5,-152.5 321.5,-133.5 263.5,-133.5"/>
<text text-anchor="middle" x="292.5" y="-140.5" font-family="Helvetica,sans-Serif" font-size="10.00">ESC::fstr</text>
</a>
</g>
</g>
<!-- Node3&#45;&gt;Node4 -->
<g id="edge3" class="edge">
<title>Node3&#45;&gt;Node4</title>
<path fill="none" stroke="midnightblue" d="M197.3,-130.7C215.73,-133.11 236.17,-135.78 253.3,-138.01"/>
<polygon fill="midnightblue" stroke="midnightblue" points="253.11,-141.52 263.48,-139.34 254.02,-134.58 253.11,-141.52"/>
</g>
<!-- Node5 -->
<g id="node5" class="node">
<title>Node5</title>
<g id="a_node5"><a xlink:href="classc_joystick.html#aafa52c2e4d67c71f3d1e31b80d1dd324" target="_top" xlink:title=" ">
<polygon fill="none" stroke="black" points="249,-95.5 249,-114.5 336,-114.5 336,-95.5 249,-95.5"/>
<text text-anchor="middle" x="292.5" y="-102.5" font-family="Helvetica,sans-Serif" font-size="10.00">cJoystick::loop</text>
</a>
</g>
</g>
<!-- Node3&#45;&gt;Node5 -->
<g id="edge4" class="edge">
<title>Node3&#45;&gt;Node5</title>
<path fill="none" stroke="midnightblue" d="M197.3,-117.3C210.73,-115.55 225.23,-113.65 238.74,-111.89"/>
<polygon fill="midnightblue" stroke="midnightblue" points="239.37,-115.34 248.84,-110.57 238.47,-108.4 239.37,-115.34"/>
</g>
</g>
</svg>
