<?xml version="1.0" encoding="UTF-8" standalone="no"?>
<!DOCTYPE svg PUBLIC "-//W3C//DTD SVG 1.1//EN"
 "http://www.w3.org/Graphics/SVG/1.1/DTD/svg11.dtd">
<!-- Generated by graphviz version 2.43.0 (0)
 -->
<!-- Title: /home/aightech/dev/qt&#45;clvhd&#45;config/lib/cleverhand&#45;interface/src/main.cpp Pages: 1 -->
<svg width="896pt" height="229pt"
 viewBox="0.00 0.00 896.00 229.00" xmlns="http://www.w3.org/2000/svg" xmlns:xlink="http://www.w3.org/1999/xlink">
<g id="graph0" class="graph" transform="scale(1 1) rotate(0) translate(4 225)">
<title>/home/aightech/dev/qt&#45;clvhd&#45;config/lib/cleverhand&#45;interface/src/main.cpp</title>
<!-- Node1 -->
<g id="node1" class="node">
<title>Node1</title>
<g id="a_node1"><a xlink:title=" ">
<polygon fill="#bfbfbf" stroke="black" points="675,-168.5 675,-220.5 796,-220.5 796,-168.5 675,-168.5"/>
<text text-anchor="start" x="683" y="-208.5" font-family="Helvetica,sans-Serif" font-size="10.00">/home/aightech/dev</text>
<text text-anchor="start" x="683" y="-197.5" font-family="Helvetica,sans-Serif" font-size="10.00">/qt&#45;clvhd&#45;config/lib</text>
<text text-anchor="start" x="683" y="-186.5" font-family="Helvetica,sans-Serif" font-size="10.00">/cleverhand&#45;interface</text>
<text text-anchor="middle" x="735.5" y="-175.5" font-family="Helvetica,sans-Serif" font-size="10.00">/src/main.cpp</text>
</a>
</g>
</g>
<!-- Node2 -->
<g id="node2" class="node">
<title>Node2</title>
<g id="a_node2"><a xlink:href="clv_hd_master_8hpp.html" target="_top" xlink:title=" ">
<polygon fill="none" stroke="black" points="398.5,-112.5 398.5,-131.5 496.5,-131.5 496.5,-112.5 398.5,-112.5"/>
<text text-anchor="middle" x="447.5" y="-119.5" font-family="Helvetica,sans-Serif" font-size="10.00">clvHdMaster.hpp</text>
</a>
</g>
</g>
<!-- Node1&#45;&gt;Node2 -->
<g id="edge1" class="edge">
<title>Node1&#45;&gt;Node2</title>
<path fill="none" stroke="midnightblue" d="M674.77,-178.63C620.23,-165.28 541.41,-145.99 492.37,-133.98"/>
<polygon fill="midnightblue" stroke="midnightblue" points="492.93,-130.52 482.38,-131.54 491.26,-137.32 492.93,-130.52"/>
</g>
<!-- Node5 -->
<g id="node5" class="node">
<title>Node5</title>
<g id="a_node5"><a xlink:title=" ">
<polygon fill="none" stroke="#bfbfbf" points="677.5,-0.5 677.5,-19.5 737.5,-19.5 737.5,-0.5 677.5,-0.5"/>
<text text-anchor="middle" x="707.5" y="-7.5" font-family="Helvetica,sans-Serif" font-size="10.00">iostream</text>
</a>
</g>
</g>
<!-- Node1&#45;&gt;Node5 -->
<g id="edge29" class="edge">
<title>Node1&#45;&gt;Node5</title>
<path fill="none" stroke="midnightblue" d="M731.61,-168.12C725.91,-130.98 715.42,-62.64 710.37,-29.71"/>
<polygon fill="midnightblue" stroke="midnightblue" points="713.8,-29 708.83,-19.65 706.88,-30.06 713.8,-29"/>
</g>
<!-- Node20 -->
<g id="node20" class="node">
<title>Node20</title>
<g id="a_node20"><a xlink:title=" ">
<polygon fill="none" stroke="#bfbfbf" points="735.5,-112.5 735.5,-131.5 791.5,-131.5 791.5,-112.5 735.5,-112.5"/>
<text text-anchor="middle" x="763.5" y="-119.5" font-family="Helvetica,sans-Serif" font-size="10.00">iomanip</text>
</a>
</g>
</g>
<!-- Node1&#45;&gt;Node20 -->
<g id="edge28" class="edge">
<title>Node1&#45;&gt;Node20</title>
<path fill="none" stroke="midnightblue" d="M745.45,-168.45C749.03,-159.43 753,-149.44 756.3,-141.13"/>
<polygon fill="midnightblue" stroke="midnightblue" points="759.61,-142.28 760.05,-131.7 753.1,-139.7 759.61,-142.28"/>
</g>
<!-- Node21 -->
<g id="node21" class="node">
<title>Node21</title>
<g id="a_node21"><a xlink:title=" ">
<polygon fill="none" stroke="#bfbfbf" points="810,-112.5 810,-131.5 869,-131.5 869,-112.5 810,-112.5"/>
<text text-anchor="middle" x="839.5" y="-119.5" font-family="Helvetica,sans-Serif" font-size="10.00">lsl_cpp.h</text>
</a>
</g>
</g>
<!-- Node1&#45;&gt;Node21 -->
<g id="edge30" class="edge">
<title>Node1&#45;&gt;Node21</title>
<path fill="none" stroke="midnightblue" d="M772.46,-168.45C787.83,-158.03 805.12,-146.31 818.29,-137.38"/>
<polygon fill="midnightblue" stroke="midnightblue" points="820.36,-140.2 826.67,-131.7 816.43,-134.41 820.36,-140.2"/>
</g>
<!-- Node3 -->
<g id="node3" class="node">
<title>Node3</title>
<g id="a_node3"><a xlink:title=" ">
<polygon fill="none" stroke="#bfbfbf" points="482,-0.5 482,-19.5 529,-19.5 529,-0.5 482,-0.5"/>
<text text-anchor="middle" x="505.5" y="-7.5" font-family="Helvetica,sans-Serif" font-size="10.00">cmath</text>
</a>
</g>
</g>
<!-- Node2&#45;&gt;Node3 -->
<g id="edge2" class="edge">
<title>Node2&#45;&gt;Node3</title>
<path fill="none" stroke="midnightblue" d="M484.2,-112.35C503.33,-105.77 525.07,-94.58 536.5,-76 546.26,-60.12 534.15,-40.7 522.32,-27.24"/>
<polygon fill="midnightblue" stroke="midnightblue" points="524.61,-24.57 515.19,-19.72 519.53,-29.38 524.61,-24.57"/>
</g>
<!-- Node4 -->
<g id="node4" class="node">
<title>Node4</title>
<g id="a_node4"><a xlink:title=" ">
<polygon fill="none" stroke="#bfbfbf" points="547.5,-0.5 547.5,-19.5 597.5,-19.5 597.5,-0.5 547.5,-0.5"/>
<text text-anchor="middle" x="572.5" y="-7.5" font-family="Helvetica,sans-Serif" font-size="10.00">cstring</text>
</a>
</g>
</g>
<!-- Node2&#45;&gt;Node4 -->
<g id="edge3" class="edge">
<title>Node2&#45;&gt;Node4</title>
<path fill="none" stroke="midnightblue" d="M486.8,-112.48C508.57,-105.89 534.57,-94.64 551.5,-76 563.08,-63.26 568.28,-44.06 570.61,-29.83"/>
<polygon fill="midnightblue" stroke="midnightblue" points="574.11,-30.07 571.93,-19.7 567.17,-29.16 574.11,-30.07"/>
</g>
<!-- Node2&#45;&gt;Node5 -->
<g id="edge4" class="edge">
<title>Node2&#45;&gt;Node5</title>
<path fill="none" stroke="midnightblue" d="M484.49,-112.43C515.18,-104.71 559.6,-92.11 596.5,-76 629.45,-61.62 664.86,-39.62 686.6,-25.27"/>
<polygon fill="midnightblue" stroke="midnightblue" points="688.67,-28.1 695.03,-19.63 684.78,-22.28 688.67,-28.1"/>
</g>
<!-- Node6 -->
<g id="node6" class="node">
<title>Node6</title>
<g id="a_node6"><a xlink:title=" ">
<polygon fill="none" stroke="#bfbfbf" points="615.5,-0.5 615.5,-19.5 659.5,-19.5 659.5,-0.5 615.5,-0.5"/>
<text text-anchor="middle" x="637.5" y="-7.5" font-family="Helvetica,sans-Serif" font-size="10.00">string</text>
</a>
</g>
</g>
<!-- Node2&#45;&gt;Node6 -->
<g id="edge5" class="edge">
<title>Node2&#45;&gt;Node6</title>
<path fill="none" stroke="midnightblue" d="M482.41,-112.46C508.05,-105.22 543.06,-93.23 570.5,-76 591.61,-62.75 611.54,-41.96 624.09,-27.47"/>
<polygon fill="midnightblue" stroke="midnightblue" points="626.81,-29.67 630.58,-19.77 621.45,-25.16 626.81,-29.67"/>
</g>
<!-- Node7 -->
<g id="node7" class="node">
<title>Node7</title>
<g id="a_node7"><a xlink:title=" ">
<polygon fill="none" stroke="#bfbfbf" points="0,-0.5 0,-19.5 47,-19.5 47,-0.5 0,-0.5"/>
<text text-anchor="middle" x="23.5" y="-7.5" font-family="Helvetica,sans-Serif" font-size="10.00">vector</text>
</a>
</g>
</g>
<!-- Node2&#45;&gt;Node7 -->
<g id="edge6" class="edge">
<title>Node2&#45;&gt;Node7</title>
<path fill="none" stroke="midnightblue" d="M398.27,-119.4C291.9,-115.44 48.19,-103.45 23.5,-76 12.43,-63.7 14.04,-44.17 17.44,-29.72"/>
<polygon fill="midnightblue" stroke="midnightblue" points="20.87,-30.44 20.2,-19.87 14.13,-28.55 20.87,-30.44"/>
</g>
<!-- Node8 -->
<g id="node8" class="node">
<title>Node8</title>
<g id="a_node8"><a xlink:title=" ">
<polygon fill="none" stroke="#bfbfbf" points="44,-56.5 44,-75.5 95,-75.5 95,-56.5 44,-56.5"/>
<text text-anchor="middle" x="69.5" y="-63.5" font-family="Helvetica,sans-Serif" font-size="10.00">errno.h</text>
</a>
</g>
</g>
<!-- Node2&#45;&gt;Node8 -->
<g id="edge7" class="edge">
<title>Node2&#45;&gt;Node8</title>
<path fill="none" stroke="midnightblue" d="M398.47,-116.59C333.41,-110.3 214.86,-97.3 104.96,-76.08"/>
<polygon fill="midnightblue" stroke="midnightblue" points="105.52,-72.62 95.04,-74.14 104.18,-79.49 105.52,-72.62"/>
</g>
<!-- Node9 -->
<g id="node9" class="node">
<title>Node9</title>
<g id="a_node9"><a xlink:title=" ">
<polygon fill="none" stroke="#bfbfbf" points="113,-56.5 113,-75.5 160,-75.5 160,-56.5 113,-56.5"/>
<text text-anchor="middle" x="136.5" y="-63.5" font-family="Helvetica,sans-Serif" font-size="10.00">fcntl.h</text>
</a>
</g>
</g>
<!-- Node2&#45;&gt;Node9 -->
<g id="edge8" class="edge">
<title>Node2&#45;&gt;Node9</title>
<path fill="none" stroke="midnightblue" d="M398.29,-114.8C344.38,-107.61 255.2,-94.6 170.02,-76.15"/>
<polygon fill="midnightblue" stroke="midnightblue" points="170.71,-72.71 160.19,-73.99 169.21,-79.55 170.71,-72.71"/>
</g>
<!-- Node10 -->
<g id="node10" class="node">
<title>Node10</title>
<g id="a_node10"><a xlink:title=" ">
<polygon fill="none" stroke="#bfbfbf" points="178,-56.5 178,-75.5 241,-75.5 241,-56.5 178,-56.5"/>
<text text-anchor="middle" x="209.5" y="-63.5" font-family="Helvetica,sans-Serif" font-size="10.00">termios.h</text>
</a>
</g>
</g>
<!-- Node2&#45;&gt;Node10 -->
<g id="edge9" class="edge">
<title>Node2&#45;&gt;Node10</title>
<path fill="none" stroke="midnightblue" d="M409.79,-112.44C366.62,-102.65 296.11,-86.65 251.3,-76.48"/>
<polygon fill="midnightblue" stroke="midnightblue" points="251.85,-73.02 241.32,-74.22 250.3,-79.85 251.85,-73.02"/>
</g>
<!-- Node11 -->
<g id="node11" class="node">
<title>Node11</title>
<g id="a_node11"><a xlink:title=" ">
<polygon fill="none" stroke="#bfbfbf" points="259.5,-56.5 259.5,-75.5 315.5,-75.5 315.5,-56.5 259.5,-56.5"/>
<text text-anchor="middle" x="287.5" y="-63.5" font-family="Helvetica,sans-Serif" font-size="10.00">unistd.h</text>
</a>
</g>
</g>
<!-- Node2&#45;&gt;Node11 -->
<g id="edge10" class="edge">
<title>Node2&#45;&gt;Node11</title>
<path fill="none" stroke="midnightblue" d="M422.15,-112.44C395.23,-103.36 352.5,-88.94 322.41,-78.78"/>
<polygon fill="midnightblue" stroke="midnightblue" points="323.33,-75.4 312.73,-75.52 321.09,-82.03 323.33,-75.4"/>
</g>
<!-- Node12 -->
<g id="node12" class="node">
<title>Node12</title>
<g id="a_node12"><a xlink:title=" ">
<polygon fill="none" stroke="#bfbfbf" points="333.5,-56.5 333.5,-75.5 383.5,-75.5 383.5,-56.5 333.5,-56.5"/>
<text text-anchor="middle" x="358.5" y="-63.5" font-family="Helvetica,sans-Serif" font-size="10.00">stdio.h</text>
</a>
</g>
</g>
<!-- Node2&#45;&gt;Node12 -->
<g id="edge11" class="edge">
<title>Node2&#45;&gt;Node12</title>
<path fill="none" stroke="midnightblue" d="M433.2,-112.32C419.32,-103.9 398.01,-90.97 381.7,-81.07"/>
<polygon fill="midnightblue" stroke="midnightblue" points="383.13,-77.85 372.76,-75.65 379.5,-83.83 383.13,-77.85"/>
</g>
<!-- Node13 -->
<g id="node13" class="node">
<title>Node13</title>
<g id="a_node13"><a xlink:title=" ">
<polygon fill="none" stroke="#bfbfbf" points="157,-0.5 157,-19.5 210,-19.5 210,-0.5 157,-0.5"/>
<text text-anchor="middle" x="183.5" y="-7.5" font-family="Helvetica,sans-Serif" font-size="10.00">stdint.h</text>
</a>
</g>
</g>
<!-- Node2&#45;&gt;Node13 -->
<g id="edge12" class="edge">
<title>Node2&#45;&gt;Node13</title>
<path fill="none" stroke="midnightblue" d="M398.36,-119.26C294.14,-115.06 58.43,-102.68 34.5,-76 -0.2,-37.32 92.1,-20.65 146.66,-14.35"/>
<polygon fill="midnightblue" stroke="midnightblue" points="147.13,-17.81 156.7,-13.25 146.38,-10.86 147.13,-17.81"/>
</g>
<!-- Node14 -->
<g id="node14" class="node">
<title>Node14</title>
<g id="a_node14"><a xlink:href="clv_hd_e_m_g_8hpp.html" target="_top" xlink:title=" ">
<polygon fill="none" stroke="black" points="439.5,-56.5 439.5,-75.5 527.5,-75.5 527.5,-56.5 439.5,-56.5"/>
<text text-anchor="middle" x="483.5" y="-63.5" font-family="Helvetica,sans-Serif" font-size="10.00">clvHdEMG.hpp</text>
</a>
</g>
</g>
<!-- Node2&#45;&gt;Node14 -->
<g id="edge13" class="edge">
<title>Node2&#45;&gt;Node14</title>
<path fill="none" stroke="midnightblue" d="M448.28,-112.08C451.79,-104.38 458.98,-93.03 466.11,-83.65"/>
<polygon fill="midnightblue" stroke="midnightblue" points="468.94,-85.72 472.53,-75.75 463.51,-81.3 468.94,-85.72"/>
</g>
<!-- Node15 -->
<g id="node15" class="node">
<title>Node15</title>
<g id="a_node15"><a xlink:href="registers_8hpp.html" target="_top" xlink:title=" ">
<polygon fill="none" stroke="black" points="274.5,-0.5 274.5,-19.5 354.5,-19.5 354.5,-0.5 274.5,-0.5"/>
<text text-anchor="middle" x="314.5" y="-7.5" font-family="Helvetica,sans-Serif" font-size="10.00">registers.hpp</text>
</a>
</g>
</g>
<!-- Node2&#45;&gt;Node15 -->
<g id="edge27" class="edge">
<title>Node2&#45;&gt;Node15</title>
<path fill="none" stroke="midnightblue" d="M441.55,-112.17C432.24,-98.82 413.15,-73.25 392.5,-56 377.3,-43.3 358.04,-32.15 342.46,-24.12"/>
<polygon fill="midnightblue" stroke="midnightblue" points="343.81,-20.89 333.3,-19.54 340.68,-27.15 343.81,-20.89"/>
</g>
<!-- Node17 -->
<g id="node17" class="node">
<title>Node17</title>
<g id="a_node17"><a xlink:href="com__client_8hpp.html" target="_top" xlink:title=" ">
<polygon fill="none" stroke="black" points="736,-56.5 736,-75.5 827,-75.5 827,-56.5 736,-56.5"/>
<text text-anchor="middle" x="781.5" y="-63.5" font-family="Helvetica,sans-Serif" font-size="10.00">com_client.hpp</text>
</a>
</g>
</g>
<!-- Node2&#45;&gt;Node17 -->
<g id="edge23" class="edge">
<title>Node2&#45;&gt;Node17</title>
<path fill="none" stroke="midnightblue" d="M496.78,-113.03C557.93,-103.15 661.92,-86.33 725.87,-75.99"/>
<polygon fill="midnightblue" stroke="midnightblue" points="726.46,-79.44 735.78,-74.39 725.34,-72.53 726.46,-79.44"/>
</g>
<!-- Node14&#45;&gt;Node2 -->
<g id="edge19" class="edge">
<title>Node14&#45;&gt;Node2</title>
<path fill="none" stroke="midnightblue" d="M482.8,-75.75C479.34,-83.4 472.18,-94.74 465.04,-104.14"/>
<polygon fill="midnightblue" stroke="midnightblue" points="462.19,-102.11 458.61,-112.08 467.63,-106.52 462.19,-102.11"/>
</g>
<!-- Node14&#45;&gt;Node3 -->
<g id="edge14" class="edge">
<title>Node14&#45;&gt;Node3</title>
<path fill="none" stroke="midnightblue" d="M487.13,-56.08C490.11,-48.77 494.43,-38.18 498.12,-29.1"/>
<polygon fill="midnightblue" stroke="midnightblue" points="501.4,-30.33 501.93,-19.75 494.92,-27.69 501.4,-30.33"/>
</g>
<!-- Node14&#45;&gt;Node4 -->
<g id="edge15" class="edge">
<title>Node14&#45;&gt;Node4</title>
<path fill="none" stroke="midnightblue" d="M497.8,-56.32C511.68,-47.9 532.99,-34.97 549.3,-25.07"/>
<polygon fill="midnightblue" stroke="midnightblue" points="551.5,-27.83 558.24,-19.65 547.87,-21.85 551.5,-27.83"/>
</g>
<!-- Node14&#45;&gt;Node5 -->
<g id="edge16" class="edge">
<title>Node14&#45;&gt;Node5</title>
<path fill="none" stroke="midnightblue" d="M518.99,-56.44C559.34,-46.72 625.05,-30.88 667.27,-20.7"/>
<polygon fill="midnightblue" stroke="midnightblue" points="668.3,-24.05 677.2,-18.3 666.66,-17.25 668.3,-24.05"/>
</g>
<!-- Node14&#45;&gt;Node6 -->
<g id="edge17" class="edge">
<title>Node14&#45;&gt;Node6</title>
<path fill="none" stroke="midnightblue" d="M507.9,-56.44C534.3,-47.19 576.51,-32.39 605.54,-22.21"/>
<polygon fill="midnightblue" stroke="midnightblue" points="606.93,-25.43 615.21,-18.82 604.62,-18.82 606.93,-25.43"/>
</g>
<!-- Node14&#45;&gt;Node7 -->
<g id="edge18" class="edge">
<title>Node14&#45;&gt;Node7</title>
<path fill="none" stroke="midnightblue" d="M439.39,-59.82C347.93,-49.09 139.32,-24.6 57.41,-14.98"/>
<polygon fill="midnightblue" stroke="midnightblue" points="57.51,-11.47 47.17,-13.78 56.69,-18.42 57.51,-11.47"/>
</g>
<!-- Node14&#45;&gt;Node13 -->
<g id="edge22" class="edge">
<title>Node14&#45;&gt;Node13</title>
<path fill="none" stroke="midnightblue" d="M439.23,-57.03C379.82,-46.34 275.39,-27.54 220.15,-17.6"/>
<polygon fill="midnightblue" stroke="midnightblue" points="220.57,-14.12 210.11,-15.79 219.33,-21.01 220.57,-14.12"/>
</g>
<!-- Node14&#45;&gt;Node15 -->
<g id="edge20" class="edge">
<title>Node14&#45;&gt;Node15</title>
<path fill="none" stroke="midnightblue" d="M456.72,-56.44C428.17,-47.32 382.77,-32.81 350.96,-22.65"/>
<polygon fill="midnightblue" stroke="midnightblue" points="351.74,-19.23 341.15,-19.52 349.61,-25.89 351.74,-19.23"/>
</g>
<!-- Node16 -->
<g id="node16" class="node">
<title>Node16</title>
<g id="a_node16"><a xlink:title=" ">
<polygon fill="none" stroke="#bfbfbf" points="373,-0.5 373,-19.5 464,-19.5 464,-0.5 373,-0.5"/>
<text text-anchor="middle" x="418.5" y="-7.5" font-family="Helvetica,sans-Serif" font-size="10.00">strANSIseq.hpp</text>
</a>
</g>
</g>
<!-- Node14&#45;&gt;Node16 -->
<g id="edge21" class="edge">
<title>Node14&#45;&gt;Node16</title>
<path fill="none" stroke="midnightblue" d="M473.06,-56.32C463.35,-48.26 448.68,-36.08 437,-26.37"/>
<polygon fill="midnightblue" stroke="midnightblue" points="439.06,-23.53 429.13,-19.83 434.59,-28.92 439.06,-23.53"/>
</g>
<!-- Node17&#45;&gt;Node5 -->
<g id="edge24" class="edge">
<title>Node17&#45;&gt;Node5</title>
<path fill="none" stroke="midnightblue" d="M769.61,-56.32C758.35,-48.11 741.21,-35.6 727.79,-25.81"/>
<polygon fill="midnightblue" stroke="midnightblue" points="729.75,-22.9 719.61,-19.83 725.62,-28.56 729.75,-22.9"/>
</g>
<!-- Node18 -->
<g id="node18" class="node">
<title>Node18</title>
<g id="a_node18"><a xlink:title=" ">
<polygon fill="none" stroke="#bfbfbf" points="756.5,-0.5 756.5,-19.5 804.5,-19.5 804.5,-0.5 756.5,-0.5"/>
<text text-anchor="middle" x="780.5" y="-7.5" font-family="Helvetica,sans-Serif" font-size="10.00">mutex</text>
</a>
</g>
</g>
<!-- Node17&#45;&gt;Node18 -->
<g id="edge25" class="edge">
<title>Node17&#45;&gt;Node18</title>
<path fill="none" stroke="midnightblue" d="M781.33,-56.08C781.2,-49.01 781.02,-38.86 780.85,-29.99"/>
<polygon fill="midnightblue" stroke="midnightblue" points="784.35,-29.68 780.66,-19.75 777.35,-29.81 784.35,-29.68"/>
</g>
<!-- Node19 -->
<g id="node19" class="node">
<title>Node19</title>
<g id="a_node19"><a xlink:title=" ">
<polygon fill="none" stroke="#bfbfbf" points="823,-0.5 823,-19.5 888,-19.5 888,-0.5 823,-0.5"/>
<text text-anchor="middle" x="855.5" y="-7.5" font-family="Helvetica,sans-Serif" font-size="10.00">stdexcept</text>
</a>
</g>
</g>
<!-- Node17&#45;&gt;Node19 -->
<g id="edge26" class="edge">
<title>Node17&#45;&gt;Node19</title>
<path fill="none" stroke="midnightblue" d="M793.39,-56.32C804.65,-48.11 821.79,-35.6 835.21,-25.81"/>
<polygon fill="midnightblue" stroke="midnightblue" points="837.38,-28.56 843.39,-19.83 833.25,-22.9 837.38,-28.56"/>
</g>
</g>
</svg>
