<?xml version="1.0" encoding="UTF-8" standalone="no"?>
<!DOCTYPE svg PUBLIC "-//W3C//DTD SVG 1.1//EN"
 "http://www.w3.org/Graphics/SVG/1.1/DTD/svg11.dtd">
<!-- Generated by graphviz version 2.43.0 (0)
 -->
<!-- Title: main Pages: 1 -->
<svg width="377pt" height="228pt"
 viewBox="0.00 0.00 377.00 228.00" xmlns="http://www.w3.org/2000/svg" xmlns:xlink="http://www.w3.org/1999/xlink">
<g id="graph0" class="graph" transform="scale(1 1) rotate(0) translate(4 224)">
<title>main</title>
<!-- Node1 -->
<g id="node1" class="node">
<title>Node1</title>
<g id="a_node1"><a xlink:title=" ">
<polygon fill="#bfbfbf" stroke="black" points="0,-117 0,-136 41,-136 41,-117 0,-117"/>
<text text-anchor="middle" x="20.5" y="-124" font-family="Helvetica,sans-Serif" font-size="10.00">main</text>
</a>
</g>
</g>
<!-- Node2 -->
<g id="node2" class="node">
<title>Node2</title>
<g id="a_node2"><a xlink:href="class_communication_1_1_client.html#a53a63c26f29f2941aa1ecde1946a5a1b" target="_top" xlink:title=" ">
<polygon fill="none" stroke="black" points="77,-155.5 77,-185.5 205,-185.5 205,-155.5 77,-155.5"/>
<text text-anchor="start" x="85" y="-173.5" font-family="Helvetica,sans-Serif" font-size="10.00">Communication::Client</text>
<text text-anchor="middle" x="141" y="-162.5" font-family="Helvetica,sans-Serif" font-size="10.00">::clean_start</text>
</a>
</g>
</g>
<!-- Node1&#45;&gt;Node2 -->
<g id="edge1" class="edge">
<title>Node1&#45;&gt;Node2</title>
<path fill="none" stroke="midnightblue" d="M41.07,-133.77C54.38,-138.71 72.64,-145.49 89.85,-151.88"/>
<polygon fill="midnightblue" stroke="midnightblue" points="88.67,-155.17 99.26,-155.37 91.1,-148.61 88.67,-155.17"/>
</g>
<!-- Node3 -->
<g id="node3" class="node">
<title>Node3</title>
<g id="a_node3"><a xlink:href="class_communication_1_1_client.html#a69d9e6091a406da083655a2bec68a527" target="_top" xlink:title="readS read the com inmterface.">
<polygon fill="none" stroke="black" points="241,-189.5 241,-219.5 369,-219.5 369,-189.5 241,-189.5"/>
<text text-anchor="start" x="249" y="-207.5" font-family="Helvetica,sans-Serif" font-size="10.00">Communication::Client</text>
<text text-anchor="middle" x="305" y="-196.5" font-family="Helvetica,sans-Serif" font-size="10.00">::readS</text>
</a>
</g>
</g>
<!-- Node1&#45;&gt;Node3 -->
<g id="edge7" class="edge">
<title>Node1&#45;&gt;Node3</title>
<path fill="none" stroke="midnightblue" d="M25.83,-136.02C33.54,-151.71 51.32,-182.57 77,-195.5 124.26,-219.3 184.33,-220.63 230.8,-216.5"/>
<polygon fill="midnightblue" stroke="midnightblue" points="231.19,-219.98 240.8,-215.51 230.5,-213.01 231.19,-219.98"/>
</g>
<!-- Node4 -->
<g id="node4" class="node">
<title>Node4</title>
<g id="a_node4"><a xlink:href="class_communication_1_1_client.html#a83e96cb781794b40ba2ffdbb39f54c40" target="_top" xlink:title="writeS write the com interface.">
<polygon fill="none" stroke="black" points="241,-130.5 241,-160.5 369,-160.5 369,-130.5 241,-130.5"/>
<text text-anchor="start" x="249" y="-148.5" font-family="Helvetica,sans-Serif" font-size="10.00">Communication::Client</text>
<text text-anchor="middle" x="305" y="-137.5" font-family="Helvetica,sans-Serif" font-size="10.00">::writeS</text>
</a>
</g>
</g>
<!-- Node1&#45;&gt;Node4 -->
<g id="edge8" class="edge">
<title>Node1&#45;&gt;Node4</title>
<path fill="none" stroke="midnightblue" d="M41.36,-127.84C80.03,-130.44 167.15,-136.3 230.48,-140.56"/>
<polygon fill="midnightblue" stroke="midnightblue" points="230.61,-144.07 240.82,-141.25 231.08,-137.09 230.61,-144.07"/>
</g>
<!-- Node5 -->
<g id="node5" class="node">
<title>Node5</title>
<g id="a_node5"><a xlink:href="class_communication_1_1_client.html#a6c850f2dd5a0043581541c28a21988b2" target="_top" xlink:title="open_connection Open the connection the serial or network or interface">
<polygon fill="none" stroke="black" points="77,-67.5 77,-97.5 205,-97.5 205,-67.5 77,-67.5"/>
<text text-anchor="start" x="85" y="-85.5" font-family="Helvetica,sans-Serif" font-size="10.00">Communication::Client</text>
<text text-anchor="middle" x="141" y="-74.5" font-family="Helvetica,sans-Serif" font-size="10.00">::open_connection</text>
</a>
</g>
</g>
<!-- Node1&#45;&gt;Node5 -->
<g id="edge4" class="edge">
<title>Node1&#45;&gt;Node5</title>
<path fill="none" stroke="midnightblue" d="M41.07,-119.23C54.38,-114.29 72.64,-107.51 89.85,-101.12"/>
<polygon fill="midnightblue" stroke="midnightblue" points="91.1,-104.39 99.26,-97.63 88.67,-97.83 91.1,-104.39"/>
</g>
<!-- Node6 -->
<g id="node6" class="node">
<title>Node6</title>
<g id="a_node6"><a xlink:href="classlsl_1_1stream__outlet.html#a675bbe044a5053087e05e0267fe6722a" target="_top" xlink:title=" ">
<polygon fill="none" stroke="black" points="90,-0.5 90,-30.5 192,-30.5 192,-0.5 90,-0.5"/>
<text text-anchor="start" x="98" y="-18.5" font-family="Helvetica,sans-Serif" font-size="10.00">lsl::stream_outlet</text>
<text text-anchor="middle" x="141" y="-7.5" font-family="Helvetica,sans-Serif" font-size="10.00">::push_sample</text>
</a>
</g>
</g>
<!-- Node1&#45;&gt;Node6 -->
<g id="edge5" class="edge">
<title>Node1&#45;&gt;Node6</title>
<path fill="none" stroke="midnightblue" d="M27.87,-116.8C37.44,-102.7 56.58,-76.17 77,-57.5 85.47,-49.76 95.48,-42.41 105.01,-36.09"/>
<polygon fill="midnightblue" stroke="midnightblue" points="107.04,-38.95 113.56,-30.6 103.26,-33.06 107.04,-38.95"/>
</g>
<!-- Node2&#45;&gt;Node3 -->
<g id="edge2" class="edge">
<title>Node2&#45;&gt;Node3</title>
<path fill="none" stroke="midnightblue" d="M205.1,-183.74C213.53,-185.51 222.23,-187.34 230.81,-189.14"/>
<polygon fill="midnightblue" stroke="midnightblue" points="230.3,-192.61 240.81,-191.24 231.74,-185.76 230.3,-192.61"/>
</g>
<!-- Node2&#45;&gt;Node4 -->
<g id="edge3" class="edge">
<title>Node2&#45;&gt;Node4</title>
<path fill="none" stroke="midnightblue" d="M205.1,-160.76C213.53,-159.46 222.23,-158.12 230.81,-156.79"/>
<polygon fill="midnightblue" stroke="midnightblue" points="231.46,-160.24 240.81,-155.25 230.39,-153.32 231.46,-160.24"/>
</g>
<!-- Node6&#45;&gt;Node6 -->
<g id="edge6" class="edge">
<title>Node6&#45;&gt;Node6</title>
<path fill="none" stroke="midnightblue" d="M120.09,-30.66C115.04,-40.06 122.02,-49 141,-49 152.57,-49 159.68,-45.68 162.32,-40.96"/>
<polygon fill="midnightblue" stroke="midnightblue" points="165.81,-40.51 161.91,-30.66 158.81,-40.79 165.81,-40.51"/>
</g>
</g>
</svg>
