<?xml version="1.0" encoding="UTF-8" standalone="no"?>
<!DOCTYPE svg PUBLIC "-//W3C//DTD SVG 1.1//EN"
 "http://www.w3.org/Graphics/SVG/1.1/DTD/svg11.dtd">
<!-- Generated by graphviz version 2.43.0 (0)
 -->
<!-- Title: /home/aightech/dev/qt&#45;clvhd&#45;config/build/qt&#45;clvhd&#45;config.1.2_autogen/forms/ui_mainwindow.h Pages: 1 -->
<svg width="2788pt" height="117pt"
 viewBox="0.00 0.00 2788.00 117.00" xmlns="http://www.w3.org/2000/svg" xmlns:xlink="http://www.w3.org/1999/xlink">
<g id="graph0" class="graph" transform="scale(1 1) rotate(0) translate(4 113)">
<title>/home/aightech/dev/qt&#45;clvhd&#45;config/build/qt&#45;clvhd&#45;config.1.2_autogen/forms/ui_mainwindow.h</title>
<!-- Node1 -->
<g id="node1" class="node">
<title>Node1</title>
<g id="a_node1"><a xlink:title=" ">
<polygon fill="#bfbfbf" stroke="black" points="1288,-56.5 1288,-108.5 1443,-108.5 1443,-56.5 1288,-56.5"/>
<text text-anchor="start" x="1296" y="-96.5" font-family="Helvetica,sans-Serif" font-size="10.00">/home/aightech/dev</text>
<text text-anchor="start" x="1296" y="-85.5" font-family="Helvetica,sans-Serif" font-size="10.00">/qt&#45;clvhd&#45;config/build</text>
<text text-anchor="start" x="1296" y="-74.5" font-family="Helvetica,sans-Serif" font-size="10.00">/qt&#45;clvhd&#45;config.1.2_autogen</text>
<text text-anchor="middle" x="1365.5" y="-63.5" font-family="Helvetica,sans-Serif" font-size="10.00">/forms/ui_mainwindow.h</text>
</a>
</g>
</g>
<!-- Node2 -->
<g id="node2" class="node">
<title>Node2</title>
<g id="a_node2"><a xlink:title=" ">
<polygon fill="none" stroke="#bfbfbf" points="0,-0.5 0,-19.5 95,-19.5 95,-0.5 0,-0.5"/>
<text text-anchor="middle" x="47.5" y="-7.5" font-family="Helvetica,sans-Serif" font-size="10.00">QtCore/QVariant</text>
</a>
</g>
</g>
<!-- Node1&#45;&gt;Node2 -->
<g id="edge1" class="edge">
<title>Node1&#45;&gt;Node2</title>
<path fill="none" stroke="midnightblue" d="M1287.79,-80.62C1091.34,-77.78 558.79,-66.17 105.07,-19.93"/>
<polygon fill="midnightblue" stroke="midnightblue" points="105.34,-16.44 95.04,-18.9 104.63,-23.4 105.34,-16.44"/>
</g>
<!-- Node3 -->
<g id="node3" class="node">
<title>Node3</title>
<g id="a_node3"><a xlink:title=" ">
<polygon fill="none" stroke="#bfbfbf" points="113.5,-0.5 113.5,-19.5 199.5,-19.5 199.5,-0.5 113.5,-0.5"/>
<text text-anchor="middle" x="156.5" y="-7.5" font-family="Helvetica,sans-Serif" font-size="10.00">QtGui/QAction</text>
</a>
</g>
</g>
<!-- Node1&#45;&gt;Node3 -->
<g id="edge2" class="edge">
<title>Node1&#45;&gt;Node3</title>
<path fill="none" stroke="midnightblue" d="M1287.72,-80.54C1102.52,-77.56 620.86,-65.79 209.58,-19.98"/>
<polygon fill="midnightblue" stroke="midnightblue" points="209.9,-16.5 199.57,-18.86 209.12,-23.45 209.9,-16.5"/>
</g>
<!-- Node4 -->
<g id="node4" class="node">
<title>Node4</title>
<g id="a_node4"><a xlink:title=" ">
<polygon fill="none" stroke="#bfbfbf" points="218,-0.5 218,-19.5 351,-19.5 351,-0.5 218,-0.5"/>
<text text-anchor="middle" x="284.5" y="-7.5" font-family="Helvetica,sans-Serif" font-size="10.00">QtWidgets/QApplication</text>
</a>
</g>
</g>
<!-- Node1&#45;&gt;Node4 -->
<g id="edge3" class="edge">
<title>Node1&#45;&gt;Node4</title>
<path fill="none" stroke="midnightblue" d="M1287.76,-78.3C1120.3,-71.06 712.84,-51.64 361.26,-20.11"/>
<polygon fill="midnightblue" stroke="midnightblue" points="361.41,-16.61 351.13,-19.2 360.78,-23.58 361.41,-16.61"/>
</g>
<!-- Node5 -->
<g id="node5" class="node">
<title>Node5</title>
<g id="a_node5"><a xlink:title=" ">
<polygon fill="none" stroke="#bfbfbf" points="369,-0.5 369,-19.5 496,-19.5 496,-0.5 369,-0.5"/>
<text text-anchor="middle" x="432.5" y="-7.5" font-family="Helvetica,sans-Serif" font-size="10.00">QtWidgets/QCheckBox</text>
</a>
</g>
</g>
<!-- Node1&#45;&gt;Node5 -->
<g id="edge4" class="edge">
<title>Node1&#45;&gt;Node5</title>
<path fill="none" stroke="midnightblue" d="M1287.91,-77.34C1138.58,-69.03 800.61,-48.77 506.1,-20.11"/>
<polygon fill="midnightblue" stroke="midnightblue" points="506.38,-16.62 496.08,-19.13 505.69,-23.59 506.38,-16.62"/>
</g>
<!-- Node6 -->
<g id="node6" class="node">
<title>Node6</title>
<g id="a_node6"><a xlink:title=" ">
<polygon fill="none" stroke="#bfbfbf" points="514,-0.5 514,-19.5 645,-19.5 645,-0.5 514,-0.5"/>
<text text-anchor="middle" x="579.5" y="-7.5" font-family="Helvetica,sans-Serif" font-size="10.00">QtWidgets/QComboBox</text>
</a>
</g>
</g>
<!-- Node1&#45;&gt;Node6 -->
<g id="edge5" class="edge">
<title>Node1&#45;&gt;Node6</title>
<path fill="none" stroke="midnightblue" d="M1287.98,-75.69C1158.93,-65.83 891.67,-44.57 655.41,-20.17"/>
<polygon fill="midnightblue" stroke="midnightblue" points="655.56,-16.67 645.25,-19.12 654.84,-23.63 655.56,-16.67"/>
</g>
<!-- Node7 -->
<g id="node7" class="node">
<title>Node7</title>
<g id="a_node7"><a xlink:title=" ">
<polygon fill="none" stroke="#bfbfbf" points="663,-0.5 663,-19.5 772,-19.5 772,-0.5 663,-0.5"/>
<text text-anchor="middle" x="717.5" y="-7.5" font-family="Helvetica,sans-Serif" font-size="10.00">QtWidgets/QFrame</text>
</a>
</g>
</g>
<!-- Node1&#45;&gt;Node7 -->
<g id="edge6" class="edge">
<title>Node1&#45;&gt;Node7</title>
<path fill="none" stroke="midnightblue" d="M1287.8,-74.26C1177.61,-63.78 969.39,-43.22 782.15,-20.17"/>
<polygon fill="midnightblue" stroke="midnightblue" points="782.47,-16.68 772.12,-18.93 781.61,-23.63 782.47,-16.68"/>
</g>
<!-- Node8 -->
<g id="node8" class="node">
<title>Node8</title>
<g id="a_node8"><a xlink:title=" ">
<polygon fill="none" stroke="#bfbfbf" points="790,-0.5 790,-19.5 921,-19.5 921,-0.5 790,-0.5"/>
<text text-anchor="middle" x="855.5" y="-7.5" font-family="Helvetica,sans-Serif" font-size="10.00">QtWidgets/QGridLayout</text>
</a>
</g>
</g>
<!-- Node1&#45;&gt;Node8 -->
<g id="edge7" class="edge">
<title>Node1&#45;&gt;Node8</title>
<path fill="none" stroke="midnightblue" d="M1287.76,-70.75C1189.7,-57.2 1022.41,-34.07 927.26,-20.92"/>
<polygon fill="midnightblue" stroke="midnightblue" points="927.53,-17.42 917.15,-19.52 926.58,-24.36 927.53,-17.42"/>
</g>
<!-- Node9 -->
<g id="node9" class="node">
<title>Node9</title>
<g id="a_node9"><a xlink:title=" ">
<polygon fill="none" stroke="#bfbfbf" points="939,-0.5 939,-19.5 1076,-19.5 1076,-0.5 939,-0.5"/>
<text text-anchor="middle" x="1007.5" y="-7.5" font-family="Helvetica,sans-Serif" font-size="10.00">QtWidgets/QHBoxLayout</text>
</a>
</g>
</g>
<!-- Node1&#45;&gt;Node9 -->
<g id="edge8" class="edge">
<title>Node1&#45;&gt;Node9</title>
<path fill="none" stroke="midnightblue" d="M1287.82,-66.2C1219.2,-52.69 1120.95,-33.34 1060.84,-21.5"/>
<polygon fill="midnightblue" stroke="midnightblue" points="1061.3,-18.03 1050.81,-19.53 1059.94,-24.89 1061.3,-18.03"/>
</g>
<!-- Node10 -->
<g id="node10" class="node">
<title>Node10</title>
<g id="a_node10"><a xlink:title=" ">
<polygon fill="none" stroke="#bfbfbf" points="1094,-0.5 1094,-19.5 1231,-19.5 1231,-0.5 1094,-0.5"/>
<text text-anchor="middle" x="1162.5" y="-7.5" font-family="Helvetica,sans-Serif" font-size="10.00">QtWidgets/QHeaderView</text>
</a>
</g>
</g>
<!-- Node1&#45;&gt;Node10 -->
<g id="edge9" class="edge">
<title>Node1&#45;&gt;Node10</title>
<path fill="none" stroke="midnightblue" d="M1293.36,-56.45C1260.42,-45.01 1222.96,-32 1196.59,-22.84"/>
<polygon fill="midnightblue" stroke="midnightblue" points="1197.65,-19.5 1187.05,-19.53 1195.35,-26.11 1197.65,-19.5"/>
</g>
<!-- Node11 -->
<g id="node11" class="node">
<title>Node11</title>
<g id="a_node11"><a xlink:title=" ">
<polygon fill="none" stroke="#bfbfbf" points="1249.5,-0.5 1249.5,-19.5 1353.5,-19.5 1353.5,-0.5 1249.5,-0.5"/>
<text text-anchor="middle" x="1301.5" y="-7.5" font-family="Helvetica,sans-Serif" font-size="10.00">QtWidgets/QLabel</text>
</a>
</g>
</g>
<!-- Node1&#45;&gt;Node11 -->
<g id="edge10" class="edge">
<title>Node1&#45;&gt;Node11</title>
<path fill="none" stroke="midnightblue" d="M1342.76,-56.45C1333.93,-46.73 1324.09,-35.88 1316.22,-27.22"/>
<polygon fill="midnightblue" stroke="midnightblue" points="1318.71,-24.75 1309.39,-19.7 1313.52,-29.45 1318.71,-24.75"/>
</g>
<!-- Node12 -->
<g id="node12" class="node">
<title>Node12</title>
<g id="a_node12"><a xlink:title=" ">
<polygon fill="none" stroke="#bfbfbf" points="1372,-0.5 1372,-19.5 1489,-19.5 1489,-0.5 1372,-0.5"/>
<text text-anchor="middle" x="1430.5" y="-7.5" font-family="Helvetica,sans-Serif" font-size="10.00">QtWidgets/QLineEdit</text>
</a>
</g>
</g>
<!-- Node1&#45;&gt;Node12 -->
<g id="edge11" class="edge">
<title>Node1&#45;&gt;Node12</title>
<path fill="none" stroke="midnightblue" d="M1388.6,-56.45C1397.56,-46.73 1407.56,-35.88 1415.55,-27.22"/>
<polygon fill="midnightblue" stroke="midnightblue" points="1418.28,-29.42 1422.48,-19.7 1413.13,-24.68 1418.28,-29.42"/>
</g>
<!-- Node13 -->
<g id="node13" class="node">
<title>Node13</title>
<g id="a_node13"><a xlink:title=" ">
<polygon fill="none" stroke="#bfbfbf" points="1507,-0.5 1507,-19.5 1648,-19.5 1648,-0.5 1507,-0.5"/>
<text text-anchor="middle" x="1577.5" y="-7.5" font-family="Helvetica,sans-Serif" font-size="10.00">QtWidgets/QMainWindow</text>
</a>
</g>
</g>
<!-- Node1&#45;&gt;Node13 -->
<g id="edge12" class="edge">
<title>Node1&#45;&gt;Node13</title>
<path fill="none" stroke="midnightblue" d="M1440.84,-56.45C1475.4,-44.95 1514.71,-31.88 1542.27,-22.72"/>
<polygon fill="midnightblue" stroke="midnightblue" points="1543.47,-26 1551.86,-19.53 1541.27,-19.36 1543.47,-26"/>
</g>
<!-- Node14 -->
<g id="node14" class="node">
<title>Node14</title>
<g id="a_node14"><a xlink:title=" ">
<polygon fill="none" stroke="#bfbfbf" points="1666,-0.5 1666,-19.5 1771,-19.5 1771,-0.5 1666,-0.5"/>
<text text-anchor="middle" x="1718.5" y="-7.5" font-family="Helvetica,sans-Serif" font-size="10.00">QtWidgets/QMenu</text>
</a>
</g>
</g>
<!-- Node1&#45;&gt;Node14 -->
<g id="edge13" class="edge">
<title>Node1&#45;&gt;Node14</title>
<path fill="none" stroke="midnightblue" d="M1443.4,-65.94C1510.96,-52.45 1606.9,-33.29 1665.8,-21.53"/>
<polygon fill="midnightblue" stroke="midnightblue" points="1666.51,-24.95 1675.63,-19.56 1665.14,-18.09 1666.51,-24.95"/>
</g>
<!-- Node15 -->
<g id="node15" class="node">
<title>Node15</title>
<g id="a_node15"><a xlink:title=" ">
<polygon fill="none" stroke="#bfbfbf" points="1789.5,-0.5 1789.5,-19.5 1911.5,-19.5 1911.5,-0.5 1789.5,-0.5"/>
<text text-anchor="middle" x="1850.5" y="-7.5" font-family="Helvetica,sans-Serif" font-size="10.00">QtWidgets/QMenuBar</text>
</a>
</g>
</g>
<!-- Node1&#45;&gt;Node15 -->
<g id="edge14" class="edge">
<title>Node1&#45;&gt;Node15</title>
<path fill="none" stroke="midnightblue" d="M1443.15,-70.21C1536.69,-56.62 1692.36,-33.99 1781.73,-21"/>
<polygon fill="midnightblue" stroke="midnightblue" points="1782.37,-24.44 1791.77,-19.54 1781.37,-17.51 1782.37,-24.44"/>
</g>
<!-- Node16 -->
<g id="node16" class="node">
<title>Node16</title>
<g id="a_node16"><a xlink:title=" ">
<polygon fill="none" stroke="#bfbfbf" points="1929.5,-0.5 1929.5,-19.5 2063.5,-19.5 2063.5,-0.5 1929.5,-0.5"/>
<text text-anchor="middle" x="1996.5" y="-7.5" font-family="Helvetica,sans-Serif" font-size="10.00">QtWidgets/QPushButton</text>
</a>
</g>
</g>
<!-- Node1&#45;&gt;Node16 -->
<g id="edge15" class="edge">
<title>Node1&#45;&gt;Node16</title>
<path fill="none" stroke="midnightblue" d="M1443.19,-73.08C1548.54,-61.61 1742.89,-40.32 1919.38,-20.12"/>
<polygon fill="midnightblue" stroke="midnightblue" points="1919.83,-23.59 1929.37,-18.98 1919.03,-16.64 1919.83,-23.59"/>
</g>
<!-- Node17 -->
<g id="node17" class="node">
<title>Node17</title>
<g id="a_node17"><a xlink:title=" ">
<polygon fill="none" stroke="#bfbfbf" points="2081.5,-0.5 2081.5,-19.5 2199.5,-19.5 2199.5,-0.5 2081.5,-0.5"/>
<text text-anchor="middle" x="2140.5" y="-7.5" font-family="Helvetica,sans-Serif" font-size="10.00">QtWidgets/QSpinBox</text>
</a>
</g>
</g>
<!-- Node1&#45;&gt;Node17 -->
<g id="edge16" class="edge">
<title>Node1&#45;&gt;Node17</title>
<path fill="none" stroke="midnightblue" d="M1443.03,-75.9C1571.41,-66.37 1836.45,-45.64 2071.09,-20.11"/>
<polygon fill="midnightblue" stroke="midnightblue" points="2071.62,-23.58 2081.18,-19.01 2070.86,-16.62 2071.62,-23.58"/>
</g>
<!-- Node18 -->
<g id="node18" class="node">
<title>Node18</title>
<g id="a_node18"><a xlink:title=" ">
<polygon fill="none" stroke="#bfbfbf" points="2218,-0.5 2218,-19.5 2343,-19.5 2343,-0.5 2218,-0.5"/>
<text text-anchor="middle" x="2280.5" y="-7.5" font-family="Helvetica,sans-Serif" font-size="10.00">QtWidgets/QStatusBar</text>
</a>
</g>
</g>
<!-- Node1&#45;&gt;Node18 -->
<g id="edge17" class="edge">
<title>Node1&#45;&gt;Node18</title>
<path fill="none" stroke="midnightblue" d="M1443.19,-77.17C1590.2,-68.7 1919.38,-48.31 2207.46,-20.05"/>
<polygon fill="midnightblue" stroke="midnightblue" points="2208.08,-23.51 2217.69,-19.04 2207.4,-16.54 2208.08,-23.51"/>
</g>
<!-- Node19 -->
<g id="node19" class="node">
<title>Node19</title>
<g id="a_node19"><a xlink:title=" ">
<polygon fill="none" stroke="#bfbfbf" points="2361,-0.5 2361,-19.5 2494,-19.5 2494,-0.5 2361,-0.5"/>
<text text-anchor="middle" x="2427.5" y="-7.5" font-family="Helvetica,sans-Serif" font-size="10.00">QtWidgets/QTreeWidget</text>
</a>
</g>
</g>
<!-- Node1&#45;&gt;Node19 -->
<g id="edge18" class="edge">
<title>Node1&#45;&gt;Node19</title>
<path fill="none" stroke="midnightblue" d="M1443.03,-78.18C1608.07,-70.78 2006.51,-51.18 2350.7,-20.12"/>
<polygon fill="midnightblue" stroke="midnightblue" points="2351.22,-23.59 2360.86,-19.2 2350.59,-16.61 2351.22,-23.59"/>
</g>
<!-- Node20 -->
<g id="node20" class="node">
<title>Node20</title>
<g id="a_node20"><a xlink:title=" ">
<polygon fill="none" stroke="#bfbfbf" points="2512,-0.5 2512,-19.5 2649,-19.5 2649,-0.5 2512,-0.5"/>
<text text-anchor="middle" x="2580.5" y="-7.5" font-family="Helvetica,sans-Serif" font-size="10.00">QtWidgets/QVBoxLayout</text>
</a>
</g>
</g>
<!-- Node1&#45;&gt;Node20 -->
<g id="edge19" class="edge">
<title>Node1&#45;&gt;Node20</title>
<path fill="none" stroke="midnightblue" d="M1443.23,-78.97C1626.02,-72.66 2097.61,-54.29 2501.55,-20.12"/>
<polygon fill="midnightblue" stroke="midnightblue" points="2502.01,-23.59 2511.67,-19.26 2501.41,-16.62 2502.01,-23.59"/>
</g>
<!-- Node21 -->
<g id="node21" class="node">
<title>Node21</title>
<g id="a_node21"><a xlink:title=" ">
<polygon fill="none" stroke="#bfbfbf" points="2667,-0.5 2667,-19.5 2780,-19.5 2780,-0.5 2667,-0.5"/>
<text text-anchor="middle" x="2723.5" y="-7.5" font-family="Helvetica,sans-Serif" font-size="10.00">QtWidgets/QWidget</text>
</a>
</g>
</g>
<!-- Node1&#45;&gt;Node21 -->
<g id="edge20" class="edge">
<title>Node1&#45;&gt;Node21</title>
<path fill="none" stroke="midnightblue" d="M1443.28,-80.24C1643.09,-76.48 2190.83,-62.86 2656.52,-20.11"/>
<polygon fill="midnightblue" stroke="midnightblue" points="2657.18,-23.56 2666.81,-19.15 2656.53,-16.59 2657.18,-23.56"/>
</g>
</g>
</svg>
