<?xml version="1.0" encoding="UTF-8" standalone="no"?>
<!DOCTYPE svg PUBLIC "-//W3C//DTD SVG 1.1//EN"
 "http://www.w3.org/Graphics/SVG/1.1/DTD/svg11.dtd">
<!-- Generated by graphviz version 2.43.0 (0)
 -->
<!-- Title: /home/aightech/dev/qt&#45;clvhd&#45;config/lib/cleverhand&#45;interface/include/registers.hpp Pages: 1 -->
<svg width="631pt" height="506pt"
 viewBox="0.00 0.00 630.50 506.00" xmlns="http://www.w3.org/2000/svg" xmlns:xlink="http://www.w3.org/1999/xlink">
<g id="graph0" class="graph" transform="scale(1 1) rotate(0) translate(4 502)">
<title>/home/aightech/dev/qt&#45;clvhd&#45;config/lib/cleverhand&#45;interface/include/registers.hpp</title>
<!-- Node1 -->
<g id="node1" class="node">
<title>Node1</title>
<g id="a_node1"><a xlink:title=" ">
<polygon fill="#bfbfbf" stroke="black" points="352,-445.5 352,-497.5 474,-497.5 474,-445.5 352,-445.5"/>
<text text-anchor="start" x="360" y="-485.5" font-family="Helvetica,sans-Serif" font-size="10.00">/home/aightech/dev</text>
<text text-anchor="start" x="360" y="-474.5" font-family="Helvetica,sans-Serif" font-size="10.00">/qt&#45;clvhd&#45;config/lib</text>
<text text-anchor="start" x="360" y="-463.5" font-family="Helvetica,sans-Serif" font-size="10.00">/cleverhand&#45;interface</text>
<text text-anchor="middle" x="413" y="-452.5" font-family="Helvetica,sans-Serif" font-size="10.00">/include/registers.hpp</text>
</a>
</g>
</g>
<!-- Node2 -->
<g id="node2" class="node">
<title>Node2</title>
<g id="a_node2"><a xlink:href="clv_hd_e_m_g_8hpp.html" target="_top" xlink:title=" ">
<polygon fill="none" stroke="black" points="395.5,-356.5 395.5,-408.5 524.5,-408.5 524.5,-356.5 395.5,-356.5"/>
<text text-anchor="start" x="403.5" y="-396.5" font-family="Helvetica,sans-Serif" font-size="10.00">/home/aightech/dev</text>
<text text-anchor="start" x="403.5" y="-385.5" font-family="Helvetica,sans-Serif" font-size="10.00">/qt&#45;clvhd&#45;config/lib</text>
<text text-anchor="start" x="403.5" y="-374.5" font-family="Helvetica,sans-Serif" font-size="10.00">/cleverhand&#45;interface</text>
<text text-anchor="middle" x="460" y="-363.5" font-family="Helvetica,sans-Serif" font-size="10.00">/include/clvHdEMG.hpp</text>
</a>
</g>
</g>
<!-- Node1&#45;&gt;Node2 -->
<g id="edge1" class="edge">
<title>Node1&#45;&gt;Node2</title>
<path fill="none" stroke="midnightblue" d="M431.45,-436.35C436.45,-427.1 441.76,-417.26 446.44,-408.61"/>
<polygon fill="midnightblue" stroke="midnightblue" points="428.27,-434.87 426.59,-445.34 434.43,-438.2 428.27,-434.87"/>
</g>
<!-- Node3 -->
<g id="node3" class="node">
<title>Node3</title>
<g id="a_node3"><a xlink:href="clv_hd_master_8hpp.html" target="_top" xlink:title=" ">
<polygon fill="none" stroke="black" points="343,-267.5 343,-319.5 483,-319.5 483,-267.5 343,-267.5"/>
<text text-anchor="start" x="351" y="-307.5" font-family="Helvetica,sans-Serif" font-size="10.00">/home/aightech/dev</text>
<text text-anchor="start" x="351" y="-296.5" font-family="Helvetica,sans-Serif" font-size="10.00">/qt&#45;clvhd&#45;config/lib</text>
<text text-anchor="start" x="351" y="-285.5" font-family="Helvetica,sans-Serif" font-size="10.00">/cleverhand&#45;interface</text>
<text text-anchor="middle" x="413" y="-274.5" font-family="Helvetica,sans-Serif" font-size="10.00">/include/clvHdMaster.hpp</text>
</a>
</g>
</g>
<!-- Node1&#45;&gt;Node3 -->
<g id="edge12" class="edge">
<title>Node1&#45;&gt;Node3</title>
<path fill="none" stroke="midnightblue" d="M394.87,-435.95C391.2,-427.37 387.9,-418.04 386,-409 381.16,-385.95 381.16,-379.05 386,-356 388.61,-343.56 393.89,-330.56 399.1,-319.74"/>
<polygon fill="midnightblue" stroke="midnightblue" points="391.77,-437.6 399.1,-445.26 398.15,-434.71 391.77,-437.6"/>
</g>
<!-- Node2&#45;&gt;Node3 -->
<g id="edge2" class="edge">
<title>Node2&#45;&gt;Node3</title>
<path fill="none" stroke="midnightblue" d="M435.11,-347.64C429.77,-338.31 424.53,-328.35 420.38,-319.61"/>
<polygon fill="midnightblue" stroke="midnightblue" points="432.13,-349.49 440.22,-356.34 438.17,-345.94 432.13,-349.49"/>
</g>
<!-- Node11 -->
<g id="node11" class="node">
<title>Node11</title>
<g id="a_node11"><a xlink:href="clv_hd_e_m_g_8cpp.html" target="_top" xlink:title=" ">
<polygon fill="none" stroke="black" points="501.5,-267.5 501.5,-319.5 622.5,-319.5 622.5,-267.5 501.5,-267.5"/>
<text text-anchor="start" x="509.5" y="-307.5" font-family="Helvetica,sans-Serif" font-size="10.00">/home/aightech/dev</text>
<text text-anchor="start" x="509.5" y="-296.5" font-family="Helvetica,sans-Serif" font-size="10.00">/qt&#45;clvhd&#45;config/lib</text>
<text text-anchor="start" x="509.5" y="-285.5" font-family="Helvetica,sans-Serif" font-size="10.00">/cleverhand&#45;interface</text>
<text text-anchor="middle" x="562" y="-274.5" font-family="Helvetica,sans-Serif" font-size="10.00">/src/clvHdEMG.cpp</text>
</a>
</g>
</g>
<!-- Node2&#45;&gt;Node11 -->
<g id="edge11" class="edge">
<title>Node2&#45;&gt;Node11</title>
<path fill="none" stroke="midnightblue" d="M497.34,-349.65C508.95,-339.75 521.58,-328.98 532.56,-319.61"/>
<polygon fill="midnightblue" stroke="midnightblue" points="494.84,-347.18 489.5,-356.34 499.38,-352.51 494.84,-347.18"/>
</g>
<!-- Node3&#45;&gt;Node2 -->
<g id="edge8" class="edge">
<title>Node3&#45;&gt;Node2</title>
<path fill="none" stroke="midnightblue" d="M437.86,-328.3C443.2,-337.63 448.44,-347.59 452.59,-356.34"/>
<polygon fill="midnightblue" stroke="midnightblue" points="440.83,-326.45 432.75,-319.61 434.8,-330 440.83,-326.45"/>
</g>
<!-- Node4 -->
<g id="node4" class="node">
<title>Node4</title>
<g id="a_node4"><a xlink:href="mainwindow_8h.html" target="_top" xlink:title=" ">
<polygon fill="none" stroke="black" points="203.5,-184 203.5,-225 334.5,-225 334.5,-184 203.5,-184"/>
<text text-anchor="start" x="211.5" y="-213" font-family="Helvetica,sans-Serif" font-size="10.00">/home/aightech/dev</text>
<text text-anchor="start" x="211.5" y="-202" font-family="Helvetica,sans-Serif" font-size="10.00">/qt&#45;clvhd&#45;config/include</text>
<text text-anchor="middle" x="269" y="-191" font-family="Helvetica,sans-Serif" font-size="10.00">/mainwindow.h</text>
</a>
</g>
</g>
<!-- Node3&#45;&gt;Node4 -->
<g id="edge3" class="edge">
<title>Node3&#45;&gt;Node4</title>
<path fill="none" stroke="midnightblue" d="M362.53,-262.01C342.23,-249.74 319.42,-235.96 301.41,-225.08"/>
<polygon fill="midnightblue" stroke="midnightblue" points="360.98,-265.16 371.35,-267.34 364.6,-259.17 360.98,-265.16"/>
</g>
<!-- Node9 -->
<g id="node9" class="node">
<title>Node9</title>
<g id="a_node9"><a xlink:href="clv_hd_master_8cpp.html" target="_top" xlink:title=" ">
<polygon fill="none" stroke="black" points="352.5,-178.5 352.5,-230.5 473.5,-230.5 473.5,-178.5 352.5,-178.5"/>
<text text-anchor="start" x="360.5" y="-218.5" font-family="Helvetica,sans-Serif" font-size="10.00">/home/aightech/dev</text>
<text text-anchor="start" x="360.5" y="-207.5" font-family="Helvetica,sans-Serif" font-size="10.00">/qt&#45;clvhd&#45;config/lib</text>
<text text-anchor="start" x="360.5" y="-196.5" font-family="Helvetica,sans-Serif" font-size="10.00">/cleverhand&#45;interface</text>
<text text-anchor="middle" x="413" y="-185.5" font-family="Helvetica,sans-Serif" font-size="10.00">/src/clvHdMaster.cpp</text>
</a>
</g>
</g>
<!-- Node3&#45;&gt;Node9 -->
<g id="edge9" class="edge">
<title>Node3&#45;&gt;Node9</title>
<path fill="none" stroke="midnightblue" d="M413,-257.19C413,-248.28 413,-238.9 413,-230.61"/>
<polygon fill="midnightblue" stroke="midnightblue" points="409.5,-257.34 413,-267.34 416.5,-257.34 409.5,-257.34"/>
</g>
<!-- Node10 -->
<g id="node10" class="node">
<title>Node10</title>
<g id="a_node10"><a xlink:href="lib_2cleverhand-interface_2src_2main_8cpp.html" target="_top" xlink:title=" ">
<polygon fill="none" stroke="black" points="491.5,-178.5 491.5,-230.5 612.5,-230.5 612.5,-178.5 491.5,-178.5"/>
<text text-anchor="start" x="499.5" y="-218.5" font-family="Helvetica,sans-Serif" font-size="10.00">/home/aightech/dev</text>
<text text-anchor="start" x="499.5" y="-207.5" font-family="Helvetica,sans-Serif" font-size="10.00">/qt&#45;clvhd&#45;config/lib</text>
<text text-anchor="start" x="499.5" y="-196.5" font-family="Helvetica,sans-Serif" font-size="10.00">/cleverhand&#45;interface</text>
<text text-anchor="middle" x="552" y="-185.5" font-family="Helvetica,sans-Serif" font-size="10.00">/src/main.cpp</text>
</a>
</g>
</g>
<!-- Node3&#45;&gt;Node10 -->
<g id="edge10" class="edge">
<title>Node3&#45;&gt;Node10</title>
<path fill="none" stroke="midnightblue" d="M462.07,-261.79C478.38,-251.58 496.34,-240.34 511.89,-230.61"/>
<polygon fill="midnightblue" stroke="midnightblue" points="459.82,-259.06 453.2,-267.34 463.54,-265 459.82,-259.06"/>
</g>
<!-- Node5 -->
<g id="node5" class="node">
<title>Node5</title>
<g id="a_node5"><a xlink:href="moc__mainwindow_8cpp.html" target="_top" xlink:title=" ">
<polygon fill="none" stroke="black" points="0,-89.5 0,-141.5 194,-141.5 194,-89.5 0,-89.5"/>
<text text-anchor="start" x="8" y="-129.5" font-family="Helvetica,sans-Serif" font-size="10.00">/home/aightech/dev</text>
<text text-anchor="start" x="8" y="-118.5" font-family="Helvetica,sans-Serif" font-size="10.00">/qt&#45;clvhd&#45;config/build</text>
<text text-anchor="start" x="8" y="-107.5" font-family="Helvetica,sans-Serif" font-size="10.00">/qt&#45;clvhd&#45;config_autogen</text>
<text text-anchor="middle" x="97" y="-96.5" font-family="Helvetica,sans-Serif" font-size="10.00">/6YEA5652QU/moc_mainwindow.cpp</text>
</a>
</g>
</g>
<!-- Node4&#45;&gt;Node5 -->
<g id="edge4" class="edge">
<title>Node4&#45;&gt;Node5</title>
<path fill="none" stroke="midnightblue" d="M221.4,-179.42C198.13,-167.65 170.13,-153.49 146.59,-141.58"/>
<polygon fill="midnightblue" stroke="midnightblue" points="219.9,-182.59 230.4,-183.98 223.06,-176.34 219.9,-182.59"/>
</g>
<!-- Node7 -->
<g id="node7" class="node">
<title>Node7</title>
<g id="a_node7"><a xlink:href="src_2main_8cpp.html" target="_top" xlink:title=" ">
<polygon fill="none" stroke="black" points="212.5,-95 212.5,-136 325.5,-136 325.5,-95 212.5,-95"/>
<text text-anchor="start" x="220.5" y="-124" font-family="Helvetica,sans-Serif" font-size="10.00">/home/aightech/dev</text>
<text text-anchor="start" x="220.5" y="-113" font-family="Helvetica,sans-Serif" font-size="10.00">/qt&#45;clvhd&#45;config/src</text>
<text text-anchor="middle" x="269" y="-102" font-family="Helvetica,sans-Serif" font-size="10.00">/main.cpp</text>
</a>
</g>
</g>
<!-- Node4&#45;&gt;Node7 -->
<g id="edge6" class="edge">
<title>Node4&#45;&gt;Node7</title>
<path fill="none" stroke="midnightblue" d="M269,-173.44C269,-161.1 269,-147.16 269,-136.16"/>
<polygon fill="midnightblue" stroke="midnightblue" points="265.5,-173.76 269,-183.76 272.5,-173.76 265.5,-173.76"/>
</g>
<!-- Node8 -->
<g id="node8" class="node">
<title>Node8</title>
<g id="a_node8"><a xlink:href="mainwindow_8cpp.html" target="_top" xlink:title=" ">
<polygon fill="none" stroke="black" points="343.5,-95 343.5,-136 456.5,-136 456.5,-95 343.5,-95"/>
<text text-anchor="start" x="351.5" y="-124" font-family="Helvetica,sans-Serif" font-size="10.00">/home/aightech/dev</text>
<text text-anchor="start" x="351.5" y="-113" font-family="Helvetica,sans-Serif" font-size="10.00">/qt&#45;clvhd&#45;config/src</text>
<text text-anchor="middle" x="400" y="-102" font-family="Helvetica,sans-Serif" font-size="10.00">/mainwindow.cpp</text>
</a>
</g>
</g>
<!-- Node4&#45;&gt;Node8 -->
<g id="edge7" class="edge">
<title>Node4&#45;&gt;Node8</title>
<path fill="none" stroke="midnightblue" d="M306.76,-178.43C326.94,-165.02 351.43,-148.76 370.25,-136.26"/>
<polygon fill="midnightblue" stroke="midnightblue" points="304.79,-175.53 298.4,-183.98 308.67,-181.36 304.79,-175.53"/>
</g>
<!-- Node6 -->
<g id="node6" class="node">
<title>Node6</title>
<g id="a_node6"><a xlink:href="qt-clvhd-config__autogen_2mocs__compilation_8cpp.html" target="_top" xlink:title=" ">
<polygon fill="none" stroke="black" points="28.5,-0.5 28.5,-52.5 165.5,-52.5 165.5,-0.5 28.5,-0.5"/>
<text text-anchor="start" x="36.5" y="-40.5" font-family="Helvetica,sans-Serif" font-size="10.00">/home/aightech/dev</text>
<text text-anchor="start" x="36.5" y="-29.5" font-family="Helvetica,sans-Serif" font-size="10.00">/qt&#45;clvhd&#45;config/build</text>
<text text-anchor="start" x="36.5" y="-18.5" font-family="Helvetica,sans-Serif" font-size="10.00">/qt&#45;clvhd&#45;config_autogen</text>
<text text-anchor="middle" x="97" y="-7.5" font-family="Helvetica,sans-Serif" font-size="10.00">/mocs_compilation.cpp</text>
</a>
</g>
</g>
<!-- Node5&#45;&gt;Node6 -->
<g id="edge5" class="edge">
<title>Node5&#45;&gt;Node6</title>
<path fill="none" stroke="midnightblue" d="M97,-79.19C97,-70.28 97,-60.9 97,-52.61"/>
<polygon fill="midnightblue" stroke="midnightblue" points="93.5,-79.34 97,-89.34 100.5,-79.34 93.5,-79.34"/>
</g>
</g>
</svg>
