<?xml version="1.0" encoding="UTF-8" standalone="no"?>
<!DOCTYPE svg PUBLIC "-//W3C//DTD SVG 1.1//EN"
 "http://www.w3.org/Graphics/SVG/1.1/DTD/svg11.dtd">
<!-- Generated by graphviz version 2.43.0 (0)
 -->
<!-- Title: /home/aightech/dev/qt&#45;clvhd&#45;config/src/main.cpp Pages: 1 -->
<svg width="993pt" height="274pt"
 viewBox="0.00 0.00 992.50 274.00" xmlns="http://www.w3.org/2000/svg" xmlns:xlink="http://www.w3.org/1999/xlink">
<g id="graph0" class="graph" transform="scale(1 1) rotate(0) translate(4 270)">
<title>/home/aightech/dev/qt&#45;clvhd&#45;config/src/main.cpp</title>
<!-- Node1 -->
<g id="node1" class="node">
<title>Node1</title>
<g id="a_node1"><a xlink:title=" ">
<polygon fill="#bfbfbf" stroke="black" points="428.5,-224.5 428.5,-265.5 541.5,-265.5 541.5,-224.5 428.5,-224.5"/>
<text text-anchor="start" x="436.5" y="-253.5" font-family="Helvetica,sans-Serif" font-size="10.00">/home/aightech/dev</text>
<text text-anchor="start" x="436.5" y="-242.5" font-family="Helvetica,sans-Serif" font-size="10.00">/qt&#45;clvhd&#45;config/src</text>
<text text-anchor="middle" x="485" y="-231.5" font-family="Helvetica,sans-Serif" font-size="10.00">/main.cpp</text>
</a>
</g>
</g>
<!-- Node2 -->
<g id="node2" class="node">
<title>Node2</title>
<g id="a_node2"><a xlink:title=" ">
<polygon fill="none" stroke="#bfbfbf" points="0,-56.5 0,-75.5 50,-75.5 50,-56.5 0,-56.5"/>
<text text-anchor="middle" x="25" y="-63.5" font-family="Helvetica,sans-Serif" font-size="10.00">stdio.h</text>
</a>
</g>
</g>
<!-- Node1&#45;&gt;Node2 -->
<g id="edge1" class="edge">
<title>Node1&#45;&gt;Node2</title>
<path fill="none" stroke="midnightblue" d="M428.44,-237.13C321.17,-222.95 94.03,-187.11 40,-132 28.23,-119.99 24.98,-100.7 24.38,-86.24"/>
<polygon fill="midnightblue" stroke="midnightblue" points="27.88,-85.91 24.35,-75.92 20.88,-85.93 27.88,-85.91"/>
</g>
<!-- Node3 -->
<g id="node3" class="node">
<title>Node3</title>
<g id="a_node3"><a xlink:title=" ">
<polygon fill="none" stroke="#bfbfbf" points="370.5,-168.5 370.5,-187.5 423.5,-187.5 423.5,-168.5 370.5,-168.5"/>
<text text-anchor="middle" x="397" y="-175.5" font-family="Helvetica,sans-Serif" font-size="10.00">stdlib.h</text>
</a>
</g>
</g>
<!-- Node1&#45;&gt;Node3 -->
<g id="edge2" class="edge">
<title>Node1&#45;&gt;Node3</title>
<path fill="none" stroke="midnightblue" d="M458.6,-224.5C445.23,-214.63 429.28,-202.84 416.96,-193.74"/>
<polygon fill="midnightblue" stroke="midnightblue" points="418.84,-190.78 408.71,-187.65 414.68,-196.41 418.84,-190.78"/>
</g>
<!-- Node4 -->
<g id="node4" class="node">
<title>Node4</title>
<g id="a_node4"><a xlink:title=" ">
<polygon fill="none" stroke="#bfbfbf" points="775,-0.5 775,-19.5 835,-19.5 835,-0.5 775,-0.5"/>
<text text-anchor="middle" x="805" y="-7.5" font-family="Helvetica,sans-Serif" font-size="10.00">iostream</text>
</a>
</g>
</g>
<!-- Node1&#45;&gt;Node4 -->
<g id="edge3" class="edge">
<title>Node1&#45;&gt;Node4</title>
<path fill="none" stroke="midnightblue" d="M541.69,-239.33C610.09,-230.51 723.42,-205.08 784,-132 808.18,-102.83 808.91,-55.85 807.09,-29.85"/>
<polygon fill="midnightblue" stroke="midnightblue" points="810.57,-29.45 806.19,-19.8 803.6,-30.08 810.57,-29.45"/>
</g>
<!-- Node5 -->
<g id="node5" class="node">
<title>Node5</title>
<g id="a_node5"><a xlink:href="mainwindow_8h.html" target="_top" xlink:title=" ">
<polygon fill="none" stroke="black" points="441.5,-168.5 441.5,-187.5 528.5,-187.5 528.5,-168.5 441.5,-168.5"/>
<text text-anchor="middle" x="485" y="-175.5" font-family="Helvetica,sans-Serif" font-size="10.00">mainwindow.h</text>
</a>
</g>
</g>
<!-- Node1&#45;&gt;Node5 -->
<g id="edge4" class="edge">
<title>Node1&#45;&gt;Node5</title>
<path fill="none" stroke="midnightblue" d="M485,-224.5C485,-216.07 485,-206.24 485,-197.87"/>
<polygon fill="midnightblue" stroke="midnightblue" points="488.5,-197.65 485,-187.65 481.5,-197.65 488.5,-197.65"/>
</g>
<!-- Node29 -->
<g id="node29" class="node">
<title>Node29</title>
<g id="a_node29"><a xlink:title=" ">
<polygon fill="none" stroke="#bfbfbf" points="831.5,-168.5 831.5,-187.5 910.5,-187.5 910.5,-168.5 831.5,-168.5"/>
<text text-anchor="middle" x="871" y="-175.5" font-family="Helvetica,sans-Serif" font-size="10.00">QApplication</text>
</a>
</g>
</g>
<!-- Node1&#45;&gt;Node29 -->
<g id="edge39" class="edge">
<title>Node1&#45;&gt;Node29</title>
<path fill="none" stroke="midnightblue" d="M541.54,-234.48C616.99,-221.77 749.39,-199.48 821.23,-187.38"/>
<polygon fill="midnightblue" stroke="midnightblue" points="822.1,-190.78 831.38,-185.67 820.93,-183.88 822.1,-190.78"/>
</g>
<!-- Node6 -->
<g id="node6" class="node">
<title>Node6</title>
<g id="a_node6"><a xlink:title=" ">
<polygon fill="none" stroke="#bfbfbf" points="113,-112.5 113,-131.5 193,-131.5 193,-112.5 113,-112.5"/>
<text text-anchor="middle" x="153" y="-119.5" font-family="Helvetica,sans-Serif" font-size="10.00">qboxlayout.h</text>
</a>
</g>
</g>
<!-- Node5&#45;&gt;Node6 -->
<g id="edge5" class="edge">
<title>Node5&#45;&gt;Node6</title>
<path fill="none" stroke="midnightblue" d="M441.32,-169.39C438.5,-168.91 435.71,-168.45 433,-168 330.91,-151.18 305.03,-149.17 203,-132 202.9,-131.98 202.8,-131.97 202.7,-131.95"/>
<polygon fill="midnightblue" stroke="midnightblue" points="203.55,-128.54 193.1,-130.3 202.37,-135.44 203.55,-128.54"/>
</g>
<!-- Node7 -->
<g id="node7" class="node">
<title>Node7</title>
<g id="a_node7"><a xlink:title=" ">
<polygon fill="none" stroke="#bfbfbf" points="211.5,-112.5 211.5,-131.5 298.5,-131.5 298.5,-112.5 211.5,-112.5"/>
<text text-anchor="middle" x="255" y="-119.5" font-family="Helvetica,sans-Serif" font-size="10.00">QMainWindow</text>
</a>
</g>
</g>
<!-- Node5&#45;&gt;Node7 -->
<g id="edge6" class="edge">
<title>Node5&#45;&gt;Node7</title>
<path fill="none" stroke="midnightblue" d="M448.56,-168.44C408.6,-159.06 344.41,-143.99 301.02,-133.8"/>
<polygon fill="midnightblue" stroke="midnightblue" points="301.81,-130.39 291.27,-131.52 300.21,-137.21 301.81,-130.39"/>
</g>
<!-- Node8 -->
<g id="node8" class="node">
<title>Node8</title>
<g id="a_node8"><a xlink:href="clv_hd_master_8hpp.html" target="_top" xlink:title=" ">
<polygon fill="none" stroke="black" points="436,-112.5 436,-131.5 534,-131.5 534,-112.5 436,-112.5"/>
<text text-anchor="middle" x="485" y="-119.5" font-family="Helvetica,sans-Serif" font-size="10.00">clvHdMaster.hpp</text>
</a>
</g>
</g>
<!-- Node5&#45;&gt;Node8 -->
<g id="edge7" class="edge">
<title>Node5&#45;&gt;Node8</title>
<path fill="none" stroke="midnightblue" d="M485,-168.08C485,-161.01 485,-150.86 485,-141.99"/>
<polygon fill="midnightblue" stroke="midnightblue" points="488.5,-141.75 485,-131.75 481.5,-141.75 488.5,-141.75"/>
</g>
<!-- Node24 -->
<g id="node24" class="node">
<title>Node24</title>
<g id="a_node24"><a xlink:title=" ">
<polygon fill="none" stroke="#bfbfbf" points="316.5,-112.5 316.5,-131.5 417.5,-131.5 417.5,-112.5 316.5,-112.5"/>
<text text-anchor="middle" x="367" y="-119.5" font-family="Helvetica,sans-Serif" font-size="10.00">QTreeWidgetItem</text>
</a>
</g>
</g>
<!-- Node5&#45;&gt;Node24 -->
<g id="edge34" class="edge">
<title>Node5&#45;&gt;Node24</title>
<path fill="none" stroke="midnightblue" d="M466.3,-168.44C447.06,-159.64 416.85,-145.81 394.8,-135.72"/>
<polygon fill="midnightblue" stroke="midnightblue" points="396.16,-132.5 385.61,-131.52 393.25,-138.86 396.16,-132.5"/>
</g>
<!-- Node25 -->
<g id="node25" class="node">
<title>Node25</title>
<g id="a_node25"><a xlink:title=" ">
<polygon fill="none" stroke="#bfbfbf" points="552,-112.5 552,-131.5 616,-131.5 616,-112.5 552,-112.5"/>
<text text-anchor="middle" x="584" y="-119.5" font-family="Helvetica,sans-Serif" font-size="10.00">QSettings</text>
</a>
</g>
</g>
<!-- Node5&#45;&gt;Node25 -->
<g id="edge35" class="edge">
<title>Node5&#45;&gt;Node25</title>
<path fill="none" stroke="midnightblue" d="M500.91,-168.32C516.64,-159.74 540.94,-146.49 559.21,-136.52"/>
<polygon fill="midnightblue" stroke="midnightblue" points="561.03,-139.52 568.13,-131.65 557.68,-133.37 561.03,-139.52"/>
</g>
<!-- Node26 -->
<g id="node26" class="node">
<title>Node26</title>
<g id="a_node26"><a xlink:title=" ">
<polygon fill="none" stroke="#bfbfbf" points="634.5,-112.5 634.5,-131.5 697.5,-131.5 697.5,-112.5 634.5,-112.5"/>
<text text-anchor="middle" x="666" y="-119.5" font-family="Helvetica,sans-Serif" font-size="10.00">pthread.h</text>
</a>
</g>
</g>
<!-- Node5&#45;&gt;Node26 -->
<g id="edge36" class="edge">
<title>Node5&#45;&gt;Node26</title>
<path fill="none" stroke="midnightblue" d="M513.68,-168.44C544.53,-159.24 593.73,-144.56 627.83,-134.39"/>
<polygon fill="midnightblue" stroke="midnightblue" points="628.87,-137.73 637.45,-131.52 626.87,-131.02 628.87,-137.73"/>
</g>
<!-- Node27 -->
<g id="node27" class="node">
<title>Node27</title>
<g id="a_node27"><a xlink:title=" ">
<polygon fill="none" stroke="#bfbfbf" points="715.5,-112.5 715.5,-131.5 774.5,-131.5 774.5,-112.5 715.5,-112.5"/>
<text text-anchor="middle" x="745" y="-119.5" font-family="Helvetica,sans-Serif" font-size="10.00">lsl_cpp.h</text>
</a>
</g>
</g>
<!-- Node5&#45;&gt;Node27 -->
<g id="edge37" class="edge">
<title>Node5&#45;&gt;Node27</title>
<path fill="none" stroke="midnightblue" d="M528.9,-168.54C571.64,-160.2 638.7,-146.87 705.33,-132.32"/>
<polygon fill="midnightblue" stroke="midnightblue" points="706.13,-135.73 715.15,-130.17 704.63,-128.89 706.13,-135.73"/>
</g>
<!-- Node28 -->
<g id="node28" class="node">
<title>Node28</title>
<g id="a_node28"><a xlink:title=" ">
<polygon fill="none" stroke="#bfbfbf" points="49.5,-112.5 49.5,-131.5 94.5,-131.5 94.5,-112.5 49.5,-112.5"/>
<text text-anchor="middle" x="72" y="-119.5" font-family="Helvetica,sans-Serif" font-size="10.00">utility</text>
</a>
</g>
</g>
<!-- Node5&#45;&gt;Node28 -->
<g id="edge38" class="edge">
<title>Node5&#45;&gt;Node28</title>
<path fill="none" stroke="midnightblue" d="M441.34,-169.24C438.52,-168.8 435.72,-168.38 433,-168 290.62,-147.91 250.21,-159.46 104.81,-131.83"/>
<polygon fill="midnightblue" stroke="midnightblue" points="105.1,-128.32 94.61,-129.86 103.77,-135.19 105.1,-128.32"/>
</g>
<!-- Node8&#45;&gt;Node2 -->
<g id="edge17" class="edge">
<title>Node8&#45;&gt;Node2</title>
<path fill="none" stroke="midnightblue" d="M435.98,-113.21C432.94,-112.78 429.93,-112.38 427,-112 270.14,-91.87 229.52,-98.59 73,-76 68.85,-75.4 64.5,-74.7 60.2,-73.95"/>
<polygon fill="midnightblue" stroke="midnightblue" points="60.81,-70.5 50.34,-72.16 59.56,-77.39 60.81,-70.5"/>
</g>
<!-- Node8&#45;&gt;Node4 -->
<g id="edge10" class="edge">
<title>Node8&#45;&gt;Node4</title>
<path fill="none" stroke="midnightblue" d="M523.4,-112.47C557.97,-104.39 609.96,-91.25 654,-76 698.34,-60.65 748.01,-38.2 777.87,-24.11"/>
<polygon fill="midnightblue" stroke="midnightblue" points="779.68,-27.13 787.21,-19.67 776.67,-20.81 779.68,-27.13"/>
</g>
<!-- Node9 -->
<g id="node9" class="node">
<title>Node9</title>
<g id="a_node9"><a xlink:title=" ">
<polygon fill="none" stroke="#bfbfbf" points="709.5,-0.5 709.5,-19.5 756.5,-19.5 756.5,-0.5 709.5,-0.5"/>
<text text-anchor="middle" x="733" y="-7.5" font-family="Helvetica,sans-Serif" font-size="10.00">cmath</text>
</a>
</g>
</g>
<!-- Node8&#45;&gt;Node9 -->
<g id="edge8" class="edge">
<title>Node8&#45;&gt;Node9</title>
<path fill="none" stroke="midnightblue" d="M517.28,-112.5C545.52,-104.57 587.31,-91.64 622,-76 654.78,-61.22 690.23,-39.32 712.03,-25.11"/>
<polygon fill="midnightblue" stroke="midnightblue" points="714.07,-27.95 720.49,-19.52 710.21,-22.11 714.07,-27.95"/>
</g>
<!-- Node10 -->
<g id="node10" class="node">
<title>Node10</title>
<g id="a_node10"><a xlink:title=" ">
<polygon fill="none" stroke="#bfbfbf" points="235,-0.5 235,-19.5 285,-19.5 285,-0.5 235,-0.5"/>
<text text-anchor="middle" x="260" y="-7.5" font-family="Helvetica,sans-Serif" font-size="10.00">cstring</text>
</a>
</g>
</g>
<!-- Node8&#45;&gt;Node10 -->
<g id="edge9" class="edge">
<title>Node8&#45;&gt;Node10</title>
<path fill="none" stroke="midnightblue" d="M467.06,-112.43C448.93,-103.66 420.22,-89.44 396,-76 381,-67.68 378.22,-63.89 363,-56 339.52,-43.82 312.03,-31.93 291.36,-23.43"/>
<polygon fill="midnightblue" stroke="midnightblue" points="292.68,-20.18 282.1,-19.66 290.04,-26.67 292.68,-20.18"/>
</g>
<!-- Node11 -->
<g id="node11" class="node">
<title>Node11</title>
<g id="a_node11"><a xlink:title=" ">
<polygon fill="none" stroke="#bfbfbf" points="303,-0.5 303,-19.5 347,-19.5 347,-0.5 303,-0.5"/>
<text text-anchor="middle" x="325" y="-7.5" font-family="Helvetica,sans-Serif" font-size="10.00">string</text>
</a>
</g>
</g>
<!-- Node8&#45;&gt;Node11 -->
<g id="edge11" class="edge">
<title>Node8&#45;&gt;Node11</title>
<path fill="none" stroke="midnightblue" d="M473.65,-112.34C456.9,-99.65 424.47,-75.39 396,-56 380.07,-45.15 361.68,-33.52 347.61,-24.8"/>
<polygon fill="midnightblue" stroke="midnightblue" points="349.4,-21.79 339.05,-19.53 345.73,-27.75 349.4,-21.79"/>
</g>
<!-- Node12 -->
<g id="node12" class="node">
<title>Node12</title>
<g id="a_node12"><a xlink:title=" ">
<polygon fill="none" stroke="#bfbfbf" points="365.5,-0.5 365.5,-19.5 412.5,-19.5 412.5,-0.5 365.5,-0.5"/>
<text text-anchor="middle" x="389" y="-7.5" font-family="Helvetica,sans-Serif" font-size="10.00">vector</text>
</a>
</g>
</g>
<!-- Node8&#45;&gt;Node12 -->
<g id="edge12" class="edge">
<title>Node8&#45;&gt;Node12</title>
<path fill="none" stroke="midnightblue" d="M478.71,-112.32C469.38,-99.61 451.13,-75.32 434,-56 425.02,-45.87 414.33,-35.13 405.62,-26.69"/>
<polygon fill="midnightblue" stroke="midnightblue" points="407.93,-24.05 398.29,-19.66 403.09,-29.1 407.93,-24.05"/>
</g>
<!-- Node13 -->
<g id="node13" class="node">
<title>Node13</title>
<g id="a_node13"><a xlink:title=" ">
<polygon fill="none" stroke="#bfbfbf" points="82.5,-56.5 82.5,-75.5 133.5,-75.5 133.5,-56.5 82.5,-56.5"/>
<text text-anchor="middle" x="108" y="-63.5" font-family="Helvetica,sans-Serif" font-size="10.00">errno.h</text>
</a>
</g>
</g>
<!-- Node8&#45;&gt;Node13 -->
<g id="edge13" class="edge">
<title>Node8&#45;&gt;Node13</title>
<path fill="none" stroke="midnightblue" d="M435.97,-113.29C432.93,-112.85 429.93,-112.41 427,-112 303.78,-94.66 269.07,-100.09 143.53,-76.09"/>
<polygon fill="midnightblue" stroke="midnightblue" points="144.02,-72.62 133.54,-74.15 142.69,-79.49 144.02,-72.62"/>
</g>
<!-- Node14 -->
<g id="node14" class="node">
<title>Node14</title>
<g id="a_node14"><a xlink:title=" ">
<polygon fill="none" stroke="#bfbfbf" points="151.5,-56.5 151.5,-75.5 198.5,-75.5 198.5,-56.5 151.5,-56.5"/>
<text text-anchor="middle" x="175" y="-63.5" font-family="Helvetica,sans-Serif" font-size="10.00">fcntl.h</text>
</a>
</g>
</g>
<!-- Node8&#45;&gt;Node14 -->
<g id="edge14" class="edge">
<title>Node8&#45;&gt;Node14</title>
<path fill="none" stroke="midnightblue" d="M435.89,-113.31C368.51,-102.72 251.66,-84.2 208.6,-75.82"/>
<polygon fill="midnightblue" stroke="midnightblue" points="209.22,-72.38 198.72,-73.79 207.81,-79.23 209.22,-72.38"/>
</g>
<!-- Node15 -->
<g id="node15" class="node">
<title>Node15</title>
<g id="a_node15"><a xlink:title=" ">
<polygon fill="none" stroke="#bfbfbf" points="216.5,-56.5 216.5,-75.5 279.5,-75.5 279.5,-56.5 216.5,-56.5"/>
<text text-anchor="middle" x="248" y="-63.5" font-family="Helvetica,sans-Serif" font-size="10.00">termios.h</text>
</a>
</g>
</g>
<!-- Node8&#45;&gt;Node15 -->
<g id="edge15" class="edge">
<title>Node8&#45;&gt;Node15</title>
<path fill="none" stroke="midnightblue" d="M447.45,-112.44C404.46,-102.65 334.25,-86.65 289.63,-76.48"/>
<polygon fill="midnightblue" stroke="midnightblue" points="290.22,-73.03 279.69,-74.22 288.66,-79.85 290.22,-73.03"/>
</g>
<!-- Node16 -->
<g id="node16" class="node">
<title>Node16</title>
<g id="a_node16"><a xlink:title=" ">
<polygon fill="none" stroke="#bfbfbf" points="298,-56.5 298,-75.5 354,-75.5 354,-56.5 298,-56.5"/>
<text text-anchor="middle" x="326" y="-63.5" font-family="Helvetica,sans-Serif" font-size="10.00">unistd.h</text>
</a>
</g>
</g>
<!-- Node8&#45;&gt;Node16 -->
<g id="edge16" class="edge">
<title>Node8&#45;&gt;Node16</title>
<path fill="none" stroke="midnightblue" d="M459.81,-112.44C433.06,-103.36 390.6,-88.94 360.69,-78.78"/>
<polygon fill="midnightblue" stroke="midnightblue" points="361.67,-75.42 351.08,-75.52 359.42,-82.05 361.67,-75.42"/>
</g>
<!-- Node17 -->
<g id="node17" class="node">
<title>Node17</title>
<g id="a_node17"><a xlink:title=" ">
<polygon fill="none" stroke="#bfbfbf" points="539.5,-0.5 539.5,-19.5 592.5,-19.5 592.5,-0.5 539.5,-0.5"/>
<text text-anchor="middle" x="566" y="-7.5" font-family="Helvetica,sans-Serif" font-size="10.00">stdint.h</text>
</a>
</g>
</g>
<!-- Node8&#45;&gt;Node17 -->
<g id="edge18" class="edge">
<title>Node8&#45;&gt;Node17</title>
<path fill="none" stroke="midnightblue" d="M528.07,-112.49C548.4,-106.07 570.82,-94.99 583,-76 592.31,-61.48 585.19,-42.05 577.52,-28.22"/>
<polygon fill="midnightblue" stroke="midnightblue" points="580.5,-26.39 572.31,-19.67 574.53,-30.04 580.5,-26.39"/>
</g>
<!-- Node18 -->
<g id="node18" class="node">
<title>Node18</title>
<g id="a_node18"><a xlink:href="clv_hd_e_m_g_8hpp.html" target="_top" xlink:title=" ">
<polygon fill="none" stroke="black" points="486,-56.5 486,-75.5 574,-75.5 574,-56.5 486,-56.5"/>
<text text-anchor="middle" x="530" y="-63.5" font-family="Helvetica,sans-Serif" font-size="10.00">clvHdEMG.hpp</text>
</a>
</g>
</g>
<!-- Node8&#45;&gt;Node18 -->
<g id="edge19" class="edge">
<title>Node8&#45;&gt;Node18</title>
<path fill="none" stroke="midnightblue" d="M487.26,-112.08C492.16,-104.22 501.51,-92.57 510.37,-83.08"/>
<polygon fill="midnightblue" stroke="midnightblue" points="513.06,-85.33 517.58,-75.75 508.07,-80.43 513.06,-85.33"/>
</g>
<!-- Node19 -->
<g id="node19" class="node">
<title>Node19</title>
<g id="a_node19"><a xlink:href="registers_8hpp.html" target="_top" xlink:title=" ">
<polygon fill="none" stroke="black" points="611,-0.5 611,-19.5 691,-19.5 691,-0.5 611,-0.5"/>
<text text-anchor="middle" x="651" y="-7.5" font-family="Helvetica,sans-Serif" font-size="10.00">registers.hpp</text>
</a>
</g>
</g>
<!-- Node8&#45;&gt;Node19 -->
<g id="edge33" class="edge">
<title>Node8&#45;&gt;Node19</title>
<path fill="none" stroke="midnightblue" d="M519.5,-112.48C543.42,-105.41 575.12,-93.63 599,-76 616.55,-63.04 631.48,-42.77 640.78,-28.31"/>
<polygon fill="midnightblue" stroke="midnightblue" points="643.77,-30.13 646.05,-19.78 637.82,-26.45 643.77,-30.13"/>
</g>
<!-- Node21 -->
<g id="node21" class="node">
<title>Node21</title>
<g id="a_node21"><a xlink:href="com__client_8hpp.html" target="_top" xlink:title=" ">
<polygon fill="none" stroke="black" points="831.5,-56.5 831.5,-75.5 922.5,-75.5 922.5,-56.5 831.5,-56.5"/>
<text text-anchor="middle" x="877" y="-63.5" font-family="Helvetica,sans-Serif" font-size="10.00">com_client.hpp</text>
</a>
</g>
</g>
<!-- Node8&#45;&gt;Node21 -->
<g id="edge29" class="edge">
<title>Node8&#45;&gt;Node21</title>
<path fill="none" stroke="midnightblue" d="M534.04,-113.32C537.07,-112.87 540.08,-112.42 543,-112 640.7,-97.84 754.7,-82.8 821.07,-74.19"/>
<polygon fill="midnightblue" stroke="midnightblue" points="821.84,-77.62 831.31,-72.86 820.94,-70.68 821.84,-77.62"/>
</g>
<!-- Node18&#45;&gt;Node4 -->
<g id="edge22" class="edge">
<title>Node18&#45;&gt;Node4</title>
<path fill="none" stroke="midnightblue" d="M574.03,-57.13C619.38,-48.9 692.34,-35.34 764.6,-20.23"/>
<polygon fill="midnightblue" stroke="midnightblue" points="765.73,-23.57 774.79,-18.09 764.29,-16.72 765.73,-23.57"/>
</g>
<!-- Node18&#45;&gt;Node8 -->
<g id="edge25" class="edge">
<title>Node18&#45;&gt;Node8</title>
<path fill="none" stroke="midnightblue" d="M527.79,-75.83C522.9,-83.71 513.49,-95.44 504.59,-104.97"/>
<polygon fill="midnightblue" stroke="midnightblue" points="501.87,-102.74 497.34,-112.32 506.86,-107.65 501.87,-102.74"/>
</g>
<!-- Node18&#45;&gt;Node9 -->
<g id="edge20" class="edge">
<title>Node18&#45;&gt;Node9</title>
<path fill="none" stroke="midnightblue" d="M562.61,-56.45C594.91,-47.96 646.03,-34.47 699.55,-20.11"/>
<polygon fill="midnightblue" stroke="midnightblue" points="700.46,-23.49 709.21,-17.51 698.65,-16.72 700.46,-23.49"/>
</g>
<!-- Node18&#45;&gt;Node10 -->
<g id="edge21" class="edge">
<title>Node18&#45;&gt;Node10</title>
<path fill="none" stroke="midnightblue" d="M485.88,-57.54C440.46,-49.65 367.43,-36.38 295.36,-20.19"/>
<polygon fill="midnightblue" stroke="midnightblue" points="295.73,-16.68 285.2,-17.88 294.18,-23.51 295.73,-16.68"/>
</g>
<!-- Node18&#45;&gt;Node11 -->
<g id="edge23" class="edge">
<title>Node18&#45;&gt;Node11</title>
<path fill="none" stroke="midnightblue" d="M496.46,-56.48C461.57,-47.58 405.38,-33.09 357,-20 356.9,-19.97 356.8,-19.95 356.7,-19.92"/>
<polygon fill="midnightblue" stroke="midnightblue" points="357.59,-16.53 347.02,-17.25 355.73,-23.28 357.59,-16.53"/>
</g>
<!-- Node18&#45;&gt;Node12 -->
<g id="edge24" class="edge">
<title>Node18&#45;&gt;Node12</title>
<path fill="none" stroke="midnightblue" d="M507.66,-56.44C484.25,-47.48 447.26,-33.31 420.81,-23.18"/>
<polygon fill="midnightblue" stroke="midnightblue" points="421.83,-19.82 411.24,-19.52 419.32,-26.36 421.83,-19.82"/>
</g>
<!-- Node18&#45;&gt;Node17 -->
<g id="edge28" class="edge">
<title>Node18&#45;&gt;Node17</title>
<path fill="none" stroke="midnightblue" d="M535.94,-56.08C540.98,-48.53 548.34,-37.49 554.51,-28.23"/>
<polygon fill="midnightblue" stroke="midnightblue" points="557.53,-30.01 560.17,-19.75 551.71,-26.13 557.53,-30.01"/>
</g>
<!-- Node18&#45;&gt;Node19 -->
<g id="edge26" class="edge">
<title>Node18&#45;&gt;Node19</title>
<path fill="none" stroke="midnightblue" d="M549.17,-56.44C568.91,-47.64 599.89,-33.81 622.49,-23.72"/>
<polygon fill="midnightblue" stroke="midnightblue" points="624.21,-26.79 631.92,-19.52 621.36,-20.4 624.21,-26.79"/>
</g>
<!-- Node20 -->
<g id="node20" class="node">
<title>Node20</title>
<g id="a_node20"><a xlink:title=" ">
<polygon fill="none" stroke="#bfbfbf" points="430.5,-0.5 430.5,-19.5 521.5,-19.5 521.5,-0.5 430.5,-0.5"/>
<text text-anchor="middle" x="476" y="-7.5" font-family="Helvetica,sans-Serif" font-size="10.00">strANSIseq.hpp</text>
</a>
</g>
</g>
<!-- Node18&#45;&gt;Node20 -->
<g id="edge27" class="edge">
<title>Node18&#45;&gt;Node20</title>
<path fill="none" stroke="midnightblue" d="M521.08,-56.08C513.22,-48.22 501.57,-36.57 492.08,-27.08"/>
<polygon fill="midnightblue" stroke="midnightblue" points="494.3,-24.35 484.75,-19.75 489.35,-29.3 494.3,-24.35"/>
</g>
<!-- Node21&#45;&gt;Node4 -->
<g id="edge30" class="edge">
<title>Node21&#45;&gt;Node4</title>
<path fill="none" stroke="midnightblue" d="M865.43,-56.32C854.58,-48.18 838.12,-35.84 825.12,-26.09"/>
<polygon fill="midnightblue" stroke="midnightblue" points="826.88,-23.03 816.78,-19.83 822.68,-28.63 826.88,-23.03"/>
</g>
<!-- Node22 -->
<g id="node22" class="node">
<title>Node22</title>
<g id="a_node22"><a xlink:title=" ">
<polygon fill="none" stroke="#bfbfbf" points="853,-0.5 853,-19.5 901,-19.5 901,-0.5 853,-0.5"/>
<text text-anchor="middle" x="877" y="-7.5" font-family="Helvetica,sans-Serif" font-size="10.00">mutex</text>
</a>
</g>
</g>
<!-- Node21&#45;&gt;Node22 -->
<g id="edge31" class="edge">
<title>Node21&#45;&gt;Node22</title>
<path fill="none" stroke="midnightblue" d="M877,-56.08C877,-49.01 877,-38.86 877,-29.99"/>
<polygon fill="midnightblue" stroke="midnightblue" points="880.5,-29.75 877,-19.75 873.5,-29.75 880.5,-29.75"/>
</g>
<!-- Node23 -->
<g id="node23" class="node">
<title>Node23</title>
<g id="a_node23"><a xlink:title=" ">
<polygon fill="none" stroke="#bfbfbf" points="919.5,-0.5 919.5,-19.5 984.5,-19.5 984.5,-0.5 919.5,-0.5"/>
<text text-anchor="middle" x="952" y="-7.5" font-family="Helvetica,sans-Serif" font-size="10.00">stdexcept</text>
</a>
</g>
</g>
<!-- Node21&#45;&gt;Node23 -->
<g id="edge32" class="edge">
<title>Node21&#45;&gt;Node23</title>
<path fill="none" stroke="midnightblue" d="M889.05,-56.32C900.46,-48.11 917.83,-35.6 931.43,-25.81"/>
<polygon fill="midnightblue" stroke="midnightblue" points="933.66,-28.52 939.73,-19.83 929.57,-22.84 933.66,-28.52"/>
</g>
</g>
</svg>
