<?xml version="1.0" encoding="UTF-8" standalone="no"?>
<!DOCTYPE svg PUBLIC "-//W3C//DTD SVG 1.1//EN"
 "http://www.w3.org/Graphics/SVG/1.1/DTD/svg11.dtd">
<!-- Generated by graphviz version 2.43.0 (0)
 -->
<!-- Title: Ui_MainWindow Pages: 1 -->
<svg width="104pt" height="84pt"
 viewBox="0.00 0.00 104.00 84.00" xmlns="http://www.w3.org/2000/svg" xmlns:xlink="http://www.w3.org/1999/xlink">
<g id="graph0" class="graph" transform="scale(1 1) rotate(0) translate(4 80)">
<title>Ui_MainWindow</title>
<!-- Node1 -->
<g id="node1" class="node">
<title>Node1</title>
<g id="a_node1"><a xlink:title=" ">
<polygon fill="#bfbfbf" stroke="black" points="0.5,-56.5 0.5,-75.5 95.5,-75.5 95.5,-56.5 0.5,-56.5"/>
<text text-anchor="middle" x="48" y="-63.5" font-family="Helvetica,sans-Serif" font-size="10.00">Ui_MainWindow</text>
</a>
</g>
</g>
<!-- Node2 -->
<g id="node2" class="node">
<title>Node2</title>
<g id="a_node2"><a xlink:href="../../d4/d4a/class_ui_1_1_main_window.html" target="_top" xlink:title=" ">
<polygon fill="none" stroke="black" points="0,-0.5 0,-19.5 96,-19.5 96,-0.5 0,-0.5"/>
<text text-anchor="middle" x="48" y="-7.5" font-family="Helvetica,sans-Serif" font-size="10.00">Ui::MainWindow</text>
</a>
</g>
</g>
<!-- Node1&#45;&gt;Node2 -->
<g id="edge1" class="edge">
<title>Node1&#45;&gt;Node2</title>
<path fill="none" stroke="midnightblue" d="M28.71,-46.69C26.63,-37.59 27.93,-27.01 32.61,-19.75"/>
<polygon fill="midnightblue" stroke="midnightblue" points="25.51,-48.12 32.5,-56.08 32.01,-45.5 25.51,-48.12"/>
</g>
<!-- Node1&#45;&gt;Node2 -->
<g id="edge2" class="edge">
<title>Node1&#45;&gt;Node2</title>
<path fill="none" stroke="midnightblue" d="M41.53,-46.1C40.9,-37.14 41.34,-26.86 42.87,-19.75"/>
<polygon fill="midnightblue" stroke="midnightblue" points="38.07,-46.62 42.83,-56.08 45.01,-45.71 38.07,-46.62"/>
</g>
<!-- Node1&#45;&gt;Node2 -->
<g id="edge3" class="edge">
<title>Node1&#45;&gt;Node2</title>
<path fill="none" stroke="midnightblue" d="M54.47,-46.1C55.1,-37.14 54.66,-26.86 53.13,-19.75"/>
<polygon fill="midnightblue" stroke="midnightblue" points="50.99,-45.71 53.17,-56.08 57.93,-46.62 50.99,-45.71"/>
</g>
<!-- Node1&#45;&gt;Node2 -->
<g id="edge4" class="edge">
<title>Node1&#45;&gt;Node2</title>
<path fill="none" stroke="midnightblue" d="M67.29,-46.69C69.37,-37.59 68.07,-27.01 63.39,-19.75"/>
<polygon fill="midnightblue" stroke="midnightblue" points="63.99,-45.5 63.5,-56.08 70.49,-48.12 63.99,-45.5"/>
</g>
</g>
</svg>
