<?xml version="1.0" encoding="UTF-8" standalone="no"?>
<!DOCTYPE svg PUBLIC "-//W3C//DTD SVG 1.1//EN"
 "http://www.w3.org/Graphics/SVG/1.1/DTD/svg11.dtd">
<!-- Generated by graphviz version 2.43.0 (0)
 -->
<!-- Title: ClvHd::EMG::route_channel Pages: 1 -->
<svg width="492pt" height="39pt"
 viewBox="0.00 0.00 492.00 39.00" xmlns="http://www.w3.org/2000/svg" xmlns:xlink="http://www.w3.org/1999/xlink">
<g id="graph0" class="graph" transform="scale(1 1) rotate(0) translate(4 35)">
<title>ClvHd::EMG::route_channel</title>
<!-- Node1 -->
<g id="node1" class="node">
<title>Node1</title>
<g id="a_node1"><a xlink:title=" ">
<polygon fill="#bfbfbf" stroke="black" points="0,-6 0,-25 149,-25 149,-6 0,-6"/>
<text text-anchor="middle" x="74.5" y="-13" font-family="Helvetica,sans-Serif" font-size="10.00">ClvHd::EMG::route_channel</text>
</a>
</g>
</g>
<!-- Node2 -->
<g id="node2" class="node">
<title>Node2</title>
<g id="a_node2"><a xlink:href="../../d5/d90/class_clv_hd_1_1_master.html#aec0710c06519f1a2a5750c7c15759b0f" target="_top" xlink:title="writeReg write one byte to reg address to the module with the given id.">
<polygon fill="none" stroke="black" points="185,-6 185,-25 320,-25 320,-6 185,-6"/>
<text text-anchor="middle" x="252.5" y="-13" font-family="Helvetica,sans-Serif" font-size="10.00">ClvHd::Master::writeReg</text>
</a>
</g>
</g>
<!-- Node1&#45;&gt;Node2 -->
<g id="edge1" class="edge">
<title>Node1&#45;&gt;Node2</title>
<path fill="none" stroke="midnightblue" d="M149.12,-15.5C157.56,-15.5 166.18,-15.5 174.66,-15.5"/>
<polygon fill="midnightblue" stroke="midnightblue" points="174.91,-19 184.91,-15.5 174.91,-12 174.91,-19"/>
</g>
<!-- Node3 -->
<g id="node3" class="node">
<title>Node3</title>
<g id="a_node3"><a xlink:href="../../df/dcd/class_communication_1_1_client.html#a83e96cb781794b40ba2ffdbb39f54c40" target="_top" xlink:title="writeS write the com interface.">
<polygon fill="none" stroke="black" points="356,-0.5 356,-30.5 484,-30.5 484,-0.5 356,-0.5"/>
<text text-anchor="start" x="364" y="-18.5" font-family="Helvetica,sans-Serif" font-size="10.00">Communication::Client</text>
<text text-anchor="middle" x="420" y="-7.5" font-family="Helvetica,sans-Serif" font-size="10.00">::writeS</text>
</a>
</g>
</g>
<!-- Node2&#45;&gt;Node3 -->
<g id="edge2" class="edge">
<title>Node2&#45;&gt;Node3</title>
<path fill="none" stroke="midnightblue" d="M320.34,-15.5C328.69,-15.5 337.27,-15.5 345.72,-15.5"/>
<polygon fill="midnightblue" stroke="midnightblue" points="345.93,-19 355.93,-15.5 345.93,-12 345.93,-19"/>
</g>
</g>
</svg>
