<?xml version="1.0" encoding="UTF-8" standalone="no"?>
<!DOCTYPE svg PUBLIC "-//W3C//DTD SVG 1.1//EN"
 "http://www.w3.org/Graphics/SVG/1.1/DTD/svg11.dtd">
<!-- Generated by graphviz version 2.43.0 (0)
 -->
<!-- Title: ClvHd::EMG::read_fast_value Pages: 1 -->
<svg width="466pt" height="96pt"
 viewBox="0.00 0.00 466.00 95.50" xmlns="http://www.w3.org/2000/svg" xmlns:xlink="http://www.w3.org/1999/xlink">
<g id="graph0" class="graph" transform="scale(1 1) rotate(0) translate(4 91.5)">
<title>ClvHd::EMG::read_fast_value</title>
<!-- Node1 -->
<g id="node1" class="node">
<title>Node1</title>
<g id="a_node1"><a xlink:title=" ">
<polygon fill="#bfbfbf" stroke="black" points="0,-43.5 0,-73.5 126,-73.5 126,-43.5 0,-43.5"/>
<text text-anchor="start" x="8" y="-61.5" font-family="Helvetica,sans-Serif" font-size="10.00">ClvHd::EMG::read_fast</text>
<text text-anchor="middle" x="63" y="-50.5" font-family="Helvetica,sans-Serif" font-size="10.00">_value</text>
</a>
</g>
</g>
<!-- Node2 -->
<g id="node2" class="node">
<title>Node2</title>
<g id="a_node2"><a xlink:href="../../dd/d80/class_clv_hd_1_1_e_m_g.html#abd1e5e166e080416c664b0166ba75440" target="_top" xlink:title=" ">
<polygon fill="none" stroke="black" points="176,-68 176,-87 280,-87 280,-68 176,-68"/>
<text text-anchor="middle" x="228" y="-75" font-family="Helvetica,sans-Serif" font-size="10.00">ClvHd::EMG::conv</text>
</a>
</g>
</g>
<!-- Node1&#45;&gt;Node2 -->
<g id="edge1" class="edge">
<title>Node1&#45;&gt;Node2</title>
<path fill="none" stroke="midnightblue" d="M126.09,-65.74C139.08,-67.25 152.77,-68.85 165.73,-70.36"/>
<polygon fill="midnightblue" stroke="midnightblue" points="165.6,-73.87 175.94,-71.55 166.41,-66.91 165.6,-73.87"/>
</g>
<!-- Node3 -->
<g id="node3" class="node">
<title>Node3</title>
<g id="a_node3"><a xlink:href="../../d5/d90/class_clv_hd_1_1_master.html#ad552d7fff3892121269ebee55817c16c" target="_top" xlink:title="readReg read size byte starting from reg address from the module with the given id.">
<polygon fill="none" stroke="black" points="162,-30 162,-49 294,-49 294,-30 162,-30"/>
<text text-anchor="middle" x="228" y="-37" font-family="Helvetica,sans-Serif" font-size="10.00">ClvHd::Master::readReg</text>
</a>
</g>
</g>
<!-- Node1&#45;&gt;Node3 -->
<g id="edge2" class="edge">
<title>Node1&#45;&gt;Node3</title>
<path fill="none" stroke="midnightblue" d="M126.09,-51.26C134.49,-50.28 143.19,-49.27 151.8,-48.27"/>
<polygon fill="midnightblue" stroke="midnightblue" points="152.31,-51.73 161.83,-47.1 151.5,-44.78 152.31,-51.73"/>
</g>
<!-- Node4 -->
<g id="node4" class="node">
<title>Node4</title>
<g id="a_node4"><a xlink:href="../../df/dcd/class_communication_1_1_client.html#a69d9e6091a406da083655a2bec68a527" target="_top" xlink:title="readS read the com inmterface.">
<polygon fill="none" stroke="black" points="330,-49.5 330,-79.5 458,-79.5 458,-49.5 330,-49.5"/>
<text text-anchor="start" x="338" y="-67.5" font-family="Helvetica,sans-Serif" font-size="10.00">Communication::Client</text>
<text text-anchor="middle" x="394" y="-56.5" font-family="Helvetica,sans-Serif" font-size="10.00">::readS</text>
</a>
</g>
</g>
<!-- Node3&#45;&gt;Node4 -->
<g id="edge3" class="edge">
<title>Node3&#45;&gt;Node4</title>
<path fill="none" stroke="midnightblue" d="M291.47,-49.02C300.71,-50.43 310.3,-51.89 319.74,-53.33"/>
<polygon fill="midnightblue" stroke="midnightblue" points="319.48,-56.83 329.89,-54.88 320.53,-49.91 319.48,-56.83"/>
</g>
<!-- Node5 -->
<g id="node5" class="node">
<title>Node5</title>
<g id="a_node5"><a xlink:href="../../df/dcd/class_communication_1_1_client.html#a83e96cb781794b40ba2ffdbb39f54c40" target="_top" xlink:title="writeS write the com interface.">
<polygon fill="none" stroke="black" points="330,-0.5 330,-30.5 458,-30.5 458,-0.5 330,-0.5"/>
<text text-anchor="start" x="338" y="-18.5" font-family="Helvetica,sans-Serif" font-size="10.00">Communication::Client</text>
<text text-anchor="middle" x="394" y="-7.5" font-family="Helvetica,sans-Serif" font-size="10.00">::writeS</text>
</a>
</g>
</g>
<!-- Node3&#45;&gt;Node5 -->
<g id="edge4" class="edge">
<title>Node3&#45;&gt;Node5</title>
<path fill="none" stroke="midnightblue" d="M294.29,-29.95C302.7,-28.71 311.35,-27.45 319.88,-26.2"/>
<polygon fill="midnightblue" stroke="midnightblue" points="320.42,-29.66 329.81,-24.75 319.41,-22.73 320.42,-29.66"/>
</g>
</g>
</svg>
