<?xml version="1.0" encoding="UTF-8" standalone="no"?>
<!DOCTYPE svg PUBLIC "-//W3C//DTD SVG 1.1//EN"
 "http://www.w3.org/Graphics/SVG/1.1/DTD/svg11.dtd">
<!-- Generated by graphviz version 2.43.0 (0)
 -->
<!-- Title: ClvHdEMG::readRegister Pages: 1 -->
<svg width="512pt" height="28pt"
 viewBox="0.00 0.00 512.00 28.00" xmlns="http://www.w3.org/2000/svg" xmlns:xlink="http://www.w3.org/1999/xlink">
<g id="graph0" class="graph" transform="scale(1 1) rotate(0) translate(4 24)">
<title>ClvHdEMG::readRegister</title>
<!-- Node1 -->
<g id="node1" class="node">
<title>Node1</title>
<g id="a_node1"><a xlink:title=" ">
<polygon fill="#bfbfbf" stroke="black" points="367,-0.5 367,-19.5 504,-19.5 504,-0.5 367,-0.5"/>
<text text-anchor="middle" x="435.5" y="-7.5" font-family="Helvetica,sans-Serif" font-size="10.00">ClvHdEMG::readRegister</text>
</a>
</g>
</g>
<!-- Node2 -->
<g id="node2" class="node">
<title>Node2</title>
<g id="a_node2"><a xlink:href="../../d3/df4/class_clv_hd_e_m_g.html#aa37c1b5084bd70b6bbbbeb45c2a7b590" target="_top" xlink:title=" ">
<polygon fill="none" stroke="black" points="162,-0.5 162,-19.5 331,-19.5 331,-0.5 162,-0.5"/>
<text text-anchor="middle" x="246.5" y="-7.5" font-family="Helvetica,sans-Serif" font-size="10.00">ClvHdEMG::nb_emg_connected</text>
</a>
</g>
</g>
<!-- Node1&#45;&gt;Node2 -->
<g id="edge1" class="edge">
<title>Node1&#45;&gt;Node2</title>
<path fill="none" stroke="midnightblue" d="M356.79,-10C348.34,-10 339.72,-10 331.21,-10"/>
<polygon fill="midnightblue" stroke="midnightblue" points="356.99,-13.5 366.99,-10 356.99,-6.5 356.99,-13.5"/>
</g>
<!-- Node3 -->
<g id="node3" class="node">
<title>Node3</title>
<g id="a_node3"><a xlink:href="../../d3/df4/class_clv_hd_e_m_g.html#abc8a397b6b5dd073381bdbea07ea328a" target="_top" xlink:title=" ">
<polygon fill="none" stroke="black" points="0,-0.5 0,-19.5 126,-19.5 126,-0.5 0,-0.5"/>
<text text-anchor="middle" x="63" y="-7.5" font-family="Helvetica,sans-Serif" font-size="10.00">ClvHdEMG::ClvHdEMG</text>
</a>
</g>
</g>
<!-- Node2&#45;&gt;Node3 -->
<g id="edge2" class="edge">
<title>Node2&#45;&gt;Node3</title>
<path fill="none" stroke="midnightblue" d="M151.77,-10C143.13,-10 134.52,-10 126.26,-10"/>
<polygon fill="midnightblue" stroke="midnightblue" points="151.92,-13.5 161.92,-10 151.92,-6.5 151.92,-13.5"/>
</g>
</g>
</svg>
