<?xml version="1.0" encoding="UTF-8" standalone="no"?>
<!DOCTYPE svg PUBLIC "-//W3C//DTD SVG 1.1//EN"
 "http://www.w3.org/Graphics/SVG/1.1/DTD/svg11.dtd">
<!-- Generated by graphviz version 2.43.0 (0)
 -->
<!-- Title: /home/aightech/dev/qt&#45;clvhd&#45;config/lib/cleverhand&#45;interface/include/clvHdMaster.hpp Pages: 1 -->
<svg width="856pt" height="328pt"
 viewBox="0.00 0.00 855.50 328.00" xmlns="http://www.w3.org/2000/svg" xmlns:xlink="http://www.w3.org/1999/xlink">
<g id="graph0" class="graph" transform="scale(1 1) rotate(0) translate(4 324)">
<title>/home/aightech/dev/qt&#45;clvhd&#45;config/lib/cleverhand&#45;interface/include/clvHdMaster.hpp</title>
<!-- Node1 -->
<g id="node1" class="node">
<title>Node1</title>
<g id="a_node1"><a xlink:title=" ">
<polygon fill="#bfbfbf" stroke="black" points="435,-267.5 435,-319.5 575,-319.5 575,-267.5 435,-267.5"/>
<text text-anchor="start" x="443" y="-307.5" font-family="Helvetica,sans-Serif" font-size="10.00">/home/aightech/dev</text>
<text text-anchor="start" x="443" y="-296.5" font-family="Helvetica,sans-Serif" font-size="10.00">/qt&#45;clvhd&#45;config/lib</text>
<text text-anchor="start" x="443" y="-285.5" font-family="Helvetica,sans-Serif" font-size="10.00">/cleverhand&#45;interface</text>
<text text-anchor="middle" x="505" y="-274.5" font-family="Helvetica,sans-Serif" font-size="10.00">/include/clvHdMaster.hpp</text>
</a>
</g>
</g>
<!-- Node2 -->
<g id="node2" class="node">
<title>Node2</title>
<g id="a_node2"><a xlink:href="../../d9/d53/mainwindow_8h.html" target="_top" xlink:title=" ">
<polygon fill="none" stroke="black" points="262.5,-184 262.5,-225 393.5,-225 393.5,-184 262.5,-184"/>
<text text-anchor="start" x="270.5" y="-213" font-family="Helvetica,sans-Serif" font-size="10.00">/home/aightech/dev</text>
<text text-anchor="start" x="270.5" y="-202" font-family="Helvetica,sans-Serif" font-size="10.00">/qt&#45;clvhd&#45;config/include</text>
<text text-anchor="middle" x="328" y="-191" font-family="Helvetica,sans-Serif" font-size="10.00">/mainwindow.h</text>
</a>
</g>
</g>
<!-- Node1&#45;&gt;Node2 -->
<g id="edge1" class="edge">
<title>Node1&#45;&gt;Node2</title>
<path fill="none" stroke="midnightblue" d="M444.63,-262.83C419.28,-250.36 390.48,-236.21 367.84,-225.08"/>
<polygon fill="midnightblue" stroke="midnightblue" points="443.29,-266.07 453.8,-267.34 446.37,-259.78 443.29,-266.07"/>
</g>
<!-- Node7 -->
<g id="node7" class="node">
<title>Node7</title>
<g id="a_node7"><a xlink:href="../../d4/d44/clv_hd_e_m_g_8hpp.html" target="_top" xlink:title=" ">
<polygon fill="none" stroke="black" points="440.5,-178.5 440.5,-230.5 569.5,-230.5 569.5,-178.5 440.5,-178.5"/>
<text text-anchor="start" x="448.5" y="-218.5" font-family="Helvetica,sans-Serif" font-size="10.00">/home/aightech/dev</text>
<text text-anchor="start" x="448.5" y="-207.5" font-family="Helvetica,sans-Serif" font-size="10.00">/qt&#45;clvhd&#45;config/lib</text>
<text text-anchor="start" x="448.5" y="-196.5" font-family="Helvetica,sans-Serif" font-size="10.00">/cleverhand&#45;interface</text>
<text text-anchor="middle" x="505" y="-185.5" font-family="Helvetica,sans-Serif" font-size="10.00">/include/clvHdEMG.hpp</text>
</a>
</g>
</g>
<!-- Node1&#45;&gt;Node7 -->
<g id="edge6" class="edge">
<title>Node1&#45;&gt;Node7</title>
<path fill="none" stroke="midnightblue" d="M498.36,-257.19C498.12,-248.28 498.27,-238.9 498.82,-230.61"/>
<polygon fill="midnightblue" stroke="midnightblue" points="494.87,-257.5 498.81,-267.34 501.86,-257.19 494.87,-257.5"/>
</g>
<!-- Node9 -->
<g id="node9" class="node">
<title>Node9</title>
<g id="a_node9"><a xlink:href="../../d4/dbd/clv_hd_master_8cpp.html" target="_top" xlink:title=" ">
<polygon fill="none" stroke="black" points="587.5,-178.5 587.5,-230.5 708.5,-230.5 708.5,-178.5 587.5,-178.5"/>
<text text-anchor="start" x="595.5" y="-218.5" font-family="Helvetica,sans-Serif" font-size="10.00">/home/aightech/dev</text>
<text text-anchor="start" x="595.5" y="-207.5" font-family="Helvetica,sans-Serif" font-size="10.00">/qt&#45;clvhd&#45;config/lib</text>
<text text-anchor="start" x="595.5" y="-196.5" font-family="Helvetica,sans-Serif" font-size="10.00">/cleverhand&#45;interface</text>
<text text-anchor="middle" x="648" y="-185.5" font-family="Helvetica,sans-Serif" font-size="10.00">/src/clvHdMaster.cpp</text>
</a>
</g>
</g>
<!-- Node1&#45;&gt;Node9 -->
<g id="edge9" class="edge">
<title>Node1&#45;&gt;Node9</title>
<path fill="none" stroke="midnightblue" d="M555.02,-262.07C571.92,-251.79 590.59,-240.43 606.73,-230.61"/>
<polygon fill="midnightblue" stroke="midnightblue" points="553.09,-259.15 546.36,-267.34 556.72,-265.13 553.09,-259.15"/>
</g>
<!-- Node10 -->
<g id="node10" class="node">
<title>Node10</title>
<g id="a_node10"><a xlink:href="../../d3/d82/lib_2cleverhand-interface_2src_2main_8cpp.html" target="_top" xlink:title=" ">
<polygon fill="none" stroke="black" points="726.5,-178.5 726.5,-230.5 847.5,-230.5 847.5,-178.5 726.5,-178.5"/>
<text text-anchor="start" x="734.5" y="-218.5" font-family="Helvetica,sans-Serif" font-size="10.00">/home/aightech/dev</text>
<text text-anchor="start" x="734.5" y="-207.5" font-family="Helvetica,sans-Serif" font-size="10.00">/qt&#45;clvhd&#45;config/lib</text>
<text text-anchor="start" x="734.5" y="-196.5" font-family="Helvetica,sans-Serif" font-size="10.00">/cleverhand&#45;interface</text>
<text text-anchor="middle" x="787" y="-185.5" font-family="Helvetica,sans-Serif" font-size="10.00">/src/main.cpp</text>
</a>
</g>
</g>
<!-- Node1&#45;&gt;Node10 -->
<g id="edge10" class="edge">
<title>Node1&#45;&gt;Node10</title>
<path fill="none" stroke="midnightblue" d="M585.15,-270.85C625.26,-259.64 674.42,-245.32 718,-231 720.67,-230.12 723.39,-229.21 726.13,-228.27"/>
<polygon fill="midnightblue" stroke="midnightblue" points="584.12,-267.5 575.43,-273.56 586,-274.25 584.12,-267.5"/>
</g>
<!-- Node3 -->
<g id="node3" class="node">
<title>Node3</title>
<g id="a_node3"><a xlink:href="../../d9/d09/moc__mainwindow_8cpp.html" target="_top" xlink:title=" ">
<polygon fill="none" stroke="black" points="0,-89.5 0,-141.5 194,-141.5 194,-89.5 0,-89.5"/>
<text text-anchor="start" x="8" y="-129.5" font-family="Helvetica,sans-Serif" font-size="10.00">/home/aightech/dev</text>
<text text-anchor="start" x="8" y="-118.5" font-family="Helvetica,sans-Serif" font-size="10.00">/qt&#45;clvhd&#45;config/build</text>
<text text-anchor="start" x="8" y="-107.5" font-family="Helvetica,sans-Serif" font-size="10.00">/qt&#45;clvhd&#45;config_autogen</text>
<text text-anchor="middle" x="97" y="-96.5" font-family="Helvetica,sans-Serif" font-size="10.00">/6YEA5652QU/moc_mainwindow.cpp</text>
</a>
</g>
</g>
<!-- Node2&#45;&gt;Node3 -->
<g id="edge2" class="edge">
<title>Node2&#45;&gt;Node3</title>
<path fill="none" stroke="midnightblue" d="M266.55,-180.36C234.82,-168.4 196.05,-153.81 163.6,-141.58"/>
<polygon fill="midnightblue" stroke="midnightblue" points="265.57,-183.73 276.16,-183.98 268.03,-177.18 265.57,-183.73"/>
</g>
<!-- Node5 -->
<g id="node5" class="node">
<title>Node5</title>
<g id="a_node5"><a xlink:href="../../de/dfb/src_2main_8cpp.html" target="_top" xlink:title=" ">
<polygon fill="none" stroke="black" points="212.5,-95 212.5,-136 325.5,-136 325.5,-95 212.5,-95"/>
<text text-anchor="start" x="220.5" y="-124" font-family="Helvetica,sans-Serif" font-size="10.00">/home/aightech/dev</text>
<text text-anchor="start" x="220.5" y="-113" font-family="Helvetica,sans-Serif" font-size="10.00">/qt&#45;clvhd&#45;config/src</text>
<text text-anchor="middle" x="269" y="-102" font-family="Helvetica,sans-Serif" font-size="10.00">/main.cpp</text>
</a>
</g>
</g>
<!-- Node2&#45;&gt;Node5 -->
<g id="edge4" class="edge">
<title>Node2&#45;&gt;Node5</title>
<path fill="none" stroke="midnightblue" d="M308.87,-175.3C300.21,-162.52 290.17,-147.72 282.34,-136.16"/>
<polygon fill="midnightblue" stroke="midnightblue" points="306.1,-177.45 314.61,-183.76 311.9,-173.52 306.1,-177.45"/>
</g>
<!-- Node6 -->
<g id="node6" class="node">
<title>Node6</title>
<g id="a_node6"><a xlink:href="../../d8/dd9/mainwindow_8cpp.html" target="_top" xlink:title=" ">
<polygon fill="none" stroke="black" points="343.5,-95 343.5,-136 456.5,-136 456.5,-95 343.5,-95"/>
<text text-anchor="start" x="351.5" y="-124" font-family="Helvetica,sans-Serif" font-size="10.00">/home/aightech/dev</text>
<text text-anchor="start" x="351.5" y="-113" font-family="Helvetica,sans-Serif" font-size="10.00">/qt&#45;clvhd&#45;config/src</text>
<text text-anchor="middle" x="400" y="-102" font-family="Helvetica,sans-Serif" font-size="10.00">/mainwindow.cpp</text>
</a>
</g>
</g>
<!-- Node2&#45;&gt;Node6 -->
<g id="edge5" class="edge">
<title>Node2&#45;&gt;Node6</title>
<path fill="none" stroke="midnightblue" d="M350.73,-176.03C361.44,-163.09 373.98,-147.94 383.73,-136.16"/>
<polygon fill="midnightblue" stroke="midnightblue" points="348.02,-173.82 344.34,-183.76 353.41,-178.29 348.02,-173.82"/>
</g>
<!-- Node4 -->
<g id="node4" class="node">
<title>Node4</title>
<g id="a_node4"><a xlink:href="../../d8/df2/qt-clvhd-config__autogen_2mocs__compilation_8cpp.html" target="_top" xlink:title=" ">
<polygon fill="none" stroke="black" points="28.5,-0.5 28.5,-52.5 165.5,-52.5 165.5,-0.5 28.5,-0.5"/>
<text text-anchor="start" x="36.5" y="-40.5" font-family="Helvetica,sans-Serif" font-size="10.00">/home/aightech/dev</text>
<text text-anchor="start" x="36.5" y="-29.5" font-family="Helvetica,sans-Serif" font-size="10.00">/qt&#45;clvhd&#45;config/build</text>
<text text-anchor="start" x="36.5" y="-18.5" font-family="Helvetica,sans-Serif" font-size="10.00">/qt&#45;clvhd&#45;config_autogen</text>
<text text-anchor="middle" x="97" y="-7.5" font-family="Helvetica,sans-Serif" font-size="10.00">/mocs_compilation.cpp</text>
</a>
</g>
</g>
<!-- Node3&#45;&gt;Node4 -->
<g id="edge3" class="edge">
<title>Node3&#45;&gt;Node4</title>
<path fill="none" stroke="midnightblue" d="M97,-79.19C97,-70.28 97,-60.9 97,-52.61"/>
<polygon fill="midnightblue" stroke="midnightblue" points="93.5,-79.34 97,-89.34 100.5,-79.34 93.5,-79.34"/>
</g>
<!-- Node7&#45;&gt;Node1 -->
<g id="edge7" class="edge">
<title>Node7&#45;&gt;Node1</title>
<path fill="none" stroke="midnightblue" d="M511.64,-240.75C511.88,-249.65 511.73,-259.04 511.19,-267.34"/>
<polygon fill="midnightblue" stroke="midnightblue" points="515.13,-240.44 511.18,-230.61 508.14,-240.76 515.13,-240.44"/>
</g>
<!-- Node8 -->
<g id="node8" class="node">
<title>Node8</title>
<g id="a_node8"><a xlink:href="../../d9/d53/clv_hd_e_m_g_8cpp.html" target="_top" xlink:title=" ">
<polygon fill="none" stroke="black" points="474.5,-89.5 474.5,-141.5 595.5,-141.5 595.5,-89.5 474.5,-89.5"/>
<text text-anchor="start" x="482.5" y="-129.5" font-family="Helvetica,sans-Serif" font-size="10.00">/home/aightech/dev</text>
<text text-anchor="start" x="482.5" y="-118.5" font-family="Helvetica,sans-Serif" font-size="10.00">/qt&#45;clvhd&#45;config/lib</text>
<text text-anchor="start" x="482.5" y="-107.5" font-family="Helvetica,sans-Serif" font-size="10.00">/cleverhand&#45;interface</text>
<text text-anchor="middle" x="535" y="-96.5" font-family="Helvetica,sans-Serif" font-size="10.00">/src/clvHdEMG.cpp</text>
</a>
</g>
</g>
<!-- Node7&#45;&gt;Node8 -->
<g id="edge8" class="edge">
<title>Node7&#45;&gt;Node8</title>
<path fill="none" stroke="midnightblue" d="M516.98,-168.77C520.11,-159.69 523.42,-150.08 526.34,-141.61"/>
<polygon fill="midnightblue" stroke="midnightblue" points="513.63,-167.74 513.68,-178.34 520.25,-170.02 513.63,-167.74"/>
</g>
</g>
</svg>
