<?xml version="1.0" encoding="UTF-8" standalone="no"?>
<!DOCTYPE svg PUBLIC "-//W3C//DTD SVG 1.1//EN"
 "http://www.w3.org/Graphics/SVG/1.1/DTD/svg11.dtd">
<!-- Generated by graphviz version 2.43.0 (0)
 -->
<!-- Title: /home/aightech/dev/qt&#45;clvhd&#45;config/lib/strANSIseq/include/strANSIseq.hpp Pages: 1 -->
<svg width="267pt" height="106pt"
 viewBox="0.00 0.00 267.00 106.00" xmlns="http://www.w3.org/2000/svg" xmlns:xlink="http://www.w3.org/1999/xlink">
<g id="graph0" class="graph" transform="scale(1 1) rotate(0) translate(4 102)">
<title>/home/aightech/dev/qt&#45;clvhd&#45;config/lib/strANSIseq/include/strANSIseq.hpp</title>
<!-- Node1 -->
<g id="node1" class="node">
<title>Node1</title>
<g id="a_node1"><a xlink:title=" ">
<polygon fill="#bfbfbf" stroke="black" points="42.5,-56.5 42.5,-97.5 230.5,-97.5 230.5,-56.5 42.5,-56.5"/>
<text text-anchor="start" x="50.5" y="-85.5" font-family="Helvetica,sans-Serif" font-size="10.00">/home/aightech/dev</text>
<text text-anchor="start" x="50.5" y="-74.5" font-family="Helvetica,sans-Serif" font-size="10.00">/qt&#45;clvhd&#45;config/lib</text>
<text text-anchor="middle" x="136.5" y="-63.5" font-family="Helvetica,sans-Serif" font-size="10.00">/strANSIseq/include/strANSIseq.hpp</text>
</a>
</g>
</g>
<!-- Node2 -->
<g id="node2" class="node">
<title>Node2</title>
<g id="a_node2"><a xlink:title=" ">
<polygon fill="none" stroke="#bfbfbf" points="0,-0.5 0,-19.5 53,-19.5 53,-0.5 0,-0.5"/>
<text text-anchor="middle" x="26.5" y="-7.5" font-family="Helvetica,sans-Serif" font-size="10.00">cstdarg</text>
</a>
</g>
</g>
<!-- Node1&#45;&gt;Node2 -->
<g id="edge1" class="edge">
<title>Node1&#45;&gt;Node2</title>
<path fill="none" stroke="midnightblue" d="M103.5,-56.5C86.31,-46.34 65.69,-34.16 50.11,-24.95"/>
<polygon fill="midnightblue" stroke="midnightblue" points="51.53,-21.73 41.14,-19.65 47.97,-27.75 51.53,-21.73"/>
</g>
<!-- Node3 -->
<g id="node3" class="node">
<title>Node3</title>
<g id="a_node3"><a xlink:title=" ">
<polygon fill="none" stroke="#bfbfbf" points="71.5,-0.5 71.5,-19.5 131.5,-19.5 131.5,-0.5 71.5,-0.5"/>
<text text-anchor="middle" x="101.5" y="-7.5" font-family="Helvetica,sans-Serif" font-size="10.00">iostream</text>
</a>
</g>
</g>
<!-- Node1&#45;&gt;Node3 -->
<g id="edge2" class="edge">
<title>Node1&#45;&gt;Node3</title>
<path fill="none" stroke="midnightblue" d="M126,-56.5C121.2,-47.59 115.56,-37.11 110.9,-28.46"/>
<polygon fill="midnightblue" stroke="midnightblue" points="113.98,-26.8 106.16,-19.65 107.82,-30.12 113.98,-26.8"/>
</g>
<!-- Node4 -->
<g id="node4" class="node">
<title>Node4</title>
<g id="a_node4"><a xlink:title=" ">
<polygon fill="none" stroke="#bfbfbf" points="149.5,-0.5 149.5,-19.5 193.5,-19.5 193.5,-0.5 149.5,-0.5"/>
<text text-anchor="middle" x="171.5" y="-7.5" font-family="Helvetica,sans-Serif" font-size="10.00">string</text>
</a>
</g>
</g>
<!-- Node1&#45;&gt;Node4 -->
<g id="edge3" class="edge">
<title>Node1&#45;&gt;Node4</title>
<path fill="none" stroke="midnightblue" d="M147,-56.5C151.8,-47.59 157.44,-37.11 162.1,-28.46"/>
<polygon fill="midnightblue" stroke="midnightblue" points="165.18,-30.12 166.84,-19.65 159.02,-26.8 165.18,-30.12"/>
</g>
<!-- Node5 -->
<g id="node5" class="node">
<title>Node5</title>
<g id="a_node5"><a xlink:title=" ">
<polygon fill="none" stroke="#bfbfbf" points="212,-0.5 212,-19.5 259,-19.5 259,-0.5 212,-0.5"/>
<text text-anchor="middle" x="235.5" y="-7.5" font-family="Helvetica,sans-Serif" font-size="10.00">vector</text>
</a>
</g>
</g>
<!-- Node1&#45;&gt;Node5 -->
<g id="edge4" class="edge">
<title>Node1&#45;&gt;Node5</title>
<path fill="none" stroke="midnightblue" d="M166.2,-56.5C181.53,-46.44 199.88,-34.38 213.85,-25.21"/>
<polygon fill="midnightblue" stroke="midnightblue" points="215.88,-28.07 222.32,-19.65 212.04,-22.22 215.88,-28.07"/>
</g>
</g>
</svg>
