<?xml version="1.0" encoding="UTF-8" standalone="no"?>
<!DOCTYPE svg PUBLIC "-//W3C//DTD SVG 1.1//EN"
 "http://www.w3.org/Graphics/SVG/1.1/DTD/svg11.dtd">
<!-- Generated by graphviz version 2.43.0 (0)
 -->
<!-- Title: Communication::Client::readS Pages: 1 -->
<svg width="1025pt" height="255pt"
 viewBox="0.00 0.00 1025.00 254.50" xmlns="http://www.w3.org/2000/svg" xmlns:xlink="http://www.w3.org/1999/xlink">
<g id="graph0" class="graph" transform="scale(1 1) rotate(0) translate(4 250.5)">
<title>Communication::Client::readS</title>
<!-- Node1 -->
<g id="node1" class="node">
<title>Node1</title>
<g id="a_node1"><a xlink:title="readS read the com inmterface.">
<polygon fill="#bfbfbf" stroke="black" points="889,-158.5 889,-188.5 1017,-188.5 1017,-158.5 889,-158.5"/>
<text text-anchor="start" x="897" y="-176.5" font-family="Helvetica,sans-Serif" font-size="10.00">Communication::Client</text>
<text text-anchor="middle" x="953" y="-165.5" font-family="Helvetica,sans-Serif" font-size="10.00">::readS</text>
</a>
</g>
</g>
<!-- Node2 -->
<g id="node2" class="node">
<title>Node2</title>
<g id="a_node2"><a xlink:href="../../df/dcd/class_communication_1_1_client.html#a53a63c26f29f2941aa1ecde1946a5a1b" target="_top" xlink:title=" ">
<polygon fill="none" stroke="black" points="723,-180.5 723,-210.5 851,-210.5 851,-180.5 723,-180.5"/>
<text text-anchor="start" x="731" y="-198.5" font-family="Helvetica,sans-Serif" font-size="10.00">Communication::Client</text>
<text text-anchor="middle" x="787" y="-187.5" font-family="Helvetica,sans-Serif" font-size="10.00">::clean_start</text>
</a>
</g>
</g>
<!-- Node1&#45;&gt;Node2 -->
<g id="edge1" class="edge">
<title>Node1&#45;&gt;Node2</title>
<path fill="none" stroke="midnightblue" d="M878.43,-183.37C869.36,-184.59 860.14,-185.82 851.24,-187.02"/>
<polygon fill="midnightblue" stroke="midnightblue" points="879.15,-186.8 888.59,-182.01 878.22,-179.87 879.15,-186.8"/>
</g>
<!-- Node3 -->
<g id="node3" class="node">
<title>Node3</title>
<g id="a_node3"><a xlink:href="../../d4/d8c/lib_2cleverhand-interface_2lib_2com__client_2src_2main_8cpp.html#a3c04138a5bfe5d72780bb7e82a18e627" target="_top" xlink:title=" ">
<polygon fill="none" stroke="black" points="593,-227 593,-246 634,-246 634,-227 593,-227"/>
<text text-anchor="middle" x="613.5" y="-234" font-family="Helvetica,sans-Serif" font-size="10.00">main</text>
</a>
</g>
</g>
<!-- Node1&#45;&gt;Node3 -->
<g id="edge5" class="edge">
<title>Node1&#45;&gt;Node3</title>
<path fill="none" stroke="midnightblue" d="M918.02,-193.55C899.46,-203.48 875.68,-214.59 853,-220.5 773.89,-241.13 675.3,-239.48 634.06,-237.63"/>
<polygon fill="midnightblue" stroke="midnightblue" points="919.87,-196.53 926.96,-188.65 916.51,-190.39 919.87,-196.53"/>
</g>
<!-- Node4 -->
<g id="node4" class="node">
<title>Node4</title>
<g id="a_node4"><a xlink:href="../../d5/d90/class_clv_hd_1_1_master.html#a42345cdd26cd5596ae6b3c674a6a97ac" target="_top" xlink:title="setup Get the number of EMG modules connected to the master board.">
<polygon fill="none" stroke="black" points="554,-186 554,-205 673,-205 673,-186 554,-186"/>
<text text-anchor="middle" x="613.5" y="-193" font-family="Helvetica,sans-Serif" font-size="10.00">ClvHd::Master::setup</text>
</a>
</g>
</g>
<!-- Node1&#45;&gt;Node4 -->
<g id="edge15" class="edge">
<title>Node1&#45;&gt;Node4</title>
<path fill="none" stroke="midnightblue" d="M878.48,-168.4C832.98,-166.35 773.44,-165.66 721,-171.5 696.32,-174.25 669.01,-180.47 648.23,-185.89"/>
<polygon fill="midnightblue" stroke="midnightblue" points="878.4,-171.9 888.55,-168.89 878.73,-164.91 878.4,-171.9"/>
</g>
<!-- Node6 -->
<g id="node6" class="node">
<title>Node6</title>
<g id="a_node6"><a xlink:href="../../d5/d90/class_clv_hd_1_1_master.html#ad552d7fff3892121269ebee55817c16c" target="_top" xlink:title="readReg read size byte starting from reg address from the module with the given id.">
<polygon fill="none" stroke="black" points="721,-104 721,-123 853,-123 853,-104 721,-104"/>
<text text-anchor="middle" x="787" y="-111" font-family="Helvetica,sans-Serif" font-size="10.00">ClvHd::Master::readReg</text>
</a>
</g>
</g>
<!-- Node1&#45;&gt;Node6 -->
<g id="edge6" class="edge">
<title>Node1&#45;&gt;Node6</title>
<path fill="none" stroke="midnightblue" d="M901.08,-154.87C872.21,-144.31 837.31,-131.54 813.99,-123.01"/>
<polygon fill="midnightblue" stroke="midnightblue" points="900.02,-158.21 910.62,-158.36 902.43,-151.64 900.02,-158.21"/>
</g>
<!-- Node2&#45;&gt;Node3 -->
<g id="edge2" class="edge">
<title>Node2&#45;&gt;Node3</title>
<path fill="none" stroke="midnightblue" d="M713.07,-212.94C684.37,-219.8 653.72,-227.12 634.35,-231.75"/>
<polygon fill="midnightblue" stroke="midnightblue" points="714.2,-216.26 723.11,-210.53 712.57,-209.46 714.2,-216.26"/>
</g>
<!-- Node2&#45;&gt;Node4 -->
<g id="edge3" class="edge">
<title>Node2&#45;&gt;Node4</title>
<path fill="none" stroke="midnightblue" d="M712.62,-195.5C699.41,-195.5 685.79,-195.5 673.07,-195.5"/>
<polygon fill="midnightblue" stroke="midnightblue" points="712.63,-199 722.63,-195.5 712.63,-192 712.63,-199"/>
</g>
<!-- Node5 -->
<g id="node5" class="node">
<title>Node5</title>
<g id="a_node5"><a xlink:href="../../d3/d82/lib_2cleverhand-interface_2src_2main_8cpp.html#ae66f6b31b5ad750f1fe042a706a4e3d4" target="_top" xlink:title=" ">
<polygon fill="none" stroke="black" points="423,-164 423,-183 464,-183 464,-164 423,-164"/>
<text text-anchor="middle" x="443.5" y="-171" font-family="Helvetica,sans-Serif" font-size="10.00">main</text>
</a>
</g>
</g>
<!-- Node4&#45;&gt;Node5 -->
<g id="edge4" class="edge">
<title>Node4&#45;&gt;Node5</title>
<path fill="none" stroke="midnightblue" d="M543.71,-186.49C515.01,-182.73 483.85,-178.65 464.26,-176.09"/>
<polygon fill="midnightblue" stroke="midnightblue" points="543.37,-189.98 553.74,-187.81 544.28,-183.04 543.37,-189.98"/>
</g>
<!-- Node7 -->
<g id="node7" class="node">
<title>Node7</title>
<g id="a_node7"><a xlink:href="../../dd/d80/class_clv_hd_1_1_e_m_g.html#a66e3835c0a8225792368835153e173d6" target="_top" xlink:title=" ">
<polygon fill="none" stroke="black" points="551,-148 551,-167 676,-167 676,-148 551,-148"/>
<text text-anchor="middle" x="613.5" y="-155" font-family="Helvetica,sans-Serif" font-size="10.00">ClvHd::EMG::get_error</text>
</a>
</g>
</g>
<!-- Node6&#45;&gt;Node7 -->
<g id="edge7" class="edge">
<title>Node6&#45;&gt;Node7</title>
<path fill="none" stroke="midnightblue" d="M738.99,-125.56C711.48,-132.62 677.24,-141.4 651.64,-147.97"/>
<polygon fill="midnightblue" stroke="midnightblue" points="739.97,-128.92 748.79,-123.05 738.23,-122.14 739.97,-128.92"/>
</g>
<!-- Node8 -->
<g id="node8" class="node">
<title>Node8</title>
<g id="a_node8"><a xlink:href="../../d5/d90/class_clv_hd_1_1_master.html#af6c6b4b2d00f398973c382bdfce6f78f" target="_top" xlink:title="Read all data registers (State, 3fast, 3precise) from each available module.">
<polygon fill="none" stroke="black" points="557,-98.5 557,-128.5 670,-128.5 670,-98.5 557,-98.5"/>
<text text-anchor="start" x="565" y="-116.5" font-family="Helvetica,sans-Serif" font-size="10.00">ClvHd::Master::read</text>
<text text-anchor="middle" x="613.5" y="-105.5" font-family="Helvetica,sans-Serif" font-size="10.00">_all_signal</text>
</a>
</g>
</g>
<!-- Node6&#45;&gt;Node8 -->
<g id="edge8" class="edge">
<title>Node6&#45;&gt;Node8</title>
<path fill="none" stroke="midnightblue" d="M710.41,-113.5C696.87,-113.5 682.99,-113.5 670.14,-113.5"/>
<polygon fill="midnightblue" stroke="midnightblue" points="710.67,-117 720.67,-113.5 710.67,-110 710.67,-117"/>
</g>
<!-- Node12 -->
<g id="node12" class="node">
<title>Node12</title>
<g id="a_node12"><a xlink:href="../../dd/d80/class_clv_hd_1_1_e_m_g.html#a755e5a83ea9422329354be92db9d2412" target="_top" xlink:title=" ">
<polygon fill="none" stroke="black" points="550.5,-49.5 550.5,-79.5 676.5,-79.5 676.5,-49.5 550.5,-49.5"/>
<text text-anchor="start" x="558.5" y="-67.5" font-family="Helvetica,sans-Serif" font-size="10.00">ClvHd::EMG::read_fast</text>
<text text-anchor="middle" x="613.5" y="-56.5" font-family="Helvetica,sans-Serif" font-size="10.00">_value</text>
</a>
</g>
</g>
<!-- Node6&#45;&gt;Node12 -->
<g id="edge13" class="edge">
<title>Node6&#45;&gt;Node12</title>
<path fill="none" stroke="midnightblue" d="M742.72,-101.13C719.76,-94.57 691.36,-86.46 667.13,-79.54"/>
<polygon fill="midnightblue" stroke="midnightblue" points="741.95,-104.55 752.53,-103.94 743.87,-97.82 741.95,-104.55"/>
</g>
<!-- Node13 -->
<g id="node13" class="node">
<title>Node13</title>
<g id="a_node13"><a xlink:href="../../dd/d80/class_clv_hd_1_1_e_m_g.html#a5fb8389610bbed3a4aa8a7147777b7dd" target="_top" xlink:title=" ">
<polygon fill="none" stroke="black" points="542,-0.5 542,-30.5 685,-30.5 685,-0.5 542,-0.5"/>
<text text-anchor="start" x="550" y="-18.5" font-family="Helvetica,sans-Serif" font-size="10.00">ClvHd::EMG::read_precise</text>
<text text-anchor="middle" x="613.5" y="-7.5" font-family="Helvetica,sans-Serif" font-size="10.00">_value</text>
</a>
</g>
</g>
<!-- Node6&#45;&gt;Node13 -->
<g id="edge14" class="edge">
<title>Node6&#45;&gt;Node13</title>
<path fill="none" stroke="midnightblue" d="M767.47,-97.22C748.04,-80.82 716.07,-55.68 685,-39.5 678.69,-36.21 671.84,-33.23 664.97,-30.58"/>
<polygon fill="midnightblue" stroke="midnightblue" points="765.36,-100.02 775.23,-103.87 769.92,-94.7 765.36,-100.02"/>
</g>
<!-- Node8&#45;&gt;Node5 -->
<g id="edge9" class="edge">
<title>Node8&#45;&gt;Node5</title>
<path fill="none" stroke="midnightblue" d="M560.35,-131.97C554.16,-134.17 547.94,-136.38 542,-138.5 515.07,-148.11 483.98,-159.28 464.29,-166.37"/>
<polygon fill="midnightblue" stroke="midnightblue" points="561.74,-135.19 569.99,-128.54 559.4,-128.59 561.74,-135.19"/>
</g>
<!-- Node9 -->
<g id="node9" class="node">
<title>Node9</title>
<g id="a_node9"><a xlink:href="../../d9/dc6/class_main_window.html#ab015c2fb4f4636468144e4c683882594" target="_top" xlink:title="push_lsl Push data to the LSL stream.">
<polygon fill="none" stroke="black" points="381,-104 381,-123 506,-123 506,-104 381,-104"/>
<text text-anchor="middle" x="443.5" y="-111" font-family="Helvetica,sans-Serif" font-size="10.00">MainWindow::push_lsl</text>
</a>
</g>
</g>
<!-- Node8&#45;&gt;Node9 -->
<g id="edge10" class="edge">
<title>Node8&#45;&gt;Node9</title>
<path fill="none" stroke="midnightblue" d="M546.17,-113.5C533.02,-113.5 519.26,-113.5 506.27,-113.5"/>
<polygon fill="midnightblue" stroke="midnightblue" points="546.56,-117 556.56,-113.5 546.56,-110 546.56,-117"/>
</g>
<!-- Node10 -->
<g id="node10" class="node">
<title>Node10</title>
<g id="a_node10"><a xlink:href="../../d9/dc6/class_main_window.html#a6781fa3a250e3ad46f9d491434333ffb" target="_top" xlink:title="streaming_loop Loop that continuously reads data from the board and send it to the LSL stream.">
<polygon fill="none" stroke="black" points="184,-104 184,-123 345,-123 345,-104 184,-104"/>
<text text-anchor="middle" x="264.5" y="-111" font-family="Helvetica,sans-Serif" font-size="10.00">MainWindow::streaming_loop</text>
</a>
</g>
</g>
<!-- Node9&#45;&gt;Node10 -->
<g id="edge11" class="edge">
<title>Node9&#45;&gt;Node10</title>
<path fill="none" stroke="midnightblue" d="M370.51,-113.5C362.14,-113.5 353.57,-113.5 345.1,-113.5"/>
<polygon fill="midnightblue" stroke="midnightblue" points="370.59,-117 380.59,-113.5 370.59,-110 370.59,-117"/>
</g>
<!-- Node11 -->
<g id="node11" class="node">
<title>Node11</title>
<g id="a_node11"><a xlink:href="../../d9/dc6/class_main_window.html#a996c5a2b6f77944776856f08ec30858d" target="_top" xlink:title=" ">
<polygon fill="none" stroke="black" points="0,-104 0,-123 148,-123 148,-104 0,-104"/>
<text text-anchor="middle" x="74" y="-111" font-family="Helvetica,sans-Serif" font-size="10.00">MainWindow::MainWindow</text>
</a>
</g>
</g>
<!-- Node10&#45;&gt;Node11 -->
<g id="edge12" class="edge">
<title>Node10&#45;&gt;Node11</title>
<path fill="none" stroke="midnightblue" d="M173.77,-113.5C165.17,-113.5 156.51,-113.5 148.09,-113.5"/>
<polygon fill="midnightblue" stroke="midnightblue" points="173.83,-117 183.83,-113.5 173.83,-110 173.83,-117"/>
</g>
</g>
</svg>
