<?xml version="1.0" encoding="UTF-8" standalone="no"?>
<!DOCTYPE svg PUBLIC "-//W3C//DTD SVG 1.1//EN"
 "http://www.w3.org/Graphics/SVG/1.1/DTD/svg11.dtd">
<!-- Generated by graphviz version 2.43.0 (0)
 -->
<!-- Title: Communication::Client::writeS Pages: 1 -->
<svg width="1034pt" height="754pt"
 viewBox="0.00 0.00 1034.00 753.52" xmlns="http://www.w3.org/2000/svg" xmlns:xlink="http://www.w3.org/1999/xlink">
<g id="graph0" class="graph" transform="scale(1 1) rotate(0) translate(4 749.52)">
<title>Communication::Client::writeS</title>
<!-- Node1 -->
<g id="node1" class="node">
<title>Node1</title>
<g id="a_node1"><a xlink:title="writeS write the com interface.">
<polygon fill="#bfbfbf" stroke="black" points="898,-575 898,-605 1026,-605 1026,-575 898,-575"/>
<text text-anchor="start" x="906" y="-593" font-family="Helvetica,sans-Serif" font-size="10.00">Communication::Client</text>
<text text-anchor="middle" x="962" y="-582" font-family="Helvetica,sans-Serif" font-size="10.00">::writeS</text>
</a>
</g>
</g>
<!-- Node2 -->
<g id="node2" class="node">
<title>Node2</title>
<g id="a_node2"><a xlink:href="../../df/dcd/class_communication_1_1_client.html#a53a63c26f29f2941aa1ecde1946a5a1b" target="_top" xlink:title=" ">
<polygon fill="none" stroke="black" points="730.5,-676 730.5,-706 858.5,-706 858.5,-676 730.5,-676"/>
<text text-anchor="start" x="738.5" y="-694" font-family="Helvetica,sans-Serif" font-size="10.00">Communication::Client</text>
<text text-anchor="middle" x="794.5" y="-683" font-family="Helvetica,sans-Serif" font-size="10.00">::clean_start</text>
</a>
</g>
</g>
<!-- Node1&#45;&gt;Node2 -->
<g id="edge1" class="edge">
<title>Node1&#45;&gt;Node2</title>
<path fill="none" stroke="midnightblue" d="M927.28,-610.58C895.5,-629.97 848.61,-658.59 820.18,-675.94"/>
<polygon fill="midnightblue" stroke="midnightblue" points="929.51,-613.32 936.22,-605.12 925.86,-607.34 929.51,-613.32"/>
</g>
<!-- Node3 -->
<g id="node3" class="node">
<title>Node3</title>
<g id="a_node3"><a xlink:href="../../d4/d8c/lib_2cleverhand-interface_2lib_2com__client_2src_2main_8cpp.html#a3c04138a5bfe5d72780bb7e82a18e627" target="_top" xlink:title=" ">
<polygon fill="none" stroke="black" points="596,-725.5 596,-744.5 637,-744.5 637,-725.5 596,-725.5"/>
<text text-anchor="middle" x="616.5" y="-732.5" font-family="Helvetica,sans-Serif" font-size="10.00">main</text>
</a>
</g>
</g>
<!-- Node1&#45;&gt;Node3 -->
<g id="edge5" class="edge">
<title>Node1&#45;&gt;Node3</title>
<path fill="none" stroke="midnightblue" d="M949.54,-614.71C934.24,-644.54 904.09,-693.48 862,-716 787.1,-756.06 680.45,-745.22 637.03,-738.49"/>
<polygon fill="midnightblue" stroke="midnightblue" points="952.85,-615.91 954.16,-605.4 946.58,-612.8 952.85,-615.91"/>
</g>
<!-- Node6 -->
<g id="node6" class="node">
<title>Node6</title>
<g id="a_node6"><a xlink:href="../../d5/d90/class_clv_hd_1_1_master.html#ad552d7fff3892121269ebee55817c16c" target="_top" xlink:title="readReg read size byte starting from reg address from the module with the given id.">
<polygon fill="none" stroke="black" points="728.5,-580.5 728.5,-599.5 860.5,-599.5 860.5,-580.5 728.5,-580.5"/>
<text text-anchor="middle" x="794.5" y="-587.5" font-family="Helvetica,sans-Serif" font-size="10.00">ClvHd::Master::readReg</text>
</a>
</g>
</g>
<!-- Node1&#45;&gt;Node6 -->
<g id="edge6" class="edge">
<title>Node1&#45;&gt;Node6</title>
<path fill="none" stroke="midnightblue" d="M887.8,-590C878.73,-590 869.5,-590 860.56,-590"/>
<polygon fill="midnightblue" stroke="midnightblue" points="887.96,-593.5 897.96,-590 887.96,-586.5 887.96,-593.5"/>
</g>
<!-- Node14 -->
<g id="node14" class="node">
<title>Node14</title>
<g id="a_node14"><a xlink:href="../../d5/d90/class_clv_hd_1_1_master.html#aec0710c06519f1a2a5750c7c15759b0f" target="_top" xlink:title="writeReg write one byte to reg address to the module with the given id.">
<polygon fill="none" stroke="black" points="727,-267.5 727,-286.5 862,-286.5 862,-267.5 727,-267.5"/>
<text text-anchor="middle" x="794.5" y="-274.5" font-family="Helvetica,sans-Serif" font-size="10.00">ClvHd::Master::writeReg</text>
</a>
</g>
</g>
<!-- Node1&#45;&gt;Node14 -->
<g id="edge15" class="edge">
<title>Node1&#45;&gt;Node14</title>
<path fill="none" stroke="midnightblue" d="M948.27,-565.93C914.41,-501.89 823.14,-329.28 800.59,-286.63"/>
<polygon fill="midnightblue" stroke="midnightblue" points="945.25,-567.7 953.02,-574.9 951.44,-564.43 945.25,-567.7"/>
</g>
<!-- Node28 -->
<g id="node28" class="node">
<title>Node28</title>
<g id="a_node28"><a xlink:href="../../d5/d90/class_clv_hd_1_1_master.html#aa06bbdd15b68b0550bbdb71087b03730" target="_top" xlink:title=" ">
<polygon fill="none" stroke="black" points="727.5,-229.5 727.5,-248.5 861.5,-248.5 861.5,-229.5 727.5,-229.5"/>
<text text-anchor="middle" x="794.5" y="-236.5" font-family="Helvetica,sans-Serif" font-size="10.00">ClvHd::Master::~Master</text>
</a>
</g>
</g>
<!-- Node1&#45;&gt;Node28 -->
<g id="edge37" class="edge">
<title>Node1&#45;&gt;Node28</title>
<path fill="none" stroke="midnightblue" d="M961.2,-564.55C960.24,-502.84 948.98,-343.98 862,-258 858.07,-254.12 853.41,-251.02 848.4,-248.54"/>
<polygon fill="midnightblue" stroke="midnightblue" points="957.7,-564.93 961.27,-574.91 964.7,-564.88 957.7,-564.93"/>
</g>
<!-- Node2&#45;&gt;Node3 -->
<g id="edge2" class="edge">
<title>Node2&#45;&gt;Node3</title>
<path fill="none" stroke="midnightblue" d="M723.47,-708.51C692.41,-716.27 658.23,-724.82 637.32,-730.05"/>
<polygon fill="midnightblue" stroke="midnightblue" points="724.57,-711.84 733.42,-706.02 722.87,-705.05 724.57,-711.84"/>
</g>
<!-- Node4 -->
<g id="node4" class="node">
<title>Node4</title>
<g id="a_node4"><a xlink:href="../../d5/d90/class_clv_hd_1_1_master.html#a42345cdd26cd5596ae6b3c674a6a97ac" target="_top" xlink:title="setup Get the number of EMG modules connected to the master board.">
<polygon fill="none" stroke="black" points="557,-687.5 557,-706.5 676,-706.5 676,-687.5 557,-687.5"/>
<text text-anchor="middle" x="616.5" y="-694.5" font-family="Helvetica,sans-Serif" font-size="10.00">ClvHd::Master::setup</text>
</a>
</g>
</g>
<!-- Node2&#45;&gt;Node4 -->
<g id="edge3" class="edge">
<title>Node2&#45;&gt;Node4</title>
<path fill="none" stroke="midnightblue" d="M720.39,-693.49C705.69,-693.99 690.42,-694.51 676.29,-695"/>
<polygon fill="midnightblue" stroke="midnightblue" points="720.58,-696.99 730.46,-693.15 720.34,-689.99 720.58,-696.99"/>
</g>
<!-- Node5 -->
<g id="node5" class="node">
<title>Node5</title>
<g id="a_node5"><a xlink:href="../../d3/d82/lib_2cleverhand-interface_2src_2main_8cpp.html#ae66f6b31b5ad750f1fe042a706a4e3d4" target="_top" xlink:title=" ">
<polygon fill="none" stroke="black" points="423,-665.5 423,-684.5 464,-684.5 464,-665.5 423,-665.5"/>
<text text-anchor="middle" x="443.5" y="-672.5" font-family="Helvetica,sans-Serif" font-size="10.00">main</text>
</a>
</g>
</g>
<!-- Node4&#45;&gt;Node5 -->
<g id="edge4" class="edge">
<title>Node4&#45;&gt;Node5</title>
<path fill="none" stroke="midnightblue" d="M546.67,-688.14C516.85,-684.31 484.21,-680.11 464.04,-677.51"/>
<polygon fill="midnightblue" stroke="midnightblue" points="546.29,-691.62 556.65,-689.43 547.18,-684.68 546.29,-691.62"/>
</g>
<!-- Node7 -->
<g id="node7" class="node">
<title>Node7</title>
<g id="a_node7"><a xlink:href="../../dd/d80/class_clv_hd_1_1_e_m_g.html#a66e3835c0a8225792368835153e173d6" target="_top" xlink:title=" ">
<polygon fill="none" stroke="black" points="554,-649.5 554,-668.5 679,-668.5 679,-649.5 554,-649.5"/>
<text text-anchor="middle" x="616.5" y="-656.5" font-family="Helvetica,sans-Serif" font-size="10.00">ClvHd::EMG::get_error</text>
</a>
</g>
</g>
<!-- Node6&#45;&gt;Node7 -->
<g id="edge7" class="edge">
<title>Node6&#45;&gt;Node7</title>
<path fill="none" stroke="midnightblue" d="M767.6,-604.44C747.25,-615.34 717.94,-630.06 691,-640 681.23,-643.6 670.49,-646.79 660.31,-649.48"/>
<polygon fill="midnightblue" stroke="midnightblue" points="769.43,-607.43 776.55,-599.58 766.1,-601.27 769.43,-607.43"/>
</g>
<!-- Node8 -->
<g id="node8" class="node">
<title>Node8</title>
<g id="a_node8"><a xlink:href="../../d5/d90/class_clv_hd_1_1_master.html#af6c6b4b2d00f398973c382bdfce6f78f" target="_top" xlink:title="Read all data registers (State, 3fast, 3precise) from each available module.">
<polygon fill="none" stroke="black" points="560,-600 560,-630 673,-630 673,-600 560,-600"/>
<text text-anchor="start" x="568" y="-618" font-family="Helvetica,sans-Serif" font-size="10.00">ClvHd::Master::read</text>
<text text-anchor="middle" x="616.5" y="-607" font-family="Helvetica,sans-Serif" font-size="10.00">_all_signal</text>
</a>
</g>
</g>
<!-- Node6&#45;&gt;Node8 -->
<g id="edge8" class="edge">
<title>Node6&#45;&gt;Node8</title>
<path fill="none" stroke="midnightblue" d="M718.53,-600.65C703.26,-602.82 687.46,-605.06 673.02,-607.11"/>
<polygon fill="midnightblue" stroke="midnightblue" points="719.06,-604.11 728.46,-599.24 718.07,-597.18 719.06,-604.11"/>
</g>
<!-- Node12 -->
<g id="node12" class="node">
<title>Node12</title>
<g id="a_node12"><a xlink:href="../../dd/d80/class_clv_hd_1_1_e_m_g.html#a755e5a83ea9422329354be92db9d2412" target="_top" xlink:title=" ">
<polygon fill="none" stroke="black" points="553.5,-551 553.5,-581 679.5,-581 679.5,-551 553.5,-551"/>
<text text-anchor="start" x="561.5" y="-569" font-family="Helvetica,sans-Serif" font-size="10.00">ClvHd::EMG::read_fast</text>
<text text-anchor="middle" x="616.5" y="-558" font-family="Helvetica,sans-Serif" font-size="10.00">_value</text>
</a>
</g>
</g>
<!-- Node6&#45;&gt;Node12 -->
<g id="edge13" class="edge">
<title>Node6&#45;&gt;Node12</title>
<path fill="none" stroke="midnightblue" d="M718.24,-579.74C705.37,-577.98 692.12,-576.18 679.64,-574.47"/>
<polygon fill="midnightblue" stroke="midnightblue" points="718.08,-583.25 728.46,-581.13 719.03,-576.31 718.08,-583.25"/>
</g>
<!-- Node13 -->
<g id="node13" class="node">
<title>Node13</title>
<g id="a_node13"><a xlink:href="../../dd/d80/class_clv_hd_1_1_e_m_g.html#a5fb8389610bbed3a4aa8a7147777b7dd" target="_top" xlink:title=" ">
<polygon fill="none" stroke="black" points="545,-502 545,-532 688,-532 688,-502 545,-502"/>
<text text-anchor="start" x="553" y="-520" font-family="Helvetica,sans-Serif" font-size="10.00">ClvHd::EMG::read_precise</text>
<text text-anchor="middle" x="616.5" y="-509" font-family="Helvetica,sans-Serif" font-size="10.00">_value</text>
</a>
</g>
</g>
<!-- Node6&#45;&gt;Node13 -->
<g id="edge14" class="edge">
<title>Node6&#45;&gt;Node13</title>
<path fill="none" stroke="midnightblue" d="M765.47,-575.85C745.07,-565.81 716.65,-552.33 691,-542 682.5,-538.58 673.33,-535.21 664.44,-532.11"/>
<polygon fill="midnightblue" stroke="midnightblue" points="764,-579.03 774.51,-580.34 767.11,-572.76 764,-579.03"/>
</g>
<!-- Node8&#45;&gt;Node5 -->
<g id="edge9" class="edge">
<title>Node8&#45;&gt;Node5</title>
<path fill="none" stroke="midnightblue" d="M561.3,-633.32C554.79,-635.56 548.24,-637.82 542,-640 515.01,-649.44 483.93,-660.65 464.26,-667.8"/>
<polygon fill="midnightblue" stroke="midnightblue" points="562.43,-636.63 570.76,-630.08 560.17,-630.01 562.43,-636.63"/>
</g>
<!-- Node9 -->
<g id="node9" class="node">
<title>Node9</title>
<g id="a_node9"><a xlink:href="../../d9/dc6/class_main_window.html#ab015c2fb4f4636468144e4c683882594" target="_top" xlink:title="push_lsl Push data to the LSL stream.">
<polygon fill="none" stroke="black" points="381,-605.5 381,-624.5 506,-624.5 506,-605.5 381,-605.5"/>
<text text-anchor="middle" x="443.5" y="-612.5" font-family="Helvetica,sans-Serif" font-size="10.00">MainWindow::push_lsl</text>
</a>
</g>
</g>
<!-- Node8&#45;&gt;Node9 -->
<g id="edge10" class="edge">
<title>Node8&#45;&gt;Node9</title>
<path fill="none" stroke="midnightblue" d="M549.74,-615C535.45,-615 520.38,-615 506.25,-615"/>
<polygon fill="midnightblue" stroke="midnightblue" points="549.98,-618.5 559.98,-615 549.98,-611.5 549.98,-618.5"/>
</g>
<!-- Node10 -->
<g id="node10" class="node">
<title>Node10</title>
<g id="a_node10"><a xlink:href="../../d9/dc6/class_main_window.html#a6781fa3a250e3ad46f9d491434333ffb" target="_top" xlink:title="streaming_loop Loop that continuously reads data from the board and send it to the LSL stream.">
<polygon fill="none" stroke="black" points="184,-605.5 184,-624.5 345,-624.5 345,-605.5 184,-605.5"/>
<text text-anchor="middle" x="264.5" y="-612.5" font-family="Helvetica,sans-Serif" font-size="10.00">MainWindow::streaming_loop</text>
</a>
</g>
</g>
<!-- Node9&#45;&gt;Node10 -->
<g id="edge11" class="edge">
<title>Node9&#45;&gt;Node10</title>
<path fill="none" stroke="midnightblue" d="M370.51,-615C362.14,-615 353.57,-615 345.1,-615"/>
<polygon fill="midnightblue" stroke="midnightblue" points="370.59,-618.5 380.59,-615 370.59,-611.5 370.59,-618.5"/>
</g>
<!-- Node11 -->
<g id="node11" class="node">
<title>Node11</title>
<g id="a_node11"><a xlink:href="../../d9/dc6/class_main_window.html#a996c5a2b6f77944776856f08ec30858d" target="_top" xlink:title=" ">
<polygon fill="none" stroke="black" points="0,-605.5 0,-624.5 148,-624.5 148,-605.5 0,-605.5"/>
<text text-anchor="middle" x="74" y="-612.5" font-family="Helvetica,sans-Serif" font-size="10.00">MainWindow::MainWindow</text>
</a>
</g>
</g>
<!-- Node10&#45;&gt;Node11 -->
<g id="edge12" class="edge">
<title>Node10&#45;&gt;Node11</title>
<path fill="none" stroke="midnightblue" d="M173.77,-615C165.17,-615 156.51,-615 148.09,-615"/>
<polygon fill="midnightblue" stroke="midnightblue" points="173.83,-618.5 183.83,-615 173.83,-611.5 173.83,-618.5"/>
</g>
<!-- Node15 -->
<g id="node15" class="node">
<title>Node15</title>
<g id="a_node15"><a xlink:href="../../dd/d80/class_clv_hd_1_1_e_m_g.html#ac270260e60f381da894e18e947eaf048" target="_top" xlink:title=" ">
<polygon fill="none" stroke="black" points="561.5,-453 561.5,-483 671.5,-483 671.5,-453 561.5,-453"/>
<text text-anchor="start" x="569.5" y="-471" font-family="Helvetica,sans-Serif" font-size="10.00">ClvHd::EMG::config</text>
<text text-anchor="middle" x="616.5" y="-460" font-family="Helvetica,sans-Serif" font-size="10.00">_clock</text>
</a>
</g>
</g>
<!-- Node14&#45;&gt;Node15 -->
<g id="edge16" class="edge">
<title>Node14&#45;&gt;Node15</title>
<path fill="none" stroke="midnightblue" d="M786.77,-296.38C773.76,-331.06 741.85,-403.88 691,-444 685.2,-448.57 678.51,-452.29 671.56,-455.3"/>
<polygon fill="midnightblue" stroke="midnightblue" points="790.22,-297.14 790.34,-286.55 783.64,-294.76 790.22,-297.14"/>
</g>
<!-- Node17 -->
<g id="node17" class="node">
<title>Node17</title>
<g id="a_node17"><a xlink:href="../../dd/d80/class_clv_hd_1_1_e_m_g.html#acce16a5bc4a36a39f32f75c9cfd5b5cc" target="_top" xlink:title=" ">
<polygon fill="none" stroke="black" points="561.5,-404 561.5,-434 671.5,-434 671.5,-404 561.5,-404"/>
<text text-anchor="start" x="569.5" y="-422" font-family="Helvetica,sans-Serif" font-size="10.00">ClvHd::EMG::config</text>
<text text-anchor="middle" x="616.5" y="-411" font-family="Helvetica,sans-Serif" font-size="10.00">_frequence</text>
</a>
</g>
</g>
<!-- Node14&#45;&gt;Node17 -->
<g id="edge18" class="edge">
<title>Node14&#45;&gt;Node17</title>
<path fill="none" stroke="midnightblue" d="M781.94,-295.42C764.99,-321.03 731,-367.24 691,-394 685.06,-397.97 678.43,-401.37 671.65,-404.26"/>
<polygon fill="midnightblue" stroke="midnightblue" points="785.09,-297 787.59,-286.7 779.22,-293.2 785.09,-297"/>
</g>
<!-- Node18 -->
<g id="node18" class="node">
<title>Node18</title>
<g id="a_node18"><a xlink:href="../../dd/d80/class_clv_hd_1_1_e_m_g.html#ac1e43a9ba3881d0925ca71db0fc6195f" target="_top" xlink:title=" ">
<polygon fill="none" stroke="black" points="552.5,-365.5 552.5,-384.5 680.5,-384.5 680.5,-365.5 552.5,-365.5"/>
<text text-anchor="middle" x="616.5" y="-372.5" font-family="Helvetica,sans-Serif" font-size="10.00">ClvHd::EMG::config_R1</text>
</a>
</g>
</g>
<!-- Node14&#45;&gt;Node18 -->
<g id="edge20" class="edge">
<title>Node14&#45;&gt;Node18</title>
<path fill="none" stroke="midnightblue" d="M776.61,-293.55C757.41,-311.48 724.38,-339.68 691,-356 683.19,-359.82 674.52,-362.93 665.95,-365.45"/>
<polygon fill="midnightblue" stroke="midnightblue" points="779.12,-296 783.95,-286.57 774.29,-290.93 779.12,-296"/>
</g>
<!-- Node19 -->
<g id="node19" class="node">
<title>Node19</title>
<g id="a_node19"><a xlink:href="../../dd/d80/class_clv_hd_1_1_e_m_g.html#a845b5e6252b356b00f15ad95dfdd3e90" target="_top" xlink:title=" ">
<polygon fill="none" stroke="black" points="552.5,-327.5 552.5,-346.5 680.5,-346.5 680.5,-327.5 552.5,-327.5"/>
<text text-anchor="middle" x="616.5" y="-334.5" font-family="Helvetica,sans-Serif" font-size="10.00">ClvHd::EMG::config_R2</text>
</a>
</g>
</g>
<!-- Node14&#45;&gt;Node19 -->
<g id="edge22" class="edge">
<title>Node14&#45;&gt;Node19</title>
<path fill="none" stroke="midnightblue" d="M762.51,-290.6C742.37,-299.13 715.42,-310 691,-318 680.48,-321.45 668.95,-324.68 658.21,-327.46"/>
<polygon fill="midnightblue" stroke="midnightblue" points="763.99,-293.77 771.8,-286.62 761.23,-287.34 763.99,-293.77"/>
</g>
<!-- Node20 -->
<g id="node20" class="node">
<title>Node20</title>
<g id="a_node20"><a xlink:href="../../dd/d80/class_clv_hd_1_1_e_m_g.html#a0e2546b93544a240ff345ba9a3d4187f" target="_top" xlink:title=" ">
<polygon fill="none" stroke="black" points="552.5,-289.5 552.5,-308.5 680.5,-308.5 680.5,-289.5 552.5,-289.5"/>
<text text-anchor="middle" x="616.5" y="-296.5" font-family="Helvetica,sans-Serif" font-size="10.00">ClvHd::EMG::config_R3</text>
</a>
</g>
</g>
<!-- Node14&#45;&gt;Node20 -->
<g id="edge24" class="edge">
<title>Node14&#45;&gt;Node20</title>
<path fill="none" stroke="midnightblue" d="M716.89,-286.58C704.79,-288.09 692.39,-289.64 680.64,-291.11"/>
<polygon fill="midnightblue" stroke="midnightblue" points="717.47,-290.03 726.96,-285.32 716.61,-283.08 717.47,-290.03"/>
</g>
<!-- Node21 -->
<g id="node21" class="node">
<title>Node21</title>
<g id="a_node21"><a xlink:href="../../dd/d80/class_clv_hd_1_1_e_m_g.html#acd5f6dc7d899c972d50fd4b15a266be7" target="_top" xlink:title=" ">
<polygon fill="none" stroke="black" points="561.5,-240 561.5,-270 671.5,-270 671.5,-240 561.5,-240"/>
<text text-anchor="start" x="569.5" y="-258" font-family="Helvetica,sans-Serif" font-size="10.00">ClvHd::EMG::config</text>
<text text-anchor="middle" x="616.5" y="-247" font-family="Helvetica,sans-Serif" font-size="10.00">_resolution</text>
</a>
</g>
</g>
<!-- Node14&#45;&gt;Node21 -->
<g id="edge26" class="edge">
<title>Node14&#45;&gt;Node21</title>
<path fill="none" stroke="midnightblue" d="M716.99,-267.44C701.68,-265.52 685.9,-263.55 671.54,-261.75"/>
<polygon fill="midnightblue" stroke="midnightblue" points="716.61,-270.92 726.96,-268.68 717.47,-263.97 716.61,-270.92"/>
</g>
<!-- Node22 -->
<g id="node22" class="node">
<title>Node22</title>
<g id="a_node22"><a xlink:href="../../dd/d80/class_clv_hd_1_1_e_m_g.html#a96306dd25ba55aec1d206d64e901fbb1" target="_top" xlink:title=" ">
<polygon fill="none" stroke="black" points="560,-191 560,-221 673,-221 673,-191 560,-191"/>
<text text-anchor="start" x="568" y="-209" font-family="Helvetica,sans-Serif" font-size="10.00">ClvHd::EMG::enable</text>
<text text-anchor="middle" x="616.5" y="-198" font-family="Helvetica,sans-Serif" font-size="10.00">_channels</text>
</a>
</g>
</g>
<!-- Node14&#45;&gt;Node22 -->
<g id="edge28" class="edge">
<title>Node14&#45;&gt;Node22</title>
<path fill="none" stroke="midnightblue" d="M741.48,-264.15C736.49,-262.32 731.59,-260.28 727,-258 709.09,-249.1 708.69,-240.34 691,-231 683.97,-227.29 676.27,-223.96 668.59,-221.03"/>
<polygon fill="midnightblue" stroke="midnightblue" points="740.52,-267.52 751.12,-267.4 742.76,-260.89 740.52,-267.52"/>
</g>
<!-- Node23 -->
<g id="node23" class="node">
<title>Node23</title>
<g id="a_node23"><a xlink:href="../../dd/d80/class_clv_hd_1_1_e_m_g.html#a2451dfc524f943cf1cd50c0c93c466df" target="_top" xlink:title=" ">
<polygon fill="none" stroke="black" points="548.5,-152.5 548.5,-171.5 684.5,-171.5 684.5,-152.5 548.5,-152.5"/>
<text text-anchor="middle" x="616.5" y="-159.5" font-family="Helvetica,sans-Serif" font-size="10.00">ClvHd::EMG::enable_INA</text>
</a>
</g>
</g>
<!-- Node14&#45;&gt;Node23 -->
<g id="edge30" class="edge">
<title>Node14&#45;&gt;Node23</title>
<path fill="none" stroke="midnightblue" d="M733.4,-262.66C731.15,-261.25 729,-259.7 727,-258 698.49,-233.83 719.66,-205.99 691,-182 685.83,-177.67 679.8,-174.27 673.46,-171.61"/>
<polygon fill="midnightblue" stroke="midnightblue" points="732.03,-265.89 742.51,-267.43 735.28,-259.69 732.03,-265.89"/>
</g>
<!-- Node24 -->
<g id="node24" class="node">
<title>Node24</title>
<g id="a_node24"><a xlink:href="../../dd/d80/class_clv_hd_1_1_e_m_g.html#a88344c3f87545fc0a6969798d846a122" target="_top" xlink:title=" ">
<polygon fill="none" stroke="black" points="546,-114.5 546,-133.5 687,-133.5 687,-114.5 546,-114.5"/>
<text text-anchor="middle" x="616.5" y="-121.5" font-family="Helvetica,sans-Serif" font-size="10.00">ClvHd::EMG::enable_SDM</text>
</a>
</g>
</g>
<!-- Node14&#45;&gt;Node24 -->
<g id="edge31" class="edge">
<title>Node14&#45;&gt;Node24</title>
<path fill="none" stroke="midnightblue" d="M731.73,-262.02C730.07,-260.78 728.48,-259.45 727,-258 688.66,-220.61 729.81,-179.9 691,-143 686.99,-139.19 682.31,-136.11 677.3,-133.64"/>
<polygon fill="midnightblue" stroke="midnightblue" points="730.28,-265.23 740.65,-267.4 733.9,-259.24 730.28,-265.23"/>
</g>
<!-- Node25 -->
<g id="node25" class="node">
<title>Node25</title>
<g id="a_node25"><a xlink:href="../../dd/d80/class_clv_hd_1_1_e_m_g.html#a93c77aaec1b3784de83770216ed2e87c" target="_top" xlink:title=" ">
<polygon fill="none" stroke="black" points="542,-76.5 542,-95.5 691,-95.5 691,-76.5 542,-76.5"/>
<text text-anchor="middle" x="616.5" y="-83.5" font-family="Helvetica,sans-Serif" font-size="10.00">ClvHd::EMG::route_channel</text>
</a>
</g>
</g>
<!-- Node14&#45;&gt;Node25 -->
<g id="edge32" class="edge">
<title>Node14&#45;&gt;Node25</title>
<path fill="none" stroke="midnightblue" d="M731,-261.68C729.59,-260.54 728.25,-259.31 727,-258 678.78,-207.45 739.85,-154.93 691,-105 687.22,-101.14 682.77,-98.02 677.95,-95.52"/>
<polygon fill="midnightblue" stroke="midnightblue" points="729.43,-264.84 739.72,-267.36 733.25,-258.97 729.43,-264.84"/>
</g>
<!-- Node26 -->
<g id="node26" class="node">
<title>Node26</title>
<g id="a_node26"><a xlink:href="../../dd/d80/class_clv_hd_1_1_e_m_g.html#a7a048493b7b3895dd6596fd06b3533e7" target="_top" xlink:title=" ">
<polygon fill="none" stroke="black" points="552.5,-38.5 552.5,-57.5 680.5,-57.5 680.5,-38.5 552.5,-38.5"/>
<text text-anchor="middle" x="616.5" y="-45.5" font-family="Helvetica,sans-Serif" font-size="10.00">ClvHd::EMG::set_mode</text>
</a>
</g>
</g>
<!-- Node14&#45;&gt;Node26 -->
<g id="edge34" class="edge">
<title>Node14&#45;&gt;Node26</title>
<path fill="none" stroke="midnightblue" d="M730.82,-261.68C729.48,-260.53 728.2,-259.31 727,-258 668.79,-194.17 750.01,-130.08 691,-67 687.4,-63.15 683.13,-60.04 678.49,-57.53"/>
<polygon fill="midnightblue" stroke="midnightblue" points="728.98,-264.65 739.22,-267.35 732.9,-258.85 728.98,-264.65"/>
</g>
<!-- Node27 -->
<g id="node27" class="node">
<title>Node27</title>
<g id="a_node27"><a xlink:href="../../dd/d80/class_clv_hd_1_1_e_m_g.html#a7c9523474af8089ab99de828eeeaae28" target="_top" xlink:title=" ">
<polygon fill="none" stroke="black" points="561,-0.5 561,-19.5 672,-19.5 672,-0.5 561,-0.5"/>
<text text-anchor="middle" x="616.5" y="-7.5" font-family="Helvetica,sans-Serif" font-size="10.00">ClvHd::EMG::~EMG</text>
</a>
</g>
</g>
<!-- Node14&#45;&gt;Node27 -->
<g id="edge36" class="edge">
<title>Node14&#45;&gt;Node27</title>
<path fill="none" stroke="midnightblue" d="M730.77,-261.72C729.44,-260.57 728.18,-259.33 727,-258 658.74,-180.83 760.23,-105.3 691,-29 685.86,-23.34 679.28,-19.27 672.17,-16.36"/>
<polygon fill="midnightblue" stroke="midnightblue" points="728.88,-264.67 739.1,-267.46 732.85,-258.91 728.88,-264.67"/>
</g>
<!-- Node16 -->
<g id="node16" class="node">
<title>Node16</title>
<g id="a_node16"><a xlink:href="../../dd/d80/class_clv_hd_1_1_e_m_g.html#a916369b10206c372f91d6ddde938d3a4" target="_top" xlink:title="setup Write all setup parameters to the board.">
<polygon fill="none" stroke="black" points="390,-289.5 390,-308.5 497,-308.5 497,-289.5 390,-289.5"/>
<text text-anchor="middle" x="443.5" y="-296.5" font-family="Helvetica,sans-Serif" font-size="10.00">ClvHd::EMG::setup</text>
</a>
</g>
</g>
<!-- Node15&#45;&gt;Node16 -->
<g id="edge17" class="edge">
<title>Node15&#45;&gt;Node16</title>
<path fill="none" stroke="midnightblue" d="M552.13,-450.5C548.57,-448.55 545.16,-446.39 542,-444 491.91,-406.14 459.08,-334.7 448.34,-308.74"/>
<polygon fill="midnightblue" stroke="midnightblue" points="550.71,-453.7 561.23,-454.92 553.77,-447.4 550.71,-453.7"/>
</g>
<!-- Node17&#45;&gt;Node16 -->
<g id="edge19" class="edge">
<title>Node17&#45;&gt;Node16</title>
<path fill="none" stroke="midnightblue" d="M552.67,-399.81C548.98,-398.01 545.39,-396.08 542,-394 502.71,-369.91 466.71,-327.4 451.78,-308.51"/>
<polygon fill="midnightblue" stroke="midnightblue" points="551.46,-403.1 562.02,-403.98 554.31,-396.71 551.46,-403.1"/>
</g>
<!-- Node18&#45;&gt;Node16 -->
<g id="edge21" class="edge">
<title>Node18&#45;&gt;Node16</title>
<path fill="none" stroke="midnightblue" d="M560.59,-362.6C554.23,-360.64 547.92,-358.44 542,-356 510.28,-342.92 476.36,-321.09 458.08,-308.58"/>
<polygon fill="midnightblue" stroke="midnightblue" points="559.97,-366.06 570.55,-365.48 561.91,-359.34 559.97,-366.06"/>
</g>
<!-- Node19&#45;&gt;Node16 -->
<g id="edge23" class="edge">
<title>Node19&#45;&gt;Node16</title>
<path fill="none" stroke="midnightblue" d="M562.29,-325.18C538.18,-319.82 510.06,-313.57 487.34,-308.52"/>
<polygon fill="midnightblue" stroke="midnightblue" points="561.83,-328.66 572.35,-327.41 563.35,-321.82 561.83,-328.66"/>
</g>
<!-- Node20&#45;&gt;Node16 -->
<g id="edge25" class="edge">
<title>Node20&#45;&gt;Node16</title>
<path fill="none" stroke="midnightblue" d="M541.96,-299C526.86,-299 511.25,-299 497.07,-299"/>
<polygon fill="midnightblue" stroke="midnightblue" points="542.31,-302.5 552.31,-299 542.31,-295.5 542.31,-302.5"/>
</g>
<!-- Node21&#45;&gt;Node16 -->
<g id="edge27" class="edge">
<title>Node21&#45;&gt;Node16</title>
<path fill="none" stroke="midnightblue" d="M551.45,-271.48C527.85,-277.55 501.92,-284.23 481.5,-289.48"/>
<polygon fill="midnightblue" stroke="midnightblue" points="552.58,-274.8 561.39,-268.92 550.84,-268.02 552.58,-274.8"/>
</g>
<!-- Node22&#45;&gt;Node16 -->
<g id="edge29" class="edge">
<title>Node22&#45;&gt;Node16</title>
<path fill="none" stroke="midnightblue" d="M555.4,-224.86C550.8,-226.78 546.28,-228.83 542,-231 508.49,-247.96 473.35,-275.17 455.83,-289.49"/>
<polygon fill="midnightblue" stroke="midnightblue" points="556.9,-228.03 564.91,-221.1 554.32,-221.52 556.9,-228.03"/>
</g>
<!-- Node25&#45;&gt;Node16 -->
<g id="edge33" class="edge">
<title>Node25&#45;&gt;Node16</title>
<path fill="none" stroke="midnightblue" d="M549.2,-100.03C546.67,-101.53 544.26,-103.18 542,-105 479.23,-155.66 453.27,-257.19 446.44,-289.14"/>
<polygon fill="midnightblue" stroke="midnightblue" points="550.79,-103.15 558.16,-95.53 547.65,-96.89 550.79,-103.15"/>
</g>
<!-- Node26&#45;&gt;Node16 -->
<g id="edge35" class="edge">
<title>Node26&#45;&gt;Node16</title>
<path fill="none" stroke="midnightblue" d="M548.25,-62.34C546.06,-63.75 543.96,-65.3 542,-67 469.95,-129.3 449.91,-253.73 445.54,-289.3"/>
<polygon fill="midnightblue" stroke="midnightblue" points="550.02,-65.37 557.16,-57.54 546.7,-59.21 550.02,-65.37"/>
</g>
</g>
</svg>
