<?xml version="1.0" encoding="UTF-8" standalone="no"?>
<!DOCTYPE svg PUBLIC "-//W3C//DTD SVG 1.1//EN"
 "http://www.w3.org/Graphics/SVG/1.1/DTD/svg11.dtd">
<!-- Generated by graphviz version 2.43.0 (0)
 -->
<!-- Title: /home/aightech/dev/qt&#45;clvhd&#45;config/lib/cleverhand&#45;interface/tool_lib/joystick/lib/strANSIseq/include/strANSIseq.hpp Pages: 1 -->
<svg width="267pt" height="128pt"
 viewBox="0.00 0.00 267.00 128.00" xmlns="http://www.w3.org/2000/svg" xmlns:xlink="http://www.w3.org/1999/xlink">
<g id="graph0" class="graph" transform="scale(1 1) rotate(0) translate(4 124)">
<title>/home/aightech/dev/qt&#45;clvhd&#45;config/lib/cleverhand&#45;interface/tool_lib/joystick/lib/strANSIseq/include/strANSIseq.hpp</title>
<!-- Node1 -->
<g id="node1" class="node">
<title>Node1</title>
<g id="a_node1"><a xlink:title=" ">
<polygon fill="#bfbfbf" stroke="black" points="42.5,-56.5 42.5,-119.5 230.5,-119.5 230.5,-56.5 42.5,-56.5"/>
<text text-anchor="start" x="50.5" y="-107.5" font-family="Helvetica,sans-Serif" font-size="10.00">/home/aightech/dev</text>
<text text-anchor="start" x="50.5" y="-96.5" font-family="Helvetica,sans-Serif" font-size="10.00">/qt&#45;clvhd&#45;config/lib</text>
<text text-anchor="start" x="50.5" y="-85.5" font-family="Helvetica,sans-Serif" font-size="10.00">/cleverhand&#45;interface</text>
<text text-anchor="start" x="50.5" y="-74.5" font-family="Helvetica,sans-Serif" font-size="10.00">/tool_lib/joystick/lib</text>
<text text-anchor="middle" x="136.5" y="-63.5" font-family="Helvetica,sans-Serif" font-size="10.00">/strANSIseq/include/strANSIseq.hpp</text>
</a>
</g>
</g>
<!-- Node2 -->
<g id="node2" class="node">
<title>Node2</title>
<g id="a_node2"><a xlink:title=" ">
<polygon fill="none" stroke="#bfbfbf" points="0,-0.5 0,-19.5 53,-19.5 53,-0.5 0,-0.5"/>
<text text-anchor="middle" x="26.5" y="-7.5" font-family="Helvetica,sans-Serif" font-size="10.00">cstdarg</text>
</a>
</g>
</g>
<!-- Node1&#45;&gt;Node2 -->
<g id="edge1" class="edge">
<title>Node1&#45;&gt;Node2</title>
<path fill="none" stroke="midnightblue" d="M92.08,-56.31C76.72,-45.7 60.23,-34.3 47.62,-25.59"/>
<polygon fill="midnightblue" stroke="midnightblue" points="49.42,-22.58 39.2,-19.77 45.44,-28.34 49.42,-22.58"/>
</g>
<!-- Node3 -->
<g id="node3" class="node">
<title>Node3</title>
<g id="a_node3"><a xlink:title=" ">
<polygon fill="none" stroke="#bfbfbf" points="71.5,-0.5 71.5,-19.5 131.5,-19.5 131.5,-0.5 71.5,-0.5"/>
<text text-anchor="middle" x="101.5" y="-7.5" font-family="Helvetica,sans-Serif" font-size="10.00">iostream</text>
</a>
</g>
</g>
<!-- Node1&#45;&gt;Node3 -->
<g id="edge2" class="edge">
<title>Node1&#45;&gt;Node3</title>
<path fill="none" stroke="midnightblue" d="M122.26,-56.09C118.01,-46.84 113.48,-37.01 109.74,-28.9"/>
<polygon fill="midnightblue" stroke="midnightblue" points="112.88,-27.34 105.51,-19.72 106.52,-30.27 112.88,-27.34"/>
</g>
<!-- Node4 -->
<g id="node4" class="node">
<title>Node4</title>
<g id="a_node4"><a xlink:title=" ">
<polygon fill="none" stroke="#bfbfbf" points="149.5,-0.5 149.5,-19.5 193.5,-19.5 193.5,-0.5 149.5,-0.5"/>
<text text-anchor="middle" x="171.5" y="-7.5" font-family="Helvetica,sans-Serif" font-size="10.00">string</text>
</a>
</g>
</g>
<!-- Node1&#45;&gt;Node4 -->
<g id="edge3" class="edge">
<title>Node1&#45;&gt;Node4</title>
<path fill="none" stroke="midnightblue" d="M150.74,-56.09C154.99,-46.84 159.52,-37.01 163.26,-28.9"/>
<polygon fill="midnightblue" stroke="midnightblue" points="166.48,-30.27 167.49,-19.72 160.12,-27.34 166.48,-30.27"/>
</g>
<!-- Node5 -->
<g id="node5" class="node">
<title>Node5</title>
<g id="a_node5"><a xlink:title=" ">
<polygon fill="none" stroke="#bfbfbf" points="212,-0.5 212,-19.5 259,-19.5 259,-0.5 212,-0.5"/>
<text text-anchor="middle" x="235.5" y="-7.5" font-family="Helvetica,sans-Serif" font-size="10.00">vector</text>
</a>
</g>
</g>
<!-- Node1&#45;&gt;Node5 -->
<g id="edge4" class="edge">
<title>Node1&#45;&gt;Node5</title>
<path fill="none" stroke="midnightblue" d="M176.48,-56.31C190.03,-45.9 204.57,-34.74 215.83,-26.1"/>
<polygon fill="midnightblue" stroke="midnightblue" points="218.27,-28.64 224.07,-19.77 214.01,-23.09 218.27,-28.64"/>
</g>
</g>
</svg>
