<?xml version="1.0" encoding="UTF-8" standalone="no"?>
<!DOCTYPE svg PUBLIC "-//W3C//DTD SVG 1.1//EN"
 "http://www.w3.org/Graphics/SVG/1.1/DTD/svg11.dtd">
<!-- Generated by graphviz version 2.43.0 (0)
 -->
<!-- Title: /home/aightech/dev/qt&#45;clvhd&#45;config/lib/cleverhand&#45;interface/include/clvHdEMG.hpp Pages: 1 -->
<svg width="950pt" height="229pt"
 viewBox="0.00 0.00 950.27 229.00" xmlns="http://www.w3.org/2000/svg" xmlns:xlink="http://www.w3.org/1999/xlink">
<g id="graph0" class="graph" transform="scale(1 1) rotate(0) translate(4 225)">
<title>/home/aightech/dev/qt&#45;clvhd&#45;config/lib/cleverhand&#45;interface/include/clvHdEMG.hpp</title>
<!-- Node1 -->
<g id="node1" class="node">
<title>Node1</title>
<g id="a_node1"><a xlink:title=" ">
<polygon fill="#bfbfbf" stroke="black" points="228.77,-168.5 228.77,-220.5 357.77,-220.5 357.77,-168.5 228.77,-168.5"/>
<text text-anchor="start" x="236.77" y="-208.5" font-family="Helvetica,sans-Serif" font-size="10.00">/home/aightech/dev</text>
<text text-anchor="start" x="236.77" y="-197.5" font-family="Helvetica,sans-Serif" font-size="10.00">/qt&#45;clvhd&#45;config/lib</text>
<text text-anchor="start" x="236.77" y="-186.5" font-family="Helvetica,sans-Serif" font-size="10.00">/cleverhand&#45;interface</text>
<text text-anchor="middle" x="293.27" y="-175.5" font-family="Helvetica,sans-Serif" font-size="10.00">/include/clvHdEMG.hpp</text>
</a>
</g>
</g>
<!-- Node2 -->
<g id="node2" class="node">
<title>Node2</title>
<g id="a_node2"><a xlink:title=" ">
<polygon fill="none" stroke="#bfbfbf" points="23.77,-56.5 23.77,-75.5 70.77,-75.5 70.77,-56.5 23.77,-56.5"/>
<text text-anchor="middle" x="47.27" y="-63.5" font-family="Helvetica,sans-Serif" font-size="10.00">cmath</text>
</a>
</g>
</g>
<!-- Node1&#45;&gt;Node2 -->
<g id="edge1" class="edge">
<title>Node1&#45;&gt;Node2</title>
<path fill="none" stroke="midnightblue" d="M244.37,-168.36C192.74,-141.81 113.34,-100.98 72.88,-80.17"/>
<polygon fill="midnightblue" stroke="midnightblue" points="74.43,-77.03 63.94,-75.57 71.23,-83.26 74.43,-77.03"/>
</g>
<!-- Node3 -->
<g id="node3" class="node">
<title>Node3</title>
<g id="a_node3"><a xlink:title=" ">
<polygon fill="none" stroke="#bfbfbf" points="89.27,-56.5 89.27,-75.5 139.27,-75.5 139.27,-56.5 89.27,-56.5"/>
<text text-anchor="middle" x="114.27" y="-63.5" font-family="Helvetica,sans-Serif" font-size="10.00">cstring</text>
</a>
</g>
</g>
<!-- Node1&#45;&gt;Node3 -->
<g id="edge2" class="edge">
<title>Node1&#45;&gt;Node3</title>
<path fill="none" stroke="midnightblue" d="M257.47,-168.2C220.67,-142.2 164.65,-102.61 134.75,-81.48"/>
<polygon fill="midnightblue" stroke="midnightblue" points="136.55,-78.46 126.36,-75.55 132.51,-84.18 136.55,-78.46"/>
</g>
<!-- Node4 -->
<g id="node4" class="node">
<title>Node4</title>
<g id="a_node4"><a xlink:title=" ">
<polygon fill="none" stroke="#bfbfbf" points="258.27,-0.5 258.27,-19.5 318.27,-19.5 318.27,-0.5 258.27,-0.5"/>
<text text-anchor="middle" x="288.27" y="-7.5" font-family="Helvetica,sans-Serif" font-size="10.00">iostream</text>
</a>
</g>
</g>
<!-- Node1&#45;&gt;Node4 -->
<g id="edge3" class="edge">
<title>Node1&#45;&gt;Node4</title>
<path fill="none" stroke="midnightblue" d="M228.73,-185.63C127.42,-170.76 -51.01,-132.87 14.27,-56 43.8,-21.22 179.45,-13.27 248.15,-11.49"/>
<polygon fill="midnightblue" stroke="midnightblue" points="248.26,-14.99 258.18,-11.26 248.1,-7.99 248.26,-14.99"/>
</g>
<!-- Node5 -->
<g id="node5" class="node">
<title>Node5</title>
<g id="a_node5"><a xlink:title=" ">
<polygon fill="none" stroke="#bfbfbf" points="157.27,-56.5 157.27,-75.5 201.27,-75.5 201.27,-56.5 157.27,-56.5"/>
<text text-anchor="middle" x="179.27" y="-63.5" font-family="Helvetica,sans-Serif" font-size="10.00">string</text>
</a>
</g>
</g>
<!-- Node1&#45;&gt;Node5 -->
<g id="edge4" class="edge">
<title>Node1&#45;&gt;Node5</title>
<path fill="none" stroke="midnightblue" d="M270.47,-168.2C247.64,-142.87 213.19,-104.65 193.82,-83.15"/>
<polygon fill="midnightblue" stroke="midnightblue" points="196.27,-80.64 186.97,-75.55 191.07,-85.32 196.27,-80.64"/>
</g>
<!-- Node6 -->
<g id="node6" class="node">
<title>Node6</title>
<g id="a_node6"><a xlink:title=" ">
<polygon fill="none" stroke="#bfbfbf" points="219.77,-56.5 219.77,-75.5 266.77,-75.5 266.77,-56.5 219.77,-56.5"/>
<text text-anchor="middle" x="243.27" y="-63.5" font-family="Helvetica,sans-Serif" font-size="10.00">vector</text>
</a>
</g>
</g>
<!-- Node1&#45;&gt;Node6 -->
<g id="edge5" class="edge">
<title>Node1&#45;&gt;Node6</title>
<path fill="none" stroke="midnightblue" d="M283.27,-168.2C273.52,-143.54 258.94,-106.67 250.34,-84.9"/>
<polygon fill="midnightblue" stroke="midnightblue" points="253.58,-83.56 246.65,-75.55 247.07,-86.14 253.58,-83.56"/>
</g>
<!-- Node7 -->
<g id="node7" class="node">
<title>Node7</title>
<g id="a_node7"><a xlink:href="../../d2/dcc/clv_hd_master_8hpp.html" target="_top" xlink:title=" ">
<polygon fill="none" stroke="black" points="307.27,-112.5 307.27,-131.5 405.27,-131.5 405.27,-112.5 307.27,-112.5"/>
<text text-anchor="middle" x="356.27" y="-119.5" font-family="Helvetica,sans-Serif" font-size="10.00">clvHdMaster.hpp</text>
</a>
</g>
</g>
<!-- Node1&#45;&gt;Node7 -->
<g id="edge6" class="edge">
<title>Node1&#45;&gt;Node7</title>
<path fill="none" stroke="midnightblue" d="M309.16,-168.45C317.51,-158.53 327.68,-147.43 336.52,-138.69"/>
<polygon fill="midnightblue" stroke="midnightblue" points="339.04,-141.12 343.87,-131.7 334.21,-136.05 339.04,-141.12"/>
</g>
<!-- Node13 -->
<g id="node13" class="node">
<title>Node13</title>
<g id="a_node13"><a xlink:title=" ">
<polygon fill="none" stroke="#bfbfbf" points="790.77,-56.5 790.77,-75.5 843.77,-75.5 843.77,-56.5 790.77,-56.5"/>
<text text-anchor="middle" x="817.27" y="-63.5" font-family="Helvetica,sans-Serif" font-size="10.00">stdint.h</text>
</a>
</g>
</g>
<!-- Node1&#45;&gt;Node13 -->
<g id="edge26" class="edge">
<title>Node1&#45;&gt;Node13</title>
<path fill="none" stroke="midnightblue" d="M342.58,-168.47C388.63,-145.18 451.17,-113.79 457.27,-112 593.15,-72.05 636.71,-100.29 780.54,-75.86"/>
<polygon fill="midnightblue" stroke="midnightblue" points="781.37,-79.26 790.62,-74.09 780.16,-72.37 781.37,-79.26"/>
</g>
<!-- Node17 -->
<g id="node17" class="node">
<title>Node17</title>
<g id="a_node17"><a xlink:href="../../d5/d7f/registers_8hpp.html" target="_top" xlink:title=" ">
<polygon fill="none" stroke="black" points="862.27,-56.5 862.27,-75.5 942.27,-75.5 942.27,-56.5 862.27,-56.5"/>
<text text-anchor="middle" x="902.27" y="-63.5" font-family="Helvetica,sans-Serif" font-size="10.00">registers.hpp</text>
</a>
</g>
</g>
<!-- Node1&#45;&gt;Node17 -->
<g id="edge24" class="edge">
<title>Node1&#45;&gt;Node17</title>
<path fill="none" stroke="midnightblue" d="M358.01,-169.85C386.82,-158.93 420.99,-145.42 451.27,-132 469.44,-123.94 472.17,-117.52 491.27,-112 643.4,-68.02 691.22,-97.36 851.95,-76.04"/>
<polygon fill="midnightblue" stroke="midnightblue" points="852.77,-79.47 862.2,-74.64 851.82,-72.53 852.77,-79.47"/>
</g>
<!-- Node18 -->
<g id="node18" class="node">
<title>Node18</title>
<g id="a_node18"><a xlink:title=" ">
<polygon fill="none" stroke="#bfbfbf" points="499.77,-112.5 499.77,-131.5 590.77,-131.5 590.77,-112.5 499.77,-112.5"/>
<text text-anchor="middle" x="545.27" y="-119.5" font-family="Helvetica,sans-Serif" font-size="10.00">strANSIseq.hpp</text>
</a>
</g>
</g>
<!-- Node1&#45;&gt;Node18 -->
<g id="edge25" class="edge">
<title>Node1&#45;&gt;Node18</title>
<path fill="none" stroke="midnightblue" d="M357.84,-175.44C404.25,-162.45 465.39,-145.35 505.01,-134.26"/>
<polygon fill="midnightblue" stroke="midnightblue" points="506.16,-137.58 514.85,-131.51 504.27,-130.83 506.16,-137.58"/>
</g>
<!-- Node7&#45;&gt;Node1 -->
<g id="edge18" class="edge">
<title>Node7&#45;&gt;Node1</title>
<path fill="none" stroke="midnightblue" d="M353.12,-131.7C348.04,-139.12 338.77,-150.27 328.97,-161.08"/>
<polygon fill="midnightblue" stroke="midnightblue" points="326.37,-158.73 322.15,-168.45 331.51,-163.49 326.37,-158.73"/>
</g>
<!-- Node7&#45;&gt;Node2 -->
<g id="edge7" class="edge">
<title>Node7&#45;&gt;Node2</title>
<path fill="none" stroke="midnightblue" d="M307.12,-114.57C253.75,-107.23 165.85,-94.13 80.8,-75.92"/>
<polygon fill="midnightblue" stroke="midnightblue" points="81.5,-72.49 70.99,-73.79 80.02,-79.33 81.5,-72.49"/>
</g>
<!-- Node7&#45;&gt;Node3 -->
<g id="edge8" class="edge">
<title>Node7&#45;&gt;Node3</title>
<path fill="none" stroke="midnightblue" d="M313.91,-112.43C273.93,-104.2 212.07,-91.14 149.52,-76.22"/>
<polygon fill="midnightblue" stroke="midnightblue" points="150.03,-72.74 139.48,-73.81 148.39,-79.55 150.03,-72.74"/>
</g>
<!-- Node7&#45;&gt;Node4 -->
<g id="edge9" class="edge">
<title>Node7&#45;&gt;Node4</title>
<path fill="none" stroke="midnightblue" d="M346.14,-112.21C336.84,-103.71 323.2,-90.07 314.27,-76 305.01,-61.43 298.02,-43.02 293.64,-29.51"/>
<polygon fill="midnightblue" stroke="midnightblue" points="296.96,-28.43 290.68,-19.9 290.27,-30.49 296.96,-28.43"/>
</g>
<!-- Node7&#45;&gt;Node5 -->
<g id="edge10" class="edge">
<title>Node7&#45;&gt;Node5</title>
<path fill="none" stroke="midnightblue" d="M328.22,-112.44C296.33,-102.71 244.38,-86.86 211.02,-76.69"/>
<polygon fill="midnightblue" stroke="midnightblue" points="211.9,-73.3 201.31,-73.73 209.85,-79.99 211.9,-73.3"/>
</g>
<!-- Node7&#45;&gt;Node6 -->
<g id="edge11" class="edge">
<title>Node7&#45;&gt;Node6</title>
<path fill="none" stroke="midnightblue" d="M338.36,-112.44C320.01,-103.68 291.26,-89.94 270.17,-79.86"/>
<polygon fill="midnightblue" stroke="midnightblue" points="271.62,-76.67 261.09,-75.52 268.6,-82.99 271.62,-76.67"/>
</g>
<!-- Node8 -->
<g id="node8" class="node">
<title>Node8</title>
<g id="a_node8"><a xlink:title=" ">
<polygon fill="none" stroke="#bfbfbf" points="432.77,-56.5 432.77,-75.5 483.77,-75.5 483.77,-56.5 432.77,-56.5"/>
<text text-anchor="middle" x="458.27" y="-63.5" font-family="Helvetica,sans-Serif" font-size="10.00">errno.h</text>
</a>
</g>
</g>
<!-- Node7&#45;&gt;Node8 -->
<g id="edge12" class="edge">
<title>Node7&#45;&gt;Node8</title>
<path fill="none" stroke="midnightblue" d="M372.65,-112.32C388.94,-103.7 414.13,-90.36 432.98,-80.39"/>
<polygon fill="midnightblue" stroke="midnightblue" points="434.72,-83.43 441.92,-75.65 431.44,-77.24 434.72,-83.43"/>
</g>
<!-- Node9 -->
<g id="node9" class="node">
<title>Node9</title>
<g id="a_node9"><a xlink:title=" ">
<polygon fill="none" stroke="#bfbfbf" points="501.77,-56.5 501.77,-75.5 548.77,-75.5 548.77,-56.5 501.77,-56.5"/>
<text text-anchor="middle" x="525.27" y="-63.5" font-family="Helvetica,sans-Serif" font-size="10.00">fcntl.h</text>
</a>
</g>
</g>
<!-- Node7&#45;&gt;Node9 -->
<g id="edge13" class="edge">
<title>Node7&#45;&gt;Node9</title>
<path fill="none" stroke="midnightblue" d="M383.04,-112.44C412.52,-103.02 459.95,-87.87 491.85,-77.68"/>
<polygon fill="midnightblue" stroke="midnightblue" points="493.15,-80.94 501.61,-74.56 491.02,-74.27 493.15,-80.94"/>
</g>
<!-- Node10 -->
<g id="node10" class="node">
<title>Node10</title>
<g id="a_node10"><a xlink:title=" ">
<polygon fill="none" stroke="#bfbfbf" points="566.77,-56.5 566.77,-75.5 629.77,-75.5 629.77,-56.5 566.77,-56.5"/>
<text text-anchor="middle" x="598.27" y="-63.5" font-family="Helvetica,sans-Serif" font-size="10.00">termios.h</text>
</a>
</g>
</g>
<!-- Node7&#45;&gt;Node10 -->
<g id="edge14" class="edge">
<title>Node7&#45;&gt;Node10</title>
<path fill="none" stroke="midnightblue" d="M394.62,-112.48C433.19,-103.91 494.65,-90.23 556.47,-76.4"/>
<polygon fill="midnightblue" stroke="midnightblue" points="557.4,-79.78 566.39,-74.18 555.87,-72.95 557.4,-79.78"/>
</g>
<!-- Node11 -->
<g id="node11" class="node">
<title>Node11</title>
<g id="a_node11"><a xlink:title=" ">
<polygon fill="none" stroke="#bfbfbf" points="648.27,-56.5 648.27,-75.5 704.27,-75.5 704.27,-56.5 648.27,-56.5"/>
<text text-anchor="middle" x="676.27" y="-63.5" font-family="Helvetica,sans-Serif" font-size="10.00">unistd.h</text>
</a>
</g>
</g>
<!-- Node7&#45;&gt;Node11 -->
<g id="edge15" class="edge">
<title>Node7&#45;&gt;Node11</title>
<path fill="none" stroke="midnightblue" d="M405.54,-113.66C470.28,-103.93 581.52,-86.92 638.13,-76.07"/>
<polygon fill="midnightblue" stroke="midnightblue" points="638.9,-79.48 648.04,-74.12 637.55,-72.61 638.9,-79.48"/>
</g>
<!-- Node12 -->
<g id="node12" class="node">
<title>Node12</title>
<g id="a_node12"><a xlink:title=" ">
<polygon fill="none" stroke="#bfbfbf" points="722.27,-56.5 722.27,-75.5 772.27,-75.5 772.27,-56.5 722.27,-56.5"/>
<text text-anchor="middle" x="747.27" y="-63.5" font-family="Helvetica,sans-Serif" font-size="10.00">stdio.h</text>
</a>
</g>
</g>
<!-- Node7&#45;&gt;Node12 -->
<g id="edge16" class="edge">
<title>Node7&#45;&gt;Node12</title>
<path fill="none" stroke="midnightblue" d="M405.43,-113.88C410.11,-113.23 414.78,-112.6 419.27,-112 546.58,-95.11 582.27,-100.61 712.17,-75.98"/>
<polygon fill="midnightblue" stroke="midnightblue" points="712.94,-79.39 722.1,-74.07 711.62,-72.52 712.94,-79.39"/>
</g>
<!-- Node7&#45;&gt;Node13 -->
<g id="edge17" class="edge">
<title>Node7&#45;&gt;Node13</title>
<path fill="none" stroke="midnightblue" d="M405.42,-113.77C410.1,-113.15 414.77,-112.54 419.27,-112 576.48,-92.96 620.19,-103.24 780.4,-75.89"/>
<polygon fill="midnightblue" stroke="midnightblue" points="781.37,-79.27 790.62,-74.12 780.17,-72.38 781.37,-79.27"/>
</g>
<!-- Node14 -->
<g id="node14" class="node">
<title>Node14</title>
<g id="a_node14"><a xlink:href="../../dc/d13/com__client_8hpp.html" target="_top" xlink:title=" ">
<polygon fill="none" stroke="black" points="323.77,-56.5 323.77,-75.5 414.77,-75.5 414.77,-56.5 323.77,-56.5"/>
<text text-anchor="middle" x="369.27" y="-63.5" font-family="Helvetica,sans-Serif" font-size="10.00">com_client.hpp</text>
</a>
</g>
</g>
<!-- Node7&#45;&gt;Node14 -->
<g id="edge19" class="edge">
<title>Node7&#45;&gt;Node14</title>
<path fill="none" stroke="midnightblue" d="M358.41,-112.08C360.14,-104.93 362.61,-94.64 364.77,-85.69"/>
<polygon fill="midnightblue" stroke="midnightblue" points="368.22,-86.29 367.16,-75.75 361.42,-84.65 368.22,-86.29"/>
</g>
<!-- Node7&#45;&gt;Node17 -->
<g id="edge23" class="edge">
<title>Node7&#45;&gt;Node17</title>
<path fill="none" stroke="midnightblue" d="M405.37,-116.61C518.79,-106.47 793.24,-81.9 852.01,-75.81"/>
<polygon fill="midnightblue" stroke="midnightblue" points="852.66,-79.26 862.2,-74.67 851.87,-72.31 852.66,-79.26"/>
</g>
<!-- Node14&#45;&gt;Node4 -->
<g id="edge20" class="edge">
<title>Node14&#45;&gt;Node4</title>
<path fill="none" stroke="midnightblue" d="M356.25,-56.32C343.73,-47.98 324.58,-35.21 309.79,-25.35"/>
<polygon fill="midnightblue" stroke="midnightblue" points="311.51,-22.29 301.25,-19.65 307.63,-28.11 311.51,-22.29"/>
</g>
<!-- Node15 -->
<g id="node15" class="node">
<title>Node15</title>
<g id="a_node15"><a xlink:title=" ">
<polygon fill="none" stroke="#bfbfbf" points="420.27,-0.5 420.27,-19.5 468.27,-19.5 468.27,-0.5 420.27,-0.5"/>
<text text-anchor="middle" x="444.27" y="-7.5" font-family="Helvetica,sans-Serif" font-size="10.00">mutex</text>
</a>
</g>
</g>
<!-- Node14&#45;&gt;Node15 -->
<g id="edge21" class="edge">
<title>Node14&#45;&gt;Node15</title>
<path fill="none" stroke="midnightblue" d="M381.32,-56.32C392.73,-48.11 410.1,-35.6 423.7,-25.81"/>
<polygon fill="midnightblue" stroke="midnightblue" points="425.93,-28.52 432,-19.83 421.84,-22.84 425.93,-28.52"/>
</g>
<!-- Node16 -->
<g id="node16" class="node">
<title>Node16</title>
<g id="a_node16"><a xlink:title=" ">
<polygon fill="none" stroke="#bfbfbf" points="336.77,-0.5 336.77,-19.5 401.77,-19.5 401.77,-0.5 336.77,-0.5"/>
<text text-anchor="middle" x="369.27" y="-7.5" font-family="Helvetica,sans-Serif" font-size="10.00">stdexcept</text>
</a>
</g>
</g>
<!-- Node14&#45;&gt;Node16 -->
<g id="edge22" class="edge">
<title>Node14&#45;&gt;Node16</title>
<path fill="none" stroke="midnightblue" d="M369.27,-56.08C369.27,-49.01 369.27,-38.86 369.27,-29.99"/>
<polygon fill="midnightblue" stroke="midnightblue" points="372.77,-29.75 369.27,-19.75 365.77,-29.75 372.77,-29.75"/>
</g>
</g>
</svg>
