<?xml version="1.0" encoding="UTF-8" standalone="no"?>
<!DOCTYPE svg PUBLIC "-//W3C//DTD SVG 1.1//EN"
 "http://www.w3.org/Graphics/SVG/1.1/DTD/svg11.dtd">
<!-- Generated by graphviz version 2.43.0 (0)
 -->
<!-- Title: /home/aightech/dev/qt&#45;clvhd&#45;config/lib/cleverhand&#45;interface/src/clvHdEMG.cpp Pages: 1 -->
<svg width="950pt" height="285pt"
 viewBox="0.00 0.00 949.73 285.00" xmlns="http://www.w3.org/2000/svg" xmlns:xlink="http://www.w3.org/1999/xlink">
<g id="graph0" class="graph" transform="scale(1 1) rotate(0) translate(4 281)">
<title>/home/aightech/dev/qt&#45;clvhd&#45;config/lib/cleverhand&#45;interface/src/clvHdEMG.cpp</title>
<!-- Node1 -->
<g id="node1" class="node">
<title>Node1</title>
<g id="a_node1"><a xlink:title=" ">
<polygon fill="#bfbfbf" stroke="black" points="232.23,-224.5 232.23,-276.5 353.23,-276.5 353.23,-224.5 232.23,-224.5"/>
<text text-anchor="start" x="240.23" y="-264.5" font-family="Helvetica,sans-Serif" font-size="10.00">/home/aightech/dev</text>
<text text-anchor="start" x="240.23" y="-253.5" font-family="Helvetica,sans-Serif" font-size="10.00">/qt&#45;clvhd&#45;config/lib</text>
<text text-anchor="start" x="240.23" y="-242.5" font-family="Helvetica,sans-Serif" font-size="10.00">/cleverhand&#45;interface</text>
<text text-anchor="middle" x="292.73" y="-231.5" font-family="Helvetica,sans-Serif" font-size="10.00">/src/clvHdEMG.cpp</text>
</a>
</g>
</g>
<!-- Node2 -->
<g id="node2" class="node">
<title>Node2</title>
<g id="a_node2"><a xlink:href="../../d4/d44/clv_hd_e_m_g_8hpp.html" target="_top" xlink:title=" ">
<polygon fill="none" stroke="black" points="248.73,-168.5 248.73,-187.5 336.73,-187.5 336.73,-168.5 248.73,-168.5"/>
<text text-anchor="middle" x="292.73" y="-175.5" font-family="Helvetica,sans-Serif" font-size="10.00">clvHdEMG.hpp</text>
</a>
</g>
</g>
<!-- Node1&#45;&gt;Node2 -->
<g id="edge1" class="edge">
<title>Node1&#45;&gt;Node2</title>
<path fill="none" stroke="midnightblue" d="M292.73,-224.45C292.73,-215.73 292.73,-206.1 292.73,-197.96"/>
<polygon fill="midnightblue" stroke="midnightblue" points="296.23,-197.7 292.73,-187.7 289.23,-197.7 296.23,-197.7"/>
</g>
<!-- Node3 -->
<g id="node3" class="node">
<title>Node3</title>
<g id="a_node3"><a xlink:title=" ">
<polygon fill="none" stroke="#bfbfbf" points="23.23,-56.5 23.23,-75.5 70.23,-75.5 70.23,-56.5 23.23,-56.5"/>
<text text-anchor="middle" x="46.73" y="-63.5" font-family="Helvetica,sans-Serif" font-size="10.00">cmath</text>
</a>
</g>
</g>
<!-- Node2&#45;&gt;Node3 -->
<g id="edge2" class="edge">
<title>Node2&#45;&gt;Node3</title>
<path fill="none" stroke="midnightblue" d="M270.88,-168.36C248.77,-159.53 213.68,-145.28 183.73,-132 144.98,-114.82 100.78,-93.54 73.31,-80.11"/>
<polygon fill="midnightblue" stroke="midnightblue" points="74.85,-76.97 64.33,-75.71 71.77,-83.25 74.85,-76.97"/>
</g>
<!-- Node4 -->
<g id="node4" class="node">
<title>Node4</title>
<g id="a_node4"><a xlink:title=" ">
<polygon fill="none" stroke="#bfbfbf" points="88.73,-56.5 88.73,-75.5 138.73,-75.5 138.73,-56.5 88.73,-56.5"/>
<text text-anchor="middle" x="113.73" y="-63.5" font-family="Helvetica,sans-Serif" font-size="10.00">cstring</text>
</a>
</g>
</g>
<!-- Node2&#45;&gt;Node4 -->
<g id="edge3" class="edge">
<title>Node2&#45;&gt;Node4</title>
<path fill="none" stroke="midnightblue" d="M278.69,-168.37C247.84,-149.41 173.94,-104 136.42,-80.94"/>
<polygon fill="midnightblue" stroke="midnightblue" points="138.06,-77.85 127.71,-75.59 134.4,-83.81 138.06,-77.85"/>
</g>
<!-- Node5 -->
<g id="node5" class="node">
<title>Node5</title>
<g id="a_node5"><a xlink:title=" ">
<polygon fill="none" stroke="#bfbfbf" points="257.73,-0.5 257.73,-19.5 317.73,-19.5 317.73,-0.5 257.73,-0.5"/>
<text text-anchor="middle" x="287.73" y="-7.5" font-family="Helvetica,sans-Serif" font-size="10.00">iostream</text>
</a>
</g>
</g>
<!-- Node2&#45;&gt;Node5 -->
<g id="edge4" class="edge">
<title>Node2&#45;&gt;Node5</title>
<path fill="none" stroke="midnightblue" d="M248.71,-173.72C154.12,-165.07 -54.62,-136.49 13.73,-56 43.26,-21.22 178.92,-13.27 247.62,-11.49"/>
<polygon fill="midnightblue" stroke="midnightblue" points="247.73,-14.99 257.65,-11.26 247.57,-7.99 247.73,-14.99"/>
</g>
<!-- Node6 -->
<g id="node6" class="node">
<title>Node6</title>
<g id="a_node6"><a xlink:title=" ">
<polygon fill="none" stroke="#bfbfbf" points="156.73,-56.5 156.73,-75.5 200.73,-75.5 200.73,-56.5 156.73,-56.5"/>
<text text-anchor="middle" x="178.73" y="-63.5" font-family="Helvetica,sans-Serif" font-size="10.00">string</text>
</a>
</g>
</g>
<!-- Node2&#45;&gt;Node6 -->
<g id="edge5" class="edge">
<title>Node2&#45;&gt;Node6</title>
<path fill="none" stroke="midnightblue" d="M283.79,-168.37C264.64,-149.89 219.45,-106.29 195.05,-82.74"/>
<polygon fill="midnightblue" stroke="midnightblue" points="197.26,-80.02 187.63,-75.59 192.4,-85.05 197.26,-80.02"/>
</g>
<!-- Node7 -->
<g id="node7" class="node">
<title>Node7</title>
<g id="a_node7"><a xlink:title=" ">
<polygon fill="none" stroke="#bfbfbf" points="219.23,-56.5 219.23,-75.5 266.23,-75.5 266.23,-56.5 219.23,-56.5"/>
<text text-anchor="middle" x="242.73" y="-63.5" font-family="Helvetica,sans-Serif" font-size="10.00">vector</text>
</a>
</g>
</g>
<!-- Node2&#45;&gt;Node7 -->
<g id="edge6" class="edge">
<title>Node2&#45;&gt;Node7</title>
<path fill="none" stroke="midnightblue" d="M288.81,-168.37C280.67,-150.46 261.79,-108.92 250.89,-84.95"/>
<polygon fill="midnightblue" stroke="midnightblue" points="253.96,-83.25 246.64,-75.59 247.59,-86.14 253.96,-83.25"/>
</g>
<!-- Node8 -->
<g id="node8" class="node">
<title>Node8</title>
<g id="a_node8"><a xlink:href="../../d2/dcc/clv_hd_master_8hpp.html" target="_top" xlink:title=" ">
<polygon fill="none" stroke="black" points="306.73,-112.5 306.73,-131.5 404.73,-131.5 404.73,-112.5 306.73,-112.5"/>
<text text-anchor="middle" x="355.73" y="-119.5" font-family="Helvetica,sans-Serif" font-size="10.00">clvHdMaster.hpp</text>
</a>
</g>
</g>
<!-- Node2&#45;&gt;Node8 -->
<g id="edge7" class="edge">
<title>Node2&#45;&gt;Node8</title>
<path fill="none" stroke="midnightblue" d="M297.97,-168.08C305.78,-159.9 319.79,-147.63 332.17,-137.95"/>
<polygon fill="midnightblue" stroke="midnightblue" points="334.52,-140.57 340.39,-131.75 330.3,-134.98 334.52,-140.57"/>
</g>
<!-- Node14 -->
<g id="node14" class="node">
<title>Node14</title>
<g id="a_node14"><a xlink:title=" ">
<polygon fill="none" stroke="#bfbfbf" points="790.23,-56.5 790.23,-75.5 843.23,-75.5 843.23,-56.5 790.23,-56.5"/>
<text text-anchor="middle" x="816.73" y="-63.5" font-family="Helvetica,sans-Serif" font-size="10.00">stdint.h</text>
</a>
</g>
</g>
<!-- Node2&#45;&gt;Node14 -->
<g id="edge27" class="edge">
<title>Node2&#45;&gt;Node14</title>
<path fill="none" stroke="midnightblue" d="M317.52,-168.43C342.14,-159.77 380.85,-145.74 413.73,-132 433.18,-123.88 436.43,-117.68 456.73,-112 593.12,-73.81 636.2,-100.37 780.01,-75.86"/>
<polygon fill="midnightblue" stroke="midnightblue" points="780.84,-79.27 790.08,-74.09 779.63,-72.37 780.84,-79.27"/>
</g>
<!-- Node18 -->
<g id="node18" class="node">
<title>Node18</title>
<g id="a_node18"><a xlink:href="../../d5/d7f/registers_8hpp.html" target="_top" xlink:title=" ">
<polygon fill="none" stroke="black" points="861.73,-56.5 861.73,-75.5 941.73,-75.5 941.73,-56.5 861.73,-56.5"/>
<text text-anchor="middle" x="901.73" y="-63.5" font-family="Helvetica,sans-Serif" font-size="10.00">registers.hpp</text>
</a>
</g>
</g>
<!-- Node2&#45;&gt;Node18 -->
<g id="edge25" class="edge">
<title>Node2&#45;&gt;Node18</title>
<path fill="none" stroke="midnightblue" d="M328.59,-168.44C360.56,-160.38 408.41,-147.3 448.73,-132 468.06,-124.67 470.81,-117.55 490.73,-112 643.29,-69.49 690.7,-97.42 851.42,-76.05"/>
<polygon fill="midnightblue" stroke="midnightblue" points="852.23,-79.47 861.66,-74.64 851.28,-72.53 852.23,-79.47"/>
</g>
<!-- Node19 -->
<g id="node19" class="node">
<title>Node19</title>
<g id="a_node19"><a xlink:title=" ">
<polygon fill="none" stroke="#bfbfbf" points="499.23,-112.5 499.23,-131.5 590.23,-131.5 590.23,-112.5 499.23,-112.5"/>
<text text-anchor="middle" x="544.73" y="-119.5" font-family="Helvetica,sans-Serif" font-size="10.00">strANSIseq.hpp</text>
</a>
</g>
</g>
<!-- Node2&#45;&gt;Node19 -->
<g id="edge26" class="edge">
<title>Node2&#45;&gt;Node19</title>
<path fill="none" stroke="midnightblue" d="M332.66,-168.44C376.62,-159.02 447.36,-143.87 494.91,-133.68"/>
<polygon fill="midnightblue" stroke="midnightblue" points="495.94,-137.03 504.99,-131.52 494.48,-130.19 495.94,-137.03"/>
</g>
<!-- Node8&#45;&gt;Node2 -->
<g id="edge19" class="edge">
<title>Node8&#45;&gt;Node2</title>
<path fill="none" stroke="midnightblue" d="M350.57,-131.83C342.76,-140.03 328.66,-152.38 316.22,-162.1"/>
<polygon fill="midnightblue" stroke="midnightblue" points="313.84,-159.51 307.97,-168.32 318.06,-165.1 313.84,-159.51"/>
</g>
<!-- Node8&#45;&gt;Node3 -->
<g id="edge8" class="edge">
<title>Node8&#45;&gt;Node3</title>
<path fill="none" stroke="midnightblue" d="M306.58,-114.57C253.21,-107.23 165.31,-94.13 80.27,-75.92"/>
<polygon fill="midnightblue" stroke="midnightblue" points="80.97,-72.49 70.45,-73.79 79.48,-79.33 80.97,-72.49"/>
</g>
<!-- Node8&#45;&gt;Node4 -->
<g id="edge9" class="edge">
<title>Node8&#45;&gt;Node4</title>
<path fill="none" stroke="midnightblue" d="M313.37,-112.43C273.39,-104.2 211.53,-91.14 148.99,-76.22"/>
<polygon fill="midnightblue" stroke="midnightblue" points="149.49,-72.74 138.95,-73.81 147.86,-79.55 149.49,-72.74"/>
</g>
<!-- Node8&#45;&gt;Node5 -->
<g id="edge10" class="edge">
<title>Node8&#45;&gt;Node5</title>
<path fill="none" stroke="midnightblue" d="M345.6,-112.21C336.31,-103.71 322.67,-90.07 313.73,-76 304.48,-61.43 297.49,-43.02 293.1,-29.51"/>
<polygon fill="midnightblue" stroke="midnightblue" points="296.43,-28.43 290.14,-19.9 289.74,-30.49 296.43,-28.43"/>
</g>
<!-- Node8&#45;&gt;Node6 -->
<g id="edge11" class="edge">
<title>Node8&#45;&gt;Node6</title>
<path fill="none" stroke="midnightblue" d="M327.68,-112.44C295.79,-102.71 243.84,-86.86 210.49,-76.69"/>
<polygon fill="midnightblue" stroke="midnightblue" points="211.36,-73.3 200.77,-73.73 209.32,-79.99 211.36,-73.3"/>
</g>
<!-- Node8&#45;&gt;Node7 -->
<g id="edge12" class="edge">
<title>Node8&#45;&gt;Node7</title>
<path fill="none" stroke="midnightblue" d="M337.83,-112.44C319.48,-103.68 290.73,-89.94 269.64,-79.86"/>
<polygon fill="midnightblue" stroke="midnightblue" points="271.08,-76.67 260.55,-75.52 268.07,-82.99 271.08,-76.67"/>
</g>
<!-- Node9 -->
<g id="node9" class="node">
<title>Node9</title>
<g id="a_node9"><a xlink:title=" ">
<polygon fill="none" stroke="#bfbfbf" points="432.23,-56.5 432.23,-75.5 483.23,-75.5 483.23,-56.5 432.23,-56.5"/>
<text text-anchor="middle" x="457.73" y="-63.5" font-family="Helvetica,sans-Serif" font-size="10.00">errno.h</text>
</a>
</g>
</g>
<!-- Node8&#45;&gt;Node9 -->
<g id="edge13" class="edge">
<title>Node8&#45;&gt;Node9</title>
<path fill="none" stroke="midnightblue" d="M372.12,-112.32C388.4,-103.7 413.6,-90.36 432.45,-80.39"/>
<polygon fill="midnightblue" stroke="midnightblue" points="434.18,-83.43 441.38,-75.65 430.91,-77.24 434.18,-83.43"/>
</g>
<!-- Node10 -->
<g id="node10" class="node">
<title>Node10</title>
<g id="a_node10"><a xlink:title=" ">
<polygon fill="none" stroke="#bfbfbf" points="501.23,-56.5 501.23,-75.5 548.23,-75.5 548.23,-56.5 501.23,-56.5"/>
<text text-anchor="middle" x="524.73" y="-63.5" font-family="Helvetica,sans-Serif" font-size="10.00">fcntl.h</text>
</a>
</g>
</g>
<!-- Node8&#45;&gt;Node10 -->
<g id="edge14" class="edge">
<title>Node8&#45;&gt;Node10</title>
<path fill="none" stroke="midnightblue" d="M382.51,-112.44C411.99,-103.02 459.42,-87.87 491.31,-77.68"/>
<polygon fill="midnightblue" stroke="midnightblue" points="492.62,-80.94 501.08,-74.56 490.49,-74.27 492.62,-80.94"/>
</g>
<!-- Node11 -->
<g id="node11" class="node">
<title>Node11</title>
<g id="a_node11"><a xlink:title=" ">
<polygon fill="none" stroke="#bfbfbf" points="566.23,-56.5 566.23,-75.5 629.23,-75.5 629.23,-56.5 566.23,-56.5"/>
<text text-anchor="middle" x="597.73" y="-63.5" font-family="Helvetica,sans-Serif" font-size="10.00">termios.h</text>
</a>
</g>
</g>
<!-- Node8&#45;&gt;Node11 -->
<g id="edge15" class="edge">
<title>Node8&#45;&gt;Node11</title>
<path fill="none" stroke="midnightblue" d="M394.09,-112.48C432.66,-103.91 494.12,-90.23 555.93,-76.4"/>
<polygon fill="midnightblue" stroke="midnightblue" points="556.86,-79.78 565.86,-74.18 555.33,-72.95 556.86,-79.78"/>
</g>
<!-- Node12 -->
<g id="node12" class="node">
<title>Node12</title>
<g id="a_node12"><a xlink:title=" ">
<polygon fill="none" stroke="#bfbfbf" points="647.73,-56.5 647.73,-75.5 703.73,-75.5 703.73,-56.5 647.73,-56.5"/>
<text text-anchor="middle" x="675.73" y="-63.5" font-family="Helvetica,sans-Serif" font-size="10.00">unistd.h</text>
</a>
</g>
</g>
<!-- Node8&#45;&gt;Node12 -->
<g id="edge16" class="edge">
<title>Node8&#45;&gt;Node12</title>
<path fill="none" stroke="midnightblue" d="M405,-113.66C469.74,-103.93 580.99,-86.92 637.59,-76.07"/>
<polygon fill="midnightblue" stroke="midnightblue" points="638.37,-79.48 647.5,-74.12 637.01,-72.61 638.37,-79.48"/>
</g>
<!-- Node13 -->
<g id="node13" class="node">
<title>Node13</title>
<g id="a_node13"><a xlink:title=" ">
<polygon fill="none" stroke="#bfbfbf" points="721.73,-56.5 721.73,-75.5 771.73,-75.5 771.73,-56.5 721.73,-56.5"/>
<text text-anchor="middle" x="746.73" y="-63.5" font-family="Helvetica,sans-Serif" font-size="10.00">stdio.h</text>
</a>
</g>
</g>
<!-- Node8&#45;&gt;Node13 -->
<g id="edge17" class="edge">
<title>Node8&#45;&gt;Node13</title>
<path fill="none" stroke="midnightblue" d="M404.9,-113.88C409.57,-113.23 414.24,-112.6 418.73,-112 546.04,-95.11 581.74,-100.61 711.64,-75.98"/>
<polygon fill="midnightblue" stroke="midnightblue" points="712.41,-79.39 721.57,-74.07 711.09,-72.52 712.41,-79.39"/>
</g>
<!-- Node8&#45;&gt;Node14 -->
<g id="edge18" class="edge">
<title>Node8&#45;&gt;Node14</title>
<path fill="none" stroke="midnightblue" d="M404.88,-113.77C409.56,-113.15 414.23,-112.54 418.73,-112 575.95,-92.96 619.66,-103.24 779.87,-75.89"/>
<polygon fill="midnightblue" stroke="midnightblue" points="780.83,-79.27 790.09,-74.12 779.64,-72.38 780.83,-79.27"/>
</g>
<!-- Node15 -->
<g id="node15" class="node">
<title>Node15</title>
<g id="a_node15"><a xlink:href="../../dc/d13/com__client_8hpp.html" target="_top" xlink:title=" ">
<polygon fill="none" stroke="black" points="323.23,-56.5 323.23,-75.5 414.23,-75.5 414.23,-56.5 323.23,-56.5"/>
<text text-anchor="middle" x="368.73" y="-63.5" font-family="Helvetica,sans-Serif" font-size="10.00">com_client.hpp</text>
</a>
</g>
</g>
<!-- Node8&#45;&gt;Node15 -->
<g id="edge20" class="edge">
<title>Node8&#45;&gt;Node15</title>
<path fill="none" stroke="midnightblue" d="M357.88,-112.08C359.6,-104.93 362.08,-94.64 364.23,-85.69"/>
<polygon fill="midnightblue" stroke="midnightblue" points="367.69,-86.29 366.62,-75.75 360.88,-84.65 367.69,-86.29"/>
</g>
<!-- Node8&#45;&gt;Node18 -->
<g id="edge24" class="edge">
<title>Node8&#45;&gt;Node18</title>
<path fill="none" stroke="midnightblue" d="M404.83,-116.61C518.25,-106.47 792.7,-81.9 851.47,-75.81"/>
<polygon fill="midnightblue" stroke="midnightblue" points="852.12,-79.26 861.67,-74.67 851.34,-72.31 852.12,-79.26"/>
</g>
<!-- Node15&#45;&gt;Node5 -->
<g id="edge21" class="edge">
<title>Node15&#45;&gt;Node5</title>
<path fill="none" stroke="midnightblue" d="M355.72,-56.32C343.2,-47.98 324.05,-35.21 309.26,-25.35"/>
<polygon fill="midnightblue" stroke="midnightblue" points="310.97,-22.29 300.71,-19.65 307.09,-28.11 310.97,-22.29"/>
</g>
<!-- Node16 -->
<g id="node16" class="node">
<title>Node16</title>
<g id="a_node16"><a xlink:title=" ">
<polygon fill="none" stroke="#bfbfbf" points="419.73,-0.5 419.73,-19.5 467.73,-19.5 467.73,-0.5 419.73,-0.5"/>
<text text-anchor="middle" x="443.73" y="-7.5" font-family="Helvetica,sans-Serif" font-size="10.00">mutex</text>
</a>
</g>
</g>
<!-- Node15&#45;&gt;Node16 -->
<g id="edge22" class="edge">
<title>Node15&#45;&gt;Node16</title>
<path fill="none" stroke="midnightblue" d="M380.78,-56.32C392.19,-48.11 409.56,-35.6 423.17,-25.81"/>
<polygon fill="midnightblue" stroke="midnightblue" points="425.39,-28.52 431.46,-19.83 421.3,-22.84 425.39,-28.52"/>
</g>
<!-- Node17 -->
<g id="node17" class="node">
<title>Node17</title>
<g id="a_node17"><a xlink:title=" ">
<polygon fill="none" stroke="#bfbfbf" points="336.23,-0.5 336.23,-19.5 401.23,-19.5 401.23,-0.5 336.23,-0.5"/>
<text text-anchor="middle" x="368.73" y="-7.5" font-family="Helvetica,sans-Serif" font-size="10.00">stdexcept</text>
</a>
</g>
</g>
<!-- Node15&#45;&gt;Node17 -->
<g id="edge23" class="edge">
<title>Node15&#45;&gt;Node17</title>
<path fill="none" stroke="midnightblue" d="M368.73,-56.08C368.73,-49.01 368.73,-38.86 368.73,-29.99"/>
<polygon fill="midnightblue" stroke="midnightblue" points="372.23,-29.75 368.73,-19.75 365.23,-29.75 372.23,-29.75"/>
</g>
</g>
</svg>
