<?xml version="1.0" encoding="UTF-8" standalone="no"?>
<!DOCTYPE svg PUBLIC "-//W3C//DTD SVG 1.1//EN"
 "http://www.w3.org/Graphics/SVG/1.1/DTD/svg11.dtd">
<!-- Generated by graphviz version 2.43.0 (0)
 -->
<!-- Title: /home/aightech/dev/qt&#45;clvhd&#45;config/include/mainwindow.h Pages: 1 -->
<svg width="1002pt" height="218pt"
 viewBox="0.00 0.00 1001.50 218.00" xmlns="http://www.w3.org/2000/svg" xmlns:xlink="http://www.w3.org/1999/xlink">
<g id="graph0" class="graph" transform="scale(1 1) rotate(0) translate(4 214)">
<title>/home/aightech/dev/qt&#45;clvhd&#45;config/include/mainwindow.h</title>
<!-- Node1 -->
<g id="node1" class="node">
<title>Node1</title>
<g id="a_node1"><a xlink:title=" ">
<polygon fill="#bfbfbf" stroke="black" points="623.5,-168.5 623.5,-209.5 754.5,-209.5 754.5,-168.5 623.5,-168.5"/>
<text text-anchor="start" x="631.5" y="-197.5" font-family="Helvetica,sans-Serif" font-size="10.00">/home/aightech/dev</text>
<text text-anchor="start" x="631.5" y="-186.5" font-family="Helvetica,sans-Serif" font-size="10.00">/qt&#45;clvhd&#45;config/include</text>
<text text-anchor="middle" x="689" y="-175.5" font-family="Helvetica,sans-Serif" font-size="10.00">/mainwindow.h</text>
</a>
</g>
</g>
<!-- Node2 -->
<g id="node2" class="node">
<title>Node2</title>
<g id="a_node2"><a xlink:title=" ">
<polygon fill="none" stroke="#bfbfbf" points="268,-112.5 268,-131.5 348,-131.5 348,-112.5 268,-112.5"/>
<text text-anchor="middle" x="308" y="-119.5" font-family="Helvetica,sans-Serif" font-size="10.00">qboxlayout.h</text>
</a>
</g>
</g>
<!-- Node1&#45;&gt;Node2 -->
<g id="edge1" class="edge">
<title>Node1&#45;&gt;Node2</title>
<path fill="none" stroke="midnightblue" d="M623.44,-177.23C558.66,-166.52 456.46,-149.46 358.21,-132.19"/>
<polygon fill="midnightblue" stroke="midnightblue" points="358.56,-128.7 348.1,-130.41 357.34,-135.6 358.56,-128.7"/>
</g>
<!-- Node3 -->
<g id="node3" class="node">
<title>Node3</title>
<g id="a_node3"><a xlink:title=" ">
<polygon fill="none" stroke="#bfbfbf" points="366.5,-112.5 366.5,-131.5 453.5,-131.5 453.5,-112.5 366.5,-112.5"/>
<text text-anchor="middle" x="410" y="-119.5" font-family="Helvetica,sans-Serif" font-size="10.00">QMainWindow</text>
</a>
</g>
</g>
<!-- Node1&#45;&gt;Node3 -->
<g id="edge2" class="edge">
<title>Node1&#45;&gt;Node3</title>
<path fill="none" stroke="midnightblue" d="M623.23,-172.68C572.01,-160.74 502.17,-144.47 456.6,-133.86"/>
<polygon fill="midnightblue" stroke="midnightblue" points="457.22,-130.41 446.69,-131.55 455.64,-137.23 457.22,-130.41"/>
</g>
<!-- Node4 -->
<g id="node4" class="node">
<title>Node4</title>
<g id="a_node4"><a xlink:href="../../d2/dcc/clv_hd_master_8hpp.html" target="_top" xlink:title=" ">
<polygon fill="none" stroke="black" points="472,-112.5 472,-131.5 570,-131.5 570,-112.5 472,-112.5"/>
<text text-anchor="middle" x="521" y="-119.5" font-family="Helvetica,sans-Serif" font-size="10.00">clvHdMaster.hpp</text>
</a>
</g>
</g>
<!-- Node1&#45;&gt;Node4 -->
<g id="edge3" class="edge">
<title>Node1&#45;&gt;Node4</title>
<path fill="none" stroke="midnightblue" d="M638.59,-168.5C610.73,-157.72 576.96,-144.65 552.78,-135.29"/>
<polygon fill="midnightblue" stroke="midnightblue" points="553.95,-132 543.36,-131.65 551.43,-138.53 553.95,-132"/>
</g>
<!-- Node22 -->
<g id="node22" class="node">
<title>Node22</title>
<g id="a_node22"><a xlink:title=" ">
<polygon fill="none" stroke="#bfbfbf" points="588.5,-112.5 588.5,-131.5 689.5,-131.5 689.5,-112.5 588.5,-112.5"/>
<text text-anchor="middle" x="639" y="-119.5" font-family="Helvetica,sans-Serif" font-size="10.00">QTreeWidgetItem</text>
</a>
</g>
</g>
<!-- Node1&#45;&gt;Node22 -->
<g id="edge30" class="edge">
<title>Node1&#45;&gt;Node22</title>
<path fill="none" stroke="midnightblue" d="M674,-168.5C666.92,-159.3 658.57,-148.44 651.79,-139.63"/>
<polygon fill="midnightblue" stroke="midnightblue" points="654.53,-137.44 645.66,-131.65 648.98,-141.71 654.53,-137.44"/>
</g>
<!-- Node23 -->
<g id="node23" class="node">
<title>Node23</title>
<g id="a_node23"><a xlink:title=" ">
<polygon fill="none" stroke="#bfbfbf" points="708,-112.5 708,-131.5 772,-131.5 772,-112.5 708,-112.5"/>
<text text-anchor="middle" x="740" y="-119.5" font-family="Helvetica,sans-Serif" font-size="10.00">QSettings</text>
</a>
</g>
</g>
<!-- Node1&#45;&gt;Node23 -->
<g id="edge31" class="edge">
<title>Node1&#45;&gt;Node23</title>
<path fill="none" stroke="midnightblue" d="M704.3,-168.5C711.52,-159.3 720.04,-148.44 726.95,-139.63"/>
<polygon fill="midnightblue" stroke="midnightblue" points="729.79,-141.68 733.21,-131.65 724.28,-137.36 729.79,-141.68"/>
</g>
<!-- Node24 -->
<g id="node24" class="node">
<title>Node24</title>
<g id="a_node24"><a xlink:title=" ">
<polygon fill="none" stroke="#bfbfbf" points="790.5,-112.5 790.5,-131.5 853.5,-131.5 853.5,-112.5 790.5,-112.5"/>
<text text-anchor="middle" x="822" y="-119.5" font-family="Helvetica,sans-Serif" font-size="10.00">pthread.h</text>
</a>
</g>
</g>
<!-- Node1&#45;&gt;Node24 -->
<g id="edge32" class="edge">
<title>Node1&#45;&gt;Node24</title>
<path fill="none" stroke="midnightblue" d="M728.9,-168.5C750.37,-158.01 776.27,-145.35 795.3,-136.05"/>
<polygon fill="midnightblue" stroke="midnightblue" points="796.85,-139.19 804.3,-131.65 793.77,-132.9 796.85,-139.19"/>
</g>
<!-- Node25 -->
<g id="node25" class="node">
<title>Node25</title>
<g id="a_node25"><a xlink:title=" ">
<polygon fill="none" stroke="#bfbfbf" points="871.5,-112.5 871.5,-131.5 930.5,-131.5 930.5,-112.5 871.5,-112.5"/>
<text text-anchor="middle" x="901" y="-119.5" font-family="Helvetica,sans-Serif" font-size="10.00">lsl_cpp.h</text>
</a>
</g>
</g>
<!-- Node1&#45;&gt;Node25 -->
<g id="edge33" class="edge">
<title>Node1&#45;&gt;Node25</title>
<path fill="none" stroke="midnightblue" d="M752.61,-168.5C788.66,-157.44 832.54,-143.99 863.2,-134.59"/>
<polygon fill="midnightblue" stroke="midnightblue" points="864.52,-137.84 873.06,-131.57 862.47,-131.15 864.52,-137.84"/>
</g>
<!-- Node26 -->
<g id="node26" class="node">
<title>Node26</title>
<g id="a_node26"><a xlink:title=" ">
<polygon fill="none" stroke="#bfbfbf" points="948.5,-112.5 948.5,-131.5 993.5,-131.5 993.5,-112.5 948.5,-112.5"/>
<text text-anchor="middle" x="971" y="-119.5" font-family="Helvetica,sans-Serif" font-size="10.00">utility</text>
</a>
</g>
</g>
<!-- Node1&#45;&gt;Node26 -->
<g id="edge34" class="edge">
<title>Node1&#45;&gt;Node26</title>
<path fill="none" stroke="midnightblue" d="M754.54,-174.56C802.96,-164.36 870.69,-149.52 938.37,-132.31"/>
<polygon fill="midnightblue" stroke="midnightblue" points="939.54,-135.62 948.36,-129.75 937.8,-128.84 939.54,-135.62"/>
</g>
<!-- Node5 -->
<g id="node5" class="node">
<title>Node5</title>
<g id="a_node5"><a xlink:title=" ">
<polygon fill="none" stroke="#bfbfbf" points="228.5,-0.5 228.5,-19.5 275.5,-19.5 275.5,-0.5 228.5,-0.5"/>
<text text-anchor="middle" x="252" y="-7.5" font-family="Helvetica,sans-Serif" font-size="10.00">cmath</text>
</a>
</g>
</g>
<!-- Node4&#45;&gt;Node5 -->
<g id="edge4" class="edge">
<title>Node4&#45;&gt;Node5</title>
<path fill="none" stroke="midnightblue" d="M476.03,-112.46C442.15,-105.15 395.04,-93.08 356,-76 324.56,-62.25 291.49,-40.05 271.3,-25.49"/>
<polygon fill="midnightblue" stroke="midnightblue" points="273.37,-22.67 263.23,-19.58 269.23,-28.31 273.37,-22.67"/>
</g>
<!-- Node6 -->
<g id="node6" class="node">
<title>Node6</title>
<g id="a_node6"><a xlink:title=" ">
<polygon fill="none" stroke="#bfbfbf" points="294,-0.5 294,-19.5 344,-19.5 344,-0.5 294,-0.5"/>
<text text-anchor="middle" x="319" y="-7.5" font-family="Helvetica,sans-Serif" font-size="10.00">cstring</text>
</a>
</g>
</g>
<!-- Node4&#45;&gt;Node6 -->
<g id="edge5" class="edge">
<title>Node4&#45;&gt;Node6</title>
<path fill="none" stroke="midnightblue" d="M477.67,-112.5C449.27,-105.61 412.14,-94.04 383,-76 362.48,-63.3 343.71,-42.69 331.88,-28.09"/>
<polygon fill="midnightblue" stroke="midnightblue" points="334.38,-25.6 325.46,-19.89 328.88,-29.92 334.38,-25.6"/>
</g>
<!-- Node7 -->
<g id="node7" class="node">
<title>Node7</title>
<g id="a_node7"><a xlink:title=" ">
<polygon fill="none" stroke="#bfbfbf" points="150,-0.5 150,-19.5 210,-19.5 210,-0.5 150,-0.5"/>
<text text-anchor="middle" x="180" y="-7.5" font-family="Helvetica,sans-Serif" font-size="10.00">iostream</text>
</a>
</g>
</g>
<!-- Node4&#45;&gt;Node7 -->
<g id="edge6" class="edge">
<title>Node4&#45;&gt;Node7</title>
<path fill="none" stroke="midnightblue" d="M471.93,-113.38C430.07,-106.13 368.64,-93.69 317,-76 275.97,-61.94 231,-39.05 204.16,-24.53"/>
<polygon fill="midnightblue" stroke="midnightblue" points="205.59,-21.32 195.14,-19.58 202.23,-27.46 205.59,-21.32"/>
</g>
<!-- Node8 -->
<g id="node8" class="node">
<title>Node8</title>
<g id="a_node8"><a xlink:title=" ">
<polygon fill="none" stroke="#bfbfbf" points="362,-0.5 362,-19.5 406,-19.5 406,-0.5 362,-0.5"/>
<text text-anchor="middle" x="384" y="-7.5" font-family="Helvetica,sans-Serif" font-size="10.00">string</text>
</a>
</g>
</g>
<!-- Node4&#45;&gt;Node8 -->
<g id="edge7" class="edge">
<title>Node4&#45;&gt;Node8</title>
<path fill="none" stroke="midnightblue" d="M485.56,-112.45C452.93,-103.86 407.83,-89.93 396,-76 385.22,-63.3 382.81,-44.1 382.74,-29.85"/>
<polygon fill="midnightblue" stroke="midnightblue" points="386.24,-29.82 383.07,-19.71 379.24,-29.59 386.24,-29.82"/>
</g>
<!-- Node9 -->
<g id="node9" class="node">
<title>Node9</title>
<g id="a_node9"><a xlink:title=" ">
<polygon fill="none" stroke="#bfbfbf" points="533.5,-0.5 533.5,-19.5 580.5,-19.5 580.5,-0.5 533.5,-0.5"/>
<text text-anchor="middle" x="557" y="-7.5" font-family="Helvetica,sans-Serif" font-size="10.00">vector</text>
</a>
</g>
</g>
<!-- Node4&#45;&gt;Node9 -->
<g id="edge8" class="edge">
<title>Node4&#45;&gt;Node9</title>
<path fill="none" stroke="midnightblue" d="M523.82,-112.37C529.66,-94.54 543.16,-53.3 551.02,-29.27"/>
<polygon fill="midnightblue" stroke="midnightblue" points="554.4,-30.18 554.19,-19.59 547.75,-28.01 554.4,-30.18"/>
</g>
<!-- Node10 -->
<g id="node10" class="node">
<title>Node10</title>
<g id="a_node10"><a xlink:title=" ">
<polygon fill="none" stroke="#bfbfbf" points="625.5,-56.5 625.5,-75.5 676.5,-75.5 676.5,-56.5 625.5,-56.5"/>
<text text-anchor="middle" x="651" y="-63.5" font-family="Helvetica,sans-Serif" font-size="10.00">errno.h</text>
</a>
</g>
</g>
<!-- Node4&#45;&gt;Node10 -->
<g id="edge9" class="edge">
<title>Node4&#45;&gt;Node10</title>
<path fill="none" stroke="midnightblue" d="M541.6,-112.44C562.99,-103.56 596.68,-89.56 621.02,-79.45"/>
<polygon fill="midnightblue" stroke="midnightblue" points="622.61,-82.58 630.5,-75.52 619.92,-76.12 622.61,-82.58"/>
</g>
<!-- Node11 -->
<g id="node11" class="node">
<title>Node11</title>
<g id="a_node11"><a xlink:title=" ">
<polygon fill="none" stroke="#bfbfbf" points="694.5,-56.5 694.5,-75.5 741.5,-75.5 741.5,-56.5 694.5,-56.5"/>
<text text-anchor="middle" x="718" y="-63.5" font-family="Helvetica,sans-Serif" font-size="10.00">fcntl.h</text>
</a>
</g>
</g>
<!-- Node4&#45;&gt;Node11 -->
<g id="edge10" class="edge">
<title>Node4&#45;&gt;Node11</title>
<path fill="none" stroke="midnightblue" d="M552.65,-112.45C583.87,-103.99 633.21,-90.59 684.34,-76.45"/>
<polygon fill="midnightblue" stroke="midnightblue" points="685.54,-79.75 694.24,-73.7 683.67,-73 685.54,-79.75"/>
</g>
<!-- Node12 -->
<g id="node12" class="node">
<title>Node12</title>
<g id="a_node12"><a xlink:title=" ">
<polygon fill="none" stroke="#bfbfbf" points="759.5,-56.5 759.5,-75.5 822.5,-75.5 822.5,-56.5 759.5,-56.5"/>
<text text-anchor="middle" x="791" y="-63.5" font-family="Helvetica,sans-Serif" font-size="10.00">termios.h</text>
</a>
</g>
</g>
<!-- Node4&#45;&gt;Node12 -->
<g id="edge11" class="edge">
<title>Node4&#45;&gt;Node12</title>
<path fill="none" stroke="midnightblue" d="M566.46,-112.5C610.74,-104.13 680.2,-90.76 749,-76.38"/>
<polygon fill="midnightblue" stroke="midnightblue" points="750.07,-79.73 759.14,-74.25 748.64,-72.88 750.07,-79.73"/>
</g>
<!-- Node13 -->
<g id="node13" class="node">
<title>Node13</title>
<g id="a_node13"><a xlink:title=" ">
<polygon fill="none" stroke="#bfbfbf" points="841,-56.5 841,-75.5 897,-75.5 897,-56.5 841,-56.5"/>
<text text-anchor="middle" x="869" y="-63.5" font-family="Helvetica,sans-Serif" font-size="10.00">unistd.h</text>
</a>
</g>
</g>
<!-- Node4&#45;&gt;Node13 -->
<g id="edge12" class="edge">
<title>Node4&#45;&gt;Node13</title>
<path fill="none" stroke="midnightblue" d="M570.25,-113.45C573.55,-112.96 576.82,-112.47 580,-112 688.75,-95.94 719.2,-97.3 830.81,-76.08"/>
<polygon fill="midnightblue" stroke="midnightblue" points="831.62,-79.49 840.78,-74.16 830.3,-72.61 831.62,-79.49"/>
</g>
<!-- Node14 -->
<g id="node14" class="node">
<title>Node14</title>
<g id="a_node14"><a xlink:title=" ">
<polygon fill="none" stroke="#bfbfbf" points="915,-56.5 915,-75.5 965,-75.5 965,-56.5 915,-56.5"/>
<text text-anchor="middle" x="940" y="-63.5" font-family="Helvetica,sans-Serif" font-size="10.00">stdio.h</text>
</a>
</g>
</g>
<!-- Node4&#45;&gt;Node14 -->
<g id="edge13" class="edge">
<title>Node4&#45;&gt;Node14</title>
<path fill="none" stroke="midnightblue" d="M570.23,-113.33C573.54,-112.87 576.82,-112.42 580,-112 721.28,-93.43 760.93,-102.3 904.76,-75.98"/>
<polygon fill="midnightblue" stroke="midnightblue" points="905.65,-79.37 914.84,-74.11 904.37,-72.49 905.65,-79.37"/>
</g>
<!-- Node15 -->
<g id="node15" class="node">
<title>Node15</title>
<g id="a_node15"><a xlink:title=" ">
<polygon fill="none" stroke="#bfbfbf" points="598.5,-0.5 598.5,-19.5 651.5,-19.5 651.5,-0.5 598.5,-0.5"/>
<text text-anchor="middle" x="625" y="-7.5" font-family="Helvetica,sans-Serif" font-size="10.00">stdint.h</text>
</a>
</g>
</g>
<!-- Node4&#45;&gt;Node15 -->
<g id="edge14" class="edge">
<title>Node4&#45;&gt;Node15</title>
<path fill="none" stroke="midnightblue" d="M529.16,-112.37C546.55,-93.97 587.49,-50.67 609.82,-27.05"/>
<polygon fill="midnightblue" stroke="midnightblue" points="612.55,-29.26 616.88,-19.59 607.46,-24.45 612.55,-29.26"/>
</g>
<!-- Node16 -->
<g id="node16" class="node">
<title>Node16</title>
<g id="a_node16"><a xlink:href="../../d4/d44/clv_hd_e_m_g_8hpp.html" target="_top" xlink:title=" ">
<polygon fill="none" stroke="black" points="405,-56.5 405,-75.5 493,-75.5 493,-56.5 405,-56.5"/>
<text text-anchor="middle" x="449" y="-63.5" font-family="Helvetica,sans-Serif" font-size="10.00">clvHdEMG.hpp</text>
</a>
</g>
</g>
<!-- Node4&#45;&gt;Node16 -->
<g id="edge15" class="edge">
<title>Node4&#45;&gt;Node16</title>
<path fill="none" stroke="midnightblue" d="M504.32,-112.32C491.82,-104.26 475.23,-92.08 463.33,-82.37"/>
<polygon fill="midnightblue" stroke="midnightblue" points="465.52,-79.63 455.63,-75.83 460.99,-84.97 465.52,-79.63"/>
</g>
<!-- Node17 -->
<g id="node17" class="node">
<title>Node17</title>
<g id="a_node17"><a xlink:href="../../d5/d7f/registers_8hpp.html" target="_top" xlink:title=" ">
<polygon fill="none" stroke="black" points="670,-0.5 670,-19.5 750,-19.5 750,-0.5 670,-0.5"/>
<text text-anchor="middle" x="710" y="-7.5" font-family="Helvetica,sans-Serif" font-size="10.00">registers.hpp</text>
</a>
</g>
</g>
<!-- Node4&#45;&gt;Node17 -->
<g id="edge29" class="edge">
<title>Node4&#45;&gt;Node17</title>
<path fill="none" stroke="midnightblue" d="M532.47,-112.43C550.13,-99.43 585.26,-74.29 617,-56 637.91,-43.95 662.53,-32.13 681.18,-23.64"/>
<polygon fill="midnightblue" stroke="midnightblue" points="682.66,-26.81 690.34,-19.51 679.79,-20.43 682.66,-26.81"/>
</g>
<!-- Node19 -->
<g id="node19" class="node">
<title>Node19</title>
<g id="a_node19"><a xlink:href="../../dc/d13/com__client_8hpp.html" target="_top" xlink:title=" ">
<polygon fill="none" stroke="black" points="81.5,-56.5 81.5,-75.5 172.5,-75.5 172.5,-56.5 81.5,-56.5"/>
<text text-anchor="middle" x="127" y="-63.5" font-family="Helvetica,sans-Serif" font-size="10.00">com_client.hpp</text>
</a>
</g>
</g>
<!-- Node4&#45;&gt;Node19 -->
<g id="edge25" class="edge">
<title>Node4&#45;&gt;Node19</title>
<path fill="none" stroke="midnightblue" d="M471.76,-113.41C468.45,-112.93 465.18,-112.45 462,-112 341.28,-94.8 310.8,-92.62 190,-76 187.65,-75.68 185.24,-75.34 182.81,-75"/>
<polygon fill="midnightblue" stroke="midnightblue" points="183.15,-71.52 172.76,-73.59 182.17,-78.45 183.15,-71.52"/>
</g>
<!-- Node16&#45;&gt;Node4 -->
<g id="edge21" class="edge">
<title>Node16&#45;&gt;Node4</title>
<path fill="none" stroke="midnightblue" d="M465.65,-75.65C478.21,-83.76 494.93,-96.04 506.85,-105.78"/>
<polygon fill="midnightblue" stroke="midnightblue" points="504.66,-108.51 514.55,-112.32 509.2,-103.18 504.66,-108.51"/>
</g>
<!-- Node16&#45;&gt;Node5 -->
<g id="edge16" class="edge">
<title>Node16&#45;&gt;Node5</title>
<path fill="none" stroke="midnightblue" d="M417.78,-56.44C381.69,-46.55 322.49,-30.32 285.47,-20.17"/>
<polygon fill="midnightblue" stroke="midnightblue" points="286.22,-16.75 275.65,-17.48 284.37,-23.5 286.22,-16.75"/>
</g>
<!-- Node16&#45;&gt;Node6 -->
<g id="edge17" class="edge">
<title>Node16&#45;&gt;Node6</title>
<path fill="none" stroke="midnightblue" d="M428.4,-56.44C407.01,-47.56 373.32,-33.56 348.98,-23.45"/>
<polygon fill="midnightblue" stroke="midnightblue" points="350.08,-20.12 339.5,-19.52 347.39,-26.58 350.08,-20.12"/>
</g>
<!-- Node16&#45;&gt;Node7 -->
<g id="edge18" class="edge">
<title>Node16&#45;&gt;Node7</title>
<path fill="none" stroke="midnightblue" d="M404.82,-56.81C360.53,-48.5 290.14,-35.02 220.09,-20.18"/>
<polygon fill="midnightblue" stroke="midnightblue" points="220.72,-16.74 210.21,-18.08 219.26,-23.58 220.72,-16.74"/>
</g>
<!-- Node16&#45;&gt;Node8 -->
<g id="edge19" class="edge">
<title>Node16&#45;&gt;Node8</title>
<path fill="none" stroke="midnightblue" d="M438.56,-56.32C428.85,-48.26 414.18,-36.08 402.5,-26.37"/>
<polygon fill="midnightblue" stroke="midnightblue" points="404.56,-23.53 394.63,-19.83 400.09,-28.92 404.56,-23.53"/>
</g>
<!-- Node16&#45;&gt;Node9 -->
<g id="edge20" class="edge">
<title>Node16&#45;&gt;Node9</title>
<path fill="none" stroke="midnightblue" d="M466.35,-56.32C483.67,-47.66 510.52,-34.24 530.5,-24.25"/>
<polygon fill="midnightblue" stroke="midnightblue" points="532.31,-27.26 539.69,-19.65 529.18,-21 532.31,-27.26"/>
</g>
<!-- Node16&#45;&gt;Node15 -->
<g id="edge24" class="edge">
<title>Node16&#45;&gt;Node15</title>
<path fill="none" stroke="midnightblue" d="M476.89,-56.44C507.11,-47.17 555.44,-32.34 588.62,-22.16"/>
<polygon fill="midnightblue" stroke="midnightblue" points="589.86,-25.44 598.39,-19.16 587.81,-18.75 589.86,-25.44"/>
</g>
<!-- Node16&#45;&gt;Node17 -->
<g id="edge22" class="edge">
<title>Node16&#45;&gt;Node17</title>
<path fill="none" stroke="midnightblue" d="M490.36,-56.44C536.35,-46.93 610.63,-31.56 659.89,-21.37"/>
<polygon fill="midnightblue" stroke="midnightblue" points="660.61,-24.79 669.69,-19.34 659.19,-17.94 660.61,-24.79"/>
</g>
<!-- Node18 -->
<g id="node18" class="node">
<title>Node18</title>
<g id="a_node18"><a xlink:title=" ">
<polygon fill="none" stroke="#bfbfbf" points="424.5,-0.5 424.5,-19.5 515.5,-19.5 515.5,-0.5 424.5,-0.5"/>
<text text-anchor="middle" x="470" y="-7.5" font-family="Helvetica,sans-Serif" font-size="10.00">strANSIseq.hpp</text>
</a>
</g>
</g>
<!-- Node16&#45;&gt;Node18 -->
<g id="edge23" class="edge">
<title>Node16&#45;&gt;Node18</title>
<path fill="none" stroke="midnightblue" d="M452.47,-56.08C455.31,-48.77 459.43,-38.18 462.96,-29.1"/>
<polygon fill="midnightblue" stroke="midnightblue" points="466.23,-30.34 466.6,-19.75 459.71,-27.8 466.23,-30.34"/>
</g>
<!-- Node19&#45;&gt;Node7 -->
<g id="edge26" class="edge">
<title>Node19&#45;&gt;Node7</title>
<path fill="none" stroke="midnightblue" d="M135.75,-56.08C143.47,-48.22 154.9,-36.57 164.22,-27.08"/>
<polygon fill="midnightblue" stroke="midnightblue" points="166.9,-29.34 171.41,-19.75 161.91,-24.44 166.9,-29.34"/>
</g>
<!-- Node20 -->
<g id="node20" class="node">
<title>Node20</title>
<g id="a_node20"><a xlink:title=" ">
<polygon fill="none" stroke="#bfbfbf" points="0,-0.5 0,-19.5 48,-19.5 48,-0.5 0,-0.5"/>
<text text-anchor="middle" x="24" y="-7.5" font-family="Helvetica,sans-Serif" font-size="10.00">mutex</text>
</a>
</g>
</g>
<!-- Node19&#45;&gt;Node20 -->
<g id="edge27" class="edge">
<title>Node19&#45;&gt;Node20</title>
<path fill="none" stroke="midnightblue" d="M110.45,-56.32C94.01,-47.7 68.57,-34.36 49.53,-24.39"/>
<polygon fill="midnightblue" stroke="midnightblue" points="50.99,-21.2 40.51,-19.65 47.74,-27.4 50.99,-21.2"/>
</g>
<!-- Node21 -->
<g id="node21" class="node">
<title>Node21</title>
<g id="a_node21"><a xlink:title=" ">
<polygon fill="none" stroke="#bfbfbf" points="66.5,-0.5 66.5,-19.5 131.5,-19.5 131.5,-0.5 66.5,-0.5"/>
<text text-anchor="middle" x="99" y="-7.5" font-family="Helvetica,sans-Serif" font-size="10.00">stdexcept</text>
</a>
</g>
</g>
<!-- Node19&#45;&gt;Node21 -->
<g id="edge28" class="edge">
<title>Node19&#45;&gt;Node21</title>
<path fill="none" stroke="midnightblue" d="M122.38,-56.08C118.54,-48.69 112.98,-37.95 108.24,-28.81"/>
<polygon fill="midnightblue" stroke="midnightblue" points="111.25,-27.02 103.54,-19.75 105.03,-30.24 111.25,-27.02"/>
</g>
</g>
</svg>
